<svg id="Layer_1" data-name="Layer 1" xmlns="http://www.w3.org/2000/svg" xmlns:xlink="http://www.w3.org/1999/xlink" viewBox="0 0 500 500"><defs><style>.cls-1{fill:none;}.cls-2{opacity:0.1;}.cls-3{fill:#fff;}.cls-4{clip-path:url(#clip-path);}</style><clipPath id="clip-path"><rect class="cls-1" y="520" width="500" height="500"/></clipPath></defs><title>btn-retour</title><path class="cls-2" d="M35.27-261.4V-73.83A15.72,15.72,0,0,0,45.05-59.3l156,62.4h0l.28.13a15.51,15.51,0,0,0,11.6,0l.28-.13h0L363.51-57,514,3.19a15.69,15.69,0,0,0,5.82,1.13,15.53,15.53,0,0,0,8.75-2.69,15.67,15.67,0,0,0,6.88-12.94V-292.66a15.65,15.65,0,0,0-9.82-14.51l-156-62.43h0l-.28-.09a15.51,15.51,0,0,0-11.6,0l-.25.09h0l-93.57,37.45a15.63,15.63,0,0,0-8.72,20.32,15.69,15.69,0,0,0,20.32,8.73l72.43-29V-84.43l-125,50V-198.88a15.64,15.64,0,0,0-15.63-15.63,15.64,15.64,0,0,0-15.64,15.63v164.5l-125-50v-177A15.63,15.63,0,0,0,50.9-277,15.63,15.63,0,0,0,35.27-261.4Zm343.87-70.71,125.05,50V-34.41l-125-50ZM97.79-386.45a47,47,0,0,0,46.89,46.9,47,47,0,0,0,46.89-46.9,46.94,46.94,0,0,0-46.89-46.89A47,47,0,0,0,97.79-386.45Zm31.26,0a15.64,15.64,0,0,1,15.63-15.63,15.64,15.64,0,0,1,15.63,15.63,15.63,15.63,0,0,1-15.63,15.63A15.63,15.63,0,0,1,129.05-386.45Zm-93.78,0c0,56.15,87.78,155.59,97.78,166.75a15.72,15.72,0,0,0,11.63,5.19,15.72,15.72,0,0,0,11.63-5.19c10-11.16,97.79-110.6,97.79-166.75A109.53,109.53,0,0,0,144.68-495.86,109.53,109.53,0,0,0,35.27-386.45Zm31.26,0a78.26,78.26,0,0,1,78.15-78.15,78.27,78.27,0,0,1,78.16,78.15c0,29.83-44,92-78.16,132.46C110.55-294.48,66.53-356.65,66.53-386.45Z"/><path class="cls-3" d="M364.12,500a26.45,26.45,0,0,1-18.55-7.57L117.33,268.94a26.51,26.51,0,0,1,0-37.88L345.57,7.57a26.51,26.51,0,1,1,37.1,37.88L173.77,250l208.9,204.55A26.51,26.51,0,0,1,364.12,500Z"/><g class="cls-4"><path class="cls-2" d="M533.68,519.05a31.31,31.31,0,0,0-31.28-31.27H472.8V410.09a31.29,31.29,0,0,0-31.28-31.27H82.21a31.31,31.31,0,0,0-31.28,31.27v356.8A31.31,31.31,0,0,0,82.2,798.17h29.61v77.68a31.31,31.31,0,0,0,31.27,31.28H502.4a31.31,31.31,0,0,0,31.28-31.28Zm-20.86,356.8a10.43,10.43,0,0,1-10.42,10.42H143.09a10.43,10.43,0,0,1-10.43-10.42V519.05a10.49,10.49,0,0,1,10.43-10.42H502.4a10.44,10.44,0,0,1,10.43,10.42ZM413.9,399.67l-278.12,89a31.2,31.2,0,0,0-24,30.4V777.31H82.21a10.43,10.43,0,0,1-10.43-10.42V410.09a10.44,10.44,0,0,1,10.43-10.42Zm-207,88.11,245-78.38q0,.35,0,.69v77.69ZM290.7,716H182a20.18,20.18,0,0,0-20.16,20.16V836.92A20.18,20.18,0,0,0,182,857.08H290.7a20.19,20.19,0,0,0,20.16-20.16V736.18A20.18,20.18,0,0,0,290.7,716Zm-.7,120.2H182.71V736.87H290Zm20.86-275.28a20.19,20.19,0,0,0-20.16-20.16H182a20.18,20.18,0,0,0-20.16,20.16V661.69A20.18,20.18,0,0,0,182,681.85H290.7a20.19,20.19,0,0,0,20.16-20.16ZM290,661H182.71V561.64H290Zm183.2-79.81H344.35a10.43,10.43,0,0,0,0,20.86H473.2a10.43,10.43,0,0,0,0-20.86ZM344.35,641.45h48.2a10.43,10.43,0,0,0,0-20.86h-48.2a10.43,10.43,0,0,0,0,20.86ZM483.63,766.84a10.43,10.43,0,0,0-10.43-10.43H344.35a10.43,10.43,0,0,0,0,20.86H473.2A10.43,10.43,0,0,0,483.63,766.84Zm-139.28,29a10.43,10.43,0,0,0,0,20.86h48.2a10.43,10.43,0,0,0,0-20.86Z"/></g></svg>