<svg id="Layer_1" data-name="Layer 1" xmlns="http://www.w3.org/2000/svg" viewBox="0 0 500 500"><defs><style>.cls-1{fill:#344e41;}</style></defs><title>client-control-btn-marchands</title><path class="cls-1" d="M250,202.15a85,85,0,1,0-85-85A85.05,85.05,0,0,0,250,202.15Zm0-140.63a55.67,55.67,0,1,1-55.66,55.67A55.73,55.73,0,0,1,250,61.52ZM421.87,202.15a53.71,53.71,0,1,0-53.71-53.71A53.77,53.77,0,0,0,421.87,202.15Zm0-78.13a24.42,24.42,0,1,1-24.41,24.42A24.45,24.45,0,0,1,421.87,124Zm11.82,111.33H411a66.41,66.41,0,0,0-60.24,38.43,117.91,117.91,0,0,0-87.14-38.43h-27.3a117.91,117.91,0,0,0-87.14,38.43A66.4,66.4,0,0,0,89,235.35H66.31C29.75,235.35,0,264.92,0,301.26V407.91a28.69,28.69,0,0,0,28.72,28.61H118.3a34.24,34.24,0,0,0,34.06,31.25H347.64a34.24,34.24,0,0,0,34.06-31.25h88.55A29.72,29.72,0,0,0,500,406.89V301.26c0-36.34-29.75-65.91-66.31-65.91ZM29.3,301.26a36.85,36.85,0,0,1,37-36.61H89a36.86,36.86,0,0,1,37,36.61v10c-9.85,25.65-7.82,41-7.82,95.94H29.3ZM352.54,433.57a4.91,4.91,0,0,1-4.9,4.91H152.36a4.91,4.91,0,0,1-4.9-4.91v-80a89,89,0,0,1,88.89-88.89h27.3a89,89,0,0,1,88.89,88.89ZM470.7,406.89c0,.51,5.46.34-88.86.34,0-55.33,2-70.33-7.82-95.94v-10a36.86,36.86,0,0,1,37-36.61h22.66a36.85,36.85,0,0,1,37,36.61ZM78.12,202.15a53.71,53.71,0,1,0-53.71-53.71A53.78,53.78,0,0,0,78.12,202.15Zm0-78.13a24.42,24.42,0,1,1-24.41,24.42A24.45,24.45,0,0,1,78.12,124Z"/></svg>