<svg id="Layer_1" data-name="Layer 1" xmlns="http://www.w3.org/2000/svg" viewBox="0 0 500 500"><defs><style>.cls-1{fill:#344e41;}</style></defs><title>client-control-btn-commandes</title><path class="cls-1" d="M472,168H421.43L351.1,35.13a14.68,14.68,0,0,0-26,13.75l63,119.08H111.72L174.77,48.88a14.69,14.69,0,0,0-26-13.75L78.49,168H28.05A28.09,28.09,0,0,0,0,196v32.62a28.08,28.08,0,0,0,26.12,28L75.38,461.43a14.69,14.69,0,0,0,14.28,11.25H410.25a14.69,14.69,0,0,0,14.27-11.24L473.9,256.61a28.08,28.08,0,0,0,26.1-28V196A28.09,28.09,0,0,0,472,168ZM29.37,197.33H470.63v30H29.37ZM424.73,335.27h-64.3l9.81-78.58h73.43Zm-160,108V364.64h62.47l-9.82,78.67Zm-82,0-9.83-78.67h62.48v78.67ZM56.34,256.69h73.43l9.82,78.58H75.24Zm103,0h76v78.58H169.19ZM264.7,335.27V256.69h75.95l-9.81,78.58ZM82.31,364.64h60.95l9.83,78.67H101.23Zm316.37,78.67H346.94l9.83-78.67h60.88Z"/></svg>