<svg id="Layer_1" data-name="Layer 1" xmlns="http://www.w3.org/2000/svg" viewBox="0 0 500 500"><defs><style>.cls-1{opacity:0.1;}</style></defs><title>client-fond-btn-notification</title><path class="cls-1" d="M-484.73,258.6V446.17a15.72,15.72,0,0,0,9.78,14.53l156,62.4h0l.28.13a15.51,15.51,0,0,0,11.6,0l.28-.13h0L-156.49,463-6,523.19a15.69,15.69,0,0,0,5.82,1.13,15.53,15.53,0,0,0,8.75-2.69,15.67,15.67,0,0,0,6.88-12.94V227.34a15.65,15.65,0,0,0-9.82-14.51l-156-62.43h0l-.28-.09a15.51,15.51,0,0,0-11.6,0l-.25.09h0l-93.57,37.45a15.63,15.63,0,0,0-8.72,20.32,15.69,15.69,0,0,0,20.32,8.73l72.43-29V435.57l-125,50V321.12a15.64,15.64,0,0,0-15.63-15.63,15.64,15.64,0,0,0-15.64,15.63v164.5l-125-50v-177A15.63,15.63,0,0,0-469.1,243,15.63,15.63,0,0,0-484.73,258.6Zm343.87-70.71,125.05,50V485.59l-125-50Zm-281.35-54.34a47,47,0,0,0,46.89,46.9,47,47,0,0,0,46.89-46.9,46.94,46.94,0,0,0-46.89-46.89A47,47,0,0,0-422.21,133.55Zm31.26,0a15.64,15.64,0,0,1,15.63-15.63,15.64,15.64,0,0,1,15.63,15.63,15.63,15.63,0,0,1-15.63,15.63A15.63,15.63,0,0,1-390.95,133.55Zm-93.78,0c0,56.15,87.78,155.59,97.78,166.75a15.72,15.72,0,0,0,11.63,5.19,15.72,15.72,0,0,0,11.63-5.19c10-11.16,97.79-110.6,97.79-166.75A109.53,109.53,0,0,0-375.32,24.14,109.53,109.53,0,0,0-484.73,133.55Zm31.26,0A78.26,78.26,0,0,1-375.32,55.4a78.27,78.27,0,0,1,78.16,78.15c0,29.83-44,92-78.16,132.46C-409.45,225.52-453.47,163.35-453.47,133.55Z"/><path class="cls-1" d="M509.94,206.85a16.18,16.18,0,0,1-32.36,0,230.5,230.5,0,0,0-67.92-164,16.19,16.19,0,0,1,22.89-22.89A262.68,262.68,0,0,1,509.94,206.85Zm-442.31,0a230.33,230.33,0,0,1,68-164A16.19,16.19,0,0,0,112.68,20a262.57,262.57,0,0,0-77.41,186.9,16.18,16.18,0,0,0,32.36,0ZM488.37,406.43a37.8,37.8,0,0,1-37.76,37.76H351.89a80.92,80.92,0,0,1-158.57,0H94.6a37.77,37.77,0,0,1-24.55-66.46A144.59,144.59,0,0,0,121.57,267V206.85c0-77.82,59.15-142.07,134.86-150.17V7.27a16.18,16.18,0,0,1,32.36,0V56.68c75.7,8.1,134.85,72.35,134.85,150.17V267A144.58,144.58,0,0,0,475,377.58,37.77,37.77,0,0,1,488.37,406.43Zm-170,37.76H226.84a48.54,48.54,0,0,0,91.53,0ZM456,406.43a5.28,5.28,0,0,0-1.9-4.1A176.91,176.91,0,0,1,391.28,267V206.85a118.67,118.67,0,1,0-237.34,0V267A176.8,176.8,0,0,1,91.15,402.28a5.4,5.4,0,0,0,3.45,9.54h356A5.45,5.45,0,0,0,456,406.43Z"/></svg>