<svg id="Layer_1" data-name="Layer 1" xmlns="http://www.w3.org/2000/svg" xmlns:xlink="http://www.w3.org/1999/xlink" viewBox="0 0 500 500"><defs><style>.cls-1{fill:none;}.cls-2{fill:#fff;}.cls-3{clip-path:url(#clip-path);}.cls-4{opacity:0.1;}</style><clipPath id="clip-path"><rect class="cls-1" x="-520" width="500" height="500"/></clipPath></defs><title>client-carte-btn-filtres</title><path class="cls-2" d="M471.33,49.31H195.78a77.05,77.05,0,0,0-143.08,0h-24a28.67,28.67,0,0,0,0,57.34h24a77,77,0,0,0,143.08,0H471.33a28.67,28.67,0,1,0,0-57.34ZM124.24,109.84A31.86,31.86,0,1,1,156.1,78,31.86,31.86,0,0,1,124.24,109.84ZM471.33,221.33H321.54a77,77,0,0,0-143.08,0H28.67a28.67,28.67,0,0,0,0,57.34H178.46a77,77,0,0,0,143.08,0H471.33a28.67,28.67,0,1,0,0-57.34ZM250,281.86A31.86,31.86,0,1,1,281.86,250,31.85,31.85,0,0,1,250,281.86ZM471.33,393.35h-24a77,77,0,0,0-143.08,0H28.67a28.67,28.67,0,0,0,0,57.34H304.22a77.05,77.05,0,0,0,143.08,0h24a28.67,28.67,0,1,0,0-57.34Zm-95.57,60.53A31.86,31.86,0,1,1,407.63,422,31.87,31.87,0,0,1,375.76,453.88Z"/><g class="cls-3"><path class="cls-4" d="M13.68-.95A31.31,31.31,0,0,0-17.6-32.22H-47.2v-77.69a31.29,31.29,0,0,0-31.28-31.27H-437.79a31.31,31.31,0,0,0-31.28,31.27v356.8a31.31,31.31,0,0,0,31.27,31.28h29.61v77.68a31.31,31.31,0,0,0,31.27,31.28H-17.6a31.31,31.31,0,0,0,31.28-31.28ZM-7.18,355.85A10.43,10.43,0,0,1-17.6,366.27H-376.91a10.43,10.43,0,0,1-10.43-10.42V-.95a10.49,10.49,0,0,1,10.43-10.42H-17.6A10.44,10.44,0,0,1-7.17-.95ZM-106.1-120.33l-278.12,89a31.2,31.2,0,0,0-24,30.4V257.31h-29.6a10.43,10.43,0,0,1-10.43-10.42v-356.8a10.44,10.44,0,0,1,10.43-10.42Zm-207,88.11,245-78.38q0,.34,0,.69v77.69ZM-229.3,196H-338a20.18,20.18,0,0,0-20.16,20.16V316.92A20.18,20.18,0,0,0-338,337.08H-229.3a20.19,20.19,0,0,0,20.16-20.16V216.18A20.18,20.18,0,0,0-229.3,196Zm-.7,120.2H-337.29V216.87H-230Zm20.86-275.28A20.19,20.19,0,0,0-229.3,20.78H-338a20.18,20.18,0,0,0-20.16,20.16V141.69A20.18,20.18,0,0,0-338,161.85H-229.3a20.19,20.19,0,0,0,20.16-20.16ZM-230,141H-337.29V41.64H-230ZM-46.8,61.18H-175.65a10.43,10.43,0,0,0-10.43,10.43A10.43,10.43,0,0,0-175.65,82H-46.8A10.43,10.43,0,0,0-36.37,71.61,10.43,10.43,0,0,0-46.8,61.18Zm-128.85,60.27h48.2A10.43,10.43,0,0,0-117,111a10.43,10.43,0,0,0-10.42-10.43h-48.2A10.43,10.43,0,0,0-186.08,111,10.43,10.43,0,0,0-175.65,121.45ZM-36.37,246.84A10.43,10.43,0,0,0-46.8,236.41H-175.65a10.43,10.43,0,0,0-10.43,10.43,10.43,10.43,0,0,0,10.43,10.43H-46.8A10.43,10.43,0,0,0-36.37,246.84Zm-139.28,29a10.43,10.43,0,0,0-10.43,10.43,10.43,10.43,0,0,0,10.43,10.43h48.2A10.43,10.43,0,0,0-117,286.25a10.43,10.43,0,0,0-10.42-10.43Z"/></g></svg>