<svg id="Layer_1" data-name="Layer 1" xmlns="http://www.w3.org/2000/svg" viewBox="0 0 500 500"><defs><style>.cls-1{opacity:0.1;}</style></defs><title>client-fond-btn-marchands</title><path class="cls-1" d="M4.6,203.42h-51l-70.92-134a14.81,14.81,0,0,0-20-6.16,14.81,14.81,0,0,0-6.15,20l63.58,120.1H-358.69l63.58-120.1a14.81,14.81,0,0,0-6.16-20,14.8,14.8,0,0,0-20,6.16l-70.93,134h-50.86a28.32,28.32,0,0,0-28.29,28.29v32.9A28.32,28.32,0,0,0-445,292.82l49.68,206.56a14.8,14.8,0,0,0,14.4,11.35H-57.63a14.82,14.82,0,0,0,14.4-11.34L6.56,292.82a28.33,28.33,0,0,0,26.33-28.21v-32.9A28.32,28.32,0,0,0,4.6,203.42ZM-441.74,233h445v30.24h-445ZM-43,372.14h-64.84l9.9-79.25h74.05Zm-161.38,109V401.76h63l-9.91,79.35Zm-82.71,0L-297,401.76h63v79.35ZM-414.54,292.89h74.05l9.91,79.25h-64.9Zm103.9,0H-234v79.25h-66.71Zm106.23,79.25V292.89h76.59l-9.9,79.25Zm-184,29.62h61.48l9.91,79.35h-52.3ZM-69.3,481.11h-52.17l9.9-79.35h61.4Z"/><path class="cls-1" d="M309.78,223.75a93.3,93.3,0,1,0-93.29-93.29A93.4,93.4,0,0,0,309.78,223.75Zm0-154.42a61.13,61.13,0,1,1-61.12,61.13A61.2,61.2,0,0,1,309.78,69.33ZM498.51,223.75a59,59,0,1,0-59-59A59,59,0,0,0,498.51,223.75Zm0-85.79a26.81,26.81,0,1,1-26.8,26.81A26.84,26.84,0,0,1,498.51,138Zm13,122.25H486.61a72.9,72.9,0,0,0-66.15,42.2,129.48,129.48,0,0,0-95.69-42.2h-30a129.47,129.47,0,0,0-95.68,42.2A72.92,72.92,0,0,0,133,260.21H108.08c-40.15,0-72.81,32.46-72.81,72.37V449.69a31.52,31.52,0,0,0,31.54,31.42h98.36a37.6,37.6,0,0,0,37.4,34.31H417a37.6,37.6,0,0,0,37.41-34.31h97.24a32.64,32.64,0,0,0,32.66-32.54v-116c0-39.91-32.66-72.37-72.81-72.37Zm-444,72.37c0-22.17,18.23-40.2,40.64-40.2H133c22.41,0,40.64,18,40.64,40.2v11c-10.82,28.17-8.58,45-8.58,105.35H67.44ZM422.38,477.87a5.39,5.39,0,0,1-5.39,5.38H202.57a5.38,5.38,0,0,1-5.38-5.38V390a97.71,97.71,0,0,1,97.6-97.6h30A97.72,97.72,0,0,1,422.38,390Zm129.75-29.3c0,.56,6,.37-97.58.37,0-60.75,2.22-77.23-8.58-105.35v-11c0-22.17,18.23-40.2,40.64-40.2h24.88c22.41,0,40.64,18,40.64,40.2ZM121.05,223.75a59,59,0,1,0-59-59A59,59,0,0,0,121.05,223.75Zm0-85.79a26.81,26.81,0,1,1-26.8,26.81A26.84,26.84,0,0,1,121.05,138Z"/></svg>