<svg id="Layer_1" data-name="Layer 1" xmlns="http://www.w3.org/2000/svg" viewBox="0 0 500 500"><defs><style>.cls-1{fill:#344e41;}</style></defs><title>client-carte-champs-recherche</title><path class="cls-1" d="M489.35,451.44,383.41,341C447,257.79,441,138.1,365,62.09c-82.77-82.79-217.47-82.79-300.24,0s-82.78,217.46,0,300.24a212.08,212.08,0,0,0,278,19.09L447.93,491.16a28.69,28.69,0,1,0,41.42-39.72Zm-384-129.69c-60.4-60.4-60.4-158.68,0-219.08a155.09,155.09,0,0,1,219.08,0c60.4,60.4,60.4,158.68,0,219.08S165.73,382.16,105.33,321.75Z"/></svg>