<svg id="Layer_1" data-name="Layer 1" xmlns="http://www.w3.org/2000/svg" viewBox="0 0 500 500"><defs><style>.cls-1{opacity:0.1;}</style></defs><title>client-fond-btn-historique</title><path class="cls-1" d="M334.43,153.67V116.22c0-71.91-284.3-71.91-284.3,0V335.29c0,28.27,44.25,45.89,97.48,52.15-19.47,8.73-31.87,20.53-31.87,35.48v65.72c0,36,71.51,54.77,142.15,54.77S400,524.59,400,488.64v-33c66.89-1.84,131.21-20.49,131.21-54.59V203.85C531.25,158.45,418,141.75,334.43,153.67ZM192.28,84.16c77.83,0,120.28,21.66,120.28,32.8s-42.46,32.81-120.28,32.81S72,128.1,72,117,114.46,84.16,192.28,84.16ZM72,147.39c26.53,16,73.53,24.25,120.28,24.25s93.75-8.28,120.28-24.25v10.87c-38,8.42-65.61,23.81-65.61,46.18v6.47a346.64,346.64,0,0,1-54.67,4.46C114.46,215.37,72,193.71,72,182.57V147.39ZM72,213c26.53,16,73.53,24.24,120.28,24.24A370.75,370.75,0,0,0,247,233v54.5a346.64,346.64,0,0,1-54.67,4.46C114.46,291.91,72,270.25,72,259.11V213Zm0,122.65V289.54c26.53,16,73.53,24.24,120.28,24.24A370.75,370.75,0,0,0,247,309.49V364a346.62,346.62,0,0,1-54.67,4.47C114.46,368.46,72,346.79,72,335.65ZM378.17,488.74c0,11.13-42.46,32.8-120.28,32.8s-120.28-21.67-120.28-32.8V453.56c26.53,16,73.53,24.24,120.28,24.24,44.75,0,89.78-7.56,116.83-22.21,1.14,0,2.31.05,3.45.08v33.07ZM257.89,455.93c-77.82,0-120.28-21.66-120.28-32.8s42.46-32.81,120.28-32.81S378.17,412,378.17,423.13,335.71,455.93,257.89,455.93Zm251.49-54.67c0,10.58-38.74,30.45-109.34,32.42V423.13c0-13.66-10.34-24.71-27-33.17,5.35.22,10.71.36,16.08.36,46.75,0,93.75-8.27,120.28-24.24v35.18Zm0-65.61c0,11.14-42.45,32.81-120.28,32.81s-120.28-21.67-120.28-32.81V300.47c26.54,16,73.53,24.25,120.28,24.25s93.75-8.28,120.28-24.25Zm0-65.6c0,11.13-42.45,32.8-120.28,32.8s-120.28-21.67-120.28-32.8V234.87c26.54,16,73.53,24.24,120.28,24.24s93.75-8.27,120.28-24.24ZM389.1,237.24c-77.82,0-120.28-21.66-120.28-32.8s42.46-32.8,120.28-32.8,120.28,21.66,120.28,32.8S466.93,237.24,389.1,237.24Z"/></svg>