<svg id="Layer_1" data-name="Layer 1" xmlns="http://www.w3.org/2000/svg" viewBox="0 0 500 500"><defs><style>.cls-1{opacity:0.1;}</style></defs><title>client-fond-btn-commande</title><path class="cls-1" d="M524.6,203.42h-51l-70.92-134a14.81,14.81,0,1,0-26.17,13.86l63.58,120.1H161.31l63.58-120.1a14.81,14.81,0,1,0-26.17-13.86l-70.93,134H76.93a28.32,28.32,0,0,0-28.29,28.29v32.9A28.32,28.32,0,0,0,75,292.82l49.68,206.56a14.8,14.8,0,0,0,14.4,11.35H462.37a14.82,14.82,0,0,0,14.4-11.34l49.79-206.57a28.33,28.33,0,0,0,26.33-28.21v-32.9a28.32,28.32,0,0,0-28.29-28.29ZM78.26,233h445v30.24h-445ZM477,372.14H412.13l9.9-79.25h74.05Zm-161.38,109V401.76h63l-9.91,79.35Zm-82.71,0L223,401.76h63v79.35ZM105.46,292.89h74.05l9.91,79.25h-64.9Zm103.9,0H286v79.25H219.26Zm106.23,79.25V292.89h76.59l-9.9,79.25ZM131.64,401.76h61.48L203,481.11h-52.3ZM450.7,481.11H398.53l9.9-79.35h61.4Z"/></svg>