<svg id="Layer_1" data-name="Layer 1" xmlns="http://www.w3.org/2000/svg" xmlns:xlink="http://www.w3.org/1999/xlink" viewBox="0 0 500 500"><defs><style>.cls-1{fill:none;}.cls-2{clip-path:url(#clip-path);}.cls-3{opacity:0.1;}.cls-4{clip-path:url(#clip-path-2);}</style><clipPath id="clip-path"><rect class="cls-1" x="-520" width="500" height="500"/></clipPath><clipPath id="clip-path-2"><rect class="cls-1" width="500" height="500"/></clipPath></defs><title>fond-page-catalogue</title><g class="cls-2"><path class="cls-3" d="M-151.88,74.38V37.86c0-70.1-277.16-70.1-277.16,0V251.43c0,27.56,43.14,44.74,95,50.85-19,8.51-31.07,20-31.07,34.58v64.07c0,35.05,69.72,53.4,138.58,53.4S-87.92,436-87.92,400.93V368.72C-22.71,366.93,40,348.75,40,315.51V123.29C40,79-70.43,62.76-151.88,74.38ZM-290.46,6.61c75.87,0,117.26,21.12,117.26,32s-41.39,32-117.26,32-117.26-21.12-117.26-32S-366.33,6.61-290.46,6.61ZM-407.72,68.25C-381.85,83.82-336,91.89-290.46,91.89s91.39-8.07,117.26-23.64v10.6c-37,8.21-64,23.22-64,45v6.31a338.2,338.2,0,0,1-53.3,4.35c-75.87,0-117.26-21.12-117.26-32V68.25Zm0,64c25.87,15.57,71.69,23.64,117.26,23.64a360.89,360.89,0,0,0,53.3-4.19V204.8a338.2,338.2,0,0,1-53.3,4.35c-75.87,0-117.26-21.12-117.26-32v-45Zm0,119.58v-45c25.87,15.57,71.69,23.64,117.26,23.64a360.89,360.89,0,0,0,53.3-4.19v53.14a338.2,338.2,0,0,1-53.3,4.35C-366.33,283.77-407.72,262.64-407.72,251.79ZM-109.24,401c0,10.85-41.39,32-117.26,32s-117.26-21.13-117.26-32v-34.3c25.87,15.57,71.69,23.64,117.26,23.64,43.62,0,87.53-7.38,113.9-21.66,1.11,0,2.25.05,3.36.08V401Zm-117.26-32c-75.87,0-117.26-21.13-117.26-32s41.39-32,117.26-32,117.26,21.12,117.26,32S-150.63,369.05-226.5,369.05Zm245.18-53.3c0,10.31-37.77,29.69-106.6,31.61V337.07c0-13.32-10.08-24.09-26.34-32.34,5.22.21,10.44.36,15.68.36,45.57,0,91.39-8.07,117.26-23.64v34.3Zm0-64c0,10.86-41.39,32-117.26,32s-117.26-21.12-117.26-32v-34.3c25.87,15.57,71.69,23.64,117.26,23.64s91.39-8.07,117.26-23.64Zm0-64c0,10.86-41.39,32-117.26,32s-117.26-21.12-117.26-32v-34.3c25.87,15.57,71.69,23.64,117.26,23.64s91.39-8.07,117.26-23.64Zm-117.26-32c-75.87,0-117.26-21.12-117.26-32s41.39-32,117.26-32S18.68,113,18.68,123.87-22.71,155.85-98.58,155.85Z"/></g><g class="cls-4"><path class="cls-3" d="M533.68-.95A31.31,31.31,0,0,0,502.4-32.22H472.8v-77.69a31.29,31.29,0,0,0-31.28-31.27H82.21a31.31,31.31,0,0,0-31.28,31.27v356.8A31.31,31.31,0,0,0,82.2,278.17h29.61v77.68a31.31,31.31,0,0,0,31.27,31.28H502.4a31.31,31.31,0,0,0,31.28-31.28Zm-20.86,356.8a10.43,10.43,0,0,1-10.42,10.42H143.09a10.43,10.43,0,0,1-10.43-10.42V-.95a10.49,10.49,0,0,1,10.43-10.42H502.4A10.44,10.44,0,0,1,512.83-.95ZM413.9-120.33l-278.12,89a31.2,31.2,0,0,0-24,30.4V257.31H82.21a10.43,10.43,0,0,1-10.43-10.42v-356.8a10.44,10.44,0,0,1,10.43-10.42Zm-207,88.11,245-78.38q0,.34,0,.69v77.69ZM290.7,196H182a20.18,20.18,0,0,0-20.16,20.16V316.92A20.18,20.18,0,0,0,182,337.08H290.7a20.19,20.19,0,0,0,20.16-20.16V216.18A20.18,20.18,0,0,0,290.7,196Zm-.7,120.2H182.71V216.87H290ZM310.86,40.94A20.19,20.19,0,0,0,290.7,20.78H182a20.18,20.18,0,0,0-20.16,20.16V141.69A20.18,20.18,0,0,0,182,161.85H290.7a20.19,20.19,0,0,0,20.16-20.16ZM290,141H182.71V41.64H290ZM473.2,61.18H344.35a10.43,10.43,0,0,0,0,20.86H473.2a10.43,10.43,0,1,0,0-20.86ZM344.35,121.45h48.2a10.43,10.43,0,0,0,0-20.86h-48.2a10.43,10.43,0,0,0,0,20.86ZM483.63,246.84a10.43,10.43,0,0,0-10.43-10.43H344.35a10.43,10.43,0,0,0,0,20.86H473.2A10.43,10.43,0,0,0,483.63,246.84Zm-139.28,29a10.43,10.43,0,0,0,0,20.86h48.2a10.43,10.43,0,0,0,0-20.86Z"/></g></svg>