<svg id="Layer_1" data-name="Layer 1" xmlns="http://www.w3.org/2000/svg" xmlns:xlink="http://www.w3.org/1999/xlink" viewBox="0 0 500 500"><defs><style>.cls-1{fill:none;}.cls-2{clip-path:url(#clip-path);}.cls-3{opacity:0.1;}</style><clipPath id="clip-path"><rect class="cls-1" width="500" height="500"/></clipPath></defs><title>fond-page-notifications</title><g class="cls-2"><path class="cls-3" d="M514.4,187.78a14.58,14.58,0,0,1-29.16,0A207.63,207.63,0,0,0,424,40a14.59,14.59,0,0,1,20.63-20.63A236.68,236.68,0,0,1,514.4,187.78Zm-398.53,0A207.52,207.52,0,0,1,177.09,40a14.59,14.59,0,0,0-20.63-20.63A236.58,236.58,0,0,0,86.71,187.78a14.58,14.58,0,1,0,29.16,0ZM495,367.61a34.06,34.06,0,0,1-34,34H372a72.91,72.91,0,0,1-142.87,0H140.18a34,34,0,0,1-22.13-59.88A130.26,130.26,0,0,0,164.47,242V187.78c0-70.11,53.3-128,121.51-135.29V8a14.58,14.58,0,0,1,29.16,0V52.49c68.2,7.29,121.5,65.18,121.5,135.29V242a130.24,130.24,0,0,0,46.23,99.63A34,34,0,0,1,495,367.61Zm-153.17,34H259.32a43.74,43.74,0,0,0,82.47,0Zm124-34a4.83,4.83,0,0,0-1.71-3.7A159.34,159.34,0,0,1,407.48,242V187.78a106.93,106.93,0,0,0-213.85,0V242a159.32,159.32,0,0,1-56.57,121.89,4.84,4.84,0,0,0-1.75,3.73,4.92,4.92,0,0,0,4.87,4.86H460.94A4.92,4.92,0,0,0,465.8,367.61Z"/></g></svg>