<svg id="Layer_1" data-name="Layer 1" xmlns="http://www.w3.org/2000/svg" xmlns:xlink="http://www.w3.org/1999/xlink" viewBox="0 0 500 500"><defs><style>.cls-1{fill:none;}.cls-2{clip-path:url(#clip-path);}.cls-3{opacity:0.1;}.cls-4{clip-path:url(#clip-path-2);}</style><clipPath id="clip-path"><rect class="cls-1" x="-520" width="500" height="500"/></clipPath><clipPath id="clip-path-2"><rect class="cls-1" width="500" height="500"/></clipPath></defs><title>fond-page-marchands</title><g class="cls-2"><path class="cls-3" d="M3.32,128.22H-47.53L-118.32-5.48a14.78,14.78,0,0,0-20-6.15,14.78,14.78,0,0,0-6.15,20L-81,128.22h-278.3L-295.81,8.35a14.8,14.8,0,0,0-6.15-20,14.78,14.78,0,0,0-20,6.15l-70.79,133.7H-443.5a28.27,28.27,0,0,0-28.24,28.24V189.3a28.28,28.28,0,0,0,26.29,28.16l49.59,206.17A14.78,14.78,0,0,0-381.49,435h322.7a14.78,14.78,0,0,0,14.37-11.32L5.29,217.45A28.26,28.26,0,0,0,31.56,189.3V156.46A28.27,28.27,0,0,0,3.32,128.22Zm-445.49,29.57H2V188H-442.17Zm398,138.84h-64.72l9.88-79.1h73.91ZM-205.29,405.39v-79.2h62.88l-9.89,79.2Zm-82.55,0-9.9-79.2h62.89v79.2ZM-415,217.53h73.91l9.89,79.1H-396Zm103.7,0h76.47v79.1h-66.58Zm106,79.1v-79.1h76.45l-9.88,79.1Zm-183.6,29.56h61.36l9.9,79.2h-52.21Zm318.46,79.2h-52.08l9.89-79.2h61.28Z"/></g><g class="cls-4"><path class="cls-3" d="M300.35,166.08A85.49,85.49,0,1,0,214.86,80.6,85.58,85.58,0,0,0,300.35,166.08Zm0-141.49a56,56,0,1,1-56,56A56.07,56.07,0,0,1,300.35,24.59ZM473.29,166.08a54,54,0,1,0-54-54A54.1,54.1,0,0,0,473.29,166.08Zm0-78.61A24.57,24.57,0,1,1,448.72,112,24.6,24.6,0,0,1,473.29,87.47Zm11.89,112h-22.8a66.82,66.82,0,0,0-60.62,38.67,118.61,118.61,0,0,0-87.67-38.67H286.61a118.61,118.61,0,0,0-87.67,38.67,66.82,66.82,0,0,0-60.62-38.67h-22.8c-36.79,0-66.72,29.75-66.72,66.32V373.12a28.87,28.87,0,0,0,28.9,28.79h90.13a34.46,34.46,0,0,0,34.28,31.45H398.59a34.47,34.47,0,0,0,34.28-31.45H522A29.9,29.9,0,0,0,551.9,372.1V265.81c0-36.57-29.93-66.32-66.72-66.32ZM78.28,265.81A37.08,37.08,0,0,1,115.52,229h22.8a37.09,37.09,0,0,1,37.24,36.84V275.9c-9.91,25.81-7.86,41.28-7.86,96.53H78.28ZM403.52,398.94a4.94,4.94,0,0,1-4.93,4.94H202.11a5,5,0,0,1-4.94-4.94V318.41A89.54,89.54,0,0,1,286.61,229h27.47a89.54,89.54,0,0,1,89.44,89.44Zm118.9-26.84c0,.51,5.5.33-89.42.33,0-55.66,2-70.76-7.86-96.53V265.81A37.09,37.09,0,0,1,462.38,229h22.8a37.09,37.09,0,0,1,37.24,36.84Zm-395-206a54,54,0,1,0-54-54A54.1,54.1,0,0,0,127.41,166.08Zm0-78.61A24.57,24.57,0,1,1,102.84,112,24.59,24.59,0,0,1,127.41,87.47Z"/></g><path class="cls-3" d="M334.43-366.33v-37.45c0-71.91-284.3-71.91-284.3,0v219.07c0,28.27,44.25,45.89,97.48,52.15-19.47,8.73-31.87,20.53-31.87,35.48v65.72c0,36,71.51,54.77,142.15,54.77S400,4.59,400-31.36v-33C466.93-66.24,531.25-84.89,531.25-119V-316.15C531.25-361.55,418-378.25,334.43-366.33ZM192.28-435.84c77.83,0,120.28,21.66,120.28,32.8s-42.46,32.81-120.28,32.81S72-391.9,72-403,114.46-435.84,192.28-435.84ZM72-372.61c26.53,16,73.53,24.25,120.28,24.25s93.75-8.28,120.28-24.25v10.87c-38,8.42-65.61,23.81-65.61,46.18v6.47a346.64,346.64,0,0,1-54.67,4.46C114.46-304.63,72-326.29,72-337.43v-35.18ZM72-307c26.53,16,73.53,24.24,120.28,24.24A370.75,370.75,0,0,0,247-287v54.5a346.64,346.64,0,0,1-54.67,4.46C114.46-228.09,72-249.75,72-260.89V-307Zm0,122.65v-46.11c26.53,16,73.53,24.24,120.28,24.24A370.75,370.75,0,0,0,247-210.51V-156a346.62,346.62,0,0,1-54.67,4.47C114.46-151.54,72-173.21,72-184.35ZM378.17-31.26c0,11.13-42.46,32.8-120.28,32.8S137.61-20.13,137.61-31.26V-66.44c26.53,16,73.53,24.24,120.28,24.24,44.75,0,89.78-7.56,116.83-22.21,1.14,0,2.31,0,3.45.08v33.07ZM257.89-64.07c-77.82,0-120.28-21.66-120.28-32.8s42.46-32.81,120.28-32.81S378.17-108,378.17-96.87,335.71-64.07,257.89-64.07Zm251.49-54.67c0,10.58-38.74,30.45-109.34,32.42V-96.87c0-13.66-10.34-24.71-27-33.17,5.35.22,10.71.36,16.08.36,46.75,0,93.75-8.27,120.28-24.24v35.18Zm0-65.61c0,11.14-42.45,32.81-120.28,32.81s-120.28-21.67-120.28-32.81v-35.18c26.54,16,73.53,24.25,120.28,24.25s93.75-8.28,120.28-24.25Zm0-65.6c0,11.13-42.45,32.8-120.28,32.8s-120.28-21.67-120.28-32.8v-35.18c26.54,16,73.53,24.24,120.28,24.24s93.75-8.27,120.28-24.24ZM389.1-282.76c-77.82,0-120.28-21.66-120.28-32.8s42.46-32.8,120.28-32.8,120.28,21.66,120.28,32.8S466.93-282.76,389.1-282.76Z"/></svg>