<svg id="Layer_1" data-name="Layer 1" xmlns="http://www.w3.org/2000/svg" xmlns:xlink="http://www.w3.org/1999/xlink" viewBox="0 0 500 500"><defs><style>.cls-1{fill:none;}.cls-2{clip-path:url(#clip-path);}.cls-3{opacity:0.1;}</style><clipPath id="clip-path"><rect class="cls-1" width="500" height="500"/></clipPath></defs><title>fond-page-historique</title><g class="cls-2"><path class="cls-3" d="M368.12,74.38V37.86c0-70.1-277.16-70.1-277.16,0V251.43c0,27.56,43.14,44.74,95,50.85-19,8.51-31.07,20-31.07,34.58v64.07c0,35.05,69.72,53.4,138.58,53.4S432.08,436,432.08,400.93V368.72c65.21-1.79,127.92-20,127.92-53.21V123.29C560,79,449.57,62.76,368.12,74.38ZM229.54,6.61c75.87,0,117.26,21.12,117.26,32s-41.39,32-117.26,32-117.26-21.12-117.26-32S153.67,6.61,229.54,6.61ZM112.28,68.25C138.15,83.82,184,91.89,229.54,91.89s91.39-8.07,117.26-23.64v10.6c-37,8.21-64,23.22-64,45v6.31a338.2,338.2,0,0,1-53.3,4.35c-75.87,0-117.26-21.12-117.26-32V68.25Zm0,64c25.87,15.57,71.69,23.64,117.26,23.64a360.89,360.89,0,0,0,53.3-4.19V204.8a338.2,338.2,0,0,1-53.3,4.35c-75.87,0-117.26-21.12-117.26-32v-45Zm0,119.58v-45c25.87,15.57,71.69,23.64,117.26,23.64a360.89,360.89,0,0,0,53.3-4.19v53.14a338.2,338.2,0,0,1-53.3,4.35C153.67,283.77,112.28,262.64,112.28,251.79ZM410.76,401c0,10.85-41.39,32-117.26,32s-117.26-21.13-117.26-32v-34.3c25.87,15.57,71.69,23.64,117.26,23.64,43.62,0,87.53-7.38,113.9-21.66,1.11,0,2.25.05,3.36.08V401Zm-117.26-32c-75.87,0-117.26-21.13-117.26-32s41.39-32,117.26-32,117.26,21.12,117.26,32S369.37,369.05,293.5,369.05Zm245.18-53.3c0,10.31-37.77,29.69-106.6,31.61V337.07c0-13.32-10.08-24.09-26.34-32.34,5.22.21,10.44.36,15.68.36,45.57,0,91.39-8.07,117.26-23.64v34.3Zm0-64c0,10.86-41.39,32-117.26,32s-117.26-21.12-117.26-32v-34.3c25.87,15.57,71.69,23.64,117.26,23.64s91.39-8.07,117.26-23.64Zm0-64c0,10.86-41.39,32-117.26,32s-117.26-21.12-117.26-32v-34.3c25.87,15.57,71.69,23.64,117.26,23.64s91.39-8.07,117.26-23.64Zm-117.26-32c-75.87,0-117.26-21.12-117.26-32s41.39-32,117.26-32,117.26,21.12,117.26,32S497.29,155.85,421.42,155.85Z"/></g></svg>