<svg id="Layer_1" data-name="Layer 1" xmlns="http://www.w3.org/2000/svg" viewBox="0 0 500 500"><defs><style>.cls-1{opacity:0.1;}.cls-2{fill:#606060;}</style></defs><title>icone-catalogue</title><path class="cls-1" d="M548.17-343.29a34.82,34.82,0,0,0-34.78-34.78H480.47v-86.38a34.8,34.8,0,0,0-34.78-34.78H46.12a34.83,34.83,0,0,0-34.79,34.78V-67.68A34.83,34.83,0,0,0,46.12-32.9H79V53.49a34.83,34.83,0,0,0,34.79,34.78H513.39a34.82,34.82,0,0,0,34.78-34.78ZM525,53.49a11.6,11.6,0,0,1-11.59,11.59H113.82a11.6,11.6,0,0,1-11.59-11.59V-343.28a11.66,11.66,0,0,1,11.59-11.59H513.39A11.6,11.6,0,0,1,525-343.28ZM415-476,105.69-377.1A34.7,34.7,0,0,0,79-343.29v287.2H46.12A11.6,11.6,0,0,1,34.53-67.68V-464.45A11.6,11.6,0,0,1,46.12-476Zm-230.14,98,272.43-87.15c0,.25,0,.5,0,.77v86.38ZM278-124.26H157.11a22.45,22.45,0,0,0-22.42,22.42v112a22.45,22.45,0,0,0,22.42,22.42H278a22.44,22.44,0,0,0,22.41-22.42v-112A22.44,22.44,0,0,0,278-124.26ZM277.19,9.42H157.88V-101.06H277.19ZM300.38-296.7A22.44,22.44,0,0,0,278-319.12H157.11a22.45,22.45,0,0,0-22.42,22.42v112a22.45,22.45,0,0,0,22.42,22.42H278a22.44,22.44,0,0,0,22.41-22.42ZM277.19-185.45H157.88V-295.93H277.19ZM480.92-274.2H337.63A11.6,11.6,0,0,0,326-262.6a11.6,11.6,0,0,0,11.6,11.6H480.92a11.6,11.6,0,0,0,11.59-11.6A11.6,11.6,0,0,0,480.92-274.2Zm-143.29,67h53.6a11.59,11.59,0,0,0,11.59-11.59,11.59,11.59,0,0,0-11.59-11.6h-53.6a11.6,11.6,0,0,0-11.6,11.6A11.59,11.59,0,0,0,337.63-207.18ZM492.51-67.74a11.59,11.59,0,0,0-11.59-11.59H337.63A11.59,11.59,0,0,0,326-67.74a11.6,11.6,0,0,0,11.6,11.6H480.92A11.59,11.59,0,0,0,492.51-67.74ZM337.63-35.51A11.6,11.6,0,0,0,326-23.91a11.6,11.6,0,0,0,11.6,11.6h53.6a11.6,11.6,0,0,0,11.59-11.6,11.6,11.6,0,0,0-11.59-11.6Z"/><path class="cls-2" d="M478.44,132.72a29.64,29.64,0,0,0-29.6-29.6h-28V29.6A29.62,29.62,0,0,0,391.22,0H51.16a29.64,29.64,0,0,0-29.6,29.6V367.28a29.64,29.64,0,0,0,29.6,29.6h28V470.4a29.64,29.64,0,0,0,29.6,29.6H448.84a29.64,29.64,0,0,0,29.6-29.6ZM458.7,470.4a9.87,9.87,0,0,1-9.86,9.86H108.78a9.88,9.88,0,0,1-9.87-9.86V132.72a9.93,9.93,0,0,1,9.87-9.86H448.84a9.87,9.87,0,0,1,9.86,9.86ZM365.08,19.74,101.86,104a29.53,29.53,0,0,0-22.68,28.77V377.14h-28a9.87,9.87,0,0,1-9.86-9.86V29.6a9.87,9.87,0,0,1,9.86-9.86ZM169.21,103.12,401.07,29c0,.21,0,.43,0,.65v73.52Zm79.27,216H145.62a19.1,19.1,0,0,0-19.07,19.08v95.34a19.1,19.1,0,0,0,19.07,19.08H248.48a19.1,19.1,0,0,0,19.08-19.08V338.21A19.1,19.1,0,0,0,248.48,319.13Zm-.66,113.76H146.28v-94H247.82Zm19.74-260.52a19.1,19.1,0,0,0-19.08-19.08H145.62a19.1,19.1,0,0,0-19.07,19.08v95.34a19.1,19.1,0,0,0,19.07,19.08H248.48a19.1,19.1,0,0,0,19.08-19.08Zm-19.74,94.68H146.28V173H247.82ZM421.2,191.52H299.26a9.87,9.87,0,0,0,0,19.74H421.2a9.87,9.87,0,1,0,0-19.74Zm-121.94,57h45.61a9.87,9.87,0,0,0,0-19.74H299.26a9.87,9.87,0,0,0,0,19.74ZM431.07,367.23a9.87,9.87,0,0,0-9.87-9.87H299.26a9.87,9.87,0,0,0,0,19.74H421.2A9.87,9.87,0,0,0,431.07,367.23ZM299.26,394.66a9.87,9.87,0,0,0,0,19.74h45.61a9.87,9.87,0,1,0,0-19.74Z"/></svg>