<svg id="Layer_1" data-name="Layer 1" xmlns="http://www.w3.org/2000/svg" viewBox="0 0 500 500"><defs><style>.cls-1{fill:#344e41;}</style></defs><title>icone-carte</title><path class="cls-1" d="M0,234.36V421.85A15.72,15.72,0,0,0,9.8,436.38l156,62.37h0l.28.13a15.58,15.58,0,0,0,11.59,0l.28-.13h0l150.15-60.06,150.43,60.15A15.62,15.62,0,0,0,500,484.34V203.11a15.63,15.63,0,0,0-9.81-14.5l-156-62.4h0l-.28-.09a15.49,15.49,0,0,0-11.59,0l-.25.09h0L228.5,163.65a15.63,15.63,0,0,0,11.59,29l72.41-29V411.26l-125,50V296.86a15.62,15.62,0,1,0-31.24,0V461.28l-125-50V234.36a15.62,15.62,0,0,0-31.24,0Zm343.72-70.68,125,50V461.25l-125-50ZM62.51,109.37A46.88,46.88,0,1,0,109.38,62.5,46.93,46.93,0,0,0,62.51,109.37Zm31.25,0A15.63,15.63,0,1,1,109.38,125,15.63,15.63,0,0,1,93.76,109.37ZM0,109.37c0,56.12,87.74,155.52,97.74,166.68a15.63,15.63,0,0,0,23.25,0c10-11.16,97.74-110.56,97.74-166.68A109.37,109.37,0,1,0,0,109.37Zm31.24,0a78.12,78.12,0,0,1,156.24,0c0,29.81-44,91.93-78.12,132.4C75.26,201.3,31.26,139.15,31.26,109.37Z"/></svg>