<svg id="Layer_1" data-name="Layer 1" xmlns="http://www.w3.org/2000/svg" viewBox="0 0 500 500"><defs><style>.cls-1{fill:#344e41;}</style></defs><title>icone-transaction</title><path class="cls-1" d="M295.45,95V56C295.45-18.68,0-18.68,0,56V283.71c0,29.38,46,47.69,101.3,54.2C81.07,347,68.18,359.24,68.18,374.78v68.3c0,37.37,74.32,56.92,147.73,56.92s147.73-19.55,147.73-56.92V408.74C433.15,406.83,500,387.45,500,352V147.11C500,99.94,382.28,82.58,295.45,95ZM147.73,22.73c80.87,0,125,22.51,125,34.09s-44.13,34.09-125,34.09-125-22.52-125-34.09S66.85,22.73,147.73,22.73Zm-125,65.71c27.57,16.6,76.41,25.2,125,25.2s97.42-8.6,125-25.2V99.73c-39.49,8.76-68.18,24.76-68.18,48v6.72a360.19,360.19,0,0,1-56.82,4.64c-80.88,0-125-22.51-125-34.09V88.44Zm0,68.18c27.57,16.6,76.41,25.2,125,25.2a385.47,385.47,0,0,0,56.81-4.46V234a361.26,361.26,0,0,1-56.81,4.64c-80.88,0-125-22.52-125-34.09V156.62Zm0,127.47V236.17c27.57,16.59,76.41,25.19,125,25.19a385.5,385.5,0,0,0,56.81-4.45v56.63a360.06,360.06,0,0,1-56.81,4.64C66.85,318.18,22.73,295.67,22.73,284.09ZM340.91,443.18c0,11.58-44.12,34.09-125,34.09s-125-22.51-125-34.09V406.62c27.57,16.6,76.42,25.2,125,25.2,46.5,0,93.31-7.86,121.42-23.09,1.18,0,2.39,0,3.58.09v34.36Zm-125-34.09c-80.88,0-125-22.51-125-34.09s44.12-34.09,125-34.09,125,22.52,125,34.09S296.79,409.09,215.91,409.09Zm261.36-56.82c0,11-40.26,31.65-113.63,33.7V375c0-14.2-10.75-25.67-28.08-34.47,5.56.23,11.13.38,16.71.38,48.58,0,97.43-8.6,125-25.2v36.56Zm0-68.18c0,11.58-44.12,34.09-125,34.09s-125-22.51-125-34.09V247.53c27.58,16.6,76.42,25.2,125,25.2s97.43-8.6,125-25.2Zm0-68.18c0,11.57-44.12,34.09-125,34.09s-125-22.52-125-34.09V179.35c27.58,16.6,76.42,25.2,125,25.2s97.43-8.6,125-25.2Zm-125-34.09c-80.87,0-125-22.52-125-34.09s44.13-34.09,125-34.09,125,22.51,125,34.09S433.15,181.82,352.27,181.82Z"/></svg>