<svg id="Layer_1" data-name="Layer 1" xmlns="http://www.w3.org/2000/svg" viewBox="0 0 500 500"><defs><style>.cls-1{fill:#344e41;}</style></defs><title>icone-notification</title><path class="cls-1" d="M479.17,208.33a15.63,15.63,0,1,1-31.25,0A222.51,222.51,0,0,0,382.33,50a15.63,15.63,0,0,1,22.11-22.11A253.65,253.65,0,0,1,479.17,208.33Zm-427.09,0A222.4,222.4,0,0,1,117.69,50,15.63,15.63,0,0,0,95.58,27.87,253.54,253.54,0,0,0,20.83,208.33a15.63,15.63,0,1,0,31.25,0ZM458.33,401a36.49,36.49,0,0,1-36.45,36.46H326.56a78.14,78.14,0,0,1-153.11,0H78.13a36.47,36.47,0,0,1-23.71-64.17,139.63,139.63,0,0,0,49.75-106.91V208.33c0-75.13,57.11-137.17,130.21-145V15.62a15.63,15.63,0,0,1,31.25,0V63.34c73.09,7.82,130.2,69.86,130.2,145v58.09a139.6,139.6,0,0,0,49.55,106.77A36.44,36.44,0,0,1,458.33,401ZM294.19,437.5H205.81a46.87,46.87,0,0,0,88.38,0ZM427.08,401a5.15,5.15,0,0,0-1.83-4,170.8,170.8,0,0,1-60.67-130.66V208.33a114.58,114.58,0,1,0-229.16,0v58.09A170.75,170.75,0,0,1,74.79,397a5.2,5.2,0,0,0-1.87,4,5.27,5.27,0,0,0,5.21,5.21H421.88A5.26,5.26,0,0,0,427.08,401Z"/></svg>