<svg id="Layer_1" data-name="Layer 1" xmlns="http://www.w3.org/2000/svg" viewBox="0 0 500 500"><defs><style>.cls-1{fill:#4d4d4d;}</style></defs><title>inscription-marchand-categorie-ajout-produit</title><path class="cls-1" d="M364.58,229.17c-74.66,0-135.41,60.75-135.41,135.41S289.92,500,364.58,500,500,439.25,500,364.58,439.25,229.17,364.58,229.17Zm0,239.58A104.17,104.17,0,1,1,468.75,364.58,104.29,104.29,0,0,1,364.58,468.75ZM437.5,364.58a15.63,15.63,0,0,1-15.62,15.63H380.21v41.67a15.63,15.63,0,0,1-31.25,0V380.21H307.29a15.63,15.63,0,0,1,0-31.25H349V307.29a15.63,15.63,0,0,1,31.25,0V349h41.67A15.63,15.63,0,0,1,437.5,364.58Zm-230.42,57.3a15.63,15.63,0,0,1-15.62,15.62H57.29A57.34,57.34,0,0,1,0,380.21V57.29A57.34,57.34,0,0,1,57.29,0H296.88a57.34,57.34,0,0,1,57.29,57.29V184.17a15.63,15.63,0,0,1-31.25,0V57.29a26.08,26.08,0,0,0-26-26H57.29a26.08,26.08,0,0,0-26,26V380.21a26.08,26.08,0,0,0,26,26H191.46A15.63,15.63,0,0,1,207.08,421.88ZM62.5,182.29a15.63,15.63,0,0,1,15.63-15.62H276a15.63,15.63,0,1,1,0,31.25H78.13A15.63,15.63,0,0,1,62.5,182.29Zm145.83,83.34a15.63,15.63,0,0,1-15.62,15.62H78.13a15.63,15.63,0,1,1,0-31.25H192.71A15.63,15.63,0,0,1,208.33,265.63ZM62.5,99A15.63,15.63,0,0,1,78.13,83.33h93.74a15.63,15.63,0,1,1,0,31.25H78.13A15.63,15.63,0,0,1,62.5,99Z"/></svg>