<svg id="Layer_1" data-name="Layer 1" xmlns="http://www.w3.org/2000/svg" viewBox="0 0 500 500"><defs><style>.cls-1{fill:#fff;}</style></defs><title>inscription-marchand-produit-suppression</title><path class="cls-1" d="M250,441.41a14.65,14.65,0,0,0,14.65-14.65V190.43a14.65,14.65,0,1,0-29.3,0V426.76A14.65,14.65,0,0,0,250,441.41Zm87.89,0a14.65,14.65,0,0,0,14.65-14.65V190.43a14.65,14.65,0,0,0-29.3,0V426.76A14.65,14.65,0,0,0,337.89,441.41Zm-175.78,0a14.65,14.65,0,0,0,14.65-14.65V190.43a14.65,14.65,0,1,0-29.3,0V426.76A14.65,14.65,0,0,0,162.11,441.41ZM44.92,146.48h44V485.35A14.65,14.65,0,0,0,103.52,500h293a14.65,14.65,0,0,0,14.65-14.65V146.48h43.95a14.65,14.65,0,1,0,0-29.29H440.43V73.24a14.65,14.65,0,0,0-14.65-14.65H323.24V14.65A14.65,14.65,0,0,0,308.59,0H191.41a14.65,14.65,0,0,0-14.65,14.65V58.59H74.22A14.65,14.65,0,0,0,59.57,73.24v44H44.92a14.65,14.65,0,1,0,0,29.29ZM381.84,470.7H118.16V146.48H381.84ZM206.05,29.3H294V58.59h-87.9ZM88.87,87.89H411.13v29.3H88.87Z"/></svg>