<svg id="Layer_1" data-name="Layer 1" xmlns="http://www.w3.org/2000/svg" viewBox="0 0 500 500"><defs><style>.cls-1{fill:#fff;}</style></defs><title>inscription-btn-marchand</title><path class="cls-1" d="M499.27,165.55l-.34-1.87c-.06-.29-.09-.58-.15-.87L463.71,78.13V36.46h-428V78.13L1.22,162.81c-.08.33-.12.67-.18,1l-.32,1.74a59.66,59.66,0,0,0,30.53,61.7V463.54h437.5V227.25A59.54,59.54,0,0,0,500,174.85,60.68,60.68,0,0,0,499.27,165.55Zm-23.55-4.09H399.19L390,99.61h60.55ZM56.55,57.29H442.89V78.13H56.55Zm324.68,125,1.12,7.56-6.16,8.2a38.69,38.69,0,0,1-61.92,0L308,189.68l-.36-7.39Zm-74.64-20.83-3-61.85h65.35l9.22,61.85Zm-19.83,20.83h0l.36,7.56-6.17,8.2a38.7,38.7,0,0,1-61.93,0l-6.31-8.43.36-7.33Zm-72.63-20.83,3.12-61.85h65.46l3,61.85Zm-92.15,0,9.09-61.85h65.34l-3.14,61.85Zm70.22,20.83-.38,7.64-6.11,8.12a38.69,38.69,0,0,1-61.92,0l-6-8,1.15-7.76ZM49.45,99.61H110l-9.1,61.85H24.26ZM21.54,182.29H97.87l-1.63,8.1-5.76,7.67a38.7,38.7,0,0,1-68.94-15.77ZM406.25,442.72H322.91V369.79h10.42a10.41,10.41,0,1,0,0-20.82H322.91V276h83.34Zm41.66,0H427.08V255.22h-125v187.5h-250V233.91a58.81,58.81,0,0,0,7.43.47,59.41,59.41,0,0,0,47.62-23.81,59.54,59.54,0,0,0,95.25,0,59.52,59.52,0,0,0,95.23,0,59.52,59.52,0,0,0,95.24,0,59.48,59.48,0,0,0,55.06,23.34V442.72Zm-7.45-229.18a38.4,38.4,0,0,1-30.95-15.48L403.46,190l-1.18-7.72h76.14A38.72,38.72,0,0,1,440.46,213.54ZM72.91,255.22V401H281.25V255.22Zm187.5,125H93.75V276H260.41Z"/></svg>