<svg id="Layer_1" data-name="Layer 1" xmlns="http://www.w3.org/2000/svg" viewBox="0 0 500 500"><defs><style>.cls-1{fill:#fff;}</style></defs><title>inscription-btn-client</title><path class="cls-1" d="M159.5,388.91a52.2,52.2,0,1,0,52.2,52.2A52.2,52.2,0,0,0,159.5,388.91Zm0,81.2a29,29,0,1,1,29-29A29,29,0,0,1,159.5,470.11Zm220.4-81.2a52.2,52.2,0,1,0,52.19,52.2A52.2,52.2,0,0,0,379.9,388.91Zm0,81.2a29,29,0,1,1,29-29A29,29,0,0,1,379.9,470.11ZM497.63,84.41a14.48,14.48,0,0,0-9.28-4.64L110.78,74.55l-10.44-31.9a53.37,53.37,0,0,0-49.88-36H11.6a11.6,11.6,0,0,0,0,23.2H50.46A30.17,30.17,0,0,1,78.3,50.19L152,272.33l-5.8,13.34a55.66,55.66,0,0,0,5.22,50.46,53.92,53.92,0,0,0,43.5,24.36H420.5a11.6,11.6,0,1,0,0-23.2H194.88a29.57,29.57,0,0,1-24.36-13.92,31.86,31.86,0,0,1-2.9-27.84l4.64-10.44,244.18-25.52a63.8,63.8,0,0,0,55.1-48.72L499.38,94.27A9.88,9.88,0,0,0,497.63,84.41ZM448.92,205.63a39.45,39.45,0,0,1-35.38,30.74L172.26,261.31,118.32,97.75,473.86,103Z"/></svg>