<svg id="Layer_1" data-name="Layer 1" xmlns="http://www.w3.org/2000/svg" viewBox="0 0 500 500"><defs><style>.cls-1{fill:#fff;}</style></defs><title>inscription-marchand-produit-modification</title><path class="cls-1" d="M359.38,500H57.29A57.34,57.34,0,0,1,0,442.69V140.6A57.34,57.34,0,0,1,57.29,83.31H234.37a15.63,15.63,0,1,1,0,31.25H57.29a26.08,26.08,0,0,0-26,26V442.69a26.08,26.08,0,0,0,26,26H359.38a26.08,26.08,0,0,0,26-26V265.6a15.63,15.63,0,0,1,31.25,0V442.69A57.34,57.34,0,0,1,359.38,500ZM500,57.27a57.28,57.28,0,0,0-97.79-40.5L373,46l-.2.18-.18.2L186.44,232.52a15.55,15.55,0,0,0-4.27,8l-14.73,73.67a15.62,15.62,0,0,0,15.31,18.68,15.33,15.33,0,0,0,3.08-.31l73.65-14.73a15.48,15.48,0,0,0,8-4.27l186-186c.12-.1.24-.2.35-.31s.22-.25.33-.37l29.11-29.11A56.83,56.83,0,0,0,500,57.27ZM248.71,288.1l-46,9.21,9.19-46L383.79,79.36l36.83,36.84ZM461.12,75.69l-18.4,18.4L405.89,57.25l18.4-18.39a26,26,0,1,1,36.83,36.83Z"/></svg>