<svg id="Layer_1" data-name="Layer 1" xmlns="http://www.w3.org/2000/svg" viewBox="0 0 500 500"><defs><style>.cls-1{opacity:0.1;}.cls-2{fill:#4d4d4d;}</style></defs><title>marchand-catalogue-produit-modification</title><path class="cls-1" d="M28.17,176.71A34.82,34.82,0,0,0-6.61,141.93H-39.53V55.55A34.8,34.8,0,0,0-74.31,20.77H-473.88a34.83,34.83,0,0,0-34.79,34.78V452.32a34.83,34.83,0,0,0,34.79,34.78H-441v86.39a34.83,34.83,0,0,0,34.79,34.78H-6.61a34.82,34.82,0,0,0,34.78-34.78ZM5,573.49A11.6,11.6,0,0,1-6.61,585.08H-406.18a11.6,11.6,0,0,1-11.59-11.59V176.72a11.66,11.66,0,0,1,11.59-11.59H-6.61A11.6,11.6,0,0,1,5,176.72ZM-105,44-414.31,142.9A34.7,34.7,0,0,0-441,176.71v287.2h-32.92a11.6,11.6,0,0,1-11.59-11.59V55.55A11.6,11.6,0,0,1-473.88,44Zm-230.14,98L-62.74,54.78c0,.25,0,.5,0,.77v86.38ZM-242,395.74H-362.89a22.45,22.45,0,0,0-22.42,22.42v112a22.45,22.45,0,0,0,22.42,22.42H-242a22.44,22.44,0,0,0,22.41-22.42v-112A22.44,22.44,0,0,0-242,395.74Zm-.78,133.68H-362.12V418.94h119.31Zm23.19-306.12A22.44,22.44,0,0,0-242,200.88H-362.89a22.45,22.45,0,0,0-22.42,22.42v112a22.45,22.45,0,0,0,22.42,22.42H-242a22.44,22.44,0,0,0,22.41-22.42Zm-23.19,111.25H-362.12V224.07h119.31ZM-39.08,245.8H-182.37A11.6,11.6,0,0,0-194,257.4a11.6,11.6,0,0,0,11.6,11.6H-39.08a11.6,11.6,0,0,0,11.59-11.6A11.6,11.6,0,0,0-39.08,245.8Zm-143.29,67h53.6a11.59,11.59,0,0,0,11.59-11.59,11.59,11.59,0,0,0-11.59-11.6h-53.6a11.6,11.6,0,0,0-11.6,11.6A11.59,11.59,0,0,0-182.37,312.82ZM-27.49,452.26a11.59,11.59,0,0,0-11.59-11.59H-182.37A11.59,11.59,0,0,0-194,452.26a11.6,11.6,0,0,0,11.6,11.6H-39.08A11.59,11.59,0,0,0-27.49,452.26Zm-154.88,32.23a11.6,11.6,0,0,0-11.6,11.6,11.6,11.6,0,0,0,11.6,11.6h53.6a11.6,11.6,0,0,0,11.59-11.6,11.6,11.6,0,0,0-11.59-11.6Z"/><path class="cls-2" d="M359.38,500H57.29A57.34,57.34,0,0,1,0,442.69V140.6A57.34,57.34,0,0,1,57.29,83.31H234.38a15.63,15.63,0,0,1,0,31.25H57.29a26.08,26.08,0,0,0-26,26V442.69a26.08,26.08,0,0,0,26,26H359.38a26.08,26.08,0,0,0,26-26V265.6a15.63,15.63,0,0,1,31.25,0V442.69A57.34,57.34,0,0,1,359.38,500ZM500,57.27a57.28,57.28,0,0,0-97.79-40.5L373,46l-.2.18-.18.2L186.44,232.52a15.55,15.55,0,0,0-4.27,8l-14.73,73.67a15.62,15.62,0,0,0,15.31,18.68,15.33,15.33,0,0,0,3.08-.31l73.65-14.73a15.48,15.48,0,0,0,8-4.27l186-186c.12-.1.24-.2.35-.31s.22-.25.33-.37l29.11-29.11A56.83,56.83,0,0,0,500,57.27ZM248.71,288.1l-46,9.21,9.19-46L383.79,79.36l36.83,36.84ZM461.12,75.69l-18.4,18.4L405.89,57.25l18.4-18.39a26,26,0,1,1,36.83,36.83Z"/></svg>