<svg id="Layer_1" data-name="Layer 1" xmlns="http://www.w3.org/2000/svg" viewBox="0 0 500 500"><defs><style>.cls-1{opacity:0.1;}</style></defs><title>marchand-fond-btn-catalogue</title><path class="cls-1" d="M548.17,176.71a34.82,34.82,0,0,0-34.78-34.78H480.47V55.55a34.8,34.8,0,0,0-34.78-34.78H46.12A34.83,34.83,0,0,0,11.33,55.55V452.32A34.83,34.83,0,0,0,46.12,487.1H79v86.39a34.83,34.83,0,0,0,34.79,34.78H513.39a34.82,34.82,0,0,0,34.78-34.78ZM525,573.49a11.6,11.6,0,0,1-11.59,11.59H113.82a11.6,11.6,0,0,1-11.59-11.59V176.72a11.66,11.66,0,0,1,11.59-11.59H513.39A11.6,11.6,0,0,1,525,176.72ZM415,44,105.69,142.9A34.7,34.7,0,0,0,79,176.71v287.2H46.12a11.6,11.6,0,0,1-11.59-11.59V55.55A11.6,11.6,0,0,1,46.12,44Zm-230.14,98L457.26,54.78c0,.25,0,.5,0,.77v86.38ZM278,395.74H157.11a22.45,22.45,0,0,0-22.42,22.42v112a22.45,22.45,0,0,0,22.42,22.42H278a22.44,22.44,0,0,0,22.41-22.42v-112A22.44,22.44,0,0,0,278,395.74Zm-.78,133.68H157.88V418.94H277.19ZM300.38,223.3A22.44,22.44,0,0,0,278,200.88H157.11a22.45,22.45,0,0,0-22.42,22.42v112a22.45,22.45,0,0,0,22.42,22.42H278a22.44,22.44,0,0,0,22.41-22.42ZM277.19,334.55H157.88V224.07H277.19ZM480.92,245.8H337.63a11.6,11.6,0,0,0,0,23.2H480.92a11.6,11.6,0,0,0,0-23.2Zm-143.29,67h53.6a11.6,11.6,0,0,0,0-23.19h-53.6a11.6,11.6,0,1,0,0,23.19ZM492.51,452.26a11.59,11.59,0,0,0-11.59-11.59H337.63a11.6,11.6,0,1,0,0,23.19H480.92A11.59,11.59,0,0,0,492.51,452.26ZM337.63,484.49a11.6,11.6,0,0,0,0,23.2h53.6a11.6,11.6,0,0,0,0-23.2Z"/></svg>