<?xml version="1.0" encoding="utf-8"?>
<!-- Generator: Adobe Illustrator 23.0.3, SVG Export Plug-In . SVG Version: 6.00 Build 0)  -->
<svg version="1.1" id="Layer_2" xmlns="http://www.w3.org/2000/svg" xmlns:xlink="http://www.w3.org/1999/xlink" x="0px" y="0px"
	 width="500px" height="184px" viewBox="0 0 500 184" style="enable-background:new 0 0 500 184;" xml:space="preserve">
<style type="text/css">
	.st0{fill:#344E41;}
</style>
<path class="st0" d="M246.2,149.3c-4.3-1.8-7.7-4.5-10.2-8c-1.9-2.6-3-5.5-3.6-8.7c-0.3-1.9,1.2-3.5,3-3.5H246c1.4,0,2.6,0.9,3,2.3
	c0.5,2.1,1.5,3.8,3,5.2c2,1.8,4.8,2.8,8.4,2.8c3.6,0,6.5-0.9,8.5-2.6c2.1-1.7,3.1-4,3.1-6.8c0-2.3-0.7-4.2-2.1-5.6
	c-1.4-1.5-3.2-2.6-5.3-3.5c-2.1-0.8-5-1.8-8.7-2.8c-5-1.5-9.1-2.9-12.2-4.4c-3.1-1.4-5.8-3.6-8.1-6.5c-2.3-2.9-3.4-6.8-3.4-11.7
	c0-4.6,1.1-8.6,3.4-11.9c2.3-3.4,5.5-6,9.6-7.8c4.1-1.8,8.8-2.7,14.2-2.7c8,0,14.4,1.9,19.4,5.8c4.1,3.2,6.6,7.3,7.7,12.5
	c0.4,1.9-1.1,3.7-3,3.7h-10.9c-1.4,0-2.5-0.9-2.9-2.2c-0.5-1.7-1.5-3.1-3-4.4c-2.1-1.7-4.9-2.6-8.4-2.6c-3,0-5.4,0.8-7.2,2.3
	c-1.8,1.5-2.7,3.8-2.7,6.7c0,2.1,0.7,3.8,2,5.1c1.4,1.4,3.1,2.5,5.1,3.3c2,0.8,4.9,1.8,8.6,2.9c5,1.5,9.1,3,12.3,4.4
	c3.2,1.5,5.9,3.7,8.2,6.6c2.2,2.9,3.4,6.7,3.4,11.3c0,1.9-0.2,3.8-0.7,5.7c-1.7,6.5-5.7,11.4-11.9,14.6c-4.1,2.1-9,3.2-14.7,3.2
	C255.3,152,250.5,151.1,246.2,149.3z M305.7,148.3c-4.7-2.6-8.4-6.3-11.1-11.1c-2.7-4.8-4-10.3-4-16.6c0-6.3,1.4-11.8,4.1-16.6
	c2.8-4.8,6.5-8.5,11.3-11.1c4.8-2.6,10.1-3.9,16-3.9c5.9,0,11.2,1.3,16,3.9c4.8,2.6,8.6,6.3,11.3,11.1c2.8,4.8,4.1,10.3,4.1,16.6
	c0,6.3-1.4,11.8-4.3,16.6c-2.8,4.8-6.7,8.5-11.5,11.1c-4.8,2.6-10.2,3.9-16.2,3.9C315.8,152.2,310.5,150.9,305.7,148.3z
	 M329.6,136.7c2.5-1.4,4.4-3.4,5.9-6.1c1.5-2.7,2.2-6,2.2-10c0-5.8-1.5-10.3-4.6-13.4c-3.1-3.1-6.8-4.7-11.2-4.7
	c-4.4,0-8.1,1.6-11.1,4.7c-3,3.1-4.5,7.6-4.5,13.4c0,5.8,1.5,10.3,4.4,13.4c2.9,3.1,6.6,4.7,11,4.7
	C324.5,138.7,327.1,138.1,329.6,136.7z M416.2,93v55.1c0,1.7-1.4,3.1-3.1,3.1h-9.5c-1.7,0-3.1-1.4-3.1-3.1v-4.7
	c-2,2.7-4.6,4.7-7.8,6.3c-3.2,1.5-6.7,2.3-10.5,2.3c-4.8,0-9-1-12.7-3c-3.7-2-6.6-5-8.7-9c-2.1-3.9-3.2-8.6-3.2-14.1V93
	c0-1.7,1.4-3.1,3.1-3.1h9.3c1.7,0,3.1,1.4,3.1,3.1v30.7c0,4.9,1.2,8.6,3.7,11.2c2.4,2.6,5.8,3.9,10,3.9c4.3,0,7.6-1.3,10.1-3.9
	c2.4-2.6,3.7-6.4,3.7-11.2V93c0-1.7,1.4-3.1,3.1-3.1h9.5C414.8,90,416.2,91.3,416.2,93z M460,150.1l-19.9-24.9v23
	c0,1.7-1.4,3.1-3.1,3.1h-9.3c-1.7,0-3.1-1.4-3.1-3.1V72.5c0-1.7,1.4-3.1,3.1-3.1h9.3c1.7,0,3.1,1.4,3.1,3.1V116l19.7-24.8
	c0.6-0.7,1.5-1.2,2.4-1.2h11.9c2.6,0,4.1,3.1,2.3,5.1l-22.5,25.7l22.7,25.4c1.8,2,0.4,5.1-2.3,5.1h-11.8
	C461.5,151.2,460.6,150.8,460,150.1z M483.7,80.1c-1.8-1.7-2.7-3.9-2.7-6.5c0-2.6,0.9-4.7,2.7-6.5c1.8-1.7,4.1-2.6,6.8-2.6
	c2.7,0,5,0.9,6.8,2.6c1.8,1.7,2.7,3.9,2.7,6.5c0,2.6-0.9,4.7-2.7,6.5c-1.8,1.7-4.1,2.6-6.8,2.6C487.8,82.7,485.5,81.8,483.7,80.1z
	 M498.1,93v55.1c0,1.7-1.4,3.1-3.1,3.1h-9.3c-1.7,0-3.1-1.4-3.1-3.1V93c0-1.7,1.4-3.1,3.1-3.1h9.3C496.7,90,498.1,91.3,498.1,93z
	 M159.6,76.1c-17.5-2.7-35.3-4.1-53-4.1c-18.2-0.1-36.5,1.3-54.5,4.1c-1.7,0.3-3,1.2-3.9,2.6c-0.9,1.4-1.1,3.1-0.6,4.7l18.9,52.3
	c0.8,2.4,2.9,3.9,5.4,3.9h68c2.5,0,4.6-1.6,5.4-3.9l0.1-0.1l18.8-52.2c0.5-1.6,0.3-3.3-0.6-4.7C162.7,77.3,161.3,76.4,159.6,76.1z
	 M146.2,98.3c-2.1,21-17.5,34.2-40.4,34.2s-38.3-13.3-40.4-34.2c-1.5-1.2-2.4-3-2.4-5c0-3.6,2.9-6.5,6.5-6.5c3.6,0,6.5,2.9,6.5,6.5
	c0,1.8-0.7,3.4-1.9,4.6c1.8,16.4,13.4,26,31.8,26s30-9.6,31.8-26c-1.2-1.2-1.9-2.8-1.9-4.6c0-3.6,2.9-6.5,6.5-6.5
	c3.6,0,6.5,2.9,6.5,6.5C148.7,95.4,147.7,97.1,146.2,98.3z M137.5,64.8c-2-16-13.5-25.5-31.7-25.5c-18.1,0-29.7,9.4-31.7,25.5
	c10.8-0.9,21.7-1.4,32.5-1.4C116.9,63.4,127.3,63.9,137.5,64.8z M196.9,61.1c-3.7-6.7-24.5-42.7-66.8-55.8
	C85.1-8.6,26.6,6.9,6.8,51.4C-7.7,84.1,5.4,117,6.6,120.1c19.4,46.6,72.1,57.5,85.7,60.3c34.5,7.1,97,5.5,116.3-36
	C224.3,110.6,202.1,70.4,196.9,61.1z M172.3,86.1l-0.1,0.1l-18.8,52.2c-1.9,5.9-7.4,9.8-13.6,9.8h-68c-6.2,0-11.6-3.9-13.6-9.8
	L39.4,86.1c-1.3-4-0.7-8.3,1.5-11.9c2.2-3.5,5.8-5.9,9.9-6.6c4.8-0.7,9.7-1.4,14.6-1.9c1.8-21.4,17.3-34.9,40.4-34.9
	c23.1,0,38.6,13.6,40.4,34.9c4.9,0.5,9.8,1.2,14.6,1.9c4.1,0.6,7.7,3,9.9,6.6C173.1,77.7,173.6,82.1,172.3,86.1z"/>
</svg>
