<svg xmlns="http://www.w3.org/2000/svg" viewBox="0 0 500 500"><defs><style>.cls-1{fill:#4d4d4d;}</style></defs><title>Animaux - Chats</title><g id="Layer_11" data-name="Layer 11"><path id="Outline" class="cls-1" d="M499.57,247.36l-7.9-23.71V200a8.33,8.33,0,0,0-2.44-5.89L475,179.85a64.83,64.83,0,0,0-19.08-44.08,8.34,8.34,0,0,0-11.78,0L434,145.91a65,65,0,0,0-12.22,17l-2.38,4.76-78.53,15.7H100a50,50,0,0,1,0-100h66.67a25,25,0,0,0,0-50H100A100,100,0,0,0,55.73,223,66.32,66.32,0,0,0,50,250v78.87L3.71,359.73A8.34,8.34,0,0,0,0,366.67v91.66a8.33,8.33,0,0,0,8.33,8.34H50a8.33,8.33,0,0,0,8.33-8.34V398L100,386.05v5.62a8.29,8.29,0,0,0,1.27,4.41l41.66,66.67a8.35,8.35,0,0,0,7.07,3.92h50a8.34,8.34,0,0,0,7.07-12.75L168.6,392.37,203.9,350h50.46l-12.1,30.24a8.36,8.36,0,0,0-.59,3.09v75a8.33,8.33,0,0,0,8.33,8.34h41.67a8.33,8.33,0,0,0,8.33-8.34V394.69l21.82-26.11L384.73,463a8.35,8.35,0,0,0,6.94,3.72h50A8.33,8.33,0,0,0,449,454.38L391.67,347.9V302.08L427,275.57l38,7.6a8.31,8.31,0,0,0,7.53-2.28l25-25A8.33,8.33,0,0,0,499.57,247.36ZM41.08,192.25A83.32,83.32,0,0,1,100,50h66.67a8.34,8.34,0,0,1,0,16.67H100A66.66,66.66,0,0,0,77.52,196.09a67.14,67.14,0,0,0-13.11,12.59A83,83,0,0,1,41.08,192.25ZM151.93,386.33a8.34,8.34,0,0,0-.66,9.75L185,450H154.62l-37.95-60.72v-8.86A96.9,96.9,0,0,0,155.29,350h26.92Zm133.34,0a8.35,8.35,0,0,0-1.94,5.35V450h-25V384.94l14-34.94H313l.83,2.19ZM463.93,266l-37.3-7.46A8.36,8.36,0,0,0,420,260l-41.67,31.25a8.32,8.32,0,0,0-3.33,6.67V350a8.25,8.25,0,0,0,1,3.95L427.71,450H396.13l-63.67-95.49L307.8,288.74l-15.6,5.85,14.52,38.74H165.47A96,96,0,0,0,175,291.67H158.33a80.39,80.39,0,0,1-58.05,77l-52.57,15a8.34,8.34,0,0,0-6,8V450h-25V371.13L63,340.27a8.31,8.31,0,0,0,3.68-6.59h0V250a50.06,50.06,0,0,1,50-50h225a8.19,8.19,0,0,0,1.63-.16l83.33-16.67a8.3,8.3,0,0,0,5.82-4.44l4.21-8.41a48.22,48.22,0,0,1,9.1-12.62L449.5,154a48.25,48.25,0,0,1,8.83,28v1.43a8.37,8.37,0,0,0,2.44,5.9L475,203.45V225a8.16,8.16,0,0,0,.43,2.64l6.7,20.11Zm-22.26-57.62h16.66V225H441.67Z"/></g></svg>