<svg xmlns="http://www.w3.org/2000/svg" viewBox="0 0 500 500"><defs><style>.cls-1{fill:#4d4d4d;}</style></defs><title>Bio</title><g id="Layer_6" data-name="Layer 6"><path class="cls-1" d="M241.79,87.34c-3.92,5-96,123.84-96,203.72a104.32,104.32,0,0,0,93.75,103.71v32.31a10.42,10.42,0,0,0,20.84,0V394.77a104.32,104.32,0,0,0,93.75-103.71c0-79.88-92-198.7-96-203.72S245.74,82.28,241.79,87.34Zm-2.21,286.6a83.57,83.57,0,0,1-72.91-82.88,112.67,112.67,0,0,1,2-19.83l70.87,56.7Zm0-72.69L174.33,249a321.8,321.8,0,0,1,18-43.92l47.22,39.36v56.78Zm0-83.91L202.22,186.2a706,706,0,0,1,37.36-60.28Zm20.84-91.42a703.52,703.52,0,0,1,37.36,60.28l-37.36,31.14Zm0,118.55,47.22-39.35a321.16,321.16,0,0,1,18,43.91l-65.25,52.22V244.47Zm0,83.46,70.87-56.7a112.67,112.67,0,0,1,2,19.83,83.57,83.57,0,0,1-72.91,82.88Zm222.75-39.17C491.07,277.62,500,265,500,250s-8.93-27.62-16.83-38.76C478,203.93,473.1,197,471.41,190.67c-1.82-6.8-1-15.51-.21-24.74,1.26-14,2.56-28.48-4.67-41-7.32-12.68-21.23-19.09-33.49-24.73-8.32-3.84-16.16-7.45-21-12.28s-8.44-12.68-12.28-21C394.11,54.71,387.71,40.8,375,33.48c-12.5-7.24-27-5.92-41-4.68-9.23.81-17.93,1.59-24.73-.21C303,26.89,296.07,22,288.76,16.82,277.62,8.93,265,0,250,0s-27.62,8.93-38.76,16.83C203.93,22,197,26.9,190.67,28.59c-6.82,1.81-15.53,1-24.74.21-14-1.25-28.46-2.57-41,4.67C112.29,40.79,105.88,54.7,100.24,67,96.4,75.28,92.79,83.12,88,88s-12.68,8.44-21,12.28C54.71,105.89,40.8,112.29,33.48,125c-7.23,12.48-5.93,27-4.68,41,.83,9.22,1.6,17.94-.21,24.73C26.89,197,22,203.93,16.82,211.24,8.93,222.38,0,235,0,250s8.93,27.62,16.83,38.76C22,296.07,26.9,303,28.59,309.33c1.82,6.8,1,15.51.21,24.74-1.26,14-2.56,28.48,4.67,41C40.79,387.71,54.7,394.12,67,399.76c8.32,3.84,16.16,7.45,21,12.28s8.44,12.68,12.28,21c5.66,12.26,12.06,26.17,24.73,33.49,12.49,7.23,27,5.92,41,4.68,9.21-.84,17.92-1.62,24.73.21,6.36,1.7,13.27,6.59,20.58,11.77C222.38,491.07,235,500,250,500s27.62-8.93,38.76-16.83c7.31-5.17,14.22-10.07,20.57-11.76,6.78-1.84,15.51-1.05,24.74-.21,14,1.26,28.46,2.58,41-4.67,12.68-7.32,19.09-21.23,24.73-33.49,3.84-8.32,7.45-16.16,12.28-21s12.68-8.44,21-12.28c12.26-5.66,26.17-12.06,33.49-24.73,7.23-12.48,5.93-27,4.68-41-.83-9.22-1.6-17.94.21-24.73C473.1,303,478,296.07,483.17,288.76Zm-17-12.05c-6,8.5-12.23,17.29-14.9,27.25-2.76,10.36-1.79,21.35-.83,32,1,11.27,2,21.91-1.95,28.67-4,6.95-13.83,11.47-24.19,16.25-9.61,4.42-19.53,9-27,16.47s-12.05,17.39-16.47,27c-4.77,10.36-9.29,20.16-16.25,24.19-6.77,3.91-17.42,2.95-28.66,1.94-10.64-1-21.61-1.95-32,.84-9.95,2.66-18.74,8.88-27.24,14.89-9.43,6.68-18.35,13-26.71,13s-17.28-6.31-26.71-13c-8.5-6-17.29-12.23-27.24-14.89a59.55,59.55,0,0,0-15.57-1.82c-5.48,0-11,.49-16.41,1-11.28,1-21.9,2-28.67-1.95-7-4-11.47-13.83-16.25-24.19-4.42-9.6-9-19.53-16.47-27s-17.39-12.05-27-16.47c-10.36-4.77-20.16-9.29-24.19-16.25-3.91-6.76-3-17.4-1.94-28.66,1-10.62,1.93-21.61-.83-32-2.67-9.95-8.89-18.74-14.9-27.24-6.68-9.43-13-18.35-13-26.71s6.31-17.28,13-26.71c6-8.5,12.23-17.29,14.9-27.24,2.76-10.37,1.79-21.36.83-32-1-11.27-2-21.91,2-28.67,4-7,13.83-11.47,24.19-16.25,9.61-4.42,19.53-9,27-16.47s12-17.39,16.47-27c4.77-10.36,9.29-20.16,16.25-24.19,6.74-3.92,17.38-3,28.66-1.94,10.61,1,21.59,1.94,32-.83,9.95-2.67,18.74-8.89,27.24-14.9,9.43-6.68,18.35-13,26.71-13s17.28,6.31,26.71,13c8.5,6,17.29,12.23,27.24,14.9,10.36,2.77,21.34,1.79,32,.83,11.3-1,21.92-1.95,28.67,2,6.95,4,11.47,13.83,16.25,24.19,4.42,9.61,9,19.53,16.47,27s17.39,12,27,16.47c10.36,4.77,20.16,9.29,24.19,16.25,3.91,6.76,3,17.4,1.94,28.66-1,10.62-1.93,21.61.83,32,2.67,9.95,8.88,18.74,14.9,27.24,6.68,9.43,13,18.35,13,26.71S472.86,267.28,466.18,276.71Z"/></g></svg>