<svg xmlns="http://www.w3.org/2000/svg" viewBox="0 0 500 500"><defs><style>.cls-1{fill:#4d4d4d;}</style></defs><title>Boissons - Boissons gazeuses</title><g id="Layer_10" data-name="Layer 10"><path class="cls-1" d="M47.23,385a28.39,28.39,0,1,0,28.39-28.39A28.42,28.42,0,0,0,47.23,385Zm42.13,0a13.74,13.74,0,1,1-13.74-13.75A13.76,13.76,0,0,1,89.36,385Zm22.35-39.14a22.35,22.35,0,1,0-22.35-22.35A22.38,22.38,0,0,0,111.71,345.82Zm0-30.05a7.7,7.7,0,1,1-7.7,7.7A7.71,7.71,0,0,1,111.71,315.77Zm78,121.71a22.36,22.36,0,1,0-22.36,22.35A22.38,22.38,0,0,0,189.66,437.48Zm-30.06,0a7.71,7.71,0,1,1,7.7,7.71A7.72,7.72,0,0,1,159.6,437.48ZM484.36,313.91A31.25,31.25,0,0,0,453.54,287h-5.19l5-13a7.33,7.33,0,0,0-13.68-5.26l-7,18.26H402.17c-1-.49-2.07-1-3.14-1.36-7.61-2.83-11.47-7.25-11.47-13.13,0-5.48,9.26-9.92,13.25-11.58A37.81,37.81,0,0,0,423.49,233c4.92-26.09,7.15-54,8.05-68.31a37.54,37.54,0,0,0-4.87-21.05c-19.12-33.24-53.76-55.88-65.34-62.81V57.4h.38A7.33,7.33,0,0,0,369,50.07V23.74A23.77,23.77,0,0,0,345.29,0h-58a23.77,23.77,0,0,0-23.74,23.74V50.07a7.33,7.33,0,0,0,7.33,7.33h.38V80.82a222.34,222.34,0,0,0-40.87,31.68v-5.14a26.67,26.67,0,0,0-12.65-50.15H102a26.67,26.67,0,0,0-12.64,50.15v22.41a241.86,241.86,0,0,0-61.26,52.06,35.81,35.81,0,0,0-7.94,18.22c-1.19,9.06-3,23.85-4.72,42.86a7.33,7.33,0,0,0,6.63,8c.22,0,.45,0,.67,0A7.33,7.33,0,0,0,30,244.24c1.72-18.77,3.48-33.35,4.65-42.28a21.49,21.49,0,0,1,2.83-8.13h166c1.29,12.18,3.1,25.91,5.59,39.15a37.77,37.77,0,0,0,22.7,28c4,1.65,13.23,6.1,13.23,11.58,0,5.88-3.86,10.3-11.47,13.14A38,38,0,0,0,209,317.72c-2.88,33.18-5,97.37,13.05,154.56A39.48,39.48,0,0,0,229,485.21c-1.41.09-2.82.14-4.23.14H95a68.16,68.16,0,0,1-67.77-62.86c-3.35-45.53-3.19-95.74.48-149.22a7.33,7.33,0,0,0-14.62-1c-3.71,54.18-3.87,105.09-.47,151.31A82.55,82.55,0,0,0,95,500H224.74a83.16,83.16,0,0,0,20.87-2.66A40.19,40.19,0,0,0,260,500H453.54a31.25,31.25,0,0,0,30.82-26.91,584.41,584.41,0,0,0,0-159.18Zm-9.88,107.27a37.22,37.22,0,1,1-.48-63.84,571.28,571.28,0,0,1,.48,63.84ZM416.92,163.77c-.7,11.19-2.24,30.88-5.27,51.28H220.94c-3-20.38-4.57-40.08-5.28-51.27a22.85,22.85,0,0,1,3-12.85q1.35-2.33,2.8-4.58H411.17c1,1.5,1.91,3,2.8,4.58a22.84,22.84,0,0,1,2.95,12.84ZM104,110.56H215.74v16.18H104ZM278.2,23.74a9.1,9.1,0,0,1,9.09-9.09h58a9.1,9.1,0,0,1,9.09,9.09v19H278.2ZM346.68,57.4V77.73H285.91V57.4Zm-66.17,35h71.56c6.18,3.61,29.42,17.94,48,39.32H232.49C251.09,110.31,274.34,96,280.51,92.38ZM102,71.86H217.74a12,12,0,0,1,0,24H102a12,12,0,0,1,0-24ZM50.23,179.18a229.56,229.56,0,0,1,48.35-37.79H207.25c-.45.74-.89,1.48-1.33,2.23A37.49,37.49,0,0,0,201,164.69c.25,3.92.6,8.85,1.07,14.49ZM453.54,485.35h-86.1a16.56,16.56,0,0,1-16.22-14.26c-1.15-8.39-2.12-16.84-2.88-25.11a7.33,7.33,0,0,0-14.59,1.34c.78,8.49,1.78,17.15,3,25.77a31,31,0,0,0,4.47,12.26H260a25,25,0,0,1-24-17.48C218.71,413.09,220.81,351.08,223.6,319a23.27,23.27,0,0,1,15.07-19.62c13.34-5,21-14.77,21-26.86,0-7.23-3.86-17.45-22.25-25.1a23.17,23.17,0,0,1-13.93-17.14c0-.19-.07-.38-.11-.58H409.21c0,.19-.07.39-.11.58a23.2,23.2,0,0,1-13.93,17.13c-18.4,7.66-22.26,17.88-22.26,25.11A25.71,25.71,0,0,0,377.25,287h-9.71a31.26,31.26,0,0,0-30.83,26.91,584.71,584.71,0,0,0-4.94,104,7.33,7.33,0,0,0,14.64-.62,569.48,569.48,0,0,1,4.81-101.35,16.55,16.55,0,0,1,16.32-14.26h86a16.55,16.55,0,0,1,16.31,14.26q1.69,12.31,2.83,24.68A51.87,51.87,0,1,0,473.4,438q-1.29,16.6-3.55,33.14a16.55,16.55,0,0,1-16.31,14.26Z"/></g></svg>