<svg xmlns="http://www.w3.org/2000/svg" viewBox="0 0 500 500"><defs><style>.cls-1{fill:#4d4d4d;}</style></defs><title>Boissons - Thés glâcés</title><g id="Layer_10" data-name="Layer 10"><path class="cls-1" d="M377,128.91H287.11V50.78h74.22a25.39,25.39,0,1,0,0-50.78H281.25a45,45,0,0,0-44.92,44.92v84H207.1a9.76,9.76,0,0,0-9.76,9.76v45.8c-22.57-2-44-3.22-62-2.66l-2-33.37h6.35a9.77,9.77,0,1,0,0-19.53h-16.7a9.75,9.75,0,0,0-9.75,10.34l19.53,332c.95,16.1,13.81,28.72,29.28,28.72H337.89c15.47,0,28.33-12.62,29.28-28.72l19.53-332A9.75,9.75,0,0,0,377,128.91Zm-10.36,19.53-2.75,46.87c-17.89,2.68-46,1.07-76.73-1.78V148.44ZM255.86,190.38V148.44h11.72V191.6Q261.73,191,255.86,190.38Zm0-145.46a25.47,25.47,0,0,1,25.39-25.39h80.08a5.86,5.86,0,1,1,0,11.72H281.25a13.73,13.73,0,0,0-13.67,13.67v84H255.86Zm-39,103.52h19.46v39.87c-6.5-.68-13-1.36-19.46-2Zm130.8,321.69c-.34,5.89-4.55,10.34-9.78,10.34H162.11c-5.23,0-9.44-4.45-9.78-10.34L136.52,201.32c17.39-.51,38.47.77,60.82,2.75v12.6a21.33,21.33,0,0,0-3.11,2L175.71,233a20.62,20.62,0,0,0-8,15.28,10.37,10.37,0,0,0-.06,1.12v41.74a20.78,20.78,0,0,0,20.76,20.75h37.45a20.78,20.78,0,0,0,20.75-20.75V249.39a20.71,20.71,0,0,0-9-17.13l-17.78-13.71a21.09,21.09,0,0,0-2.9-1.88V205.93c9.21.93,18.5,1.92,27.73,2.9,10.76,1.14,21.39,2.27,31.74,3.29h0c23.66,2.33,45.81,4.09,64.45,4.09a199.61,199.61,0,0,0,21.87-1.06Zm-141.45-236,.14-.11a1.2,1.2,0,0,1,1.47,0l18,13.91a6.37,6.37,0,0,0,.62.44,1.21,1.21,0,0,1,.56,1v41.74a1.22,1.22,0,0,1-1.22,1.22H188.38a1.23,1.23,0,0,1-1.23-1.22V250.21c0-.27,0-.54,0-.81a1.17,1.17,0,0,1,.45-.94Zm-38.41-85.68h.26a9.77,9.77,0,1,0,0-19.53h-.26a9.77,9.77,0,0,0,0,19.53ZM260,451.17h-.23a9.77,9.77,0,0,0,0,19.53H260a9.77,9.77,0,1,0,0-19.53Zm68.13,0H288.05a9.77,9.77,0,1,0,0,19.53h40.07a9.77,9.77,0,1,0,0-19.53ZM232.24,374.6a19.58,19.58,0,0,0-26.68-7.15L180.19,382.1A19.56,19.56,0,0,0,173,408.78l14.65,25.37a19.52,19.52,0,0,0,26.68,7.15l25.37-14.65A19.56,19.56,0,0,0,246.89,400ZM204.6,424.39,190,399l25.38-14.65L230,409.74ZM325,303.83l-28.3-7.58a19.55,19.55,0,0,0-23.92,13.8l-7.58,28.31A19.55,19.55,0,0,0,279,362.27l28.3,7.59a19.55,19.55,0,0,0,23.92-13.81l7.59-28.3A19.55,19.55,0,0,0,325,303.83ZM312.38,351l-28.3-7.58,7.58-28.3,28.3,7.58Z"/></g></svg>