<svg xmlns="http://www.w3.org/2000/svg" viewBox="0 0 500 500"><defs><style>.cls-1{fill:#4d4d4d;}</style></defs><title>Boissons - Eaux</title><g id="Layer_10" data-name="Layer 10"><path id="Outline" class="cls-1" d="M191.67,77.05V66.67A8.33,8.33,0,0,0,200,58.33V20.83A20.85,20.85,0,0,0,179.17,0H120.83A20.85,20.85,0,0,0,100,20.83v37.5a8.33,8.33,0,0,0,8.33,8.34V77.06A96.46,96.46,0,0,0,72.71,97.88L84,110.13a79.83,79.83,0,0,1,34.68-18.71A8.33,8.33,0,0,0,125,83.33V66.67h50V83.33a8.33,8.33,0,0,0,6.31,8.09,79.56,79.56,0,0,1,60.36,77.3v8.48a150.83,150.83,0,0,1-89-1.77,167.07,167.07,0,0,0-60.93-8.28,46,46,0,0,1,4.69-18.87l-15-7.34A62.65,62.65,0,0,0,75,168.72v.1a166.24,166.24,0,0,0-16.67,3.38v-3.48a79.21,79.21,0,0,1,15.19-46.79L60,112.14a95.7,95.7,0,0,0-18.36,56.58v57.71A24.86,24.86,0,0,0,49,244.11a8.34,8.34,0,0,1,0,11.78,24.84,24.84,0,0,0-7.32,17.68v11.19A24.84,24.84,0,0,0,49,302.44a8.34,8.34,0,0,1,0,11.78,24.86,24.86,0,0,0-7.32,17.68v11.2A24.82,24.82,0,0,0,49,360.77a8.35,8.35,0,0,1,0,11.79,24.84,24.84,0,0,0-7.32,17.68v11.19A24.86,24.86,0,0,0,49,419.11a8.34,8.34,0,0,1,0,11.78,24.86,24.86,0,0,0-7.32,17.68v18.1A33.37,33.37,0,0,0,75,500H225a33.37,33.37,0,0,0,33.33-33.33v-18.1A24.86,24.86,0,0,0,251,430.89a8.34,8.34,0,0,1,0-11.78,24.86,24.86,0,0,0,7.32-17.68V390.24A24.84,24.84,0,0,0,251,372.56a8.35,8.35,0,0,1,0-11.79,24.82,24.82,0,0,0,7.32-17.67V331.9A24.86,24.86,0,0,0,251,314.22a8.34,8.34,0,0,1,0-11.78,24.84,24.84,0,0,0,7.32-17.68V273.57A24.86,24.86,0,0,0,251,255.89a8.34,8.34,0,0,1,0-11.78,24.86,24.86,0,0,0,7.32-17.68V168.72a96.2,96.2,0,0,0-66.66-91.67Zm-75-27V20.83a4.16,4.16,0,0,1,4.16-4.16h58.34a4.16,4.16,0,0,1,4.16,4.16V50ZM239.23,267.68a8.33,8.33,0,0,1,2.44,5.89v11.19a8.36,8.36,0,0,1-2.44,5.9,25,25,0,0,0,0,35.35,8.33,8.33,0,0,1,2.44,5.89v11.2a8.33,8.33,0,0,1-2.44,5.89,25,25,0,0,0,0,35.35h0a8.36,8.36,0,0,1,2.44,5.9v11.19a8.33,8.33,0,0,1-2.44,5.89,25,25,0,0,0,0,35.36,8.33,8.33,0,0,1,2.44,5.89v18.1A16.68,16.68,0,0,1,225,483.33H75a16.68,16.68,0,0,1-16.67-16.66v-18.1a8.33,8.33,0,0,1,2.44-5.89,25,25,0,0,0,0-35.36,8.33,8.33,0,0,1-2.44-5.89V390.24a8.36,8.36,0,0,1,2.44-5.9,25,25,0,0,0,0-35.35h0a8.33,8.33,0,0,1-2.44-5.89V331.9A8.33,8.33,0,0,1,60.77,326a25,25,0,0,0,0-35.35,8.36,8.36,0,0,1-2.44-5.9V273.57a8.33,8.33,0,0,1,2.44-5.89,25,25,0,0,0,0-35.36,8.33,8.33,0,0,1-2.44-5.89v-37A148.79,148.79,0,0,1,75,185.69V200H91.67V183.84a150.18,150.18,0,0,1,55.7,7.4A166.55,166.55,0,0,0,200,199.72a166.89,166.89,0,0,0,41.67-5.26v32a8.33,8.33,0,0,1-2.44,5.89,25,25,0,0,0,0,35.36ZM112.85,129.78l-9-14a62.62,62.62,0,0,0-14.32,12.7l12.82,10.65a46.63,46.63,0,0,1,10.53-9.34ZM83.33,275H216.67v16.67H83.33Zm0,58.33H216.67V350H83.33Zm0,58.34H216.67v16.66H83.33ZM456.2,252.76A8.32,8.32,0,0,0,450,250H283.33a8.33,8.33,0,0,0-8.33,8.33,8.69,8.69,0,0,0,.05.89l25,233.34a8.33,8.33,0,0,0,8.28,7.44H425a8.34,8.34,0,0,0,8.29-7.44l5.57-52.05-16.57-1.77-4.78,44.59H315.82L297.67,313.88l3.66-1.37a77.56,77.56,0,0,1,61.61,3.28,94.16,94.16,0,0,0,72,5l-10.72,100,16.58,1.77,17.5-163.34a8.35,8.35,0,0,0-2.09-6.46ZM432,304.16a77.56,77.56,0,0,1-61.61-3.28,94.25,94.25,0,0,0-74.56-4.11l-3.23-30.1H440.73l-3.82,35.66ZM316.6,333.37l16.57-1.78L335,348.84l-16.57,1.78Zm3.65,33.91,16.57-1.79L344,432.14l-16.56,1.78Z"/></g></svg>