<svg xmlns="http://www.w3.org/2000/svg" viewBox="0 0 500 500"><defs><style>.cls-1{fill:#4d4d4d;}</style></defs><title>Boissons</title><g id="Layer_10" data-name="Layer 10"><path class="cls-1" d="M233.33,135.51v81.16h-125A8.33,8.33,0,0,0,100,225v31.36L84.21,287.94a8.45,8.45,0,0,0-.88,3.73V458.33a8.45,8.45,0,0,0,.88,3.73l16.67,33.33a8.34,8.34,0,0,0,7.45,4.61H241.67a8.34,8.34,0,0,0,7.45-4.61l.15-.31a33.27,33.27,0,0,0,43.32-7.49C300.24,495.16,311.92,500,325,500s24.76-4.84,32.41-12.41a33.32,33.32,0,0,0,59.26-20.93,4.61,4.61,0,0,0,0-.52l-8.28-132.48,8.21-57.48a9.36,9.36,0,0,0,.08-1.18h0V135.51a41.48,41.48,0,0,0-7.54-23.9L366,50h.67A8.33,8.33,0,0,0,375,41.67V25A25,25,0,0,0,350,0H300a25,25,0,0,0-25,25V41.67A8.33,8.33,0,0,0,283.33,50H284l-43.12,61.61A41.48,41.48,0,0,0,233.33,135.51ZM100,450V300h67.59c8.24,21.28,15.74,43.79,15.74,66.67,0,37.29-11.4,59.16-25.06,83.33Zm85.43-150h15.5c8.24,21.28,15.74,43.79,15.74,66.67,0,37.29-11.41,59.16-25.07,83.33H177.35C189.7,427.39,200,403.72,200,366.67,200,343.25,193.3,321,185.43,300Zm51.09,183.33h-123l-8.33-16.67h139.7Zm146.81,0a16.68,16.68,0,0,1-16.66-16.67,8.34,8.34,0,0,0-16.67,0c0,9-11.45,16.67-25,16.67s-25-7.63-25-16.67a8.34,8.34,0,0,0-16.67,0,16.65,16.65,0,0,1-26.55,13.41l9-18a8.41,8.41,0,0,0,.88-3.72V291.67a8.32,8.32,0,0,0-.88-3.73l-2.31-4.61H398.72l-7,48.82a8.8,8.8,0,0,0-.07,1.7l8.32,133A16.69,16.69,0,0,1,383.33,483.33ZM291.67,25A8.33,8.33,0,0,1,300,16.67h50A8.33,8.33,0,0,1,358.33,25v8.33H291.67ZM250,135.51a24.87,24.87,0,0,1,4.52-14.34L304.34,50h41.32l49.82,71.17A24.87,24.87,0,0,1,400,135.51V150H250ZM250,225V166.67H400v100H255.15L250,256.36Zm0,225H210.68c12.35-22.61,22.65-46.28,22.65-83.33,0-23.42-6.7-45.66-14.57-66.67H250ZM105.15,283.33l8.33-16.66h78.19a8.34,8.34,0,0,0,0-16.67h-75V233.33H233.33V250H225a8.34,8.34,0,0,0,0,16.67h11.52l8.33,16.66Z"/></g></svg>