<svg xmlns="http://www.w3.org/2000/svg" viewBox="0 0 500 500"><defs><style>.cls-1{fill:#4d4d4d;}</style></defs><title>Bébé - Soin</title><g id="Layer_7" data-name="Layer 7"><path class="cls-1" d="M308.61,446.56H196.51a89.77,89.77,0,0,1-34.67-7,64.55,64.55,0,0,0-53.91-85.72,87.41,87.41,0,0,1,40.28-68.39,12.13,12.13,0,0,0,5.58-9.58,12.29,12.29,0,0,0-4.61-10.25,88.75,88.75,0,0,1,86.6-152.42A7.32,7.32,0,1,0,241,99.5,103,103,0,0,0,130,125a104,104,0,0,0-24.56,42.25H53.94a12.22,12.22,0,0,0-12.2,12.21v6.76a67,67,0,0,0,66.89,66.89h9.47A103.81,103.81,0,0,0,137.5,275a102.14,102.14,0,0,0-44.25,79,64.59,64.59,0,0,0-50.62,91.84,7.33,7.33,0,0,0,13.23-6.3A49.47,49.47,0,0,1,51,418a49.92,49.92,0,1,1,23.8,42.55,7.33,7.33,0,0,0-7.68,12.48,64.54,64.54,0,0,0,88.23-20.33,104.62,104.62,0,0,0,41.13,8.47h112.1a7.33,7.33,0,0,0,0-14.65Zm-200-208.09a52.31,52.31,0,0,1-52.25-52.25v-4.31h45.8a102,102,0,0,0-.45,25.55,103.14,103.14,0,0,0,8.34,31ZM204.4,357.11v8.43a35.78,35.78,0,0,0,35.75,35.74h58.61a67,67,0,0,0,66.89-66.89v-2.63a10.42,10.42,0,0,0-10.4-10.4H240.15a35.79,35.79,0,0,0-35.75,35.75Zm94.36,29.53H240.15a21.12,21.12,0,0,1-21.1-21.1v-8.43a21.12,21.12,0,0,1,21.1-21.1H351A52.3,52.3,0,0,1,298.76,386.64ZM71.37,324.94a35.69,35.69,0,1,0-35.69,35.68A35.73,35.73,0,0,0,71.37,324.94ZM35.68,346a21,21,0,1,1,21-21A21,21,0,0,1,35.68,346ZM452.28,72.55A47.72,47.72,0,1,0,500,120.27,47.78,47.78,0,0,0,452.28,72.55Zm0,80.79a33.07,33.07,0,1,1,33.07-33.07A33.11,33.11,0,0,1,452.28,153.34ZM373.85,88.75a35.69,35.69,0,1,0-35.69-35.68A35.73,35.73,0,0,0,373.85,88.75Zm0-56.72a21,21,0,1,1-21,21A21.06,21.06,0,0,1,373.85,32ZM156.19,181.57a7.33,7.33,0,1,0,7.33-7.33A7.33,7.33,0,0,0,156.19,181.57ZM462.28,265.9a69.63,69.63,0,0,0-69-92.65c-35.52,1.65-64.61,30.76-66.24,66.27a70.29,70.29,0,0,0,1.39,17.63H288a103.38,103.38,0,0,0-17.39-140.34,7.33,7.33,0,0,0-9.38,11.26,88.71,88.71,0,0,1,12.32,123.85,12.2,12.2,0,0,0,9.49,19.88h50.22a69.86,69.86,0,0,0,13,19.06,69,69,0,0,0,50.35,21.53H397a40.9,40.9,0,0,0,33.44,24.67,85.64,85.64,0,0,1,2.84,26.1A87.39,87.39,0,0,1,346,446.57h-5.49a7.33,7.33,0,1,0,0,14.65H346A102,102,0,0,0,448,363.81a100.13,100.13,0,0,0-2.65-27.93,41.32,41.32,0,0,0,30.4-37.64,40.71,40.71,0,0,0-13.42-32.34Zm-1.21,31.65a26.36,26.36,0,0,1-51,8,12.17,12.17,0,0,0-11.41-7.86h-.38l-1.69,0a55,55,0,0,1-54.91-57.55A55.3,55.3,0,0,1,394,187.88a55,55,0,0,1,54,74.41A12.19,12.19,0,0,0,451.58,276a26.19,26.19,0,0,1,9.49,21.54Z"/></g></svg>