<svg xmlns="http://www.w3.org/2000/svg" viewBox="0 0 500 500"><defs><style>.cls-1{fill:#4d4d4d;}</style></defs><title>Bébé - Couches et lingettes</title><g id="Layer_7" data-name="Layer 7"><path id="Page-1" class="cls-1" d="M483.33,155.69V95.82a25,25,0,0,0-25-25H41.67a25,25,0,0,0-25,25v59.87A25,25,0,0,0,0,179.15v41.67a25,25,0,0,0,16.67,23.47v32a58.31,58.31,0,0,0,19.84,43.85l93.89,82.4A74.59,74.59,0,0,0,167.12,420l26.66,4.5a339.42,339.42,0,0,0,112.43,0l26.66-4.5a74.48,74.48,0,0,0,36.67-17.45l93.91-82.41a58.33,58.33,0,0,0,19.88-43.89v-32A25,25,0,0,0,500,220.82V179.15a25,25,0,0,0-16.67-23.46Zm-125-1.54V137.49H466.67v16.66Zm-325,0V137.49H141.67v16.66Zm50-33.33V87.49h33.34v33.33Zm50,0V87.49h33.34v33.33Zm50-33.33h33.34v33.33H183.33Zm50,0h33.34v33.33H233.33Zm50,0h33.34v33.33H283.33Zm50,0h33.34v33.33H333.33Zm50,33.33V87.49h33.34v33.33Zm83.34-25v25H433.33V87.49h25A8.33,8.33,0,0,1,466.67,95.82Zm-425-8.33h25v33.33H33.33v-25A8.33,8.33,0,0,1,41.67,87.49Zm-25,91.66A8.33,8.33,0,0,1,25,170.82H175a8.33,8.33,0,0,1,8.33,8.33v41.67a8.33,8.33,0,0,1-8.33,8.33H25a8.33,8.33,0,0,1-8.33-8.33Zm125,135.26c-31.85-30.13-81.5-31-107.32-29.06a42.26,42.26,0,0,1-1-9.11V245.82H141.67ZM47.5,307.57a41.66,41.66,0,0,1-5.57-6c24.62-1.14,64.55,1.41,89.35,25.83,16.39,16.17,24.06,40.08,23,71.07A57.41,57.41,0,0,1,141.41,390ZM303.46,408a323.46,323.46,0,0,1-106.91,0l-25.92-4.38a124.92,124.92,0,0,0-12.3-67.34v-90.5H175a25,25,0,0,0,25-25V179.15a25,25,0,0,0-25-25H158.33V137.49H341.67v16.66H325a25,25,0,0,0-25,25v41.67a25,25,0,0,0,25,25h16.67v90.5a125,125,0,0,0-12.3,67.35ZM466.67,245.82v30.42a42.24,42.24,0,0,1-1,9.1c-25.83-2-75.48-1.07-107.32,29.06V245.82ZM452.5,307.57,358.57,390a56.81,56.81,0,0,1-12.84,8.5c-1.06-31,6.6-54.9,23-71.07,24.8-24.47,64.74-27,89.35-25.83A41.47,41.47,0,0,1,452.5,307.57Zm30.83-86.75a8.33,8.33,0,0,1-8.33,8.33H325a8.33,8.33,0,0,1-8.33-8.33V179.15a8.33,8.33,0,0,1,8.33-8.33H475a8.33,8.33,0,0,1,8.33,8.33Z"/></g></svg>