<svg xmlns="http://www.w3.org/2000/svg" viewBox="0 0 500 500"><defs><style>.cls-1{fill:#4d4d4d;}</style></defs><title>Bébé</title><g id="Layer_7" data-name="Layer 7"><path class="cls-1" d="M233.22,33.33a25,25,0,1,0,25,25A25,25,0,0,0,233.22,33.33Zm0,33.34a8.34,8.34,0,1,1,8.34-8.34A8.33,8.33,0,0,1,233.22,66.67ZM441.69,308.33h-25a8.34,8.34,0,1,0,0,16.67h25a8.34,8.34,0,0,0,0-16.67Zm0,33.34h-25a8.33,8.33,0,1,0,0,16.66h25a8.33,8.33,0,1,0,0-16.66Zm0,33.33h-25a8.34,8.34,0,1,0,0,16.67h25a8.34,8.34,0,0,0,0-16.67Zm0,33.33h-25a8.34,8.34,0,1,0,0,16.67h25a8.34,8.34,0,0,0,0-16.67Zm0,33.34h-25a8.33,8.33,0,1,0,0,16.66h25a8.33,8.33,0,1,0,0-16.66ZM91.69,475a75.24,75.24,0,0,0,25-4.28V475a25,25,0,0,0,43.87,16.37A141,141,0,0,0,209.4,500H257a140.08,140.08,0,0,0,56-11.48A41.56,41.56,0,0,0,341.69,500h100a41.71,41.71,0,0,0,41.66-41.67V325a75,75,0,0,0-33.73-62.59,33.31,33.31,0,0,0-.51-58.44,36.54,36.54,0,0,0,.91-8.14c0-15.14-9.45-29.18-25-37.66V125a33.32,33.32,0,0,0-49-29.44A141.68,141.68,0,0,0,242.1,0H224.35A141.68,141.68,0,0,0,83,131.92L69.47,328.36A75,75,0,0,0,91.69,475ZM150,475a8.34,8.34,0,0,1-16.67,0V325A8.34,8.34,0,0,1,150,325Zm16.67-116.23a20.77,20.77,0,0,1,4.16-.44c10,0,19.48,7.66,24.83,20a8.33,8.33,0,0,0,7.64,5h38.37a16.67,16.67,0,0,1,0,33.34H203.32a8.33,8.33,0,0,0-7.64,5c-5.35,12.33-14.86,20-24.83,20a20.77,20.77,0,0,1-4.16-.44Zm300-33.77V458.33a25,25,0,0,1-25,25h-100a25,25,0,0,1-25-25V325A58.39,58.39,0,0,1,375,266.67h33.33A58.4,58.4,0,0,1,466.69,325Zm-33.34-75H350a16.67,16.67,0,1,1,0-33.33h83.33a16.67,16.67,0,1,1,0,33.33ZM391.69,108.33A16.68,16.68,0,0,1,408.35,125v38.36a8.34,8.34,0,0,0,5,7.65c12.32,5.34,20,14.86,20,24.82a20.16,20.16,0,0,1-.44,4.17H350.46a20.16,20.16,0,0,1-.44-4.17c0-10,7.66-19.48,20-24.82a8.34,8.34,0,0,0,5-7.65V125A16.69,16.69,0,0,1,391.69,108.33Zm-292,24.74A125.08,125.08,0,0,1,187.48,22.21,58.23,58.23,0,0,0,197,104c1.17.93,2.39,1.81,3.63,2.65A83.33,83.33,0,1,0,233.22,100a41.67,41.67,0,0,1,0-83.33h8.88a123.74,123.74,0,0,1,77.63,27,125.6,125.6,0,0,1,42.93,65A33.1,33.1,0,0,0,358.35,125v33.17c-15.55,8.48-25,22.52-25,37.66a37.14,37.14,0,0,0,.92,8.14,33.31,33.31,0,0,0-.51,58.44A75,75,0,0,0,300,325V458.33a41.44,41.44,0,0,0,3.27,16.18A123.74,123.74,0,0,1,257,483.33H209.4a124.37,124.37,0,0,1-42.74-7.48c0-.28,0-.57,0-.85V458.1a38.52,38.52,0,0,0,4.16.23c15.15,0,29.19-9.44,37.67-25h33.17a33.33,33.33,0,1,0,0-66.66H208.52c-8.48-15.56-22.52-25-37.67-25a36.12,36.12,0,0,0-4.16.23V325a25,25,0,0,0-50,0v4.29a75,75,0,0,0-25-4.29c-1.79,0-3.54.09-5.3.21Zm133.58-16.4a66.67,66.67,0,1,1-66.66,66.66A66.66,66.66,0,0,1,233.22,116.67Zm-141.53,225a58.46,58.46,0,0,1,25,5.62v19.4a41.67,41.67,0,1,0,0,66.62v19.4a58.34,58.34,0,1,1-25-111Zm25,58.33a25,25,0,1,1-25-25A25,25,0,0,1,116.69,400Z"/></g></svg>