<svg xmlns="http://www.w3.org/2000/svg" viewBox="0 0 500 500"><defs><style>.cls-1{fill:#4d4d4d;}</style></defs><title>Bébé - Alimentation</title><g id="Layer_7" data-name="Layer 7"><path class="cls-1" d="M98.15,204.46a9.78,9.78,0,1,0,2.86,6.91A9.83,9.83,0,0,0,98.15,204.46ZM463.92,99.34c4.8-1.83,8.94-3.41,12.1-5.41a53.28,53.28,0,0,0,9.13-7.2,50.83,50.83,0,0,0-71.88-71.88,53.38,53.38,0,0,0-7.2,9.13c-2,3.16-3.58,7.3-5.41,12.1-1.76,4.61-5.82,15.26-8.74,17.07a6.13,6.13,0,0,1-1.43-.75c-13.85-9-44.37-23.37-68.05-18.81l-7.84-7.84a36.47,36.47,0,0,0-59.36,40,67.05,67.05,0,0,0-51.7,19.51l-96.62,96.63a9.77,9.77,0,0,0,13.81,13.81l54.82-54.83,34.75,34.75a9.77,9.77,0,0,0,13.81-13.81l-34.74-34.75,28-28a47.69,47.69,0,0,1,67.47,0L400.93,215.18a47.7,47.7,0,0,1,0,67.46L212.25,471.33a31.31,31.31,0,0,1-44.24,0L28.67,332a31.31,31.31,0,0,1,0-44.24l44.94-44.94A9.77,9.77,0,0,0,59.8,229L14.86,273.94a50.89,50.89,0,0,0,0,71.87L154.19,485.14a50.88,50.88,0,0,0,71.87,0L414.74,296.46a67.06,67.06,0,0,0,19.52-51.7,36.46,36.46,0,0,0,40-59.36l-7.85-7.84c4.57-23.68-9.79-54.2-18.81-68a6.38,6.38,0,0,1-.74-1.43C448.66,105.16,459.31,101.1,463.92,99.34Zm-15.31,88h0l11.82,11.82a16.92,16.92,0,0,1-23.93,23.93L276.86,63.49a16.92,16.92,0,0,1,23.93-23.93l11.83,11.83h0Zm-17.38-67.21c7.12,10.94,13.22,25.28,15.55,37.76L342.07,53.22c12.48,2.33,26.82,8.43,37.76,15.56,7.53,4.9,13.92,4.36,17.95,3,11.59-3.77,16.88-17.64,21.13-28.79a68.41,68.41,0,0,1,3.65-8.59,33.39,33.39,0,0,1,4.52-5.78,31.29,31.29,0,0,1,44.25,44.25,32.89,32.89,0,0,1-5.78,4.51A66.71,66.71,0,0,1,457,81.09c-11.15,4.25-25,9.54-28.79,21.13C426.86,106.25,426.32,112.64,431.23,120.17ZM365.17,270.81l-40.72-40.72a9.77,9.77,0,1,0-13.81,13.81l40.72,40.72a9.77,9.77,0,1,0,13.81-13.81Zm-46.44,46.45L278,276.53a9.77,9.77,0,0,0-13.82,13.82l40.73,40.72a9.77,9.77,0,0,0,13.81-13.81ZM272.28,363.7,231.56,323a9.77,9.77,0,1,0-13.81,13.81l40.72,40.72a9.77,9.77,0,1,0,13.81-13.81Zm-46.44,46.45-40.72-40.73a9.77,9.77,0,0,0-13.82,13.82L212,424a9.77,9.77,0,0,0,13.81-13.81Zm31.07-215.57a9.78,9.78,0,1,0,2.86,6.92A9.87,9.87,0,0,0,256.91,194.58Z"/></g></svg>