<svg xmlns="http://www.w3.org/2000/svg" viewBox="0 0 500 500"><defs><style>.cls-1{fill:#4d4d4d;}</style></defs><title>Epicerie sucrée - Café &amp;amp; chocolat en poudre</title><g id="Layer_3" data-name="Layer 3"><path id="Page-1" class="cls-1" d="M305.42,416.68H392.6a8,8,0,0,0,2.7-.5,6.52,6.52,0,0,0,.84-.41,7.24,7.24,0,0,0,1.06-.49l49.08-32.72,42.33-14.11a16.65,16.65,0,0,0,11.21-18.22l-49-334.79c0-.23-.17-.4-.22-.63a8,8,0,0,0-.52-1.44,8.28,8.28,0,0,0-.93-1.67,6.22,6.22,0,0,0-.32-.56c-.17-.2-.41-.27-.59-.45a8.09,8.09,0,0,0-1.67-1.23,8.44,8.44,0,0,0-1.09-.53,8,8,0,0,0-2.05-.44,8.2,8.2,0,0,0-.86-.18H149.91a16.61,16.61,0,0,0-16.52,14.53L105.05,244.62a8.34,8.34,0,0,0,16.55,2.1L149.91,25H433.14L385.25,400H305.42a8.34,8.34,0,0,0,0,16.67ZM443.17,78.05l40.18,274.59-32.42,10.84V258.33a8.33,8.33,0,1,0-16.66,0V370.55l-31.09,20.73Zm-51.49,13.6a8.34,8.34,0,0,0,0-16.67H375a8.34,8.34,0,0,0,0,16.67Zm-50,0a8.34,8.34,0,1,0,0-16.67H325a8.34,8.34,0,1,0,0,16.67Zm-50,0a8.34,8.34,0,0,0,0-16.67H275a8.34,8.34,0,0,0,0,16.67Zm-50.76,0a8.34,8.34,0,0,0,0-16.67H224.24a8.34,8.34,0,1,0,0,16.67Zm-50,0a8.34,8.34,0,1,0,0-16.67H174.23a8.34,8.34,0,0,0,0,16.67ZM351.85,269l14.34-100.08A16.66,16.66,0,0,0,349.68,150h-152a16.74,16.74,0,0,0-16.5,14.33L166.81,264.4a16.66,16.66,0,0,0,16.52,18.94h152A16.77,16.77,0,0,0,351.85,269Zm-168.52-2.34,14.33-100h152l-14.34,100ZM265.2,336.6c-29.28-29.08-83.81-22-121.54,15.7a108.19,108.19,0,0,0-33.87,74.61,61.76,61.76,0,0,0,64.68,64.6,109,109,0,0,0,75-33.62,108.11,108.11,0,0,0,33.87-74.54A64.22,64.22,0,0,0,265.2,336.6ZM155.43,364.1a92.66,92.66,0,0,1,63.13-28.94,48.29,48.29,0,0,1,34.87,13.25c.44.44.75,1,1.18,1.46a40.69,40.69,0,0,1-17.45,5.29,53.13,53.13,0,0,0-48.84,48.75,36.67,36.67,0,0,1-34.71,34.62,55.88,55.88,0,0,0-23.86,7.63,54.33,54.33,0,0,1-3.29-19.23,92.75,92.75,0,0,1,29-62.83Zm82.28,82c-31.26,31.27-75.24,38.34-98,15.71-.45-.45-.75-1-1.18-1.47A40.41,40.41,0,0,1,156,455a53.15,53.15,0,0,0,48.85-48.77,36.66,36.66,0,0,1,34.68-34.58,56.1,56.1,0,0,0,23.87-7.63,54.54,54.54,0,0,1,3.29,19.22A92.73,92.73,0,0,1,237.71,446.07Zm-95.28-124.4a8.33,8.33,0,0,0,14.62-8c-16.11-29.33-42.44-46.91-70.46-47a68.71,68.71,0,0,0-14.92,1.66C30,277.64-.12,324.26,0,379.18-.12,441.13,38.73,491.6,86.59,491.69a63.12,63.12,0,0,0,15-1.72,8.08,8.08,0,0,0,1.8-.66,8.32,8.32,0,0,0,4.61-7.65,59.43,59.43,0,0,0-14.74-38.13A42.68,42.68,0,0,1,81.9,413.92a43.36,43.36,0,0,1,11.33-29.74,60.87,60.87,0,0,0,0-79.37,47,47,0,0,1-10.72-21.3c1.38-.12,2.73-.17,4.06-.17,22.16.07,42.52,14.06,55.86,38.33ZM91.29,344.43a43.36,43.36,0,0,1-11.37,29.75,60.87,60.87,0,0,0,0,79.37,46.89,46.89,0,0,1,10.72,21.33c-1.3.11-2.63.16-4,.16C48,475,16.57,432,16.64,379.18,16.58,337,37.39,299.63,66.32,287.5A63,63,0,0,0,80,314.82a42.68,42.68,0,0,1,11.31,29.61ZM225,208.33h83.34a8.34,8.34,0,0,0,0-16.67H225a8.34,8.34,0,1,0,0,16.67ZM291.67,225H233.33a8.34,8.34,0,0,0,0,16.67h58.34a8.34,8.34,0,0,0,0-16.67Z"/></g></svg>