<svg xmlns="http://www.w3.org/2000/svg" viewBox="0 0 500 500"><defs><style>.cls-1{fill:#4d4d4d;}</style></defs><title>Epicerie sucrée - Préparations et farine</title><g id="Layer_3" data-name="Layer 3"><path class="cls-1" d="M500,121a8,8,0,0,0-1.21-4.28L459.68,54.14V8.06A8.06,8.06,0,0,0,451.61,0H274.19a8.06,8.06,0,0,0-8.06,8.06V53.42l-54.45,62.24a7.92,7.92,0,0,0-1.92,5.31h-.08v57.7A112.44,112.44,0,0,0,99.07,228L88.66,243.6C54.06,250.67,0,266.77,0,298.39A169.19,169.19,0,0,0,72.58,437.17v6.38c0,32.18,52,56.45,121,56.45H411.29a7.8,7.8,0,0,0,4.08-1.27l.07.12,36.17-21.7,36.17,21.7a8.16,8.16,0,0,0,4.16,1.15,8.07,8.07,0,0,0,8.06-8.06V121Zm-22.59-8.07H425.84l25.77-41.23ZM443.55,463.18l-24.2,14.51V129h24.2Zm-161.29-447H443.55V48.39H282.26ZM112.49,236.93a97.42,97.42,0,0,1,162.11,0l59.7,89.54c-30.53,11.39-78.93,20.3-140.75,20.3S83.32,337.86,52.8,326.47Zm236.8,82.95-37.84-56.77C352.4,273.65,371,287.89,371,298.39,371,305.11,363.33,312.72,349.29,319.88ZM371,271.16c-18.74-14.36-49.91-22.94-72.53-27.56L288,228a113.41,113.41,0,0,0-30-30.42v-4H371Zm-295.32-8L37.81,319.88c-14-7.16-21.68-14.77-21.68-21.49C16.13,287.88,34.72,273.65,75.65,263.12ZM19,327.48c33.34,23.17,105.53,35.42,174.57,35.42s141.22-12.25,174.56-35.42c-13.63,70.62-75.84,124.13-150.37,124.13H169.35C94.82,451.61,32.62,398.09,19,327.48ZM89.4,447.61a168.15,168.15,0,0,0,79.95,20.13h48.39a168.19,168.19,0,0,0,80-20.13c-5.54,17.91-46.72,36.26-104.15,36.26S94.94,465.52,89.4,447.61Zm313.83,36.26H279.82c21.66-10.09,34.7-24.22,34.7-40.32v-6.38c43.8-30.65,72.58-81.38,72.58-138.78V185.48a8.06,8.06,0,0,0-8.07-8.06H250a8.06,8.06,0,0,0-8.06,8.06v3a112.65,112.65,0,0,0-16.13-6.17V129H403.23Zm-167.71-371,42.33-48.38H437.06L406.82,112.9ZM459.68,463.18V129h24.19V477.69ZM217.74,225.81h16.13v16.13H217.74ZM137.1,250h16.13v16.13H137.1Zm48.38,48.39h16.13v16.13H185.48Zm72.58-16.13h16.13v16.13H258.06ZM96.77,298.39H112.9v16.13H96.77Z"/></g></svg>