<svg xmlns="http://www.w3.org/2000/svg" viewBox="0 0 500 500"><defs><style>.cls-1{fill:#4d4d4d;}</style></defs><title>Epicerie sucrée</title><g id="Layer_3" data-name="Layer 3"><path class="cls-1" d="M89,303l-14.61,6.84A134.52,134.52,0,0,0,195.8,387.1h5.81V371H195.8A118.31,118.31,0,0,1,89,303ZM387.1,346.77A24.2,24.2,0,1,0,362.9,371,24.23,24.23,0,0,0,387.1,346.77Zm-24.2,8.07a8.07,8.07,0,1,1,8.07-8.07A8.08,8.08,0,0,1,362.9,354.84Zm56.46,8.06a24.2,24.2,0,1,0,0,48.39V395.16a8.07,8.07,0,1,1,8.06-8.06h16.13A24.23,24.23,0,0,0,419.36,362.9ZM330.65,379a24.23,24.23,0,0,0-24.2,24.2h16.13a8.07,8.07,0,1,1,8.07,8.06v16.13a24.2,24.2,0,0,0,0-48.39Zm64.51,72.58a8.07,8.07,0,0,1,0-16.13V419.35a24.2,24.2,0,1,0,24.2,24.2H403.23A8.08,8.08,0,0,1,395.16,451.61Zm-177.42-371a24.2,24.2,0,1,0-24.19-24.2A24.23,24.23,0,0,0,217.74,80.65Zm0-32.26a8.07,8.07,0,1,1-8.06,8.06A8.08,8.08,0,0,1,217.74,48.39Zm48.39,64.51V96.77a8.06,8.06,0,1,1,0-16.12V64.52a24.19,24.19,0,1,0,0,48.38Zm88.71,32.26A24.2,24.2,0,1,0,330.65,121,24.22,24.22,0,0,0,354.84,145.16Zm0-32.26a8.07,8.07,0,1,1-8.07,8.07A8.08,8.08,0,0,1,354.84,112.9ZM121,145.16A24.2,24.2,0,1,0,96.77,121,24.22,24.22,0,0,0,121,145.16Zm0-32.26A8.07,8.07,0,1,1,112.9,121,8.08,8.08,0,0,1,121,112.9ZM80.65,209.68a24.2,24.2,0,1,0-24.2-24.2A24.23,24.23,0,0,0,80.65,209.68Zm0-32.26a8.07,8.07,0,1,1-8.07,8.06A8.07,8.07,0,0,1,80.65,177.42ZM250,201.61a24.2,24.2,0,1,0-24.19,24.2A24.22,24.22,0,0,0,250,201.61Zm-24.19,8.07a8.07,8.07,0,1,1,8.06-8.07A8.08,8.08,0,0,1,225.81,209.68Zm88.71-32.26a8.07,8.07,0,1,1,8.06,8.06v16.13a24.19,24.19,0,1,0-24.19-24.19Zm104.84,32.26V193.55a8.07,8.07,0,1,1,8.06-8.07h16.13a24.2,24.2,0,1,0-24.19,24.2ZM217.74,371h16.13V387.1H217.74Zm276.05-21.66-8.56,3.63a24.1,24.1,0,0,1-32.76-16.34L451,331a165.72,165.72,0,0,0,15-40.63h1.7a32.19,32.19,0,0,0,4.95-64A112.77,112.77,0,0,0,310,82.52a15.88,15.88,0,0,1,1.13-21.31l4.61-4.64-3.58-5.47A112.82,112.82,0,0,0,115.36,65.43c-55.82,6.77-99.23,54.37-99.23,112a112.53,112.53,0,0,0,11.18,48.89,32.19,32.19,0,0,0,4.95,64h1.68a166.21,166.21,0,0,0,161.86,129H279a112.82,112.82,0,0,0,217.21-61Zm-60.19-20.4a32.19,32.19,0,0,1-22.31-30.52,30.83,30.83,0,0,1,1.24-8.07h37A148.24,148.24,0,0,1,433.6,328.91Zm34.14-151.49a96.44,96.44,0,0,1-13,48.39H287.2a96.76,96.76,0,1,1,180.54-48.39Zm-225.8-16.13A96.52,96.52,0,0,1,259.09,163a109.91,109.91,0,0,0,9.9,62.81H150.72A96.31,96.31,0,0,1,241.94,161.29ZM217.74,16.13a96.46,96.46,0,0,1,77.64,39.1,32.09,32.09,0,0,0,1.71,37,113,113,0,0,0-34.8,55,112.8,112.8,0,0,0-20.35-2.06c-1.58,0-3.14.14-4.71.2A112.09,112.09,0,0,0,133.85,64.73a96.49,96.49,0,0,1,83.89-48.6ZM129,80.65A96.23,96.23,0,0,1,221,147.15a112.18,112.18,0,0,0-87.18,78.66H45.27A96.71,96.71,0,0,1,129,80.65ZM16.13,258.06a16.14,16.14,0,0,1,16.13-16.12H467.74a16.13,16.13,0,1,1,0,32.25H32.26A16.14,16.14,0,0,1,16.13,258.06ZM195.8,403.23A150.14,150.14,0,0,1,50.48,290.32H329.24a111.23,111.23,0,0,0-53.76,112.91Zm191.3,80.64a96.78,96.78,0,1,1,0-193.55c2.86,0,5.76.15,8.71.43a45.91,45.91,0,0,0-.65,7.64,48.46,48.46,0,0,0,43.7,48.16A40.2,40.2,0,0,0,475.81,371a40.73,40.73,0,0,0,6.54-.53,94.28,94.28,0,0,1,1.52,16.66A96.88,96.88,0,0,1,387.1,483.87Zm48.38-72.58h16.13v16.13H435.48ZM403.23,121h16.13V137.1H403.23ZM362.9,185.48H379v16.13H362.9ZM169.36,121h16.12V137.1H169.36Z"/></g></svg>