<svg xmlns="http://www.w3.org/2000/svg" viewBox="0 0 500 500"><defs><style>.cls-1{fill:#4d4d4d;}</style></defs><title>Epicerie Salée - Huiles, vinaigres et sauces</title><g id="Layer_4" data-name="Layer 4"><path class="cls-1" d="M491.67,312.5h-8.34v-40a63.53,63.53,0,0,0-24-49.85,46.92,46.92,0,0,1-17.7-36.84v-90a8.33,8.33,0,0,0-8.34-8.33H431L416.24,43.2a8.33,8.33,0,0,0-7.91-5.7H391.67a8.33,8.33,0,0,0-7.91,5.7L369,87.5h-2.32a8.33,8.33,0,0,0-8.34,8.33v90A47,47,0,0,1,350,212.61V187.5a58.39,58.39,0,0,0-33.33-52.69v-64a8.33,8.33,0,0,0-8.34-8.33H306L291.24,18.2a8.33,8.33,0,0,0-7.91-5.7H266.67a8.33,8.33,0,0,0-7.91,5.7L244,62.5h-2.32a8.33,8.33,0,0,0-8.34,8.33v75.9a58.22,58.22,0,0,0-33.33-17V112.5a8.31,8.31,0,0,0-3.71-6.93h0L174,90.72a118.42,118.42,0,0,0-131.38,0L20.38,105.57h0a8.31,8.31,0,0,0-3.71,6.93v61.82a89.35,89.35,0,0,0,4.59,28.32,72.67,72.67,0,0,1,3.74,23V312.5H8.33A8.33,8.33,0,0,0,0,320.83v33.34a8.33,8.33,0,0,0,8.33,8.33H25v75H8.33A8.33,8.33,0,0,0,0,445.83v33.34a8.33,8.33,0,0,0,8.33,8.33H491.67a8.33,8.33,0,0,0,8.33-8.33V445.83a8.33,8.33,0,0,0-8.33-8.33h-8.34v-75h8.34a8.33,8.33,0,0,0,8.33-8.33V320.83A8.33,8.33,0,0,0,491.67,312.5ZM350,312.5v-25H466.67v25ZM33.33,120.83h150v8.94a58.23,58.23,0,0,0-32.43,16.06H33.33Zm300,100H266.67V237.5h66.66v16.67H250v-50h83.33Zm-100,0H166.67V237.5h66.66v16.67H150v-50h83.33Zm-83.33,50h83.33v56.35a66.33,66.33,0,0,0-41.66-14.68H150Zm100,75v-75h83.33V312.5h-25A66.72,66.72,0,0,0,250,346.94c-.21-.37-.42-.74-.64-1.11ZM375,104.17h50v25H375Zm22.67-50h4.66L413.44,87.5H386.56ZM351,235.67a63.5,63.5,0,0,0,24-49.85v-40h50v40a63.5,63.5,0,0,0,24,49.85,46.94,46.94,0,0,1,17.66,35.16H350V236.55ZM333.33,187.5H250a41.67,41.67,0,1,1,83.33,0Zm-41.66-58.33A58.12,58.12,0,0,0,250,146.73v-25.9h50v8.94A58,58,0,0,0,291.67,129.17ZM250,79.17h50v25H250Zm22.67-50h4.66L288.44,62.5H261.56ZM233.33,187.5H150a41.67,41.67,0,1,1,83.33,0Zm-69.21-83.33H52.55A101.66,101.66,0,0,1,164.12,104.17Zm-127,93.19a72.67,72.67,0,0,1-3.74-23V162.5H139a58,58,0,0,0-5.64,25v125H41.67V225.68A89.36,89.36,0,0,0,37.07,197.36ZM16.67,329.17h175a50.06,50.06,0,0,1,50,50V437.5H225v-50a41.73,41.73,0,0,0-41.67-41.67H16.67ZM150,437.5v-75h33.33a25,25,0,0,1,25,25v50Zm-108.33-75h91.66v75H41.67ZM483.33,470.83H16.67V454.17H483.33ZM291.67,437.5v-50a25,25,0,0,1,25-25h16.66v75Zm175,0H350v-75H466.67Zm16.66-91.67H316.67A41.73,41.73,0,0,0,275,387.5v50H258.33V379.17a50.06,50.06,0,0,1,50-50h175ZM60.75,198.25l16.66-16.66,11.78,11.78L72.53,210Zm25,83.34,16.66-16.67,11.79,11.79L97.51,293.37Zm16.67-54.88,11.78-11.78,16.67,16.66-11.79,11.79ZM60.74,243.37l11.78-11.78,16.66,16.66L77.4,260Zm25,179.85,16.66-16.66,11.78,11.78L97.51,435Zm8.32-46.52,11.79-11.79,16.66,16.67-11.78,11.78Zm-41.66,25,11.78-11.78,16.66,16.66L69.05,418.35Z"/></g></svg>