<svg xmlns="http://www.w3.org/2000/svg" viewBox="0 0 500 500"><defs><style>.cls-1{fill:#4d4d4d;}</style></defs><title>Epicerie Salée - Pâtes, couscous et riz</title><g id="Layer_4" data-name="Layer 4"><path class="cls-1" d="M408,448.4V51.6l6.91-17.32A25,25,0,0,0,391.69,0H108.31A25,25,0,0,0,85.13,34.28L92,51.6V448.4l-6.91,17.32A25,25,0,0,0,108.31,500H391.69a25,25,0,0,0,23.18-34.28ZM101.46,20.31a8.15,8.15,0,0,1,6.85-3.64H391.69a8.33,8.33,0,0,1,7.7,11.43L394,41.67H106L100.61,28.1A8.24,8.24,0,0,1,101.46,20.31ZM296.05,366.67c-103.3,0-187.34-67.29-187.34-150V195.2A151.84,151.84,0,0,0,201.1,225c55,0,111.64-25.06,155.21-68.75,13.2-13.22,24.1-24.52,33.1-33.83l1.88-2v246.2Zm95.24,16.66v58.34H108.71V282.58c31.33,59.2,103.5,100.75,187.34,100.75ZM108.71,173.43V58.33H391.29V96.59c-4.05,4.11-8.56,8.76-13.86,14.25-8.95,9.26-19.8,20.49-32.91,33.64C304,185.06,251.77,208.33,201.1,208.33A130.83,130.83,0,0,1,108.71,173.43Zm8.7,307.28a8,8,0,0,0-.32,2.62h-8.78a8.33,8.33,0,0,1-7.7-11.43L106,458.33h18.82Zm41.14,2.62H134.1L141.54,461a8.33,8.33,0,0,0,.32-2.63h16.69v25Zm33.24,0H175.21v-25h16.58Zm33.25,0H208.46v-25H225Zm33.25,0H241.71v-25h16.58Zm33.26,0H275v-25h16.59Zm33.24,0H308.21v-25h16.58Zm16.67,0v-25h16.68a8.63,8.63,0,0,0,.32,2.63l7.44,22.37Zm57.08-3.64h0a8.15,8.15,0,0,1-6.85,3.64h-8.78a8.11,8.11,0,0,0-.32-2.63l-7.43-22.37H394l5.41,13.57A8.24,8.24,0,0,1,398.54,479.69ZM299.88,225h-8.32a75,75,0,0,0-74.83,75v16.67c0,14,14.62,25,33.27,25s33.27-11,33.27-25V295.83a12.45,12.45,0,1,1,24.89,0v20.84c0,14,14.62,25,33.28,25s33.27-11,33.27-25V300A75,75,0,0,0,299.88,225ZM250,325c-10.13,0-16.6-4.94-16.6-8.33s6.47-8.34,16.6-8.34,16.6,4.94,16.6,8.34S260.13,325,250,325Zm91.44,0c-10.14,0-16.61-4.94-16.61-8.33s6.47-8.34,16.61-8.34,16.6,4.94,16.6,8.34S351.57,325,341.44,325Zm-16.69-29.94a29,29,0,0,0-58.07,0,42.71,42.71,0,0,0-33-.14,58.29,58.29,0,0,1,57.91-53.25h8.32a58.27,58.27,0,0,1,57.9,53.25A42.71,42.71,0,0,0,324.75,295.06ZM175.19,375H133.63a8.33,8.33,0,0,0-8.34,8.33v33.34a8.33,8.33,0,0,0,8.34,8.33h41.56a8.33,8.33,0,0,0,8.33-8.33V383.33a8.33,8.33,0,0,0-8.33-8.33Zm-8.34,33.33H142V391.67h24.89ZM141.94,100h74.81a8.34,8.34,0,0,0,0-16.67H141.94a8.34,8.34,0,1,0,0,16.67ZM250,100h49.88a8.34,8.34,0,0,0,0-16.67H250A8.34,8.34,0,0,0,250,100ZM141.94,133.33h33.25a8.33,8.33,0,1,0,0-16.66H141.94a8.33,8.33,0,1,0,0,16.66Zm124.69-16.66H208.44a8.33,8.33,0,1,0,0,16.66h58.19a8.33,8.33,0,0,0,0-16.66ZM150.25,150h-8.31a8.34,8.34,0,1,0,0,16.67h8.31a8.34,8.34,0,1,0,0-16.67ZM250,158.33a8.33,8.33,0,0,0-8.33-8.33H183.51a8.34,8.34,0,1,0,0,16.67h58.18A8.33,8.33,0,0,0,250,158.33Zm55.73-39.25a9.29,9.29,0,0,0-1.25-1,4.6,4.6,0,0,0-1.42-.75,5.82,5.82,0,0,0-1.58-.5,7.14,7.14,0,0,0-3.25,0,6,6,0,0,0-1.59.5,4.67,4.67,0,0,0-1.41.75,15.2,15.2,0,0,0-1.25,1,10.19,10.19,0,0,0-1.84,2.75,8.4,8.4,0,0,0-.66,3.17,11.53,11.53,0,0,0,.17,1.66c.16.51.33,1,.49,1.51s.51,1,.75,1.5a16.26,16.26,0,0,0,1.09,1.25,15.09,15.09,0,0,0,1.25,1,4.48,4.48,0,0,0,1.41.76,6,6,0,0,0,1.59.5,8.08,8.08,0,0,0,3.25,0,6,6,0,0,0,1.59-.5,4.48,4.48,0,0,0,1.41-.76,8,8,0,0,0,1.25-1,14.23,14.23,0,0,0,1.08-1.25l.76-1.5c.16-.5.33-1,.49-1.51a13.15,13.15,0,0,0,.17-1.66,8.4,8.4,0,0,0-.66-3.17A10.19,10.19,0,0,0,305.75,119.08Z"/></g></svg>