<svg xmlns="http://www.w3.org/2000/svg" viewBox="0 0 500 500"><defs><style>.cls-1{fill:#4d4d4d;}</style></defs><title>Epicerie Salée</title><g id="Layer_4" data-name="Layer 4"><path class="cls-1" d="M498.14,83.55,465.32,44.13A24.19,24.19,0,0,0,451.61,0H258.06a24.2,24.2,0,0,0-13.71,44.13L211.54,83.55a8.09,8.09,0,0,0-1.86,5.16v121H8.06A8.06,8.06,0,0,0,0,217.74v48.39a8.06,8.06,0,0,0,8.06,8.06h8.07V491.94A8.06,8.06,0,0,0,24.19,500H451.61a8.05,8.05,0,0,0,6.2-2.9l40.33-48.39a8.11,8.11,0,0,0,1.86-5.16V88.71A8.09,8.09,0,0,0,498.14,83.55ZM447.83,48.39l26.89,32.26H235l26.89-32.26ZM258.06,16.13H451.61a8.07,8.07,0,1,1,0,16.13H258.06a8.07,8.07,0,0,1,0-16.13ZM225.81,96.77H483.87V435.48H338.71V403.23H443.55A24.2,24.2,0,0,0,467.74,379V153.23A24.19,24.19,0,0,0,443.55,129H266.13a24.19,24.19,0,0,0-24.19,24.2v56.45H225.81Zm121,177.42a8.06,8.06,0,0,0,8.07-8.06V217.74a8.06,8.06,0,0,0-8.07-8.06H258.06V153.23a8.07,8.07,0,0,1,8.07-8.07H443.55a8.06,8.06,0,0,1,8.06,8.07V379a8.06,8.06,0,0,1-8.06,8.07H338.71V274.19ZM16.13,225.81H338.71v32.25H16.13ZM322.58,483.87H32.26V274.19H322.58Zm125.25,0H338.71V451.61h136ZM72.58,451.61H282.26a8.06,8.06,0,0,0,8.06-8.06v-129a8.06,8.06,0,0,0-8.06-8.07H72.58a8.06,8.06,0,0,0-8.06,8.07v129A8.06,8.06,0,0,0,72.58,451.61Zm8.07-129H274.19v112.9H80.65Z"/></g></svg>