<svg xmlns="http://www.w3.org/2000/svg" viewBox="0 0 500 500"><defs><style>.cls-1{fill:#4d4d4d;}</style></defs><title>Epicerie sucrée - Petit déjeuner</title><g id="Layer_3" data-name="Layer 3"><path class="cls-1" d="M499,79.59l-28.75-48.9V7.38A7.39,7.39,0,0,0,462.84,0H237.1a7.39,7.39,0,0,0-7.38,7.38V30.69L201,79.59a7.38,7.38,0,0,0-1,3.74v221.1c-.89.13-1.78.25-2.65.45a26.35,26.35,0,0,0-26.93-12.58,26.27,26.27,0,0,0-40.62,0,26.69,26.69,0,0,0-4.29-.34,26.13,26.13,0,0,0-14.39,4.33l-23-55.07A20,20,0,0,0,69.54,228.9a19.82,19.82,0,0,0-7.72,1.55,20,20,0,0,0-10.74,26.19l22.81,54.68a34.86,34.86,0,0,0-8.51,9.32,39.27,39.27,0,0,0-34.73,21.94H7.38A7.38,7.38,0,0,0,0,350a6,6,0,0,0,0,.73l9.7,97A57.84,57.84,0,0,0,67.47,500H492.62a7.39,7.39,0,0,0,7.38-7.38V83.33A7.38,7.38,0,0,0,499,79.59ZM300,350.7a7.38,7.38,0,0,0-6.61-8.08,6,6,0,0,0-.74,0H269.43a39.3,39.3,0,0,0-34.72-21.94,34.64,34.64,0,0,0-20-15.21V185.65H485.23v215.9H294.94Zm185.2-260v80.17H214.7V90.72ZM455.46,14.77V25.32h-211V14.77ZM241.31,40.08h217.3L479.71,76H220.21ZM125.44,306.71a11.27,11.27,0,0,1,4.55.94,7.39,7.39,0,0,0,9.61-3.55,11.51,11.51,0,0,1,20.88,0,7.39,7.39,0,0,0,9.6,3.55,11.35,11.35,0,0,1,4.56-.94,11.61,11.61,0,0,1,11.27,9,7.4,7.4,0,0,0,8.83,5.59,7.51,7.51,0,0,0,1.59-.56,19.76,19.76,0,0,1,8.65-2,20,20,0,0,1,18.56,12.33,7.42,7.42,0,0,0,7.55,4.51,28.62,28.62,0,0,1,3.07-.22,24.58,24.58,0,0,1,17.38,7.17H130.37L117,310.44a11.5,11.5,0,0,1,8.48-3.73ZM67.55,244.06a5.48,5.48,0,0,1,6.9,2.83l39.91,95.69H102.94L64.7,250.93a5.26,5.26,0,0,1,2.85-6.87ZM66,335.4a29,29,0,0,1,3.07.22,7.41,7.41,0,0,0,7.56-4.5A19.91,19.91,0,0,1,80,325.79l7,16.79H48.57A24.6,24.6,0,0,1,66,335.4Zm218.56,21.94-1.05,10.55H16.59l-1.05-10.55Zm-260.07,89-6.37-63.63H282l-6.36,63.63a43.11,43.11,0,0,1-43,38.94H67.47a43.1,43.1,0,0,1-43-38.94Zm246.9,38.94a57.85,57.85,0,0,0,19-37.47l3.14-31.44H485.23v68.91Zm196-333.34a7.38,7.38,0,0,0,7.38-7.38V119.2a7.39,7.39,0,1,0-14.77,0v25.31A7.39,7.39,0,0,0,467.3,151.89ZM411,284.73a7.37,7.37,0,0,0-6.43-6.89A75.25,75.25,0,0,0,411,245.16a7.37,7.37,0,0,0-7-7,77,77,0,0,0-27.81,4.42c0-.35.06-.71.06-1.06,0-24-20.57-42.69-21.45-43.46a7.41,7.41,0,0,0-9.85,0c-.87.79-21.44,19.48-21.44,43.46,0,.35,0,.7.05,1.05a76.94,76.94,0,0,0-27.81-4.41,7.39,7.39,0,0,0-7,7,75.18,75.18,0,0,0,6.46,32.69,7.34,7.34,0,0,0-6.44,6.88c-.07,1.18-1.39,28.95,15.58,45.91,11.64,11.65,28.37,14.68,38.1,15.41v37.58a7.39,7.39,0,0,0,14.77,0V346c9.73-.73,26.47-3.75,38.13-15.4,17-17,15.64-44.74,15.57-45.91Zm-24.66-5.54-.11.15a54.92,54.92,0,0,0-28.1,14c-.27.27-.5.57-.76.85a60.76,60.76,0,0,1,2.89-15.7,35.68,35.68,0,0,1,8.3-14.24c.61-.61,1.27-1.18,1.87-1.69A47.88,47.88,0,0,1,396,253.24a47.46,47.46,0,0,1-9.64,25.95ZM350,214.4c4.87,5.91,11.6,16,11.6,27.16a32.44,32.44,0,0,1-2.15,11.1c-.42.39-.84.74-1.26,1.15a46.28,46.28,0,0,0-8.2,11.47,46.52,46.52,0,0,0-8.18-11.48c-.42-.4-.85-.77-1.27-1.15a32.91,32.91,0,0,1-2.15-11.09c0-11.11,6.73-21.26,11.61-27.16Zm-20.54,48.12c.64.54,1.26,1.11,1.9,1.73a35.79,35.79,0,0,1,8.3,14.25,60.1,60.1,0,0,1,2.88,15.66c-.26-.27-.48-.55-.74-.82a54.8,54.8,0,0,0-27.94-14,47.12,47.12,0,0,1-9.92-26.16,47.87,47.87,0,0,1,25.52,9.3Zm-14.51,57.67c-7.86-7.85-10.28-19.79-11-27.42,7.62.72,19.55,3.14,27.42,11s10.28,19.77,11,27.39C334.69,330.43,322.71,328,314.91,320.19Zm42.68,11c.73-7.59,3.15-19.55,11-27.42s19.81-10.26,27.4-11c-.74,7.64-3.18,19.61-11,27.43s-19.79,10.26-27.43,11Z"/></g></svg>