<svg xmlns="http://www.w3.org/2000/svg" viewBox="0 0 500 500"><defs><style>.cls-1{fill:#4d4d4d;}</style></defs><title>Epicerie Salée - Condiments divers</title><g id="Layer_4" data-name="Layer 4"><path class="cls-1" d="M261.63,454.37,255,324.24a171.22,171.22,0,0,0-13.91-61.32l-32.93-76.41a154.29,154.29,0,0,1-12.27-53.18h8.34a8.33,8.33,0,0,0,8.33-8.33V75a8.33,8.33,0,0,0-8.33-8.33H177.78L170.36,7.3A8.33,8.33,0,0,0,162.09,0H128.76a8.34,8.34,0,0,0-8.27,7.3l-7.42,59.37H87.52A8.33,8.33,0,0,0,79.19,75v50a8.33,8.33,0,0,0,8.33,8.33H95a154.1,154.1,0,0,1-12.26,53.19l-32.95,76.4a170.84,170.84,0,0,0-13.9,61.25L29.19,454.46a43.86,43.86,0,0,0,7.2,26A43.05,43.05,0,0,0,72.46,500H218.39a43.09,43.09,0,0,0,36.05-19.55A44,44,0,0,0,261.63,454.37ZM136.12,16.67h18.62l6.25,50H129.86ZM95.85,83.33h100v33.34h-100Zm144.64,388a26.46,26.46,0,0,1-22.1,12H72.46a26.45,26.45,0,0,1-22.11-12,27.32,27.32,0,0,1-4.5-16.09l6.67-130.33a154.8,154.8,0,0,1,12.57-55.38l33-76.4a170.53,170.53,0,0,0,13.84-59.78H179a170.53,170.53,0,0,0,13.84,59.78l32.94,76.4A154.73,154.73,0,0,1,238.3,325L245,455.12A27.5,27.5,0,0,1,240.49,471.32Zm-20.06-21.74L215,341.18a69.65,69.65,0,0,0-139.17,0l-5.41,108.4a8.33,8.33,0,0,0,7.9,8.74H212.09a8.33,8.33,0,0,0,8.35-8.32C220.44,449.87,220.43,449.73,220.43,449.58ZM87.52,441.67l5-99.66a53,53,0,0,1,105.83,0l5,99.66Zm350-300v-8.34a8.33,8.33,0,0,0,8.33-8.33V83.33A8.33,8.33,0,0,0,437.52,75h-26l-7.42-59.37a8.34,8.34,0,0,0-8.27-7.3h-25a8.33,8.33,0,0,0-8.26,7.3L355.16,75h-26a8.33,8.33,0,0,0-8.34,8.33V125a8.33,8.33,0,0,0,8.34,8.33v8.34A33.34,33.34,0,0,0,295.85,175V483.33A16.67,16.67,0,0,0,312.52,500H454.19a16.66,16.66,0,0,0,16.66-16.67V175A33.33,33.33,0,0,0,437.52,141.67ZM378.21,25h10.28l6.25,50H372ZM337.52,91.67h91.67v25H337.52Zm83.33,41.66v8.34h-75v-8.34Zm33.34,350H312.52V441.67H454.19Zm0-58.33H312.52V233.33H454.19Zm0-208.33H312.52V175a16.67,16.67,0,0,1,16.67-16.67H437.52A16.67,16.67,0,0,1,454.19,175Z"/></g></svg>