<svg xmlns="http://www.w3.org/2000/svg" viewBox="0 0 500 500"><defs><style>.cls-1{fill:#4d4d4d;}</style></defs><title>Epicerie Salée - Epices et condiments</title><g id="Layer_4" data-name="Layer 4"><path class="cls-1" d="M499,397.87,465.26,183.4a39.81,39.81,0,0,0-4.72-76.64A120.74,120.74,0,0,0,260,35.6a123.86,123.86,0,0,0-10,10.24A120.75,120.75,0,0,0,39.46,106.76a39.82,39.82,0,0,0,8.15,78.79H216.76L210.56,225a65.53,65.53,0,0,0-15.89,3.06,12.39,12.39,0,0,1-10.55-1.38,46.26,46.26,0,0,0-51.23.42,11.9,11.9,0,0,1-9.85,1.49c-17.18-4.76-31.52-3.38-42.64,4.09-15.74,10.58-18.69,29.52-19,31.71L39.5,403.92a45.15,45.15,0,0,0,10,36.39,46.56,46.56,0,0,0,36,16.51H195.8c2.08,3.23,7.89,15.47,23.67,24.29H84.74a70.09,70.09,0,0,1-69.24-81L45.38,210a7.32,7.32,0,1,0-14.47-2.27L1,397.87a84.74,84.74,0,0,0,83.71,97.89H415.26A84.74,84.74,0,0,0,499,397.87ZM411,45.11c.47.41,21.35,15.41,25.75,33.78-1.4.26-15,2-23.3-9.08A23,23,0,0,1,411,45.11ZM341.18,18.89A106.42,106.42,0,0,1,363,21.15a23.82,23.82,0,0,1-43.62,0A107.12,107.12,0,0,1,341.18,18.89ZM271.36,45.11c1.55,3.2,4.84,15.8-3.5,26S247,79.15,245.61,78.89C257.33,57.36,270.86,45.55,271.36,45.11ZM249.91,93.93a38.47,38.47,0,0,0,33.27-57.79,106,106,0,0,1,22-11,38.46,38.46,0,0,0,72,0,105.59,105.59,0,0,1,22,11,38.42,38.42,0,0,0,43.06,56.49,105.16,105.16,0,0,1,3.3,13.28H236.82a105.16,105.16,0,0,1,3.3-13.28A38.53,38.53,0,0,0,249.91,93.93ZM228.66,45.07a106.45,106.45,0,0,1,12.22,12.69,121.24,121.24,0,0,0-8.12,14.06,23.83,23.83,0,0,1-4.1-26.75ZM158.82,18.89a108,108,0,0,1,21.82,2.22,23.81,23.81,0,0,1-43.62,0A107,107,0,0,1,158.82,18.89ZM89,45.11A23.66,23.66,0,0,1,86.39,70c-8.27,10.88-21.73,9.13-23.14,8.87C74.21,56.81,88.53,45.52,89,45.11ZM57.76,92.64a38.46,38.46,0,0,0,43.06-56.5,106,106,0,0,1,22-11,38.46,38.46,0,0,0,72-.06,104.38,104.38,0,0,1,22,11,38.45,38.45,0,0,0,10,50,119.09,119.09,0,0,0-4.9,19.82H54.46A104.73,104.73,0,0,1,57.76,92.64ZM199.14,170.9H47.61a25.17,25.17,0,1,1,0-50.33H199.14a39.72,39.72,0,0,0,0,50.33ZM188.29,442.17H85.5a31.91,31.91,0,0,1-24.72-11.24A30.73,30.73,0,0,1,54,406.19L75.91,266.6l0-.28c0-.14,2-14.28,12.63-21.45,7.41-5,17.69-5.7,30.56-2.14a26.45,26.45,0,0,0,22-3.48,31.61,31.61,0,0,1,35-.29,27,27,0,0,0,23,3.1,54.67,54.67,0,0,1,9.13-2.09l-24.82,157.9A84.6,84.6,0,0,0,188.29,442.17Zm280.24,14.4a70,70,0,0,1-53.27,24.54H267.1a70.09,70.09,0,0,1-69.24-81l33.73-214.6H408.41a7.33,7.33,0,0,0,0-14.65H230a25.17,25.17,0,1,1,0-50.33H452.39a25.17,25.17,0,1,1,0,50.33H441.32a7.33,7.33,0,1,0,0,14.65h9.45l33.73,214.6A70,70,0,0,1,468.53,456.57Zm-8-52.65L438.57,264.33c-.15-.92-3.74-22.68-21.23-33.51-11-6.8-24.53-7.71-40.31-2.73a12.39,12.39,0,0,1-10.55-1.38,46.22,46.22,0,0,0-51.23.42,11.9,11.9,0,0,1-9.85,1.49c-17.18-4.76-31.52-3.38-42.64,4.09-15.74,10.58-18.69,29.53-19,31.72L221.86,403.92a45.15,45.15,0,0,0,10,36.39,46.52,46.52,0,0,0,36,16.51h85.07a7.32,7.32,0,1,0,0-14.64H267.86a31.92,31.92,0,0,1-24.72-11.25,30.68,30.68,0,0,1-6.81-24.74L258.26,266.6a2.36,2.36,0,0,0,0-.28c0-.14,2-14.28,12.63-21.45,7.41-5,17.69-5.7,30.56-2.14a26.44,26.44,0,0,0,22-3.48,31.61,31.61,0,0,1,35-.29,27,27,0,0,0,23,3.1c11.49-3.63,20.95-3.23,28.11,1.16,11.76,7.23,14.52,23.24,14.55,23.38L446,406.19a30.65,30.65,0,0,1-6.81,24.74,31.92,31.92,0,0,1-24.72,11.25H383.71a7.32,7.32,0,1,0,0,14.64H414.5a46.54,46.54,0,0,0,36-16.51A45.2,45.2,0,0,0,460.51,403.92Z"/></g></svg>