<svg xmlns="http://www.w3.org/2000/svg" viewBox="0 0 500 500"><defs><style>.cls-1{fill:#4d4d4d;}</style></defs><title>Epicerie sucrée - Biscuits et mini-gâteaux</title><g id="Layer_3" data-name="Layer 3"><path class="cls-1" d="M338.71,250a24.2,24.2,0,1,0,24.19,24.19A24.22,24.22,0,0,0,338.71,250Zm0,32.26a8.07,8.07,0,1,1,8.06-8.07A8.07,8.07,0,0,1,338.71,282.26ZM419.35,137.1a24.19,24.19,0,1,0,24.2,24.19A24.22,24.22,0,0,0,419.35,137.1Zm0,32.25a8.06,8.06,0,1,1,8.07-8.06A8.07,8.07,0,0,1,419.35,169.35ZM500,346.77a24.22,24.22,0,0,0-24.19-24.19H433.3A129,129,0,1,0,256.23,150.9a31.37,31.37,0,0,0-2.57-5.74,31.77,31.77,0,0,0,0-32.26,31.75,31.75,0,0,0,0-32.25,31.77,31.77,0,0,0,0-32.26,31.89,31.89,0,0,0,4.4-16.13A32.29,32.29,0,0,0,225.81,0a31.81,31.81,0,0,0-16.13,4.4,32.42,32.42,0,0,0-32.26,0,32.42,32.42,0,0,0-32.26,0,32.42,32.42,0,0,0-32.26,0A31.81,31.81,0,0,0,96.77,0,32.29,32.29,0,0,0,64.52,32.26a31.89,31.89,0,0,0,4.4,16.13,31.77,31.77,0,0,0,0,32.26,31.75,31.75,0,0,0,0,32.25,31.77,31.77,0,0,0,0,32.26,31.77,31.77,0,0,0,0,32.26,31.77,31.77,0,0,0,0,32.26,31.57,31.57,0,0,0,.35,32.73,32.37,32.37,0,0,0-20.88,3.92,32,32,0,0,0-16.13-4.39A32.29,32.29,0,0,0,0,274.19a31.83,31.83,0,0,0,4.4,16.13,31.77,31.77,0,0,0,0,32.26,31.77,31.77,0,0,0,0,32.26,31.77,31.77,0,0,0,0,32.26,31.75,31.75,0,0,0,0,32.25,31.77,31.77,0,0,0,0,32.26A31.89,31.89,0,0,0,0,467.74,32.29,32.29,0,0,0,32.26,500a31.86,31.86,0,0,0,16.13-4.4,32.42,32.42,0,0,0,32.26,0,32.4,32.4,0,0,0,32.25,0,32.42,32.42,0,0,0,32.26,0,31.83,31.83,0,0,0,16.13,4.4,32.29,32.29,0,0,0,32.26-32.26,31.89,31.89,0,0,0-4.4-16.13,31.77,31.77,0,0,0,0-32.26,31.75,31.75,0,0,0,0-32.25,31.77,31.77,0,0,0,0-32.26,31.77,31.77,0,0,0,0-32.26,31.77,31.77,0,0,0,0-32.26,31.57,31.57,0,0,0-.35-32.73,32.32,32.32,0,0,0,20.88-3.92A31.93,31.93,0,0,0,248.11,249a129.68,129.68,0,0,0,60.53,73.57H266.13a24,24,0,0,0-22.71,32.26h-9.55a24.2,24.2,0,0,0,0,48.39h9.55a22.69,22.69,0,0,0,0,16.12h-9.55a24.2,24.2,0,0,0,0,48.39h9.55A24,24,0,0,0,266.13,500H475.81a24.2,24.2,0,0,0,0-48.39h-9.55a22.71,22.71,0,0,0,0-16.13h9.55a24.19,24.19,0,0,0,0-48.38h-9.55a22.71,22.71,0,0,0,0-16.13h9.55A24.22,24.22,0,0,0,500,346.77Zm-326.78-51a15.82,15.82,0,0,1,0,21.47l-4.87,5.39,4.87,5.4a15.81,15.81,0,0,1,0,21.46l-4.87,5.4,4.87,5.39a15.82,15.82,0,0,1,0,21.47l-4.87,5.4,4.87,5.39a15.82,15.82,0,0,1,0,21.47l-4.87,5.39,4.87,5.4a15.82,15.82,0,0,1,0,21.47l-4.87,5.39,4.87,5.4a15.91,15.91,0,0,1,4.2,10.73,16,16,0,0,1-26.86,11.93l-5.4-4.86-5.39,4.86a16.18,16.18,0,0,1-21.47,0l-5.4-4.86-5.39,4.86a16.18,16.18,0,0,1-21.47,0l-5.39-4.86-5.4,4.86a16.18,16.18,0,0,1-21.47,0l-5.39-4.86L43,479.67A16,16,0,0,1,20.33,457l4.86-5.4-4.86-5.39a15.82,15.82,0,0,1,0-21.47l4.86-5.4L20.33,414a15.82,15.82,0,0,1,0-21.47l4.86-5.39-4.86-5.4a15.82,15.82,0,0,1,0-21.47l4.86-5.39-4.86-5.4a15.81,15.81,0,0,1,0-21.46l4.86-5.4-4.86-5.39a15.82,15.82,0,0,1,0-21.47l4.86-5.4-4.86-5.39a15.94,15.94,0,0,1-4.2-10.74A16,16,0,0,1,43,262.27l5.4,4.86,5.39-4.86a16.18,16.18,0,0,1,21.47,0l5.4,4.86L86,262.27a16.18,16.18,0,0,1,21.47,0l5.39,4.86,5.4-4.86a16.18,16.18,0,0,1,21.47,0l5.39,4.86,5.4-4.86a16,16,0,0,1,22.66,22.66l-4.87,5.39ZM237.73,53.78a15.79,15.79,0,0,1,0,21.47l-4.86,5.4L237.73,86a15.79,15.79,0,0,1,0,21.47l-4.86,5.39,4.86,5.4a15.79,15.79,0,0,1,0,21.47l-4.86,5.39,4.86,5.4a15.78,15.78,0,0,1,0,21.46l-4.86,5.4,4.86,5.39a15.79,15.79,0,0,1,0,21.47l-4.86,5.4,4.86,5.39a15.94,15.94,0,0,1,4.21,10.74,16,16,0,0,1-26.87,11.92l-5.39-4.86-5.4,4.86a16.18,16.18,0,0,1-21.47,0l-5.39-4.86-5.4,4.86a16.17,16.17,0,0,1-21.46,0l-5.4-4.86-5.39,4.86a16.18,16.18,0,0,1-21.47,0l-5.4-4.86-5.39,4.86a16,16,0,0,1-22.66-22.66l4.86-5.39-4.86-5.4a15.82,15.82,0,0,1,0-21.47l4.86-5.39L84.85,172a15.81,15.81,0,0,1,0-21.46l4.86-5.4-4.86-5.39a15.82,15.82,0,0,1,0-21.47l4.86-5.4-4.86-5.39a15.82,15.82,0,0,1,0-21.47l4.86-5.39-4.86-5.4a15.82,15.82,0,0,1,0-21.47l4.86-5.39L84.85,43a15.91,15.91,0,0,1-4.2-10.73,16,16,0,0,1,26.86-11.93l5.39,4.86,5.4-4.86a16.18,16.18,0,0,1,21.47,0l5.39,4.86,5.4-4.86a16.17,16.17,0,0,1,21.46,0l5.4,4.86,5.39-4.86a16.18,16.18,0,0,1,21.47,0l5.4,4.86,5.39-4.86a16,16,0,0,1,26.87,11.93A15.91,15.91,0,0,1,237.73,43l-4.86,5.4Zm20.33,155.9A112.91,112.91,0,1,1,371,322.58,113,113,0,0,1,258.06,209.68ZM475.81,467.74a8.07,8.07,0,0,1,0,16.13H266.13a8.07,8.07,0,1,1,0-16.13h137.1V451.61H233.87a8.07,8.07,0,0,1,0-16.13H443.55a8.07,8.07,0,0,1,0,16.13h-24.2v16.13h56.46Zm0-64.51a8.06,8.06,0,0,1,0,16.12H266.13a8.06,8.06,0,1,1,0-16.12H475.81Zm-32.26-48.39h-129V371h129a8.07,8.07,0,0,1,0,16.13H233.87a8.07,8.07,0,0,1,0-16.13h64.52V354.84H266.13a8.07,8.07,0,1,1,0-16.13H475.81a8.07,8.07,0,0,1,0,16.13Zm-121-209.68a24.2,24.2,0,1,0,24.19,24.19A24.22,24.22,0,0,0,322.58,145.16Zm0,32.26a8.07,8.07,0,1,1,8.07-8.07A8.07,8.07,0,0,1,322.58,177.42Zm-217.74-121H121V72.58H104.84Zm32.26,0h16.13V72.58H137.1Zm32.25,0h16.13V72.58H169.35Zm32.26,0h16.13V72.58H201.61ZM104.84,121H121V137.1H104.84Zm32.26,0h16.13V137.1H137.1Zm32.25,0h16.13V137.1H169.35Zm32.26,0h16.13V137.1H201.61Zm-96.77,64.51H121v16.13H104.84Zm32.26,0h16.13v16.13H137.1Zm32.25,0h16.13v16.13H169.35Zm32.26,0h16.13v16.13H201.61ZM40.32,298.39H56.45v16.13H40.32Zm32.26,0H88.71v16.13H72.58Zm32.26,0H121v16.13H104.84Zm32.26,0h16.13v16.13H137.1ZM40.32,362.9H56.45V379H40.32Zm32.26,0H88.71V379H72.58Zm32.26,0H121V379H104.84Zm32.26,0h16.13V379H137.1ZM40.32,427.42H56.45v16.13H40.32Zm32.26,0H88.71v16.13H72.58Zm32.26,0H121v16.13H104.84Zm32.26,0h16.13v16.13H137.1ZM362.9,112.9H379V129H362.9Zm0,88.71H379v16.13H362.9Zm88.71,8.07h16.13v16.13H451.61Zm-40.32,64.51h16.13v16.13H411.29Zm-137.1-72.58h16.13v16.13H274.19Z"/></g></svg>