<svg xmlns="http://www.w3.org/2000/svg" viewBox="0 0 500 500"><defs><style>.cls-1{fill:#4d4d4d;}</style></defs><title>Epicerie sucrée - Thés et infusions</title><g id="Layer_3" data-name="Layer 3"><path class="cls-1" d="M454.18,208.31h-50a305.07,305.07,0,0,0-2.07-34.45,8.33,8.33,0,0,0-8.26-7.22h-346a8.33,8.33,0,0,0-8.26,7.22c-.24,1.71-5.62,42.72,1.8,95C45.74,299.69,53.7,328,65,353a223.31,223.31,0,0,0,42.61,63.62H12.48A8.33,8.33,0,0,0,4.15,425a83.89,83.89,0,0,0,10.44,37.43C24.24,479.56,44.71,500,87.49,500H404.18c42.77,0,63.25-20.44,72.89-37.58A83.77,83.77,0,0,0,487.52,425a8.33,8.33,0,0,0-8.33-8.33H334a215.17,215.17,0,0,0,29.86-39.2l104.16-36.77a41.72,41.72,0,0,0,27.8-39.29V250A41.71,41.71,0,0,0,454.18,208.31Zm-53.89,60.56q.76-5.37,1.35-10.56h35.88a8.35,8.35,0,0,1,8.33,8.34v21.59a8.37,8.37,0,0,1-5.53,7.85l-49.43,17.64A339.46,339.46,0,0,0,400.29,268.87ZM279.17,183.31H386.32a374.14,374.14,0,0,1,.65,50H279.17Zm-223.82,0H262.5v50H54.69A379.23,379.23,0,0,1,55.35,183.31ZM270.84,286.77l25,25v71.55h-50V311.77ZM469.91,433.33a67.54,67.54,0,0,1-7.36,20.91c-10.86,19.3-30.5,29.09-58.37,29.09H87.49c-27.61,0-47.15-9.61-58.07-28.55a67.5,67.5,0,0,1-7.67-21.45ZM361.46,346.17c-12.78,28.25-30.16,51.94-51.66,70.49H131.87c-21.45-18.5-38.8-42.11-51.56-70.26C69.64,322.88,62.12,296.15,57.94,267c-.84-5.81-1.5-11.49-2-17H262.5v21.55l-30.89,30.89a8.34,8.34,0,0,0-2.45,5.9v83.34A8.34,8.34,0,0,0,237.5,400h66.67a8.34,8.34,0,0,0,8.34-8.33V308.32a8.34,8.34,0,0,0-2.45-5.9l-30.89-30.89V250H385.75c-.52,5.36-1.16,10.89-2,16.54C379.64,295.78,372.12,322.58,361.46,346.17ZM479.19,301.4A25.06,25.06,0,0,1,462.5,325l-87.11,30.74c.41-.89.84-1.78,1.25-2.68q4.23-9.36,7.83-19.31l61.45-22a25.06,25.06,0,0,0,16.6-23.54V266.65a25,25,0,0,0-25-25H403.17c.42-5.83.69-11.4.84-16.67h50.17a25,25,0,0,1,25,25ZM231.42,14.93a8.33,8.33,0,0,0-10-13.3,58.1,58.1,0,0,0-16.13,20.92c-5.58,12.28-9.13,32.08,5.65,56.7,21.11,35.2,2,55.69,1.25,56.49a8.33,8.33,0,0,0,11.71,11.86.46.46,0,0,0,.07-.07c1.21-1.21,29.28-30.14,1.25-76.85-8.73-14.56-10.42-28.23-5-40.64A42,42,0,0,1,231.42,14.93ZM126.72,35.74a8.33,8.33,0,0,0-11.79,0h0a51.76,51.76,0,0,0-11.39,18.88C100,65.4,99,81.6,114.93,97.53c18.37,18.37,1.91,36.27,0,38.21a8.34,8.34,0,0,0,11.79,11.79,51.73,51.73,0,0,0,11.38-18.88c3.6-10.79,4.54-27-11.38-42.91-18.38-18.37-1.91-36.27,0-38.25A8.34,8.34,0,0,0,126.72,35.74Zm200,0a8.32,8.32,0,0,0-11.78,0h0a51.62,51.62,0,0,0-11.39,18.88C300,65.4,299,81.6,315,97.53c18.37,18.37,1.9,36.27,0,38.21a8.33,8.33,0,0,0,11.78,11.79,51.76,51.76,0,0,0,11.39-18.88c3.6-10.79,4.54-27-11.39-42.91-18.37-18.37-1.91-36.27,0-38.25A8.32,8.32,0,0,0,326.73,35.74Z"/></g></svg>