<svg xmlns="http://www.w3.org/2000/svg" viewBox="0 0 500 500"><defs><style>.cls-1{fill:#4d4d4d;}</style></defs><title>Hygiène</title><g id="Layer_9" data-name="Layer 9"><path id="outline" class="cls-1" d="M360.17,381.36h30.39a37.2,37.2,0,0,0,26.45-11,8.48,8.48,0,1,0-12-12,20.32,20.32,0,0,1-14.46,6H360.17a8.48,8.48,0,1,0,0,16.95Zm25.42-135.6a33.9,33.9,0,1,0,33.9,33.9A33.9,33.9,0,0,0,385.59,245.76Zm0,50.85a17,17,0,1,1,17-16.95A17,17,0,0,1,385.59,296.61Zm84.75-93.22a25.43,25.43,0,1,0,25.42,25.42A25.42,25.42,0,0,0,470.34,203.39Zm0,33.9a8.48,8.48,0,1,1,8.47-8.48A8.48,8.48,0,0,1,470.34,237.29ZM385.59,127.12a33.9,33.9,0,1,0,33.9,33.9A33.9,33.9,0,0,0,385.59,127.12Zm0,50.85a17,17,0,1,1,17-16.95A17,17,0,0,1,385.59,178ZM44.49,500h89a40.15,40.15,0,0,0,16.44-3.52,8.47,8.47,0,0,0,6.87,3.52H453.39a8.47,8.47,0,0,0,8.22-6.42l6.87-27.48h10.33a8.48,8.48,0,0,0,8.48-8.47v-33.9a8.48,8.48,0,0,0-8.48-8.48H457.35a50.81,50.81,0,0,0-37.86-84.74H334.75V168.43a58.34,58.34,0,0,0-50.85-57.77V84.75a8.48,8.48,0,0,0-8.48-8.48V8.47A8.47,8.47,0,0,0,267,0H184.32a19.1,19.1,0,0,0-19.07,19.07V33.9a8.48,8.48,0,0,0,8.48,8.47h33.9v33.9a8.48,8.48,0,0,0-8.48,8.48v25.91a58.33,58.33,0,0,0-50.84,57.77v88.65a40.11,40.11,0,0,0-14.84-2.84,10.62,10.62,0,0,1-10.59-10.6v-6.35a8.48,8.48,0,0,0,8.48-8.48V194.92a8.48,8.48,0,0,0-8.48-8.48H55.08a8.47,8.47,0,0,0-8.47,8.48v33.89a8.48,8.48,0,0,0,8.47,8.48v6.35a10.6,10.6,0,0,1-10.59,10.6A40.29,40.29,0,0,0,4.24,294.49V459.75A40.29,40.29,0,0,0,44.49,500ZM165.25,269.83V245.76H250V364.41H173.73V294.49A40,40,0,0,0,165.25,269.83ZM446.77,483.05h-112V466.1H451Zm23.57-33.9H334.75V432.2H470.34ZM419.49,347.46a33.9,33.9,0,1,1,0,67.79H334.75V347.46ZM216.1,93.22H267v17H216.1Zm-33.9-67.8V19.07A2.12,2.12,0,0,1,184.32,17h23.31v8.47ZM224.58,17h33.89V76.27H224.58Zm-18,110.17h69.91a41.36,41.36,0,0,1,41.32,41.31V483.05H166.26a39.94,39.94,0,0,0,7.47-23.3V381.36h84.74a8.48,8.48,0,0,0,8.48-8.48V237.29a8.48,8.48,0,0,0-8.48-8.48H165.25V168.43A41.36,41.36,0,0,1,206.57,127.12Zm-143,76.27h50.85v17H63.56Zm-19.07,67.8A27.57,27.57,0,0,0,72,243.64v-6.35h33.9v6.35a27.58,27.58,0,0,0,27.54,27.55,23.33,23.33,0,0,1,23.31,23.3V459.75a23.33,23.33,0,0,1-23.31,23.3h-89a23.32,23.32,0,0,1-23.3-23.3V440.68H97.46a8.48,8.48,0,0,0,8.47-8.48V313.56a8.48,8.48,0,0,0-8.47-8.48H21.19V294.49A23.32,23.32,0,0,1,44.49,271.19ZM21.19,322H89v101.7H21.19Zm271.18,67.8a8.48,8.48,0,0,0,8.48-8.47v-8.48a8.48,8.48,0,0,0-17,0v8.48A8.47,8.47,0,0,0,292.37,389.83Zm0,59.32a8.48,8.48,0,0,0,8.48-8.47V415.25a8.48,8.48,0,0,0-17,0v25.43A8.47,8.47,0,0,0,292.37,449.15Z"/></g></svg>