<svg xmlns="http://www.w3.org/2000/svg" viewBox="0 0 500 500"><defs><style>.cls-1{fill:#4d4d4d;}</style></defs><title>Hygiène - Hommes</title><g id="Layer_9" data-name="Layer 9"><path class="cls-1" d="M351.57,73.31l-1-.87a30.39,30.39,0,0,0-5.71-4,40.19,40.19,0,0,0-38.45-52.31,39.82,39.82,0,0,0-26.9,10.47,37.33,37.33,0,0,0-16.74-2.25,40.22,40.22,0,0,0-74,.12,40.19,40.19,0,0,0-23,69.13,67.77,67.77,0,0,0-4.72,71,32.09,32.09,0,0,0,24.39,53.13h4.75a64.93,64.93,0,0,0,24.61,29.83l-2.67,13.35a8,8,0,0,1-7.11,6.43l-47.76,4.78A67.21,67.21,0,0,0,96.77,339v56.14a48.44,48.44,0,0,0,48.39,48.39V500H354.84V325.2l49.93-68.67a75.65,75.65,0,0,0,14.58-44.82,76.46,76.46,0,0,0-10.11-37.94ZM193,40.3l7.88.34,1.6-6.28a24.12,24.12,0,0,1,47,.93l1.79,8.45,8.31-2.36a22.22,22.22,0,0,1,18,2l5.9,3.21,4.23-5.23A24.09,24.09,0,1,1,316.9,78.15l-6.63,3.2,2.6,6.9a23.83,23.83,0,0,1,1.65,8.52,24.23,24.23,0,0,1-24.2,24.2,23.85,23.85,0,0,1-11.47-3.06l-5.91-3.21-4.21,5.23a23.82,23.82,0,0,1-37.45,0l-4.22-5.23-5.9,3.21A23.92,23.92,0,0,1,209.68,121a24.23,24.23,0,0,1-24.2-24.2,15.45,15.45,0,0,1,.24-2.27l.82-6.33L181.8,85.5a24.17,24.17,0,0,1-12.45-21c0-13.34,10.86-24.2,23.64-24.22ZM330.65,185.48a16.15,16.15,0,0,1-16.13,16.13H314a64.93,64.93,0,0,0,.56-8.06v-24.2A16.15,16.15,0,0,1,330.65,185.48Zm-20.88,32.26h4.75a32.21,32.21,0,0,0,32.06-30.33l6.36,12.44a17.26,17.26,0,0,1-2.2,19l-40,47.24H294.85A8.08,8.08,0,0,1,287,260l-2.95-11.79a64.84,64.84,0,0,0,25.7-30.49Zm4.75-64.51V128.82a40.47,40.47,0,0,0,12.36-15.28,52.3,52.3,0,0,1-1.22,41.79,31.77,31.77,0,0,0-11.14-2.1Zm-129-3.65v3.65a31.73,31.73,0,0,0-11.14,2.1,52.19,52.19,0,0,1-1.21-41.77,40.44,40.44,0,0,0,15.31,17.34,60.93,60.93,0,0,0-3,18.68Zm0,52a16.13,16.13,0,1,1,0-32.26v24.2a64.93,64.93,0,0,0,.56,8.06Zm16.13-8.06v-44a44.77,44.77,0,0,1,2-13.1,39.39,39.39,0,0,0,6.08.62,38.73,38.73,0,0,0,13.41-2.41,39.82,39.82,0,0,0,53.82,0,38.73,38.73,0,0,0,13.41,2.41,40.53,40.53,0,0,0,8.07-.82v57.27a48.39,48.39,0,0,1-96.78,0ZM161.29,483.87V443.55h76.1a40,40,0,0,0,63.71,13.72,38.75,38.75,0,0,0,13.42,2.41,39.92,39.92,0,0,0,24.19-8.28v32.47ZM258.06,379h-4.72l-6.9-6.9a31.28,31.28,0,0,0-15-8.31,23.77,23.77,0,0,1,37.31.12l4.22,5.23,5.9-3.21a23.92,23.92,0,0,1,11.48-3.06c13.34,0,24.2,10.86,24.22,23.67l-.4,7.83,6.34,1.62A24.11,24.11,0,1,1,303,440.49l-5.9-3.21-4.22,5.23a23.84,23.84,0,0,1-36.61,1h1.75a32.26,32.26,0,0,0,0-64.52Zm133.67-132-53,72.91v67.35a40.14,40.14,0,0,0-8.34-4.92,40.38,40.38,0,0,0-40.05-35.62,38.83,38.83,0,0,0-13.42,2.41,39.86,39.86,0,0,0-64.47,16A31.28,31.28,0,0,0,196.66,379H161.29V330.65H145.16v53.11L131.4,397.52l11.4,11.41,13.76-13.77h50l3.81-7.63a15.38,15.38,0,0,1,24.63-4l11.62,11.63h11.4a16.13,16.13,0,0,1,0,32.26H145.16a32.29,32.29,0,0,1-32.26-32.26V339a51.08,51.08,0,0,1,46-50.83l47.77-4.78A24.05,24.05,0,0,0,228,264.09l1.86-9.28a64.4,64.4,0,0,0,39.34.34l2.19,8.79a24.16,24.16,0,0,0,23.47,18.32h23.41l44.8-52.95a33.44,33.44,0,0,0,4.25-36.81L351.7,162H340.34a68.31,68.31,0,0,0-9.93-73.29,40.2,40.2,0,0,0,6.68-6.13,14.13,14.13,0,0,1,1.84,1.09l56.32,98.12a60,60,0,0,1-3.52,65.24ZM233.87,104.84a24.22,24.22,0,0,0,24.19-24.19H241.94a8.07,8.07,0,1,1-8.07-8.07V56.45a24.2,24.2,0,0,0,0,48.39Zm56.45-16.13h16.13a24.22,24.22,0,0,0-24.19-24.19V80.65A8.07,8.07,0,0,1,290.32,88.71ZM64.52,185.48a24.2,24.2,0,1,0-24.2,24.2A24.23,24.23,0,0,0,64.52,185.48Zm-32.26,0a8.07,8.07,0,1,1,8.06,8.07A8.07,8.07,0,0,1,32.26,185.48ZM112.9,88.71A24.19,24.19,0,1,0,88.71,112.9,24.22,24.22,0,0,0,112.9,88.71ZM88.71,96.77a8.06,8.06,0,1,1,8.06-8.06A8.07,8.07,0,0,1,88.71,96.77ZM48.39,40.32a24.2,24.2,0,1,0-24.2,24.2A24.22,24.22,0,0,0,48.39,40.32Zm-32.26,0a8.07,8.07,0,1,1,8.06,8.07A8.07,8.07,0,0,1,16.13,40.32Zm467.74,24.2a24.2,24.2,0,1,0-24.19,24.19A24.22,24.22,0,0,0,483.87,64.52Zm-32.26,0a8.07,8.07,0,1,1,8.07,8.06A8.08,8.08,0,0,1,451.61,64.52Zm16.13,177.42a24.19,24.19,0,1,0,24.2,24.19A24.22,24.22,0,0,0,467.74,241.94Zm0,32.25a8.07,8.07,0,1,1,8.07-8.06A8.07,8.07,0,0,1,467.74,274.19ZM56.45,233.87a24.2,24.2,0,1,0,24.2,24.19A24.22,24.22,0,0,0,56.45,233.87Zm0,32.26a8.07,8.07,0,1,1,8.07-8.07A8.07,8.07,0,0,1,56.45,266.13ZM475.81,129A24.2,24.2,0,1,0,500,153.23,24.23,24.23,0,0,0,475.81,129Zm0,32.26a8.07,8.07,0,1,1,8.06-8.06A8.07,8.07,0,0,1,475.81,161.29ZM387.1,48.39a24.2,24.2,0,1,0-24.2-24.2A24.22,24.22,0,0,0,387.1,48.39Zm0-32.26A8.07,8.07,0,1,1,379,24.19,8.07,8.07,0,0,1,387.1,16.13Z"/></g></svg>