<svg xmlns="http://www.w3.org/2000/svg" viewBox="0 0 500 500"><defs><style>.cls-1{fill:#4d4d4d;}</style></defs><title>Hygiène - Femmes</title><g id="Layer_9" data-name="Layer 9"><path class="cls-1" d="M190,87.88a27.18,27.18,0,0,0,21-.37,27.11,27.11,0,0,0,14.53-15.06A7.33,7.33,0,1,0,211.9,67.1a12.58,12.58,0,0,1-6.74,7,12.71,12.71,0,0,1-9.78.17A7.32,7.32,0,1,0,190,87.88Zm113.12-1.57a27.3,27.3,0,0,0,19.37-8,7.33,7.33,0,0,0-10.36-10.36,12.74,12.74,0,0,1-18,0A7.33,7.33,0,0,0,283.77,78.3a27.29,27.29,0,0,0,19.36,8Zm7.41,135.37a7.33,7.33,0,0,0-10.09-2.32,10.1,10.1,0,0,1-9.12,0,7.32,7.32,0,1,0-7.81,12.39,24.62,24.62,0,0,0,24.71,0,7.31,7.31,0,0,0,2.31-10.09Zm-97.83-2.31a10.08,10.08,0,0,1-9.11,0,7.33,7.33,0,0,0-7.79,12.41,24.62,24.62,0,0,0,24.71,0,7.32,7.32,0,1,0-7.81-12.39ZM262.89,278c-6.31,2.71-17.39,2.71-23.71,0a7.33,7.33,0,0,0-5.77,13.47,49.7,49.7,0,0,0,35.25,0A7.33,7.33,0,0,0,262.89,278ZM412.3,419.46c-.92-15.32-7.5-28.89-19.6-40.58a7.66,7.66,0,0,0-1.12-1.08l-.22-.19-1.48-1.33A19.47,19.47,0,0,1,384.56,365a21.06,21.06,0,0,1,4-15.52A33.9,33.9,0,0,0,382.41,302,19.16,19.16,0,0,1,379,275.2a33.78,33.78,0,0,0-1.09-42.64c5.53-9.87,7.47-21.72,4.26-31-2.21-6.37-6.56-10.77-12.35-12.74V174.14a122.61,122.61,0,0,0-9-46.39c.46-.38.91-.76,1.35-1.16a37.81,37.81,0,0,0,7.71-46,37.75,37.75,0,1,0-53.43-53.27A34.42,34.42,0,0,0,282.64,29,34.32,34.32,0,0,0,259.1,15.86a34.25,34.25,0,0,0-62.83,13.81,34.66,34.66,0,0,0-19.48,14.91,34,34,0,0,0-12-2.74A34.25,34.25,0,0,0,133.6,93.22a34.43,34.43,0,0,0-9.78,22.39,33.94,33.94,0,0,0,8.9,24.64A34.44,34.44,0,0,0,138,145a118.38,118.38,0,0,0-3.66,29.18v14.68A19.65,19.65,0,0,0,122,201.56c-3.22,9.28-1.28,21.13,4.25,31a33.77,33.77,0,0,0-1.09,42.63,19.17,19.17,0,0,1-3.46,26.86,33.9,33.9,0,0,0-6.11,47.42,21.07,21.07,0,0,1,4,15.5,19.59,19.59,0,0,1-5.22,11.23c-14,12.27-21.53,26.73-22.52,43.18l-.91,12.79A7.32,7.32,0,0,0,97.67,440a4.78,4.78,0,0,0,.53,0,7.32,7.32,0,0,0,7.3-6.8l.92-12.87c1.7-28.23,28.93-44.72,57.87-55.38,15.08-5.56,45.5-13.34,45.5-13.34,9.21-2.34,10.58-9.06,10.58-12.86V329c10.34,5.43,20.73,8.73,30,8.73h3.28c9.31,0,19.7-3.3,30-8.73v9.72c0,3.81,1.37,10.54,10.57,12.86,0,0,36.59,9.36,54.24,16.77,11.24,4.72,21.82,10.44,30.28,17.54a30.82,30.82,0,0,0,3.82,3.48l.08,0c8.55,8.36,14.21,18.46,14.95,30.81l3.3,64.44q0,.35,0,.63H364.89V442.57a12.73,12.73,0,0,0-12.72-12.72H269.35a7.33,7.33,0,1,0,0,14.65h80.9v40.85H153.85V444.5h81.67a7.33,7.33,0,1,0,0-14.65h-83.6a12.74,12.74,0,0,0-12.72,12.72v42.78H103.1c0-.21,0-.43,0-.68l.83-16.42a7.32,7.32,0,0,0-14.63-.74l-.83,16.36c-.23,4,0,8.58,3.3,12.1s8.07,4,12.24,4h296c4.17,0,8.88-.48,12.24-4s3.53-8.09,3.3-12ZM362.44,202.3c3.15,0,4.84,1.18,5.84,4,2,5.66,0,15-5.16,22.14a6.71,6.71,0,0,0-.55.63,7.25,7.25,0,0,0-.46.67,25.68,25.68,0,0,1-3.88,3.85,18.87,18.87,0,0,1-6.5,3.34,93.65,93.65,0,0,0,1.21-14.13c.15-2.47.15-5.77.14-17.06V202.3Zm-16.69-14.65c-30.74,0-63.85-14.54-88.56-38.91a7.33,7.33,0,0,0-10.29,0,138,138,0,0,1-55.12,33.49,113.2,113.2,0,0,1-33.43,5.42H149V174.13a103.64,103.64,0,0,1,2.65-23.31,34.61,34.61,0,0,0,4.79.57c.55,0,1.09,0,1.64,0a34.22,34.22,0,0,0,25.34-11.26,38.06,38.06,0,0,0,56.72-16.33,30.28,30.28,0,0,0,29.77.8,36.74,36.74,0,0,0,38-1.62,37.79,37.79,0,0,0,39.92,11.75,108.33,108.33,0,0,1,7.29,39.36v13.52Zm-198.2-87a7.32,7.32,0,0,0,1.4-11.2,19.59,19.59,0,0,1,14.28-33l.92,0a19.3,19.3,0,0,1,11.33,4.28,7.32,7.32,0,0,0,11.63-3.68A19.69,19.69,0,0,1,204,43a7.32,7.32,0,0,0,6.62-7.73,16.32,16.32,0,0,1,0-2A19.59,19.59,0,0,1,248,26.07,7.33,7.33,0,0,0,255,30.33c.5,0,1,0,1.49,0a19.61,19.61,0,0,1,17.37,12.56,7.32,7.32,0,0,0,12.37,2.17A19.54,19.54,0,0,1,302,38.3a19.34,19.34,0,0,1,11.5,4.42,7.33,7.33,0,0,0,10.91-1.81,23.1,23.1,0,1,1,31.71,31.8,7.34,7.34,0,0,0-1.74,11,23.1,23.1,0,0,1-18.67,38A23.12,23.12,0,0,1,316,108.83,7.33,7.33,0,0,0,304,107.17a21.95,21.95,0,0,1-29.62,2.92,7.32,7.32,0,0,0-9,.07,15.56,15.56,0,0,1-21.76-2.43,7.33,7.33,0,0,0-8.39-2.23c-.62.25-1.26.47-1.88.67a7.33,7.33,0,0,0-5,6,23.43,23.43,0,0,1-40.77,12.27,7.33,7.33,0,0,0-12,1.58,19.58,19.58,0,1,1-28-25.33Zm-11.73,105.7c1-2.87,2.69-4,5.84-4H151v3.49c0,11.28,0,14.59.14,17.06A93.89,93.89,0,0,0,152.37,237a18.86,18.86,0,0,1-6.52-3.37c-8.76-6.89-12.52-20.08-10-27.27Zm69.9,131.19-1.8.46c-19.24,4.92-45.58,11.66-67.95,23.53l-1.62.88a35.44,35.44,0,0,0-7.18-21.89,19.23,19.23,0,0,1,3.45-26.88,33.83,33.83,0,0,0,6.12-47.4,19.06,19.06,0,0,1-1-22c.34.28.67.56,1,.83a33.83,33.83,0,0,0,19.14,7.29,133.94,133.94,0,0,0,8.89,22.27c8,15.74,23.59,32.84,40.92,45.26v17.61Zm46.72-14.45a5.21,5.21,0,0,0-.79,0c-21.28,1.13-59.87-27.68-73.79-55-7.66-15.1-12.05-31.65-12.05-45.43,0-.17,0-.34,0-.5-.13-2-.13-5.61-.12-16.31V202a131.92,131.92,0,0,0,30.5-5.82A152.34,152.34,0,0,0,252.05,164c24.76,22.28,56.17,36.1,86.38,38v3.75c0,10.7,0,14.31-.13,16.31,0,.16,0,.33,0,.49,0,13.79-4.4,30.34-12.05,45.43-13.92,27.39-52.58,56.19-73.8,55.06Zm124.5,17.42a35.44,35.44,0,0,0-7.2,21.9l-1.62-.88c-22.36-11.87-48.71-18.61-67.94-23.53l-1.8-.46V319.93c17.33-12.43,32.91-29.52,40.92-45.26a133.94,133.94,0,0,0,8.89-22.27,34,34,0,0,0,19.11-7.26c.35-.28.7-.56,1-.85a19.06,19.06,0,0,1-1,22,33.82,33.82,0,0,0,6.11,47.38,19.24,19.24,0,0,1,3.48,26.88ZM114.57,44.83A29.91,29.91,0,1,0,84.66,74.74,29.95,29.95,0,0,0,114.57,44.83ZM84.66,60.1A15.27,15.27,0,1,1,99.92,44.83,15.28,15.28,0,0,1,84.66,60.1ZM42.22,117.48a29.92,29.92,0,1,0,29.92,29.91A29.95,29.95,0,0,0,42.22,117.48Zm0,45.18a15.27,15.27,0,1,1,15.27-15.27A15.29,15.29,0,0,1,42.22,162.66ZM449.61,20.76a38.08,38.08,0,1,0,38.08,38.08A38.14,38.14,0,0,0,449.61,20.76Zm0,61.51A23.43,23.43,0,1,1,473,58.84,23.47,23.47,0,0,1,449.61,82.27Zm-7.86,48.17A30.23,30.23,0,1,0,472,160.68,30.28,30.28,0,0,0,441.75,130.44Zm0,45.81a15.59,15.59,0,1,1,15.57-15.57A15.6,15.6,0,0,1,441.75,176.25Z"/></g></svg>