<svg xmlns="http://www.w3.org/2000/svg" viewBox="0 0 500 500"><defs><style>.cls-1{fill:#4d4d4d;}</style></defs><title>Hygiène - Savons et coton-tiges</title><g id="Layer_9" data-name="Layer 9"><path class="cls-1" d="M476.05,180.67H411.57V104.6a100.9,100.9,0,0,1,11.21-38,45.22,45.22,0,1,0-84.19-30.3A45.23,45.23,0,0,0,250,36.12a45.22,45.22,0,0,0-88.57.06,45.23,45.23,0,0,0-88.65.16A46.11,46.11,0,0,0,76.42,65a118.8,118.8,0,0,1,12.07,37.67c0,.16,0,.32,0,.48v77.48H24a7.14,7.14,0,0,0-7.14,7.14v41.37A7.13,7.13,0,0,0,24,236.32H36V457.4A42.64,42.64,0,0,0,78.6,500H421.43A42.65,42.65,0,0,0,464,457.4V236.32h12.06a7.13,7.13,0,0,0,7.11-7.14V187.81A7.14,7.14,0,0,0,476.05,180.67ZM368.57,110.33h28.72v70.34H368.55Zm-16-71.25a30.95,30.95,0,1,1,57.62,20.79A114.75,114.75,0,0,0,398.21,96H367.68A132.53,132.53,0,0,0,355,58.9,31.87,31.87,0,0,1,352.53,39.08Zm-18.38,27.5a45.41,45.41,0,0,0,4.44-12.37.36.36,0,0,1,0-.1A46,46,0,0,0,342.22,65a118.81,118.81,0,0,1,12.09,37.74c0,.14,0,.27,0,.41v77.48H323V104.28A100.8,100.8,0,0,1,334.15,66.58ZM280,110.33h28.74v70.34H280Zm-16-71.25a30.95,30.95,0,1,1,57.62,20.79A115,115,0,0,0,309.61,96H279.08A132.42,132.42,0,0,0,266.44,58.9,31.87,31.87,0,0,1,263.93,39.08ZM245.59,66.6A45.42,45.42,0,0,0,250,54.32,45.69,45.69,0,0,0,253.59,65a118.91,118.91,0,0,1,12.1,37.65c0,.16,0,.33,0,.5v77.48H234.37V104.24A100.74,100.74,0,0,1,245.59,66.6Zm-54.24,43.73h28.74v70.34H191.36Zm-16-71.25a30.63,30.63,0,0,1,3-8.36A30.95,30.95,0,1,1,233,59.87,114.75,114.75,0,0,0,221,96H190.48A132.21,132.21,0,0,0,177.84,58.9,31.79,31.79,0,0,1,175.34,39.08ZM157,66.58a45.46,45.46,0,0,0,4.44-12.36A45.56,45.56,0,0,0,165,65a118.71,118.71,0,0,1,12.07,37.64c0,.17,0,.34,0,.51v77.48H145.74V104.86A100.8,100.8,0,0,1,157,66.58ZM86.73,39.08a30.95,30.95,0,1,1,57.62,20.79A115,115,0,0,0,132.4,96H101.88A132.53,132.53,0,0,0,89.24,58.9,31.87,31.87,0,0,1,86.73,39.08Zm16,71.25h28.7v70.34H102.72Zm347,347.07a28.35,28.35,0,0,1-28.31,28.32H78.6A28.36,28.36,0,0,1,50.3,457.4V236.32H88.46V353.58c0,.25,0,.49,0,.73a118.66,118.66,0,0,1-12.11,37.44,46.12,46.12,0,0,0-3.64,28.64,45.26,45.26,0,0,0,35.43,35.46,46.48,46.48,0,0,0,8.88.86v0a45.21,45.21,0,0,0,44.32-36.14,45.26,45.26,0,0,0,35.4,35.31,46.48,46.48,0,0,0,8.88.86l0,0A45.22,45.22,0,0,0,250,420.51a45.27,45.27,0,0,0,35.41,35.34,46.4,46.4,0,0,0,8.88.86,45.22,45.22,0,0,0,44.3-36.21A45.26,45.26,0,0,0,374,455.85a46.48,46.48,0,0,0,8.88.86,45.23,45.23,0,0,0,39.92-66.61,101,101,0,0,1-11.21-38.16V236.32h38.17ZM177.06,236.32V353.58c0,.25,0,.49,0,.72A118.89,118.89,0,0,1,165,391.75a45.79,45.79,0,0,0-3.57,10.72A45.4,45.4,0,0,0,157,390.1a100.86,100.86,0,0,1-11.22-38.24V236.32Zm88.6,0V353.58a6,6,0,0,0,.06.85,119.12,119.12,0,0,1-12.1,37.33,45.94,45.94,0,0,0-3.57,10.76,45.41,45.41,0,0,0-4.47-12.42A100.85,100.85,0,0,1,234.37,352V236.32Zm88.63,0V353.58a5.85,5.85,0,0,0,0,.73,119,119,0,0,1-12.12,37.45,45.89,45.89,0,0,0-3.58,10.79,45.56,45.56,0,0,0-4.49-12.45A100.91,100.91,0,0,1,323,352.3v-116Zm13.47,124.41h30.5a114.78,114.78,0,0,0,11.94,36.16,30.95,30.95,0,1,1-57.6,20.82A31.81,31.81,0,0,1,355.08,398,132.59,132.59,0,0,0,367.76,360.73Zm29.53-14.29H368.55l0-110.12h28.72ZM279.16,360.73h30.45a115.05,115.05,0,0,0,11.95,36.16A30.95,30.95,0,1,1,264,417.71,31.81,31.81,0,0,1,266.44,398,132.46,132.46,0,0,0,279.16,360.73Zm29.53-14.29H280V236.32h28.74ZM190.53,360.73h30.52A115,115,0,0,0,233,396.89a30.95,30.95,0,1,1-57.6,20.82A31.81,31.81,0,0,1,177.88,398,132.53,132.53,0,0,0,190.53,360.73Zm29.56-14.29H191.36V236.32h28.74ZM101.93,360.73h30.5a115.23,115.23,0,0,0,11.94,36.15,30.95,30.95,0,1,1-57.6,20.83A31.81,31.81,0,0,1,89.26,398,132.57,132.57,0,0,0,101.93,360.73Zm29.52-14.29H102.72l0-110.12h28.7ZM468.94,222H31.12l0-27.08H468.94Z"/></g></svg>