<svg xmlns="http://www.w3.org/2000/svg" viewBox="0 0 500 500"><defs><style>.cls-1{fill:#4d4d4d;}</style></defs><title>Hygiène - Hygiène dentaire</title><g id="Layer_9" data-name="Layer 9"><path class="cls-1" d="M483.67,313.28a15.11,15.11,0,0,0-21.4,0l-1,1-122-111.37,37.42-12.48a39.86,39.86,0,0,0,15.51-9.58L495.49,77.56a15.43,15.43,0,0,0,0-21.8L484.06,44.32a15.41,15.41,0,0,0-21.79,0l-.54.54-35-35a15.13,15.13,0,0,0-21.41,0L324.85,90.27a15.15,15.15,0,0,0,0,21.4l35,35.05-.86.85a25,25,0,0,1-9.78,6.05l-46.78,15.59-98.6-90a7.3,7.3,0,0,0-4.94-1.92H133.36L116.13,60.05a14.93,14.93,0,0,0,.39-4.22,15.36,15.36,0,0,0-5.63-11.15L60.58,3.5a15.36,15.36,0,0,0-20.66,1L4.53,39.93a15.37,15.37,0,0,0-1,20.66l41.17,50.32a15.46,15.46,0,0,0,11.16,5.63l.76,0a15.35,15.35,0,0,0,3.45-.41l17.22,17.23V199a7.34,7.34,0,0,0,1.91,4.93l17.11,18.74a7.32,7.32,0,0,0,10.81-9.87L94.71,199.2,199.16,94.72l49,44.7L139.4,248.15,127.21,234.8a7.33,7.33,0,1,0-10.82,9.88L164,296.87l-60.28,60.29a7.33,7.33,0,1,0,10.36,10.36L290,191.61a25,25,0,0,1,9.78-6.05l3.18-1.06.28-.09,50.66-16.89a39.91,39.91,0,0,0,15.51-9.59L472.62,54.68a.76.76,0,0,1,1.08,0l11.44,11.44a.78.78,0,0,1,0,1.08L381.9,170.45a25.1,25.1,0,0,1-9.78,6l-49.31,16.44-.06,0L318,194.54a39.82,39.82,0,0,0-15.51,9.58L84.34,422.31,71.82,409.8l21.57-21.57A7.32,7.32,0,0,0,83,377.88L4.83,456.09a15.42,15.42,0,0,0,0,21.79l11.44,11.44a15.44,15.44,0,0,0,21.79,0L195.74,331.61,314.19,461.38l-1,1a15.16,15.16,0,0,0,0,21.41l11.83,11.83a15.15,15.15,0,0,0,21.4,0L495.5,346.51h0a15.16,15.16,0,0,0,0-21.41Zm-391.76-132v-47.9l41.45-41.46h47.89Zm15.54-109.2L120,84.6,84.58,120,72.07,107.47ZM50.28,14.89a.75.75,0,0,1,.54-.22.72.72,0,0,1,.48.17L101.62,56a.75.75,0,0,1,.27.56.69.69,0,0,1-.22.57L84.58,74.24,37.76,27.41ZM14.84,51.31a.75.75,0,0,1,.05-1L27.41,37.77,74.22,84.59l-17.09,17.1a.77.77,0,0,1-1.13-.06ZM174.39,286.5,149.28,259,258.94,149.3l28.42,25.95a39.9,39.9,0,0,0-7.74,6ZM370.25,65.58,405.63,101l-12.51,12.51L357.73,78.09ZM393.12,42.7,428.5,78.09,416,90.61,380.6,55.22Zm22.52-22.52A.45.45,0,0,1,416,20a.43.43,0,0,1,.34.15l35,35L438.86,67.74,403.47,32.35Zm-80.43,80.44,12.17-12.17,35.38,35.39-12.51,12.52-35-35.05A.49.49,0,0,1,335.21,100.62ZM450.1,371.19l-12.51-12.51,12.51-12.52,12.51,12.52Zm-22.87,22.88-12.51-12.52L427.23,369l12.51,12.51Zm-22.87,22.87-12.51-12.51,4.95-5,7.56-7.56,12.51,12.52Zm-22.87,22.87L369,427.3l12.51-12.52L394,427.3Zm-22.87,22.88-12.51-12.52,12.51-12.51,12.51,12.51ZM27.7,479a.76.76,0,0,1-1.08,0L15.19,467.52a.76.76,0,0,1,0-1.08l46.28-46.28L74,432.67ZM312.85,214.48a25.31,25.31,0,0,1,9.78-6l.79-.26,20.1,18.36-117,117-20.39-22.34ZM236.38,354.41l118-118,96.59,88.19L324.55,451ZM336.1,485.22a.5.5,0,0,1-.7,0l-11.82-11.83a.49.49,0,0,1,0-.69l12.17-12.17,12.51,12.52Zm149-149.07L473,348.32,460.46,335.8l6.26-6.26,5.91-5.91a.46.46,0,0,1,.34-.14.52.52,0,0,1,.35.14l11.82,11.83a.46.46,0,0,1,.14.34.5.5,0,0,1-.14.35Z"/></g></svg>