<svg xmlns="http://www.w3.org/2000/svg" viewBox="0 0 500 500"><defs><style>.cls-1{fill:#4d4d4d;}</style></defs><title>Maison - Papiers et vaisselle jetable</title><g id="Layer_8" data-name="Layer 8"><path class="cls-1" d="M411.13,102.54a22,22,0,1,0,0-43.95H409L410.44,44h.69a22,22,0,1,0,0-43.95H88.87a22,22,0,1,0,0,44h.69L91,58.59H88.87a22,22,0,1,0,0,44h.69L91,117.19H88.87a22,22,0,1,0,0,43.94h.69l14.68,148.19a7.33,7.33,0,0,0,14.58-1.45L104.28,161.13H395.72L384.73,272c-66.36.92-101.07,15.61-134.68,29.83-34.9,14.77-67.87,28.72-135.62,28.72a7.31,7.31,0,0,0-7.29,8l11.13,112.3a21.87,21.87,0,0,0,14.54,18.53V478a22,22,0,0,0,22,22H345.22a22,22,0,0,0,22-22v-8.59a21.87,21.87,0,0,0,14.54-18.53l28.71-289.78h.69a22,22,0,1,0,0-43.94H409l1.45-14.65ZM352.54,478a7.33,7.33,0,0,1-7.33,7.32H154.79a7.33,7.33,0,0,1-7.33-7.32V470.7H352.54Zm14.61-28.56a7.29,7.29,0,0,1-7.29,6.58H140.14a7.29,7.29,0,0,1-7.29-6.58L122.51,345.15c65.43-1.11,99.88-15.69,133.25-29.81s65.18-27.58,127.52-28.65ZM88.87,29.3a7.33,7.33,0,1,1,0-14.65H411.13a7.33,7.33,0,1,1,0,14.65ZM395.72,44l-1.45,14.64H105.73L104.28,44Zm15.41,87.89a7.32,7.32,0,1,1,0,14.64H88.87a7.32,7.32,0,1,1,0-14.64Zm-306.85-29.3H395.72l-1.45,14.65H105.73ZM88.87,87.89a7.33,7.33,0,1,1,0-14.65H411.13a7.33,7.33,0,1,1,0,14.65Z"/></g></svg>