<svg xmlns="http://www.w3.org/2000/svg" viewBox="0 0 500 500"><defs><style>.cls-1{fill:#4d4d4d;}</style></defs><title>Maison - Vaisselle</title><g id="Layer_8" data-name="Layer 8"><path class="cls-1" d="M250,103.52a9.77,9.77,0,1,0,9.77,9.76A9.77,9.77,0,0,0,250,103.52ZM490.23,419H447c21.27-11.81,39-27.78,51.4-46.34a9.77,9.77,0,0,0-8.13-15.19H472.37C490.71,321.43,500,285.37,500,250,500,115.18,384.9,0,250,0,115.32,0,0,114.94,0,250c0,35.37,9.29,71.43,27.63,107.42H9.77a9.77,9.77,0,0,0-8.13,15.19C14.27,391.55,32.3,407.49,52.9,419H9.77a9.76,9.76,0,0,0-8.13,15.18C27.91,473.53,77.53,500,125.11,500H374.89c47.14,0,97.38-26.76,123.47-65.87A9.76,9.76,0,0,0,490.23,419ZM19.53,250C19.53,125.07,125.07,19.53,250,19.53S480.47,125.07,480.47,250c0,35.11-10.17,71.23-30.22,107.42H401.4c24-32.7,37.08-70.19,37.08-107.42,0-102.16-86.32-188.48-188.48-188.48S61.52,147.84,61.52,250c0,37.23,13,74.72,37.08,107.42H49.75C29.7,321.23,19.53,285.11,19.53,250Zm357,107.42h-253C96.1,325.47,81.05,287.48,81.05,250c0-91.58,77.37-168.95,169-168.95s168.94,77.37,168.94,169C418.94,287.48,403.89,325.47,376.48,357.42ZM30.09,376.86H470C446.56,401.55,410.21,419,374.89,419H125.11C90.87,419,54.22,402.2,30.09,376.86Zm344.8,103.61H125.11c-34.24,0-70.89-16.75-95-42.09H470C446.56,463.08,410.21,480.47,374.89,480.47Zm-83.45-371a9.76,9.76,0,1,0-5.53,18.73c53.6,15.84,91,65.92,91,121.79a9.77,9.77,0,1,0,19.53,0C396.48,183,351.48,127.21,291.44,109.48Z"/></g></svg>