<svg xmlns="http://www.w3.org/2000/svg" viewBox="0 0 500 500"><defs><style>.cls-1{fill:#4d4d4d;}</style></defs><title>Maison - Soin du linge</title><g id="Layer_8" data-name="Layer 8"><path class="cls-1" d="M132.92,441.5a7.33,7.33,0,0,0,7.33-7.32V243.83a7.32,7.32,0,0,0-11.32-6.14L87.72,264.45l-32-42.59A7.32,7.32,0,0,0,44,230.66l32.28,43a14.19,14.19,0,0,0,19,3.36l30.29-19.66V434.17A7.33,7.33,0,0,0,132.92,441.5ZM366.1,395.78a7.32,7.32,0,0,0-7.32,7.32v82.11H140.25V465.39a7.33,7.33,0,0,0-14.65,0v27.14a7.33,7.33,0,0,0,7.32,7.33H366.1a7.33,7.33,0,0,0,7.33-7.33V403.1A7.33,7.33,0,0,0,366.1,395.78ZM482.18,171.09,434.73,135a7.32,7.32,0,0,0-8.86,11.66l47.05,35.76-61.62,82-41.21-26.76a7.32,7.32,0,0,0-11.31,6.14V295.1a7.33,7.33,0,1,0,14.65,0V257.32L403.71,277a14.19,14.19,0,0,0,19-3.36l62.2-82.75a14.19,14.19,0,0,0-2.75-19.78Zm17-167A7.33,7.33,0,0,0,489.29,1,518.9,518.9,0,0,1,387,41.16a15.05,15.05,0,0,0-11-4.76h-18.3a15.17,15.17,0,0,0-15.15,14.88,514.74,514.74,0,0,1-185.06,0A15.17,15.17,0,0,0,142.32,36.4H124a15.05,15.05,0,0,0-11,4.76A518.9,518.9,0,0,1,10.71,1,7.32,7.32,0,1,0,3.94,14,532.34,532.34,0,0,0,108.87,55.19V93.48a15.1,15.1,0,0,0,1.5,6.54L16.84,171.09a14.2,14.2,0,0,0-2.75,19.78l11.16,14.84A7.32,7.32,0,1,0,37,196.91L26.1,182.46l97.18-73.86c.25,0,.49,0,.74,0h18.3a15.17,15.17,0,0,0,15.1-13.87h2.79l22,35.49a79.19,79.19,0,0,0,134.64,0l22-35.49h3.77a15.17,15.17,0,0,0,15.1,13.87h18.11L401,127.81a7.33,7.33,0,1,0,8.87-11.66l-20.51-15.59a15.06,15.06,0,0,0,1.76-7.08V55.2A531.75,531.75,0,0,0,496.06,14a7.32,7.32,0,0,0,3.11-9.88ZM142.83,93.48a.51.51,0,0,1-.51.51H124a.39.39,0,0,1-.18,0h0a.5.5,0,0,1-.31-.46V51.56a.51.51,0,0,1,.51-.51h18.3a.51.51,0,0,1,.51.51V93.48Zm161.55,29.06a64.54,64.54,0,0,1-109.74,0L187.5,111a236.19,236.19,0,0,0,62,8.29,236.13,236.13,0,0,0,62-8.29ZM338.5,80.12a14,14,0,0,0-12,6.67L323.31,92a221.43,221.43,0,0,1-147.6,0l-3.21-5.19a14,14,0,0,0-12-6.67h-3.05v-14A531.08,531.08,0,0,0,250,74.32a531.08,531.08,0,0,0,92.52-8.16v14Zm18.67,13.36V51.56a.51.51,0,0,1,.51-.51H376a.5.5,0,0,1,.5.51V93.48a.5.5,0,0,1-.5.51h-18.3A.51.51,0,0,1,357.17,93.48Zm33.93,245a36.13,36.13,0,0,1-14.32-14.69,12.73,12.73,0,0,0-11.21-6.7h-.11a12.66,12.66,0,0,0-11.13,6.85c-3.05,5.88-7.76,10.5-14.39,14.11a12.67,12.67,0,0,0,.92,22.7,25.54,25.54,0,0,1,13.38,13.17,12.43,12.43,0,0,0,11.07,7.25h.31a12.69,12.69,0,0,0,11.31-6.87A29.16,29.16,0,0,1,390.45,361a12.69,12.69,0,0,0,.65-22.5Zm-25.34,25.86A39.57,39.57,0,0,0,350.18,349a48,48,0,0,0,15.44-15.31A50.61,50.61,0,0,0,381,349.41a43.57,43.57,0,0,0-15.19,14.9Zm18.34-16.56h0Zm82,49.56a31.35,31.35,0,0,1-12.45-12.78A12.15,12.15,0,0,0,443,378.14h-.12a12.06,12.06,0,0,0-10.61,6.54,29.26,29.26,0,0,1-12.51,12.25,12.09,12.09,0,0,0,.89,21.66,21.93,21.93,0,0,1,11.52,11.34,11.87,11.87,0,0,0,10.57,6.92h.3a12.11,12.11,0,0,0,10.79-6.56,25.25,25.25,0,0,1,11.69-11.53,12,12,0,0,0,6.82-10.46,12.15,12.15,0,0,0-6.2-11Zm-22.95,22.23a35.92,35.92,0,0,0-12.39-12.18A43.52,43.52,0,0,0,443,395.22a45.88,45.88,0,0,0,12.2,12.52A39.37,39.37,0,0,0,443.14,419.54ZM90.79,358.05a40.28,40.28,0,0,1-16-16.4,13.22,13.22,0,0,0-23.38.16c-3.41,6.58-8.67,11.74-16.08,15.78a13.19,13.19,0,0,0,1,23.63,28.65,28.65,0,0,1,15,14.79,13,13,0,0,0,11.52,7.55h.33A13.22,13.22,0,0,0,75,396.4a32.65,32.65,0,0,1,15.15-14.93,13.11,13.11,0,0,0,7.44-11.41,13.26,13.26,0,0,0-6.77-12ZM63.32,387.22a42.89,42.89,0,0,0-18.51-18.17,52.08,52.08,0,0,0,18.37-18.23A55,55,0,0,0,81.39,369.5,47,47,0,0,0,63.32,387.22Z"/></g></svg>