<svg xmlns="http://www.w3.org/2000/svg" viewBox="0 0 500 500"><defs><style>.cls-1{fill:#4d4d4d;}</style></defs><title>Maison</title><g id="Layer_8" data-name="Layer 8"><path id="Page-1" class="cls-1" d="M450.09,100H464.5a25,25,0,0,0,25-25V25a25,25,0,0,0-25-25H344.94a67,67,0,0,0-29.81,7L279.2,25H264.5a25,25,0,0,0,0,50h14.7l27.14,13.57a163.92,163.92,0,0,1-22.07,85.55,8.33,8.33,0,0,0,3.1,11.36,8.08,8.08,0,0,0,4.12,1.1,8.35,8.35,0,0,0,7.25-4.16,182.49,182.49,0,0,0,24.31-86.17A66.87,66.87,0,0,0,344.94,100h.64l-44,181.23a116.58,116.58,0,0,0-3.77,29.44V458.33A41.71,41.71,0,0,0,339.5,500H456.17a41.73,41.73,0,0,0,41.67-41.67V310.67a116.38,116.38,0,0,0-3.75-29.3Zm27.84,185.43a100.05,100.05,0,0,1,3.09,22.9H406.17V166.67A16.68,16.68,0,0,0,422.84,150V100H433ZM406.17,150H389.5V100h16.67Zm-150-100a8.33,8.33,0,0,1,8.33-8.33h8.34V58.33H264.5A8.33,8.33,0,0,1,256.17,50ZM339.5,83V66.67a8.33,8.33,0,1,0-16.66,0v11.5c-.09,0-.18-.07-.25-.11L289.5,61.52v-23l33.09-16.54c.07,0,.16-.07.25-.11v11.5a8.33,8.33,0,1,0,16.66,0V17a49.46,49.46,0,0,1,5.44-.31H464.5A8.34,8.34,0,0,1,472.84,25V75a8.34,8.34,0,0,1-8.34,8.33H344.94A49.46,49.46,0,0,1,339.5,83Zm23.22,17h10.12v50a16.67,16.67,0,0,0,16.66,16.67V308.33H314.65a100.59,100.59,0,0,1,3.13-23Zm93.45,383.33H339.5a25,25,0,0,1-25-25V325h75V441.67a8.34,8.34,0,0,0,16.67,0V325h75V458.33A25,25,0,0,1,456.17,483.33ZM272.84,216.67c0-69.75-59.4-117.87-75-129.3V41.67A41.73,41.73,0,0,0,156.17,0H122.84A41.73,41.73,0,0,0,81.17,41.67v45.7c-15.6,11.43-75,59.55-75,129.3a557.47,557.47,0,0,0,8.18,85.62c5.2,34.3,9.69,63.92.74,86.28-9.11,22.81-21.76,65-3.92,91.3,9,13.36,24.17,20.13,45,20.13H222.84c20.83,0,36-6.77,45-20.13,17.8-26.29,5.15-68.49-4-91.3-8.95-22.36-4.46-52,.74-86.28a557.52,557.52,0,0,0,8.22-85.62Zm-175-175a25,25,0,0,1,25-25h33.33a25,25,0,0,1,25,25V83.33H97.84ZM254.07,470.53c-5.83,8.64-16,12.8-31.23,12.8H56.17c-15.18,0-25.4-4.16-31.23-12.8-9.71-14.34-7.6-42.66,5.64-75.76,10.62-26.57,5.83-58.28.26-95a542.51,542.51,0,0,1-8-83.1c0-62.93,57.8-108.26,69.31-116.67h94.7c11.52,8.41,69.32,53.74,69.32,116.67a543.91,543.91,0,0,1-8,83.12c-5.56,36.67-10.37,68.41.26,95,13.24,33.08,15.35,61.4,5.64,75.74ZM197.84,150c-23.34,0-41.67,31.11-41.67,70.83s18.33,70.84,41.67,70.84,41.66-31.11,41.66-70.84S221.17,150,197.84,150Zm0,125c-11.83,0-25-22.24-25-54.17s13.17-54.16,25-54.16,25,22.24,25,54.16S209.66,275,197.84,275ZM64.5,441.67H47.84a8.33,8.33,0,1,0,0,16.66H64.5a8.33,8.33,0,1,0,0-16.66Zm166.67,0H97.84a8.33,8.33,0,1,0,0,16.66H231.17a8.33,8.33,0,1,0,0-16.66Zm-16.67-25a8.33,8.33,0,0,0-8.33-8.34H72.84a8.34,8.34,0,1,0,0,16.67H206.17A8.33,8.33,0,0,0,214.5,416.67Zm125-75a8.33,8.33,0,1,1-8.33,8.33A8.34,8.34,0,0,1,339.5,341.67Zm25,50a8.33,8.33,0,1,1-8.33,8.33A8.34,8.34,0,0,1,364.5,391.67Zm91.67-50a8.33,8.33,0,1,1-8.33,8.33A8.33,8.33,0,0,1,456.17,341.67Zm0,100a8.33,8.33,0,1,1-8.33,8.33A8.33,8.33,0,0,1,456.17,441.67Zm-25-50a8.33,8.33,0,1,1-8.33,8.33A8.33,8.33,0,0,1,431.17,391.67ZM347.84,450a8.34,8.34,0,1,1-8.34,8.33A8.33,8.33,0,0,1,347.84,450Z"/></g></svg>