<svg xmlns="http://www.w3.org/2000/svg" viewBox="0 0 500 500"><defs><style>.cls-1{fill:#4d4d4d;}</style></defs><title>Maison - Nettoyants maison</title><g id="Layer_8" data-name="Layer 8"><path class="cls-1" d="M170.45,485.36a19.05,19.05,0,0,0,19-19v-28H126.55a7.33,7.33,0,1,1,0-14.65h62.89V341.69h-159v82.07h62.9a7.33,7.33,0,1,1,0,14.65H30.46v28a19.05,19.05,0,0,0,19,19ZM71.52,369.67a13.09,13.09,0,1,0,9.21,3.82A12.92,12.92,0,0,0,71.52,369.67Zm-19.6-6.53a27.67,27.67,0,1,1-8.14,19.6,27.51,27.51,0,0,1,8.14-19.6Zm64.41,41.14a7.33,7.33,0,1,1,0-14.65h51.49a7.33,7.33,0,0,1,0,14.65Zm0-28.46a7.33,7.33,0,1,1,0-14.65h51.49a7.33,7.33,0,0,1,0,14.65Zm254.54,37a7.33,7.33,0,1,1,0-14.65h31.29a7.33,7.33,0,0,1,0,14.65Zm0-56.86a7.33,7.33,0,1,1,0-14.65h31.29a7.33,7.33,0,0,1,0,14.65Zm0,28.43a7.33,7.33,0,1,1,0-14.65h31.29a7.33,7.33,0,0,1,0,14.65Zm-63.75-53.1h29.95a67.24,67.24,0,0,1,20.05-19.79,54.61,54.61,0,0,1,58.77,0,67.33,67.33,0,0,1,20,19.79h29.95V314.09c0-23.42-9.69-33.67-19.77-44.32-13-13.71-26.52-28-26.52-64V160.89H353.41v28.24a7.33,7.33,0,1,1-14.65,0V107.6a7.31,7.31,0,0,1,7.34-7.31h9.27V60.71l-19.29-6.34c-1.75,18.08-9.36,56.28-42.24,78.78a7.31,7.31,0,0,1-8.25-12.07C316,100.29,321,63.23,321.85,49.69l-9.77-3.21a40.41,40.41,0,0,1-13.29-6.86c-4.65-3.88-7.86-9.06-7.86-16.2A23.44,23.44,0,0,1,314.35,0H358a7.32,7.32,0,0,1,0,14.64H314.35a8.72,8.72,0,0,0-6.2,2.61,8.58,8.58,0,0,0-2.58,6.17,6.31,6.31,0,0,0,2.55,5,26.83,26.83,0,0,0,8.47,4.18L365,48.47a7.31,7.31,0,0,1,5.07,7v44.87h33V66.94a7.32,7.32,0,0,1,7.33-7.31h59.22V51l-36-36.37H391.14a7.33,7.33,0,0,1,0-14.65h45.48a7.32,7.32,0,0,1,5.21,2.21l39.86,40.31A7.33,7.33,0,0,1,484.18,48V66.94a7.32,7.32,0,0,1-7.31,7.33H417.66v26h9.27a7.31,7.31,0,0,1,7.31,7.31v98.13c0,30.26,11.46,42.36,22.45,54,12.15,12.84,23.83,25.19,23.83,54.39V466.62A33.44,33.44,0,0,1,447.14,500H49.46a33.7,33.7,0,0,1-33.64-33.61V299.08a33.68,33.68,0,0,1,33.64-33.63H52V199a57.93,57.93,0,0,1,115.85,0v66.41h2.58a33.34,33.34,0,0,1,18.74,5.73,89.63,89.63,0,0,1,26.43-17.06V211a7.33,7.33,0,0,1,7.34-7.31H242.6V174.9H228.23c-17.41,0-25.17,16-25.17,16a7.32,7.32,0,0,1-13.12-6.48c0-.05,11.74-24.24,38.29-24.24h43.93a7.34,7.34,0,0,1,0,14.67H257.24v28.76H276.9a7.32,7.32,0,0,1,7.33,7.31v43.15A90.38,90.38,0,0,1,308,268.85c2.63-3.18,5.45-6.14,8.28-9.13,9-9.5,18.29-19.3,21.34-38.59a7.3,7.3,0,1,1,14.42,2.29c-3.76,23.7-14.64,35.19-25.19,46.32-10.08,10.65-19.76,20.9-19.76,44.34V331.3Zm158.76,91.55H435.93a67.33,67.33,0,0,1-20,19.79,54.61,54.61,0,0,1-58.77,0,67.1,67.1,0,0,1-20-19.79h-30v43.77a18.81,18.81,0,0,0,18.72,18.74h121.3a18.8,18.8,0,0,0,18.74-18.74V422.85ZM341.14,346h-34v62.26h34a7.31,7.31,0,0,1,6.32,3.62,53.29,53.29,0,0,0,17.38,18.38,40,40,0,0,0,43.32,0A53,53,0,0,0,425.44,412a7.26,7.26,0,0,1,6.42-3.82h34V346h-34a7.31,7.31,0,0,1-6.31-3.63,53.22,53.22,0,0,0-17.39-18.38,40,40,0,0,0-43.32,0,52.93,52.93,0,0,0-17.27,18.19A7.31,7.31,0,0,1,341.14,346ZM220,268.16a75.52,75.52,0,0,0-20.76,13.62,33.49,33.49,0,0,1,4.82,17.3v11A74.45,74.45,0,0,1,217,301.44a70.46,70.46,0,0,1,63.2-1.28,74.14,74.14,0,0,1,12.43,7.48c.72-11.19,3.35-19.63,7.06-26.66a75.5,75.5,0,0,0-20.65-13.15,74.35,74.35,0,0,0-59,.33Zm49.53-18.74V218.3H230.28v31.12a88.52,88.52,0,0,1,19.65-2.19A90.08,90.08,0,0,1,269.56,249.42ZM93,192h33.94a7.31,7.31,0,0,1,7.34,7.31v34.93h19V199a43.29,43.29,0,0,0-86.57,0v35.15h19V199.26A7.31,7.31,0,0,1,93,192Zm26.63,14.64H100.31v27.6H119.6Zm33.64,58.86V248.84H66.67v16.61ZM189.44,327v-28a19.09,19.09,0,0,0-19-19h-121a19.09,19.09,0,0,0-19,19v28Zm8.75,158.32H298.26a33.18,33.18,0,0,1-5.78-18.74V439.76c-1.3,1-2.66,1.89-4,2.77a72,72,0,0,1-20.2,9,7.31,7.31,0,0,1-3.77-14.12,57.44,57.44,0,0,0,16.09-7.17,60.94,60.94,0,0,0,11.9-10V327A60.61,60.61,0,0,0,274,313.37a56.27,56.27,0,0,0-50.22,1,61.51,61.51,0,0,0-19.71,16.5v85.51A62.75,62.75,0,0,0,217.35,429a57.6,57.6,0,0,0,18,8.41,7.31,7.31,0,1,1-3.76,14.12A71.87,71.87,0,0,1,209,440.93c-1.69-1.19-3.35-2.44-4.93-3.77V466.4a33.46,33.46,0,0,1-5.9,19ZM353.41,146.25H419.6V114.94H353.41Z"/></g></svg>