<svg xmlns="http://www.w3.org/2000/svg" viewBox="0 0 500 500"><defs><style>.cls-1{fill:#4d4d4d;}</style></defs><title>Maison - Accessoires ménagers</title><g id="Layer_8" data-name="Layer 8"><path id="Outline" class="cls-1" d="M99.47,483.32H25A8.33,8.33,0,0,1,16.67,475,8.21,8.21,0,0,1,21,467.75a8.34,8.34,0,0,0,1.47-13.59,16.42,16.42,0,0,1-5.83-12.5A16.62,16.62,0,0,1,49.82,440a7.83,7.83,0,0,1,.18,1.67A8.33,8.33,0,0,0,58.33,450a16.3,16.3,0,0,1,9.21,2.88,8.34,8.34,0,0,0,9.38-13.79,33,33,0,0,0-11.22-4.91A33.26,33.26,0,1,0,5.35,459.63,24.93,24.93,0,0,0,25,500H99.47a8.34,8.34,0,1,0,0-16.67Zm204.25.88-24.17-12.07a68.2,68.2,0,0,1-37.89-61.3,78.21,78.21,0,0,0-33.33-64.33V316.66a25,25,0,0,0-25-25h-25V25A8.34,8.34,0,1,1,175,25V266.67a8.33,8.33,0,1,0,16.66,0V25a25,25,0,1,0-50,0V293.2A25,25,0,0,0,125,316.66v29.51a75,75,0,0,0-23.77,25.49,78.76,78.76,0,0,0,3.91,81.75,8.34,8.34,0,0,0,14.55-8.14c-.12-.21-.25-.41-.38-.61a64.68,64.68,0,0,1-8.43-53h30.78v16.67a8.34,8.34,0,0,0,16.67,0V391.66H175v16.67a8.33,8.33,0,1,0,16.66,0V391.66H222a62.7,62.7,0,0,1,3,19.17,84.63,84.63,0,0,0,39.58,71.9,83.52,83.52,0,0,1-61.92-38.05,8.33,8.33,0,0,0-14.16,8.75,95.43,95.43,0,0,0,26.82,28.17A82.92,82.92,0,0,1,161,444.68a8.33,8.33,0,0,0-14.16,8.75,95.17,95.17,0,0,0,26.93,28.13,85.67,85.67,0,0,1-35.33-15.83A8.33,8.33,0,1,0,128.29,479h0a103.69,103.69,0,0,0,62.85,21H300a8.33,8.33,0,0,0,3.73-15.83ZM141.66,316.66a8.33,8.33,0,0,1,8.34-8.33h33.33a8.33,8.33,0,0,1,8.33,8.33v21.19a72.42,72.42,0,0,0-24.59-4.52h-.41a74.59,74.59,0,0,0-25,4.47ZM118.91,375a58.34,58.34,0,0,1,47.75-25H167a57.54,57.54,0,0,1,46.66,25Zm355.18,75h-3.68a33.33,33.33,0,0,0-28.76-16.66,32.56,32.56,0,0,0-13.43,2.88,25.32,25.32,0,0,0-23.4.19L406,423c1.15,0,2.35.22,3.48.22,2.12,0,4.21-.09,6.26-.25,17.5-1.42,30.21-8.79,35.71-20.74,9.67-21-6.17-48.64-37.81-67.14l3-34.34a8.17,8.17,0,0,0-.47-3.5,31.27,31.27,0,0,0,.47-5.55,33.27,33.27,0,0,0-17-28.93,25.09,25.09,0,0,0-17.13-19.9,33.26,33.26,0,0,0-61.49-9.16,32.47,32.47,0,0,0-4.4-.34,33.35,33.35,0,0,0-32.44,25.9c-.78.19-1.52.48-2.28.72a33.23,33.23,0,0,0-48.32,45.62c.11.13.28.17.4.29l14.59,111.88a8.33,8.33,0,0,0,8.26,7.25,8,8,0,0,0,1.09-.06,8.32,8.32,0,0,0,7.17-9.34l-14-107.26H263a33,33,0,0,0,45,12.37,32.67,32.67,0,0,0,5.83-4.22,25,25,0,1,0,6-49.63,24.41,24.41,0,0,0-6,0A33,33,0,0,0,301.6,260a16.75,16.75,0,0,1,21.27-8.77,8.33,8.33,0,0,0,10.84-4.62,7.24,7.24,0,0,0,.31-.93A16.62,16.62,0,0,1,366.66,250a8.33,8.33,0,0,0,8.33,8.33,8.33,8.33,0,0,1,8.33,8.16l-.12,1a8.32,8.32,0,0,0,5.57,8.55A16.67,16.67,0,0,1,400,291.66H364.35a8.34,8.34,0,1,0,0,16.67h34.88l-2.66,30.6h0l-5.67,65.13a105.69,105.69,0,0,1-19.78-6.77C339.9,382.92,324.56,359,330.29,346.4a8.33,8.33,0,1,0-15.14-7h0c-10.75,23.33,10.76,55.4,49,73a121.53,121.53,0,0,0,25.34,8.4l-2.4,27.69a22.91,22.91,0,0,1-7.81,1.47H375a33.33,33.33,0,0,0-33.33,33.33v8.34A8.33,8.33,0,0,0,350,500h41.66a8.34,8.34,0,1,0,0-16.67H358.32A16.66,16.66,0,0,1,375,466.66h4.25a44.51,44.51,0,0,0,31.53-14.23,8.2,8.2,0,0,1,11.41-.25,8.34,8.34,0,0,0,10.26.69,16.45,16.45,0,0,1,9.21-2.88,16.69,16.69,0,0,1,15.62,11.13,8.33,8.33,0,0,0,7.85,5.54h9a9,9,0,0,1,9.1,6.87,8.34,8.34,0,0,1-6.74,9.67,9.11,9.11,0,0,1-1.47.12H425A8.34,8.34,0,1,0,425,500h50a25,25,0,0,0,25-25,25.45,25.45,0,0,0-.35-4.18A25.7,25.7,0,0,0,474.09,450ZM244,291.66a15.79,15.79,0,0,1-2.37-8.33,16.66,16.66,0,0,1,16.67-16.66,16.31,16.31,0,0,1,8.78,2.64,33,33,0,0,0-8.78,22.35Zm69.81-7.78a8.22,8.22,0,0,1,2.82-.55,8.34,8.34,0,0,1,0,16.67,8.22,8.22,0,0,1-2.82-.55,8.33,8.33,0,0,0-9.3,2.61,16.58,16.58,0,1,1-25.88-20.74,16.34,16.34,0,0,1,5.13-4.26h.07a16.24,16.24,0,0,1,20.65,4.26,8.31,8.31,0,0,0,9.33,2.56Zm122.5,111.34a25,25,0,0,1-21.93,11.1,67.13,67.13,0,0,1-7,0l4.57-52.5c18.79,13.17,29.38,30.34,24.28,41.4ZM425,241.67a25,25,0,1,0-25-25A25,25,0,0,0,425,241.67Zm0-33.34a8.34,8.34,0,1,1-8.34,8.34A8.34,8.34,0,0,1,425,208.33ZM475,300a25,25,0,1,0-25-25A25,25,0,0,0,475,300Zm0-33.33a8.33,8.33,0,1,1-8.33,8.33A8.33,8.33,0,0,1,475,266.67Zm-450,100a25,25,0,1,0,25-25A25,25,0,0,0,25,366.66Zm33.33,0A8.33,8.33,0,1,1,50,358.33,8.34,8.34,0,0,1,58.33,366.66ZM25,325A25,25,0,1,0,0,300,25,25,0,0,0,25,325Zm0-33.34A8.34,8.34,0,1,1,16.67,300,8.34,8.34,0,0,1,25,291.66Z"/></g></svg>