<svg id="Layer_1" data-name="Layer 1" xmlns="http://www.w3.org/2000/svg" viewBox="0 0 500 500"><defs><style>.cls-1{fill:#4d4d4d;}</style></defs><title>Marché - Viandes</title><path class="cls-1" d="M500,183.35a126.67,126.67,0,0,0-37.46-90.11C386.78,22.76,248.29,7.48,129.93,114.9l-99.5,99.5A103.4,103.4,0,0,0,0,287.86v70.88A103.91,103.91,0,0,0,103.8,462.67q5.15,0,10.34-.51a103.63,103.63,0,0,0,76.27-45.78,90.81,90.81,0,0,1,75.71-40.5c1.69,0,3.38,0,5,.11l94.69,5.25a127.25,127.25,0,0,0,134-120.11q.19-3.47.19-6.94ZM40.88,224.84l99.23-99.25c57.09-51.81,119-73.46,175.38-73.46a200.47,200.47,0,0,1,136.79,51.75,112.46,112.46,0,0,1-85.65,191.8l-94.77-5.26c-1.93-.08-3.8-.13-5.74-.13a105.55,105.55,0,0,0-88,47.07A89.17,89.17,0,1,1,40.88,224.84ZM452.29,333.7a112.63,112.63,0,0,1-85.68,32.77l-94.74-5.22c-1.93-.09-3.82-.14-5.75-.14a105.55,105.55,0,0,0-88,47.09A89.16,89.16,0,0,1,14.77,358.75V341.32a103.82,103.82,0,0,0,89,50.53q5.15,0,10.34-.51a103.61,103.61,0,0,0,76.27-45.77,90.8,90.8,0,0,1,75.71-40.51c1.69,0,3.35,0,5,.11l94.69,5.24a127.2,127.2,0,0,0,119.43-67.6v11.4a111.67,111.67,0,0,1-32.94,79.49Zm-114.87,5.81-32.35-1.78A7.39,7.39,0,1,0,304,352.46h.29l32.36,1.79H337a7.39,7.39,0,0,0,.4-14.77Zm-289.08,4a78.61,78.61,0,0,0,111.19,0,77.75,77.75,0,0,0,9.81-12,116.11,116.11,0,0,1,96.78-51.78c2.11,0,4.13.05,6.39.15l94.67,5.23a101.9,101.9,0,0,0,77.75-173.69A189,189,0,0,0,315.77,62.67c-41.21,0-103.83,12.2-168.38,70.6l-99,99a78.57,78.57,0,0,0-17.51,84.51,77.33,77.33,0,0,0,17.5,26.71ZM58.8,242.72l98.76-98.78c60.79-55,119.6-66.5,158.21-66.5a174.11,174.11,0,0,1,118.9,44.63A87.14,87.14,0,0,1,368,270.4l-94.74-5.26c-2.57-.11-4.82-.17-7.13-.17a130.82,130.82,0,0,0-109.07,58.36A63.85,63.85,0,1,1,58.8,242.72Zm307.1-52A32.7,32.7,0,1,0,333.2,158h0A32.74,32.74,0,0,0,365.9,190.73Zm0-50.63A17.94,17.94,0,1,1,348,158,17.94,17.94,0,0,1,365.9,140.1Z"/></svg>