<svg id="Layer_1" data-name="Layer 1" xmlns="http://www.w3.org/2000/svg" viewBox="0 0 500 500"><defs><style>.cls-1{fill:#4d4d4d;}</style></defs><title>Marché - Epices</title><path class="cls-1" d="M364.42,350.06a7.33,7.33,0,1,0,0-14.65H52.71a7.33,7.33,0,0,0-7.33,7.32v71a7.33,7.33,0,0,0,7.33,7.32H447.29a7.33,7.33,0,0,0,7.33-7.32v-71a7.33,7.33,0,0,0-7.33-7.32H398.6a7.33,7.33,0,0,0,0,14.65H440v56.38H60V350.06ZM485.72,136.4,438,98a42.05,42.05,0,0,0-18.88-8.57V64.54a17.21,17.21,0,0,0-14.28-16.92L357.1,9.23a41.83,41.83,0,0,0-52.42,0L257,47.62a17,17,0,0,0-7,2.87,17,17,0,0,0-7-2.87L195.31,9.23a41.81,41.81,0,0,0-52.41,0L95.17,47.62A17.21,17.21,0,0,0,80.89,64.54v24.9A42,42,0,0,0,62,98L14.28,136.4A17.19,17.19,0,0,0,0,153.32V283.54A26.86,26.86,0,0,0,3.59,297,7.31,7.31,0,0,0,0,303.27V453.21a7.33,7.33,0,0,0,7.32,7.33H41.43v32.14A7.33,7.33,0,0,0,48.76,500H88.22a7.32,7.32,0,0,0,7.32-7.32V460.54h20.18a7.33,7.33,0,1,0,0-14.65H14.65V310.6h470.7V445.89H149.9a7.33,7.33,0,0,0,0,14.65H404.46v32.14a7.32,7.32,0,0,0,7.32,7.32h39.46a7.33,7.33,0,0,0,7.33-7.32V460.54h34.11a7.33,7.33,0,0,0,7.32-7.33V303.27a7.31,7.31,0,0,0-3.59-6.29A26.86,26.86,0,0,0,500,283.54V153.32a17.2,17.2,0,0,0-14.28-16.92Zm-404.83,349H56.08V460.54H80.89v24.81Zm363,0H419.11V460.54h24.81ZM31.67,192.22a7.33,7.33,0,0,0,0-14.65h-17V153.32a2.54,2.54,0,0,1,2.54-2.54H159.26a2.54,2.54,0,0,1,2.52,2.52v24.27H65.85a7.33,7.33,0,0,0,0,14.65h95.93v91.32A12.42,12.42,0,0,1,149.38,296H27.05a12.42,12.42,0,0,1-12.4-12.41V192.22ZM240.12,62h0a2.54,2.54,0,0,1,2.54,2.54V88.78H95.54V64.54A2.54,2.54,0,0,1,98.08,62Zm161.79,0h0a2.54,2.54,0,0,1,2.54,2.54V88.78H257.32V64.54A2.55,2.55,0,0,1,259.87,62Zm80.89,88.78h0a2.54,2.54,0,0,1,2.54,2.54v24.25H338.22V153.32a2.54,2.54,0,0,1,2.54-2.54ZM250,103.43a27.26,27.26,0,0,1,17,6l33.2,26.71H199.77L233,109.43A27.26,27.26,0,0,1,250,103.43Zm73.57,49.89v24.25H176.44V153.3a2.55,2.55,0,0,1,2.54-2.52H321a2.54,2.54,0,0,1,2.54,2.54Zm-147.14,38.9H323.57v91.32A12.43,12.43,0,0,1,311.16,296H188.84a12.43,12.43,0,0,1-12.41-12.41V192.22ZM337.85,136.4a17,17,0,0,0-7,2.87,17.05,17.05,0,0,0-6.95-2.87l-41-33h95.9Zm-120.79-33-41,33a17.05,17.05,0,0,0-6.95,2.87,16.9,16.9,0,0,0-7-2.87l-41-33ZM473,296H350.62a12.42,12.42,0,0,1-12.4-12.41V192.22H485.35v91.32A12.42,12.42,0,0,1,473,296ZM462,136.13H361.55l33.21-26.7a27.15,27.15,0,0,1,34.05,0ZM313.87,20.65a27.15,27.15,0,0,1,34.05,0l33.21,26.7H280.66Zm-161.79,0a27.15,27.15,0,0,1,34,0l33.21,26.7H118.87ZM71.19,109.43a27.15,27.15,0,0,1,34.05,0l33.21,26.7H38Z"/></svg>