<svg id="Layer_1" data-name="Layer 1" xmlns="http://www.w3.org/2000/svg" viewBox="0 0 500 500"><defs><style>.cls-1{fill:#4d4d4d;}</style></defs><title>Marché</title><path id="outline" class="cls-1" d="M451.17,244.49a14.05,14.05,0,0,0-.76-1.37,41.82,41.82,0,0,0-23.3-54.37q-1.83-.74-3.72-1.29a83.61,83.61,0,0,0-120-61.54,41.83,41.83,0,0,0-58.7,7.32c-.87,1.12-1.69,2.29-2.45,3.5a67.15,67.15,0,0,0-11.52,0A91.6,91.6,0,0,0,209,75.47,56.28,56.28,0,0,0,239.5,53a8.36,8.36,0,0,0-4.66-12.74l-11.3-3.18A56.63,56.63,0,0,0,193.36,37l-19.91,5.44A71.17,71.17,0,0,1,189.22,14,8.36,8.36,0,1,0,176.84,2.74h0a88.09,88.09,0,0,0-19.49,35.17l-14.17-15A56.6,56.6,0,0,0,117.37,7.26l-11.3-3.18A8.37,8.37,0,0,0,95.75,9.87a8.5,8.5,0,0,0-.3,2.66,56.26,56.26,0,0,0,14.33,35,92,92,0,1,0,57.87,174.62c1.31-.43,2.61-.9,3.89-1.39.28,1,.58,2,.91,3.05a66.66,66.66,0,0,0,41.61,42.63,7.72,7.72,0,0,0-.07,1.44,117.31,117.31,0,0,1-11.4,55.65,91.63,91.63,0,0,0-62.82-16.65,8.36,8.36,0,0,1-8.18-4.21l-26.64-58a8.36,8.36,0,0,0-10.71-4.27L55.44,256a8.36,8.36,0,0,0-4.77,10.54l21.2,60.16a8.4,8.4,0,0,1-3,8.67,91.63,91.63,0,0,0-34.28,87.32l.18,1.1A89.23,89.23,0,0,0,60.49,473l1.13,1.1a91.88,91.88,0,0,0,98.08,19.3l23.62-9.47a91.82,91.82,0,0,0,57.51-81.73l0-1.16a89.54,89.54,0,0,0-7.42-39.34l64.27,33a16.72,16.72,0,0,0,22.51-7.25,117,117,0,0,1,41.28-45.3,66.87,66.87,0,0,0,89.66-97.63ZM131,34.37l24.3,25.76a8.38,8.38,0,0,0,8.28,2.33l34.16-9.32a39.85,39.85,0,0,1,19.41-.39,39.58,39.58,0,0,1-25.61,8.36l-8-.24A8.37,8.37,0,0,0,176,73.32a48.36,48.36,0,0,1,6.17,26.57L182,99.8a48.85,48.85,0,0,1-15.15-16.49l-5-8.87a8.36,8.36,0,0,0-11.38-3.2l-8.87,5a49,49,0,0,1-21.52,6.17H120a48.42,48.42,0,0,1,19.13-19.46,8.36,8.36,0,0,0,.06-14.55l-7-4a39.59,39.59,0,0,1-17.5-20.48A39.81,39.81,0,0,1,131,34.37ZM118.39,207.31a75.27,75.27,0,0,1-6.68-142.68A65.37,65.37,0,0,0,99.92,87.72l-.39,1.38a8.35,8.35,0,0,0,5.78,10.31,8.22,8.22,0,0,0,2.66.3l13-.61a65.86,65.86,0,0,0,28.91-8.3l1.58-.88.88,1.57a65.73,65.73,0,0,0,20.35,22.15l10.73,7.28A8.36,8.36,0,0,0,195,118.69a8.56,8.56,0,0,0,1.13-2.43l.39-1.38a65.36,65.36,0,0,0,2-25.77,74.85,74.85,0,0,1,15.33,51.28,66.73,66.73,0,0,0-44.59,63.28A75.27,75.27,0,0,1,118.39,207.31ZM223.53,337.83,216.09,334a134.13,134.13,0,0,0,14.69-64,67.62,67.62,0,0,0,22-1.92l-.45,1.72a228.32,228.32,0,0,1-17.76,46.52Zm.64,62.6,0,1.17A75.08,75.08,0,0,1,191.05,461l7.71-12a64,64,0,0,0-11.45-82.42l-4.15-3.68a8.36,8.36,0,1,0-11.26,12.35l.17.15,4.15,3.69a47.32,47.32,0,0,1,8.45,60.9l-7.21,11.27L178,427a54.63,54.63,0,0,0-3.93-21.74,55.31,55.31,0,0,0-22.47-26.5A8.36,8.36,0,1,0,143,393.07h0a38.46,38.46,0,0,1,15.62,18.44,38,38,0,0,1,2.74,15.12l-.81,34.59L136,436.77A38,38,0,0,1,127.53,424a38.47,38.47,0,0,1-1.44-24.12A8.36,8.36,0,1,0,110,395.34c0,.06,0,.11,0,.16a54.92,54.92,0,0,0,14.25,53.11l17.15,17.12-13-3.17a47.32,47.32,0,0,1-36-49.87l.45-5.53a8.36,8.36,0,0,0-16.65-1.54c0,.06,0,.11,0,.17l-.46,5.53a64.05,64.05,0,0,0,48.68,67.49l13.89,3.38a75.17,75.17,0,0,1-65-20.08L72.13,461a72.44,72.44,0,0,1-20.88-39.93L51.07,420a74.9,74.9,0,0,1,28-71.4A25.06,25.06,0,0,0,87.92,322a5.6,5.6,0,0,0-.17-.54L69.11,268.52l4.39-1.76,15.56,38.8a75.6,75.6,0,0,1-5.53,67.07,8.36,8.36,0,1,0,14.22,8.79.41.41,0,0,0,.07-.11A92.08,92.08,0,0,0,111,337.88a92.1,92.1,0,0,0,39.56,22.27A8.36,8.36,0,1,0,155,344h0a75.6,75.6,0,0,1-50.34-44.67h0L89,260.53l4.06-1.63L116.52,310a5,5,0,0,0,.22.47,25.08,25.08,0,0,0,24.75,13.13,74.9,74.9,0,0,1,69.6,32.23l.29.42a73,73,0,0,1,12.79,44.23Zm69.91-53.62-11,21.54-14.88-7.63,19.08-37.2a8.36,8.36,0,0,0-14.82-7.75l-.06.12-19.08,37.2-14.88-7.63,11-21.54A245.78,245.78,0,0,0,268.5,274l3.31-12.71a8.18,8.18,0,0,0,.25-1.56,66.1,66.1,0,0,0,5.76-4.1,84.1,84.1,0,0,0,17.62,15.25l-7.82,15.25A8.36,8.36,0,1,0,302.39,294c0-.06.07-.13.11-.2l7.82-15.26A83.55,83.55,0,0,0,333,283.92a67.85,67.85,0,0,0,0,6.84l-9.5,11.45a245.84,245.84,0,0,0-29.43,44.6Zm11.28,33L297.92,376l11-21.54a228.22,228.22,0,0,1,27.42-41.55l1.14-1.38a67.32,67.32,0,0,0,11.28,19,133.68,133.68,0,0,0-43.44,49.3Zm139.06-69.62a50.16,50.16,0,0,1-93.85-32.62,8.36,8.36,0,0,0-6.57-9.83,8.12,8.12,0,0,0-1.63-.16h-.17a67,67,0,0,1-56.47-29,8.35,8.35,0,0,0-11.62-2.15,8.61,8.61,0,0,0-1.38,1.18A50.16,50.16,0,1,1,245.39,154a5.6,5.6,0,0,1,2,.41,50.49,50.49,0,0,1,23.41,12.64A8.36,8.36,0,1,0,282.38,155a66.92,66.92,0,0,0-22.18-14.07,25.1,25.1,0,0,1,35.49.46l.39.41a8.35,8.35,0,0,0,10.41,1.48,66.86,66.86,0,0,1,101,51.8,8.38,8.38,0,0,0,7.28,7.59,25.1,25.1,0,0,1,21.72,28.08c0,.07,0,.14,0,.21-1.84-1-3.85-2-6.16-3.21a66.81,66.81,0,0,0-35-7.23,8.36,8.36,0,1,0,1.15,16.69h0a50.29,50.29,0,0,1,37.8,13.56l.2.21a48,48,0,0,1,4.17,4.5h0A50.5,50.5,0,0,1,444.42,310.17ZM98.52,123.56a8.36,8.36,0,0,0-16-4.81c0,.1,0,.19-.07.28a58.27,58.27,0,0,0,.62,33.8,8.36,8.36,0,1,0,16-5,.36.36,0,0,0,0-.11A41.59,41.59,0,0,1,98.52,123.56Zm28.92,51.56a41.57,41.57,0,0,1-12.77-6.07A8.36,8.36,0,0,0,105,182.72a58.18,58.18,0,0,0,17.87,8.49,8.36,8.36,0,1,0,4.8-16l-.27-.08Z"/></svg>