<svg id="Layer_1" data-name="Layer 1" xmlns="http://www.w3.org/2000/svg" viewBox="0 0 500 500"><defs><style>.cls-1{fill:#4d4d4d;}</style></defs><title>Marché - Fruits et légumes</title><path id="Page-1" class="cls-1" d="M175,495.76A175.31,175.31,0,0,0,336.71,387.49l98.67,97.27a38,38,0,0,0,60.85-43.56L340.62,119.58a98.71,98.71,0,0,0-81.86-55.91c1.5-25,23.11-44.64,23.34-44.84a8.34,8.34,0,0,0-5.92-14.58C236.74,6.14,219.05,25.73,211,43.73a259.59,259.59,0,0,0-54.45-23.94A8.34,8.34,0,0,0,145.8,27.5a260.76,260.76,0,0,0,5.13,59.19c-19.62,1.8-43.86,12.35-58.36,49A8.34,8.34,0,0,0,104.44,146c.29-.16,25.94-14.36,50.13-7.63q-1.09,4.34-1.81,8.8A175,175,0,0,0,175,495.76Zm299.51-20.7a21.21,21.21,0,0,1-27.38-2.16L342.83,370.09a174,174,0,0,0-46.9-175.66l45.85-34.23,14.67,30.31-16,11.46a8.33,8.33,0,1,0,9.7,13.55l13.65-9.78,14.74,30.46-22.51,16.14a8.34,8.34,0,1,0,9.71,13.56l20.13-14.47,44.23,91.38-26.51,19a8.34,8.34,0,1,0,9.7,13.56L437.48,358l43.77,90.45a21.21,21.21,0,0,1-6.76,26.58ZM255.64,24.63a77.89,77.89,0,0,0-13.59,39.18,98.43,98.43,0,0,0-20.74,4.1,57.32,57.32,0,0,1,1.35-7.82,8.33,8.33,0,0,0,.37-1.47,47.72,47.72,0,0,1,32.61-34ZM205.82,60.37a71.14,71.14,0,0,0-1.39,14.11,1.38,1.38,0,0,0,0,.45A100.26,100.26,0,0,0,193,82a96.69,96.69,0,0,0-10.33,8.62,4.69,4.69,0,0,0-.46-.21,67.51,67.51,0,0,0-13.81-3.26,189.19,189.19,0,0,1-5.92-47.78,191.45,191.45,0,0,1,43.35,21Zm-87.36,62.48a47.16,47.16,0,0,1,41.39-20.11,9,9,0,0,0,2.42.36c.22,0,.45-.12.68-.14a56.93,56.93,0,0,1,7.57,1.26,99.89,99.89,0,0,0-10.59,18.34,77.88,77.88,0,0,0-41.48.29Zm84.2-27.3a82.87,82.87,0,0,1,122.92,31.29l8.76,18.07L283,183.26a174.06,174.06,0,0,0-108-37.63c-1.73,0-3.39.21-5.1.26a82.21,82.21,0,0,1,32.8-50.34ZM175,162.3A158.4,158.4,0,1,1,16.59,320.69,158.39,158.39,0,0,1,175,162.3ZM72.19,274.84a8.33,8.33,0,0,0,11.39,3.05l1-.55A33.1,33.1,0,0,0,100,286.16v1.19a8.34,8.34,0,0,0,16.67,0v-1.19A33.14,33.14,0,0,0,132,277.34l1,.55a8.33,8.33,0,1,0,8.33-14.43l-1-.6a29.87,29.87,0,0,0,0-17.71l1-.6A8.34,8.34,0,1,0,133,230.11l-1,.55a33.31,33.31,0,0,0-15.42-8.82v-1.18a8.34,8.34,0,1,0-16.67,0v1.18a33.28,33.28,0,0,0-15.41,8.82l-1-.55a8.34,8.34,0,0,0-8.34,14.44l1,.6a29.87,29.87,0,0,0,0,17.71l-1,.6A8.33,8.33,0,0,0,72.19,274.84Zm36.1-37.51A16.68,16.68,0,1,1,91.61,254,16.67,16.67,0,0,1,108.29,237.33Zm-25,158.39a8.34,8.34,0,1,1-8.34,8.34A8.33,8.33,0,0,1,83.28,395.72Zm25,25a8.34,8.34,0,1,1-8.34,8.34A8.33,8.33,0,0,1,108.29,420.73Zm25-33.34a8.34,8.34,0,1,1-8.34,8.33A8.33,8.33,0,0,1,133.3,387.39Zm25,50a8.34,8.34,0,1,1-8.34,8.34A8.34,8.34,0,0,1,158.31,437.4Zm50,0a8.34,8.34,0,1,1-8.33,8.34A8.34,8.34,0,0,1,208.32,437.4Zm41.69-25a8.34,8.34,0,1,1-8.34,8.34A8.34,8.34,0,0,1,250,412.39Zm33.34-41.68a8.34,8.34,0,1,1-8.33,8.34A8.33,8.33,0,0,1,283.35,370.71Zm-91.7,25a8.34,8.34,0,1,1-8.34,8.34A8.33,8.33,0,0,1,191.65,395.72Zm50-25a8.34,8.34,0,1,1-8.34,8.34A8.34,8.34,0,0,1,241.67,370.71Z"/></svg>