<svg xmlns="http://www.w3.org/2000/svg" viewBox="0 0 500 500"><defs><style>.cls-1{fill:#4d4d4d;}</style></defs><title>Produits laitiers - Yaourts</title><g id="Layer_2" data-name="Layer 2"><path class="cls-1" d="M452.85,128.11h-105V36.48a36.47,36.47,0,1,0-72.94,0v91.63H47.15a8.9,8.9,0,0,0,0,17.8H91.41l12.94,294.51a30.62,30.62,0,0,0,29.16,29.29l.06,1.68A29.53,29.53,0,0,0,163.19,500H336.82a29.53,29.53,0,0,0,29.62-28.61l.05-1.68a30.61,30.61,0,0,0,29.16-29.29l12.94-294.51h44.26a8.9,8.9,0,0,0,0-17.8ZM292.71,36.48a18.68,18.68,0,1,1,37.36,0v91.63H292.71Zm55.94,434.29a11.79,11.79,0,0,1-11.83,11.43H163.19a11.8,11.8,0,0,1-11.84-11.43l0-1H348.69Zm29.22-31.13A12.86,12.86,0,0,1,365,452H135a12.86,12.86,0,0,1-12.87-12.32l-4.06-92.36a234.61,234.61,0,0,0,253.64,6.59c3.46-2.1,6.86-4.32,10.22-6.61Zm5.06-115.09a216.8,216.8,0,0,1-265.85,0L114.15,258h271.7Zm3.7-84.34H113.37l-4.14-94.3H390.78Z"/></g></svg>