<svg xmlns="http://www.w3.org/2000/svg" viewBox="0 0 500 500"><defs><style>.cls-1{fill:#4d4d4d;}</style></defs><title>Produits laitiers</title><g id="Layer_2" data-name="Layer 2"><path class="cls-1" d="M496.79,425.78l-48.75-97a7.32,7.32,0,0,0-11.47-2.12,18.8,18.8,0,1,1-16.26-32.39,7.34,7.34,0,0,0,5.13-10.48l-12.28-24.44a34.3,34.3,0,0,0-30.8-19h0a35.78,35.78,0,0,0-3.75.22c-.32-18.09-.79-36.2-1.41-54a103.79,103.79,0,0,0-15.27-50.73,7.33,7.33,0,0,0-12.48,7.68,89,89,0,0,1,13.11,43.56c.67,19.25,1.16,38.9,1.48,58.49a34.46,34.46,0,0,0-12.48,13.75l-35.83,71.29c-13.88-21.55-33.3-38.28-56-38.28-39.52,0-69.2,50.87-76.74,89.55h-.48c-3.86-19.83-13.55-42.87-27.4-60.61q-.15-20.94,0-42c7.57.15,15.15.25,22.76.25,19,0,38.09-.47,57-1.4A26.17,26.17,0,0,0,259.66,255a220,220,0,0,0,0-51.93A26.16,26.16,0,0,0,234.9,180c-25.62-1.26-51.56-1.67-77.23-1.22a88.24,88.24,0,0,1,50.16-69H311.7a88.3,88.3,0,0,1,20.22,13.17,7.32,7.32,0,1,0,9.59-11.06,101.42,101.42,0,0,0-10.38-7.9,27.13,27.13,0,0,0-9.41-47.49V30.58A30.62,30.62,0,0,0,291.14,0H228.39a30.61,30.61,0,0,0-30.58,30.58v25.9A27.12,27.12,0,0,0,188.4,104a103.53,103.53,0,0,0-46.06,82.65c-1.37,39.65-2,79.74-1.93,119.41-10.25-8.4-21.92-13.65-34.61-13.65-17.81,0-35.83,10.91-50.74,30.7a7.33,7.33,0,0,0,11.7,8.82c7-9.29,21.37-24.87,39-24.87,13.77,0,28.23,9.64,40.72,27.14a134,134,0,0,1,21.08,47.76H44a132.68,132.68,0,0,1,8.77-26.17,7.32,7.32,0,1,0-13.35-6,145.16,145.16,0,0,0-10.35,32.2H19a19,19,0,1,0,0,38h3.6c1.22,11.22,3.27,22.41,5.27,33.28,1.43,7.75,2.91,15.76,4,23.57a23.43,23.43,0,0,0,20.51,20A463.37,463.37,0,0,0,105.79,500a465,465,0,0,0,53.32-3.27,23.43,23.43,0,0,0,9.63-3.33A48.92,48.92,0,0,0,193.4,500h66.35a463.87,463.87,0,0,0,53.4-3.28,23.33,23.33,0,0,0,13.24-6.11A171.69,171.69,0,0,0,488.65,463a30.32,30.32,0,0,0,8.14-37.19ZM212.46,30.58a16,16,0,0,1,15.93-15.93h62.75a16,16,0,0,1,15.93,15.93V55.47H212.46Zm-7.33,39.54H314.4a12.5,12.5,0,0,1,0,25H205.13a12.5,12.5,0,1,1,0-25Zm29.05,124.5a11.56,11.56,0,0,1,10.93,10.21,204.57,204.57,0,0,1,0,48.46,11.56,11.56,0,0,1-10.94,10.21c-26.22,1.29-52.74,1.67-78.93,1.15.25-23.76.77-47.55,1.54-71.21,25.73-.47,51.72-.08,77.4,1.18Zm130.45,71.32A19.49,19.49,0,0,1,382.35,255h0a19.49,19.49,0,0,1,17.72,10.92L408.64,283a33.45,33.45,0,0,0,30,59.78l41,81.54-.13.1a156.33,156.33,0,0,1-141.59,27.42c1.92-10.44,3.85-21.16,5-31.91h3.6a19,19,0,1,0,0-38H336.5a150.08,150.08,0,0,0-12.15-35.83ZM219,334.17C231.53,316.66,246,307,259.76,307s28.23,9.64,40.72,27.15a133.89,133.89,0,0,1,21.08,47.75H198A133.86,133.86,0,0,1,219,334.17ZM14.66,400.92A4.35,4.35,0,0,1,19,396.57H346.55a4.36,4.36,0,1,1,0,8.71H19A4.36,4.36,0,0,1,14.66,400.92Zm163.67,81a23.39,23.39,0,0,0,1.36-5.15c.69-4.8,1.5-10.52,2.35-16.63.06-.41.09-.64.74-.64s.68.23.74.63c.85,6.12,1.66,11.84,2.35,16.65a23.5,23.5,0,0,0,2.85,8.26A34.49,34.49,0,0,1,178.33,481.92Zm133.16.25c-37.19,4.23-66.18,4.23-103.38,0a8.81,8.81,0,0,1-7.74-7.48c-.68-4.79-1.49-10.49-2.34-16.59a15.4,15.4,0,0,0-30.5,0c-.85,6.1-1.65,11.8-2.34,16.58a8.8,8.8,0,0,1-7.73,7.49c-37.21,4.22-66.2,4.22-103.39,0a8.78,8.78,0,0,1-7.66-7.49c-1.16-8.09-2.67-16.25-4.12-24.13-1.86-10.08-3.76-20.43-4.94-30.63H328.21c-1.18,10.23-3.08,20.6-4.95,30.71-1.44,7.86-2.94,16-4.11,24.06A8.78,8.78,0,0,1,311.49,482.17Zm168-30.66a157,157,0,0,1-146,26c0-.25.1-.5.14-.76.5-3.45,1.07-6.95,1.68-10.45a170.93,170.93,0,0,0,150-27.89,15.57,15.57,0,0,1-5.79,13.07Zm-90.35-28.27a32.39,32.39,0,0,0,20.93,13.59,33.18,33.18,0,0,0,6,.55,32.61,32.61,0,1,0-26.94-14.14Zm9.21-21.75A18,18,0,0,1,416,386.79a17.63,17.63,0,0,1,3.3.31,18,18,0,1,1-20.93,14.39Zm-40-22.18a24,24,0,0,0,4.38.4,23.79,23.79,0,1,0-4.38-.4Zm-4.65-25.05A9.14,9.14,0,0,1,364.41,347a9.13,9.13,0,1,1-3.33,17.95,9.14,9.14,0,0,1-7.31-10.64Z"/></g></svg>