<svg xmlns="http://www.w3.org/2000/svg" viewBox="0 0 500 500"><defs><style>.cls-1{fill:#4d4d4d;}</style></defs><title>Produits laitiers - Beurres et margarines</title><g id="Layer_2" data-name="Layer 2"><path class="cls-1" d="M479.63,314.05a.7.7,0,0,1,.62,1L451.59,367.6a.7.7,0,0,1-.61.36H418c-12.67,0-12.69,19.73,0,19.73h33a20.42,20.42,0,0,0,17.93-10.64l28.66-52.52c7.3-13.39-2.76-30.22-17.94-30.22H459.22V140.93a29.63,29.63,0,0,0-29.6-29.59H69.45a29.63,29.63,0,0,0-29.6,29.59V294.31H20.37c-15.16,0-25.25,16.81-17.93,30.22l28.65,52.52A20.44,20.44,0,0,0,49,387.69H338c12.66,0,12.68-19.73,0-19.73H49a.72.72,0,0,1-.62-.36L19.76,315.08c-.19-.58,0-.92.61-1ZM233.83,198.89c0-12.67-19.73-12.69-19.73,0v34.88c0,27-42,27.06-42,0V131.07H275.81v67.82a21,21,0,0,1-42,0ZM117.16,294.31V237.62c0-12.67-19.73-12.69-19.73,0v56.69H59.58V140.93a9.88,9.88,0,0,1,9.87-9.86h28v28.15c0,12.67,19.73,12.69,19.73,0V131.07h35.23v102.7a40.72,40.72,0,1,0,81.44,0c26.69,16.12,61.71-3.88,61.71-34.88V131.07H429.62a9.88,9.88,0,0,1,9.87,9.86V294.31ZM386.58,375a9.87,9.87,0,1,0-5.34,12.89A10,10,0,0,0,386.58,375ZM116.41,194.54a9.85,9.85,0,0,0-18.61,1.14c-2.38,8.54,7.35,15.66,14.79,10.94a9.92,9.92,0,0,0,3.82-12.08Z"/></g></svg>