<svg xmlns="http://www.w3.org/2000/svg" viewBox="0 0 500 500"><defs><style>.cls-1{fill:#4d4d4d;}</style></defs><title>Produits laitiers - oeufs</title><g id="Layer_2" data-name="Layer 2"><path class="cls-1" d="M475,275h-.79L458.33,116.23A41.7,41.7,0,0,0,416.67,75H83.33a41.7,41.7,0,0,0-41.66,41.23L25.79,275H25a25,25,0,0,0,0,50h9.61l13.18,79.11A24.93,24.93,0,0,0,72.45,425h73.87A25,25,0,0,0,170,407.91l2.63-7.91H194l2.64,7.91A25,25,0,0,0,220.35,425h59.3a25,25,0,0,0,23.72-17.09L306,400h21.32l2.63,7.91A25,25,0,0,0,353.68,425h73.87a24.93,24.93,0,0,0,24.66-20.89L465.39,325H475a25,25,0,0,0,0-50ZM58.33,116.67a25,25,0,0,1,25-25H416.67a25,25,0,0,1,25,25c0,.27,15.79,158.33,15.79,158.33H440.81a112.57,112.57,0,0,0,.86-13.85c0-20.87-5.8-42.11-15.92-58.28-11.23-18-26.3-27.87-42.42-27.87a40.5,40.5,0,0,0-18.75,4.71c-11-23.7-28.76-38-47.91-38s-36.95,14.34-47.92,38a39.66,39.66,0,0,0-37.49,0c-11-23.7-28.77-38-47.93-38s-36.94,14.34-47.91,38A40.47,40.47,0,0,0,116.67,175c-16.12,0-31.19,9.9-42.42,27.87C64.13,219,58.33,240.28,58.33,261.15A112.57,112.57,0,0,0,59.19,275H42.54S58.33,116.94,58.33,116.67ZM325.86,275H307.47a110.63,110.63,0,0,0,.86-13.85c0-20.87-5.8-42.11-15.91-58.28a75.75,75.75,0,0,0-10-12.85c8-19.4,21.17-31.69,34.25-31.69s26.2,12.29,34.25,31.69a75.75,75.75,0,0,0-10,12.85C330.8,219,325,240.28,325,261.15a112.57,112.57,0,0,0,.86,13.85Zm-133.33,0H174.14a112.57,112.57,0,0,0,.86-13.85c0-20.87-5.8-42.11-15.91-58.28a76.26,76.26,0,0,0-10-12.85c8-19.4,21.17-31.69,34.24-31.69s26.21,12.29,34.25,31.69a76.78,76.78,0,0,0-10,12.85c-10.11,16.17-15.91,37.41-15.91,58.28a112.57,112.57,0,0,0,.86,13.85Zm-34.2-13.85a94.5,94.5,0,0,1-1,13.85H76a95.91,95.91,0,0,1-1-13.85c0-36.37,19.86-69.48,41.67-69.48S158.33,224.78,158.33,261.15ZM250,191.67c21.81,0,41.67,33.11,41.67,69.48a95.91,95.91,0,0,1-1,13.85H209.34a95.91,95.91,0,0,1-1-13.85c0-36.37,19.86-69.48,41.67-69.48Zm133.33,0c21.81,0,41.67,33.11,41.67,69.48A95.91,95.91,0,0,1,424,275H342.68a94.5,94.5,0,0,1-1-13.85C341.67,224.78,361.53,191.67,383.33,191.67Zm52.44,209.7a8.31,8.31,0,0,1-8.22,7H353.68a8.32,8.32,0,0,1-7.91-5.69L341.24,389a8.35,8.35,0,0,0-7.91-5.7H300a8.32,8.32,0,0,0-7.9,5.7l-4.54,13.6a8.31,8.31,0,0,1-7.91,5.7h-59.3a8.32,8.32,0,0,1-7.91-5.69L207.91,389a8.35,8.35,0,0,0-7.91-5.7H166.67a8.35,8.35,0,0,0-7.91,5.7l-4.53,13.6a8.31,8.31,0,0,1-7.91,5.7H72.45a8.31,8.31,0,0,1-8.22-7L51.5,325h397Zm39.23-93H25a8.33,8.33,0,0,1,0-16.66H475a8.33,8.33,0,0,1,0,16.66Z"/></g></svg>