<svg xmlns="http://www.w3.org/2000/svg" viewBox="0 0 500 500"><defs><style>.cls-1{fill:#4d4d4d;}</style></defs><title>Produits laitiers - Lait et crèmes</title><g id="Layer_2" data-name="Layer 2"><path class="cls-1" d="M476,283.07l-.72,0H308.4a8.35,8.35,0,0,0-8.38,8.32q0,.36,0,.72l15.42,185a25.17,25.17,0,0,0,25,23H443.25a25.17,25.17,0,0,0,24.94-23l15.44-185A8.34,8.34,0,0,0,476,283.07ZM451.56,475.66a8.4,8.4,0,0,1-8.35,7.65H340.44a8.39,8.39,0,0,1-8.34-7.65L321.64,349.8H462.05Zm11.88-142.55H320.25l-2.78-33.38H466.22ZM208.26,87.41V65.57A33.31,33.31,0,0,0,199.92,0H99.78a33.31,33.31,0,0,0-8.34,65.57V87.41a232.29,232.29,0,0,0-75.1,171V441.59A58.47,58.47,0,0,0,74.75,500H225a58.47,58.47,0,0,0,58.41-58.41V258.36A232.29,232.29,0,0,0,208.26,87.41Zm-125.17-54A16.69,16.69,0,0,1,99.78,16.69H199.92a16.69,16.69,0,0,1,2.22,33.15,8.42,8.42,0,0,0-2.22-.45H99.78a8.51,8.51,0,0,0-2.22.45A16.69,16.69,0,0,1,83.09,33.38Zm22.24,64a8.38,8.38,0,0,0,2.8-6.25V66.76h83.44V91.11a8.38,8.38,0,0,0,2.8,6.25,215.4,215.4,0,0,1,58.73,86,117.23,117.23,0,0,1-99.44-7.82A133.25,133.25,0,0,0,56,161.61,215.11,215.11,0,0,1,105.33,97.36ZM266.67,441.59A41.77,41.77,0,0,1,225,483.31H74.75A41.77,41.77,0,0,1,33,441.59V258.36a215.11,215.11,0,0,1,14.18-76.71A116.69,116.69,0,0,1,145.39,190a133.32,133.32,0,0,0,112.94,9.22,214.78,214.78,0,0,1,8.34,59.15ZM241.64,283a8.34,8.34,0,0,0-8.34,8.35v8.34a8.35,8.35,0,0,0,16.69,0v-8.34A8.35,8.35,0,0,0,241.64,283Zm0,41.72a8.34,8.34,0,0,0-8.34,8.35v58.41a8.35,8.35,0,0,0,16.69,0V333.11A8.35,8.35,0,0,0,241.64,324.76Z"/></g></svg>