<svg xmlns="http://www.w3.org/2000/svg" viewBox="0 0 500 500"><defs><style>.cls-1{fill:#4d4d4d;}</style></defs><title>Surgelés - Frites, légumes et fruits</title><g id="Layer_5" data-name="Layer 5"><path class="cls-1" d="M39.14,391.67H55.81V500H39.14ZM474.44,50l-10.3-5.15V8.33A8.33,8.33,0,0,0,455.81,0H422.47a8.31,8.31,0,0,0-6.77,3.49h0L376.52,58.33h-279a58.41,58.41,0,0,0-58.33,58.34v125H55.81v-125A41.71,41.71,0,0,1,97.47,75h275V91.67h-275a25,25,0,0,0-25,25V233.33H89.14V116.67a8.35,8.35,0,0,1,8.33-8.34h275V316.67H355.81v-25a8.33,8.33,0,0,0,8.33-8.34v-25a8.33,8.33,0,0,0-8.33-8.33V225a8.33,8.33,0,0,0,8.33-8.33v-25a8.33,8.33,0,0,0-8.33-8.34h-100a8.34,8.34,0,0,0-8.34,8.34v25a8.34,8.34,0,0,0,8.34,8.33v25a8.34,8.34,0,0,0-8.34,8.33v8.34h100V275h-75v16.67h66.67v25h-75v16.66H372.47v8.34h0a8.29,8.29,0,0,0,8.24,8.33h25.08V500h16.66V344.34l40.12-56.16a8.36,8.36,0,0,0,1.55-4.85V196.82l10.3-5.15a41.42,41.42,0,0,0,23-37.27V87.27A41.42,41.42,0,0,0,474.44,50ZM264.14,200h83.33v8.33H264.14Zm8.33,25h66.67v25H272.47Zm175-208.33V275H430.81V16.67ZM389.14,69.34l25-35V280.66l-25,35Zm37.62,222.33h12.85l-29.76,41.66H397ZM480.81,154.4A24.87,24.87,0,0,1,467,176.76l-2.85,1.42V63.48L467,64.91a24.87,24.87,0,0,1,13.82,22.36ZM364.14,358.33H205.81V375H364.14a8.34,8.34,0,0,1,8.33,8.33V500h16.67V383.33A25,25,0,0,0,364.14,358.33ZM72.47,391.67H89.14V500H72.47Zm58.34,0a25,25,0,0,0-25,25V500h16.66V416.67a8.34,8.34,0,1,1,16.67,0V500h16.67V416.67A25,25,0,0,0,130.81,391.67Zm83.33-175v-25a8.33,8.33,0,0,0-8.33-8.34h-100a8.34,8.34,0,0,0-8.34,8.34v25a8.34,8.34,0,0,0,8.34,8.33v8.33h16.66V225h66.67v25h-25v16.67h50v-8.34a8.33,8.33,0,0,0-8.33-8.33V225A8.33,8.33,0,0,0,214.14,216.67ZM114.14,200h83.33v8.33H114.14ZM247.47,341.67v-25a8.33,8.33,0,0,0,8.34-8.34v-25a8.33,8.33,0,0,0-8.34-8.33h-93.1a25,25,0,0,0-23.56-33.33H94.62a41.41,41.41,0,0,0-29.47,12.2L40.38,278.64a24.88,24.88,0,0,1-12.77,6.83L4.17,290.16,7.44,306.5l23.44-4.68a41.51,41.51,0,0,0,21.29-11.4l24.77-24.76a24.83,24.83,0,0,1,17.68-7.33h36.19a8.34,8.34,0,0,1,0,16.67h-25a8.34,8.34,0,0,0-8.34,8.33,38.29,38.29,0,0,1-17.09,31.94l-4.19,2.8,9.24,13.86,4.2-2.8a54.88,54.88,0,0,0,13.58-12.88,8.52,8.52,0,0,0,2.6.42v25a8.33,8.33,0,0,0,8.33,8.33h58.33a8.33,8.33,0,0,1-8.33,8.33H55.81a8.2,8.2,0,0,0-3.28.68l-50,21.43,6.56,15.31L57.52,375H164.14a25,25,0,0,0,25-25h50A8.33,8.33,0,0,0,247.47,341.67Zm-116.66-50H239.14V300h-125v-8.33Zm-8.34,41.66V316.67H230.81v16.66Z"/></g></svg>