<svg xmlns="http://www.w3.org/2000/svg" viewBox="0 0 500 500"><defs><style>.cls-1{fill:#4d4d4d;}</style></defs><title>Surgelés - Pâtes et glaces</title><g id="Layer_5" data-name="Layer 5"><path class="cls-1" d="M343.9,120.49c.06-1.09.09-2.2.09-3.3a58.57,58.57,0,0,0-39.13-55.28c0-.87.07-1.75.07-2.63C304.93,26,279.49,0,247,0H236.57a9.77,9.77,0,0,0-4.37,18.5c6.76,3.38,6.62,8.79,5.93,11.71-1,4.27-4.69,8.85-10.41,8.85h-81a68.32,68.32,0,0,0-68.28,65.16A68.85,68.85,0,0,0,39.4,162.79,68.48,68.48,0,0,0,.24,224.61c0,.22.06,1.12.11,1.42.1.74,38,258.67,39.06,265.62A9.76,9.76,0,0,0,49.07,500H334.23a9.77,9.77,0,0,0,9.66-8.35c.26-1.78,38.45-261.44,39.06-265.62a9.77,9.77,0,0,0-9.66-11.19h-.64a80.81,80.81,0,0,0,10.41-39.06,58.52,58.52,0,0,0-39.16-55.29ZM146.73,58.59h81c14,0,26.1-9.82,29.42-23.89a30,30,0,0,0,.09-13.78c15,4.11,28.17,17.27,28.17,38.36A38.44,38.44,0,0,1,247,97.66H107.67a67.42,67.42,0,0,0-8.9.58,48.79,48.79,0,0,1,48-39.65Zm-39.06,58.6H247a58.18,58.18,0,0,0,53.6-36,39.08,39.08,0,0,1-15.22,75.06H68.6a68.66,68.66,0,0,0-8.86.57,48.85,48.85,0,0,1,47.93-39.63ZM68.6,175.78H285.4a59,59,0,0,0,54.09-36.08,39,39,0,0,1,24,36.08c0,18.81-9.6,33.21-14.23,39.06H235.6a9.77,9.77,0,1,0,0,19.53H362l-12.35,84H259.32a78.15,78.15,0,0,0-135.34,0H33.67l-12.35-84H147.71a9.77,9.77,0,0,0,0-19.53H20.77A48.77,48.77,0,0,1,68.6,175.78ZM36.54,337.89h93.33a9.75,9.75,0,0,0,8.82-5.58,58.63,58.63,0,0,1,105.92,0,9.75,9.75,0,0,0,8.82,5.58h93.33L341,377H253.43a9.75,9.75,0,0,0-8.82,5.58,58.63,58.63,0,0,1-105.92,0,9.75,9.75,0,0,0-8.82-5.58H42.28ZM325.79,480.47H57.51l-12.35-84H124a78.14,78.14,0,0,0,135.34,0h78.82Zm163-269.09c-9.38-14.95-23.34-23.88-37.33-23.88s-27.93,8.94-37.32,23.9c-10.55,16.82-16.91,45-3.11,73.5,15.15,31.35,15.15,86.35,0,117.7-13.8,28.56-7.44,56.7,3.11,73.52,9.38,14.95,23.33,23.88,37.32,23.88s27.94-8.94,37.33-23.9c10.55-16.82,16.9-45,3.11-73.5-15.15-31.35-15.15-86.35,0-117.7,13.8-28.56,7.44-56.7-3.11-73.52ZM474.26,411.09c10.33,21.38,5.71,42.24-2.07,54.63-5.71,9.1-13.67,14.75-20.78,14.75s-15.07-5.65-20.77-14.73c-7.78-12.4-12.41-33.26-2.07-54.65,17.63-36.5,17.63-98.18,0-134.69-10.33-21.37-5.71-42.23,2.06-54.62,5.71-9.1,13.68-14.75,20.78-14.75s15.08,5.64,20.78,14.73C480,234.15,484.6,255,474.26,276.4,456.63,312.91,456.63,374.59,474.26,411.09ZM191.65,214.84a9.77,9.77,0,1,1-9.77,9.77A9.78,9.78,0,0,1,191.65,214.84Z"/></g></svg>