<svg id="Layer_1" data-name="Layer 1" xmlns="http://www.w3.org/2000/svg" viewBox="0 0 500 500"><defs><style>.cls-1{fill:#344e41;}</style></defs><title>logo - dark</title><path id="Logo" class="cls-1" d="M320.37,151.79a6.72,6.72,0,0,1,3.06-.75,10.19,10.19,0,0,0,3.44-.37l2.39,2.44a1.11,1.11,0,0,0,.48,1.41l1.53.56-.66,1.69a8.59,8.59,0,0,0,.85,3,8.63,8.63,0,0,1,.84,2.82,3.27,3.27,0,0,1-.56,1.88,1.86,1.86,0,0,1,.38.94l.09.94h-1.13a.88.88,0,0,0-.09-1l-.84-.85c-2.36-.38-4.29-2.32-5.77-5.83C323.07,155.08,321.74,152.8,320.37,151.79Zm85.28,58-.28,1.22c0,.81.67,2,2,3.62s2,2.58,2,3v-1.51l-1.22-3C407.44,211.06,406.59,210,405.65,209.78ZM151.14,189.2h.75v-.57h-.75Zm-47.93,36.74-.38.56a4.69,4.69,0,0,0,.19,2.31,2.23,2.23,0,0,0,.94,1.27,1.78,1.78,0,0,0,.75-1.23l-.47-1.41a3.65,3.65,0,0,1-.28-1.59ZM430,343.7l.09,1.31c0,.69-.4,1-1.22,1a5,5,0,0,1-2.06-.42,9,9,0,0,1-1.7-1c-1.31-1.13-2.28-1.7-2.91-1.7a3.74,3.74,0,0,0-2.25.76,22.91,22.91,0,0,0-5.27-1.13l-6.86-.28h-6.67a9.09,9.09,0,0,0-1.41-.19,27.1,27.1,0,0,1-5-1.13,9.46,9.46,0,0,1-3.38.66,4.05,4.05,0,0,0-3.57,1.6,2.42,2.42,0,0,1,.56,1.41l-.66,1.87a4.12,4.12,0,0,0-.37,2.35l-.85.1a1,1,0,0,0-.85.37l-.56-1.88a1.89,1.89,0,0,0-1.6-1.41l.29-.18-.29-.47-3.1,3c.38-1,0-2.22-1-3.66l-1.79-2a1.63,1.63,0,0,0-.56,1.12l.09,2a2.55,2.55,0,0,1-1.69-2.45l.28-2.35.38-2.06a3.34,3.34,0,0,0,0-.59c.33.78,1.06,1.08,2.2.87a14.72,14.72,0,0,0,.94-3.38l.66-4.14a2.55,2.55,0,0,0,2.25.94,5.87,5.87,0,0,1,2.26.28l1.31-1.22,3.48,2.63a6.55,6.55,0,0,0,.94-2.63l-.28-1.88-.19-1.6c-.37-.18-.84-.06-1.41.38L386.87,330v.46l-.76-1.69c-.18-.43-.65-.59-1.41-.47l-.84.85a.77.77,0,0,0-.09.85.71.71,0,0,1-1-.19,6.68,6.68,0,0,1-.94-2.26c-.44-2.07-.78-3.13-1-3.19-.5,0-1.19.56-2.07,1.69l-.47,2.63c-1.25.19-2.54-.38-3.85-1.69l-2.92-4a6.67,6.67,0,0,0,1.93-.33,1.88,1.88,0,0,0,1.36-1.45l-.37-.66-.66-.85a3,3,0,0,1-.94.1,2.39,2.39,0,0,1-1-.19,3.15,3.15,0,0,1-1.23-1.6l3.76-.66a2.22,2.22,0,0,1-1-2.16v-1a1.58,1.58,0,0,0-1.79-1.79,2.7,2.7,0,0,0,.76-.94l.18-.94-.18-2,.28-1.41,2.91,6.95a4.62,4.62,0,0,0,1.88,1.51l2.54.65a1.13,1.13,0,0,0,.09-1.31l-1.69-2H376.9a31.7,31.7,0,0,0-.56-5l-.47-3.85,1.41-.66.94-.84a12.24,12.24,0,0,1-2-3.67,18.86,18.86,0,0,0-1.51-3.66,3.52,3.52,0,0,1,1.51-1.22,2.22,2.22,0,0,0,1.31-1.79l.19-1.13q0-.46-.66-.75l-3.38,1.32-1-2.82a4,4,0,0,0,2.16,1.22c.5,0,1.13-.81,1.88-2.44.56-1.51,1.22-2.41,2-2.73a2.31,2.31,0,0,0-.47-2.35l-1.79-2.07,2.73-2.82a2.06,2.06,0,0,0-1.88-1l-.85.19-1,.28a5.49,5.49,0,0,0,.75-2.44l-.37-2.45-.38-2.53a4.48,4.48,0,0,1,1-2.82,1.17,1.17,0,0,1-.84-1.22l.28-1,1-.37,1.32.09a1.24,1.24,0,0,0,.94-.38c-1.57-.18-2.35-.75-2.35-1.69a8.79,8.79,0,0,1,.85-2.35,4.82,4.82,0,0,0,.56-3l.94-.29a2.46,2.46,0,0,0,1.22-.75l-3.48-4.41a3,3,0,0,1,1.7-.66,5,5,0,0,1,2.06.47l1.51.37c.5,0,.81-.47.94-1.41l-.1-1.22,1.32-.37c.44,0,1.05.48,1.83,1.45a2.48,2.48,0,0,0,2.49,1.18l.19,17.57.28,12.12a5.6,5.6,0,0,0-.66,2.07,11.42,11.42,0,0,0,.85,3.53,11.64,11.64,0,0,1,.85,3.8l.28,10.06.37,8.64v1l-.09,3.66V316c-.19.69-.32,1.16-.38,1.41a26.54,26.54,0,0,1,1,5.31c.31,2.54.5,4,.56,4.28a12.5,12.5,0,0,0,.56,1.69l-1.69.84,4.14,3.67c.56,0,1.22-.47,2-1.41.38.19.75.82,1.13,1.88a1.7,1.7,0,0,0,2.07,1.32,2,2,0,0,0,.94-1.7,1.45,1.45,0,0,0-.47-1,6.48,6.48,0,0,1,1.78-.47,5.37,5.37,0,0,1,3.29,1.22l3.57-.28a22.15,22.15,0,0,1,9,1.88,25.62,25.62,0,0,1,7.84,5.45l1.32-.28c.69,0,1.25.63,1.69,1.88Zm-51.78-45.49c-.13-.31-.25-.5-.38-.56l-.75-.57v1.13Zm2.16-25v-2.63a1.46,1.46,0,0,0-1.41.52,5.28,5.28,0,0,0-.75,2.11Zm.85,29.42h-1.41a1.67,1.67,0,0,0,.28,1.22,1.38,1.38,0,0,0,1.13.28Zm0-18.14h-.85V285h.85ZM383,318l-1.5-1.13V318ZM383,302l-.37-1.13a1.1,1.1,0,0,0-.66-.94V302Zm2.63,18.23h-1.31V323Zm-3.1,17.2-1.31,2.16h1.31Zm8.27,2.16h-.65V340h.65ZM120.67,281.3H120v1.31a2.72,2.72,0,0,0,1.12-.37A3.36,3.36,0,0,1,120.67,281.3Zm10.06-6.68-.66-2.63-1.41-3.38-.09.94.75,2.91a9.54,9.54,0,0,1,.75,2.73,2.33,2.33,0,0,1-.22,1Zm-13,18.33-.66-.28v1.59l.57-.09.56-.85Zm12.09-16.79-.25.44A2.76,2.76,0,0,0,129.85,276.16Zm6.42-12.44c.32-.19.47-.72.47-1.59l-.75-.38a4,4,0,0,0-.47.66A1.76,1.76,0,0,0,136.27,263.72Zm146.5-87.3h-1l.46.93Q282.86,176.8,282.77,176.42Zm118.38,8h1.49a1.26,1.26,0,0,0,.19-.75A7.85,7.85,0,0,1,401.15,184.4Zm-228.79,78h-.75v.37h.75Zm71.31-77.73.29-1.59a3.11,3.11,0,0,0-.47-1.41l-.19,2.25a3.29,3.29,0,0,0,0,2ZM129.9,205.55V205h-.66v.57Zm-1.69,4.13v-1.6h-1v1.23C127.36,209.75,127.7,209.87,128.21,209.68ZM169,265.88c-.34.69-.79.94-1.36.76v1.12a2.28,2.28,0,0,1,1.51-.94c.75-.37,1.12-.72,1.12-1l-.19-.94C169.73,264.85,169.37,265.2,169,265.88ZM136,202v1.41l1.59-2.73h-.84A1.33,1.33,0,0,0,136,202Zm168.47-22.46A1.22,1.22,0,0,0,303,180a2,2,0,0,0-.18,1.69C303.91,181.11,304.48,180.39,304.48,179.52ZM315,196.34l-.56.56a14,14,0,0,1,.85-3.92l.56-3.93a5.45,5.45,0,0,0-.56-2.61l.56-2.06a4.63,4.63,0,0,1,1.65-3.08l1.29,2a2.18,2.18,0,0,0,1.19-.94l.85-1.7c-.19-.56-.75-.84-1.69-.84s-1.54-.16-1.79-.47l.89-1.79a3.93,3.93,0,0,1,1.09-1.31l-.78-.47-1.07.66a2.24,2.24,0,0,1-1.07.65l.47-3.19a9.44,9.44,0,0,1,1.33-3.1l2.45.47a2.78,2.78,0,0,1,2.65,2,12.35,12.35,0,0,1,4.73.85,5.94,5.94,0,0,1,3,2.44c.32.63.57,1.17.76,1.64a19.15,19.15,0,0,1,.61,1.88,11.06,11.06,0,0,1,.38,1.69c0,.35.05.74.05,1.18a36,36,0,0,1-.61,5.45l-.61,5.17.09,1.5a1.77,1.77,0,0,1,1.13,1.79V199c-1.26,0-1.88.56-1.88,1.69l.28,1.88v2.35a9.32,9.32,0,0,1,1,1.17,3,3,0,0,1,.6,1.84,7.6,7.6,0,0,1-1.36,3.38,11.36,11.36,0,0,0-1.56,3.48,2.76,2.76,0,0,0,.66,1.69c.44,0,.75-.31.94-.94a.84.84,0,0,1,1-.85,5.08,5.08,0,0,1,.56,2.07l.19,2.82.09,3.85a5.19,5.19,0,0,0,1.13,2.45,4.13,4.13,0,0,0-.85,2.53,10,10,0,0,0,1.13,3.67c.19.31.5.88.94,1.69.06.13.19.35.38.66a4.6,4.6,0,0,0,.09,1q.09.38.66,2a14.11,14.11,0,0,1,.75,3.1,3,3,0,0,1-.33,1.45,3.52,3.52,0,0,1-1.17,1.18v1.5a4.77,4.77,0,0,1-1.27-.19,15.49,15.49,0,0,1-2.35-.94,11.23,11.23,0,0,0-3-.94,5.72,5.72,0,0,0-2.16.57l-.85-1.32a.86.86,0,0,0-1.13-.28,1,1,0,0,0-1.36.14,3.64,3.64,0,0,0-.89,1.46,4,4,0,0,0-1-2.26,4.87,4.87,0,0,1-.85-2,2.31,2.31,0,0,1,.56-1.22l-3-2.92a.68.68,0,0,1,.28-.09,3.62,3.62,0,0,1,1.22-.28q1.41,0,1.41-1l-.28-1.08.37-.19-.84.19a1.63,1.63,0,0,1-1.41-.85l-.75-2.53v-1.6h.37l.1-1.51a19.29,19.29,0,0,0-.87-4.62l-1-3.67a7.08,7.08,0,0,1-1.35-1.79,6.66,6.66,0,0,1-.29-2.17l.22-2.55.34-2.07a5.07,5.07,0,0,0-.2-1.6,3.07,3.07,0,0,0-.92-1.7l.56-1.89-.56-2.26v-1.6a2.74,2.74,0,0,1,1.59-2.55v-1.13l-.75-.37A1.56,1.56,0,0,0,315,196.34Zm15.6,1.5h.47l-.09-1c-.13-.31-.25-.47-.38-.47Zm-2,3.57h.47v-3.1h-.47Zm-11.56-15c.06.18.13.36.19.51a3.79,3.79,0,0,0,.61.85,3.34,3.34,0,0,1,.7,1.36c0,.57-.4,1.16-1.22,1.79a1.15,1.15,0,0,0,.85.28,1.47,1.47,0,0,0,1.31-.75,13,13,0,0,0,.47-2.63,4,4,0,0,0-.33-1.79,2.26,2.26,0,0,0-1.26-1A2.52,2.52,0,0,0,317.08,186.38Zm.65,82.14a1,1,0,0,0,.18-.66h-.65Zm-61.65-96.9-.38,1-.18,1.69,1,.56c.31-.06.58-.5.8-1.31s.48-1.29.8-1.41a3.06,3.06,0,0,1-1.32-1,5.77,5.77,0,0,0-.8-.89,1.73,1.73,0,0,0-.51-.29l-.47.47C255.73,170.75,256.08,171.12,256.08,171.62ZM375.4,335.14h-.66l.66,1.51ZM133.47,204.33h-.57l.57,1Zm279.82.56a5.31,5.31,0,0,1-1.41-3.38,3.14,3.14,0,0,1,.47-1.65c.31-.53,1-.8,2.16-.8l1.88.1a1.74,1.74,0,0,0,1.41-.47,2.72,2.72,0,0,0,1.12.37l2.45-.56,2.35-.66c1.12,0,1.91.69,2.35,2.07a1.08,1.08,0,0,0,1.41-.47l.75-1.69v-2a5.86,5.86,0,0,0-.33-2.25,3,3,0,0,0-1.36-1.32l-.47-.47a4.24,4.24,0,0,0,2.44-2.53,16.14,16.14,0,0,0,.56-4.61v-3l.1-1.88a11.26,11.26,0,0,1,.56-2.63l.66-2.44a2.56,2.56,0,0,0-.75-1.88c.25-1.13.48-2.54.7-4.23a37.23,37.23,0,0,0,.33-4.79c0-1.88.05-3.35.14-4.42a23.55,23.55,0,0,1,.52-3.19,3.74,3.74,0,0,1,1.5-.57c.5,0,1,.49,1.55,1.46a5.16,5.16,0,0,0,1.27,1.74l-.09,1.88a2.33,2.33,0,0,0,.56,1.69,2.5,2.5,0,0,0,.57-.28,2.76,2.76,0,0,0,.56-.57l1-1v-3.85l.75-.47a6,6,0,0,0,.76,2.25l1.41,2.07a7.23,7.23,0,0,1,4-3.67,18.18,18.18,0,0,1,6.16-.94,4.86,4.86,0,0,0,1.69.47,7.22,7.22,0,0,0,2.82-.94l2.72-.94c.82.19,1.41.32,1.79.38a11.6,11.6,0,0,0,1.69.09l3.38-.28a13.36,13.36,0,0,0,3.48-.94,4.09,4.09,0,0,0,2.54.85l1-.1.38-.46.18-.29a9.35,9.35,0,0,0,4.23.85l2.54-.19,2.63-.37.1,1a.9.9,0,0,1-.66.84,1,1,0,0,0,.75.29l1-.38.94-.38.38,1.79.19,1.32a4,4,0,0,1-.33,1.83,2.79,2.79,0,0,1-1.46,1.08,1.35,1.35,0,0,1-1,.56l-1.32-.28-1.22-.28a1.27,1.27,0,0,0-1.22.94c-1,1.5-2.76,2.38-5.26,2.63l-3.95.28-1-.19-2.06.38-2.45.38a3.77,3.77,0,0,1-2.63-1,3.16,3.16,0,0,1-1.22.75l-1.22.19-2.07-.19-1.31-.28a3.32,3.32,0,0,0-2.82,1.69,1.55,1.55,0,0,1-.52-.28,4.84,4.84,0,0,1-.75-.89,2.74,2.74,0,0,0-1.46-1,4.23,4.23,0,0,0-1.69,1.88L447,169.09l-.09-.94-.1-1.79c0-.69-.43-1.22-1.31-1.6a6.27,6.27,0,0,0-1,1.79c-.26.81-.88,1.09-1.88.84l-1.41-1.69a10.17,10.17,0,0,0-2.92,5.73l-1.41,7.33a4.45,4.45,0,0,1,3.57,1.7v2.63c-.62,0-1.25.53-1.88,1.59l-1.22,1.79q1.7.75,2.73,3.67c.69,1.94,1.78,3,3.29,3.28l1.69-2.16,2,1.41c.38-.18.66-.81.85-1.88s.69-1.47,1.5-1.22a2.27,2.27,0,0,0,1,1.79l2.44.37,2.44-.09,1.13.09L454.73,190a6.22,6.22,0,0,1,3.95,1.51,16.69,16.69,0,0,0,3.47,1.87,2.41,2.41,0,0,0,2.21-.61,6.29,6.29,0,0,1,1.65-1.08l2.63,3.39c.31-1.63,1.12-2.45,2.44-2.45a10.3,10.3,0,0,1,3.1.94,11,11,0,0,0,3.2.75l.18.57v.66l-1,1.12a1.42,1.42,0,0,1-1.13.57,3.83,3.83,0,0,1-.28-1.13v-1.32c-.19-.31-.66-.47-1.41-.47q-.66.1-.75,1.32l.09,2.07a2.15,2.15,0,0,1,1.7,2.16,3.06,3.06,0,0,1-1,2.16,1.51,1.51,0,0,1-1.5.94c-.75,0-1.22.19-1.41.56a2.89,2.89,0,0,0-2.07-1.5,4.58,4.58,0,0,0-2.58,1.5,6.1,6.1,0,0,1-2.78,1.7,7.37,7.37,0,0,1-.84-2.26q-.28-1.69-1.32-2.07a1.32,1.32,0,0,0-.94,1.22v2.07a3.22,3.22,0,0,0-2-1.78c-.19.12-.35.22-.47.28a5.2,5.2,0,0,0-1.32.84,6.18,6.18,0,0,1-1.78,1,2.53,2.53,0,0,1-1.69-1c-.57.19-.85.51-.85.94l.28,1,.57.94a8,8,0,0,0-2.07.19c-.5,0-1,.4-1.6,1.22a14.43,14.43,0,0,0-.66,4.23,17.34,17.34,0,0,0,.19,3.1l.94,3.76a3.55,3.55,0,0,0-2.77,1.64,6.33,6.33,0,0,0-.8,3.24l.19,3.57.28,2.64a5.82,5.82,0,0,1-.19,1.87l1.51-.28a2.62,2.62,0,0,1,2.25,1.18,30.77,30.77,0,0,1,2.26,4,6,6,0,0,1,1.41-.75,4.43,4.43,0,0,1,1.59-.28,3.44,3.44,0,0,1,2.54,1h18.8a3.67,3.67,0,0,0,1.5.47L480,237l2.16-.38a3.35,3.35,0,0,1,2,.66,2.25,2.25,0,0,0-.89,1.46c-.22.78-.61,1.24-1.17,1.36l-.85-.19a4.94,4.94,0,0,1-2.44,2.16l-2.45,1.23-2.16-2.92-1.5,4.14a4.35,4.35,0,0,1-2.35,2.35l-3.1-1.88a2.31,2.31,0,0,1-1.32,1.69,3.5,3.5,0,0,1-2,.56,4,4,0,0,1-1.79-.37,2.34,2.34,0,0,0-2.44-1.79,8,8,0,0,0-2.44.47l-2.07.38a2.82,2.82,0,0,1-1.69-.75,2.39,2.39,0,0,0-2.16-.47,3,3,0,0,0-1.13,1.45,2.53,2.53,0,0,1-1.51,1.46A2.83,2.83,0,0,0,446,246l-2.35.37-1.88.28-1-.18a1.67,1.67,0,0,1-.94.47h-1.23l.19-1.13a2.88,2.88,0,0,0-.47-.75l-1.88.94-.09-2.26a3.29,3.29,0,0,0-1.6-2.07c-.94-.12-1.41.22-1.41,1v1.13a1.31,1.31,0,0,1-.28.94,22.93,22.93,0,0,1-3.85-2.82,13.27,13.27,0,0,1-2.16-3.67,13.72,13.72,0,0,0,2.35-1,1.84,1.84,0,0,0,.56-1.6c0-.31-.35-.8-1-1.46a2,2,0,0,1-.66-2.21,1.72,1.72,0,0,0,.66-.09l.75-.56a8.59,8.59,0,0,1-.57-2.82,6,6,0,0,1,.75-3,10.26,10.26,0,0,1,2-2.44l.28-1.79a13.55,13.55,0,0,0-.09-1.88,8.88,8.88,0,0,1-.57-1.88l-.56-3.76a6.86,6.86,0,0,1,.28-2.21,5.8,5.8,0,0,1,1.41-1.92,2,2,0,0,0-.75-2.16,1.4,1.4,0,0,0-1.13.56l-1,1.6a6.46,6.46,0,0,0-4.42-1.41A6.12,6.12,0,0,1,421,207a2.29,2.29,0,0,0-.47.33,9.16,9.16,0,0,0-.84.84,1.48,1.48,0,0,1-1.32.52l-1.5-1.22-.19.47c-.57-.44-1.16-.93-1.79-1.46A14.77,14.77,0,0,1,413.29,204.89Zm37.12-3.95h.94v-1.5h-.94Zm-3.2-39.09.47-.47-.47-1.22Zm-16.82,68.41h.94a1.21,1.21,0,0,0,1.13-.7,6.29,6.29,0,0,0,.56-1.93,2.14,2.14,0,0,1-.85.28c-.25,0-.43-.15-.56-.47l-.28-1.5-.66,2.07A6.8,6.8,0,0,0,430.39,230.26Zm1.31,10.06a2.17,2.17,0,0,0-1.31-2.07v3.38l.94-.47Zm1.79-5.17a.78.78,0,0,1-.09-.28,2.86,2.86,0,0,1-.29-.94c0-.63-.34-.94-1-.94a1.06,1.06,0,0,0-.85,1l.29,1.13,1,.94Zm3.67-5.54.31-.1-1.07-.37Zm6.2,4.51-.75.56h.75Zm1.5-36.37h.66c.25-.06.41-.47.47-1.22a1.21,1.21,0,0,0-.89.32A1,1,0,0,0,444.86,197.75Zm-.94,21.71a3.66,3.66,0,0,1-1,2.16,2.31,2.31,0,0,1,.75,1.22l-.47,1.31-.38,1.41a2.67,2.67,0,0,0,.57,1.32v.94c-.07.25-.32.34-.75.28l.75,2.07a1,1,0,0,0,.94.66l.75-8.74-.56-2.45a1.41,1.41,0,0,1,1-1.41C444.89,217.86,444.36,218.27,443.92,219.46Zm-1-10.34.94.94v-.94Zm-2.16,7.42h1.41c.37,0,.59-.25.65-.75l.1-1.13q-.28-.84-.75-.84c-.38,0-.72.31-1,.94A3.12,3.12,0,0,0,440.73,216.54Zm-1.23,1.69-.75,1.88a11.63,11.63,0,0,0-.19,2.45c.44.06,1.07-.25,1.88-.94v-1.79C440.44,219,440.13,218.42,439.5,218.23Zm-1.22-10.15-.94,2,.57,1.69a1.38,1.38,0,0,0,.84.75l.75-.28.1-.94a3.87,3.87,0,0,0-.57-1.79Zm-3.57-37.59h.94v-2.16ZM434.62,191l.09,1a2,2,0,0,0,.71,1.37,4,4,0,0,0,1.45,1l1.41-4.32H436C435.09,190,434.62,190.36,434.62,191ZM434,216.54a1.38,1.38,0,0,0,0,1.22l.75,1.23a1,1,0,0,0,.75.47,6,6,0,0,1,1.88-.76c.32-.5.17-1-.42-1.59a3,3,0,0,0-2.11-.85A1.15,1.15,0,0,0,434,216.54ZM433,213a3,3,0,0,0,.47.94q.75-.47.75-2.16C433.49,211.75,433.08,212.16,433,213Zm-1.22,11.75H433a2.21,2.21,0,0,0,.47-.94C432.55,223.78,432,224.09,431.8,224.72Zm59.93,67.57h-.47a3.68,3.68,0,0,1,0,1.28Zm-.46,1.28-.33.89A2.72,2.72,0,0,0,491.27,293.57Zm-3.2,3.51a2.7,2.7,0,0,0,2.53-1.69l.34-.93a2.88,2.88,0,0,1-.43.56Zm-35.15-14.19h.47V282h-.47ZM224.75,218.33a4.5,4.5,0,0,1-.89,2.16h1.41a3.84,3.84,0,0,1,.56-1.5l.57-1.51a2.59,2.59,0,0,0-.47-1.13A2.55,2.55,0,0,0,224.75,218.33Zm3.86,43.23v-2.25l-.75,2.25ZM495,254.32l.19,1.32a3.93,3.93,0,0,1-.33,1.83,2.79,2.79,0,0,1-1.46,1.08,1.34,1.34,0,0,1-1,.57l-1.32-.28-1.22-.29a1.29,1.29,0,0,0-1.22.94c-1,1.51-2.76,2.39-5.26,2.64l-3.95.28-1-.19-2.07.37-2.44.38a3.79,3.79,0,0,1-2.64-1,3.42,3.42,0,0,1-1.22.75l-1.22.19-2.07-.19-1.31-.28a3.3,3.3,0,0,0-2.82,1.69,1.75,1.75,0,0,1-.52-.28,5.45,5.45,0,0,1-.75-.9,2.72,2.72,0,0,0-1.46-1,4.13,4.13,0,0,0-1.69,1.88l-1.13,2.44-.09-.94-.09-1.79c0-.68-.44-1.22-1.32-1.59a6.14,6.14,0,0,0-1,1.78c-.25.82-.88,1.1-1.88.85l-1.41-1.69a10.17,10.17,0,0,0-2.92,5.73l-1.41,7.33a4.45,4.45,0,0,1,3.58,1.69v2.63c-.63,0-1.26.54-1.88,1.6l-1.23,1.78q1.69.76,2.73,3.67t3.29,3.29l1.69-2.16,2,1.41c.38-.19.66-.82.85-1.88s.69-1.47,1.5-1.22a2.25,2.25,0,0,0,1,1.78l2.44.38,2.44-.1,1.13.1-1.69-1.69a6.26,6.26,0,0,1,3.95,1.5,17.8,17.8,0,0,0,3.47,1.88,2.43,2.43,0,0,0,2.21-.61,5.8,5.8,0,0,1,1.65-1.08l2.63,3.38c.31-1.63,1.13-2.44,2.44-2.44a9.93,9.93,0,0,1,3.1.94,11,11,0,0,0,3.2.75l.19.56v.66l-1,1.13a1.43,1.43,0,0,1-1.13.56,3.76,3.76,0,0,1-.28-1.13V292c-.19-.31-.66-.47-1.41-.47-.44.06-.69.5-.75,1.31l.1,2.07a2.17,2.17,0,0,1,1.69,2.16,3.07,3.07,0,0,1-1,2.17,1.51,1.51,0,0,1-1.5.93q-1.12,0-1.41.57a2.89,2.89,0,0,0-2.07-1.5,4.61,4.61,0,0,0-2.58,1.5,6.09,6.09,0,0,1-2.77,1.69,6.84,6.84,0,0,1-.85-2.26c-.19-1.12-.63-1.81-1.32-2.06a1.33,1.33,0,0,0-.94,1.22v2.07a3.24,3.24,0,0,0-2-1.79,3.35,3.35,0,0,1-.47.28,5.16,5.16,0,0,0-1.31.85,6.25,6.25,0,0,1-1.79,1,2.51,2.51,0,0,1-1.69-1c-.57.19-.85.5-.85.94l.28,1,.57.94a8,8,0,0,0-2.07.19c-.5,0-1,.41-1.6,1.22a14.41,14.41,0,0,0-.65,4.23,17.54,17.54,0,0,0,.18,3.1l.94,3.76a3.6,3.6,0,0,0-2.77,1.64,6.37,6.37,0,0,0-.8,3.25l.19,3.57.28,2.63a5.85,5.85,0,0,1-.19,1.88l1.51-.28a2.63,2.63,0,0,1,2.25,1.17,31.79,31.79,0,0,1,2.26,4,6,6,0,0,1,1.41-.76,4.68,4.68,0,0,1,1.6-.28,3.44,3.44,0,0,1,2.53,1h18.8a4,4,0,0,0,1.5.47l1.6-.29,2.16-.37a3.35,3.35,0,0,1,2,.66,2.19,2.19,0,0,0-.89,1.45,1.69,1.69,0,0,1-1.17,1.37l-.85-.19a5,5,0,0,1-2.44,2.16l-2.45,1.22-2.16-2.91-1.5,4.13a4.32,4.32,0,0,1-2.35,2.35l-3.1-1.88a2.3,2.3,0,0,1-1.32,1.69,3.43,3.43,0,0,1-2,.57,4,4,0,0,1-1.79-.38,2.33,2.33,0,0,0-2.44-1.78,7.7,7.7,0,0,0-2.44.47l-2.07.37a2.82,2.82,0,0,1-1.69-.75,2.42,2.42,0,0,0-2.16-.47,3,3,0,0,0-1.13,1.46,2.52,2.52,0,0,1-1.5,1.45,2.87,2.87,0,0,0-2.73-1.69l-2.35.38-1.88.28-1-.19a1.6,1.6,0,0,1-.94.47H448.6l.18-1.13a3,3,0,0,0-.47-.75l-1.88.94-.09-2.25a3.27,3.27,0,0,0-1.6-2.07c-.94-.13-1.41.22-1.41,1V341a1.29,1.29,0,0,1-.28.94,22.24,22.24,0,0,1-3.85-2.82,13.2,13.2,0,0,1-2.16-3.66,13.51,13.51,0,0,0,2.35-1,1.83,1.83,0,0,0,.56-1.6c0-.31-.35-.79-1-1.45a2.05,2.05,0,0,1-.66-2.21,1.72,1.72,0,0,0,.66-.09l.75-.57a8.5,8.5,0,0,1-.57-2.82,5.88,5.88,0,0,1,.76-3,10.16,10.16,0,0,1,2-2.44l.28-1.78a13.45,13.45,0,0,0-.09-1.88,9.72,9.72,0,0,1-.57-1.88l-.56-3.76a6.82,6.82,0,0,1,.28-2.21,5.82,5.82,0,0,1,1.41-1.93,2,2,0,0,0-.75-2.16,1.42,1.42,0,0,0-1.13.57l-1,1.59a6.46,6.46,0,0,0-4.42-1.41,6.07,6.07,0,0,1-4.23-1.22,4.28,4.28,0,0,0-.47.33,9.63,9.63,0,0,0-.84.85,1.45,1.45,0,0,1-1.32.51l-1.5-1.22-.19.47c-.56-.44-1.16-.92-1.79-1.46a13.88,13.88,0,0,1-1.59-1.55,5.27,5.27,0,0,1-1.41-3.38,3.13,3.13,0,0,1,.47-1.64c.31-.53,1-.8,2.16-.8l1.88.09a1.71,1.71,0,0,0,1.41-.47,2.68,2.68,0,0,0,1.13.38l2.44-.57,2.35-.65c1.13,0,1.91.69,2.35,2.06.69.19,1.16,0,1.41-.47l.75-1.69v-2a6,6,0,0,0-.33-2.26,2.88,2.88,0,0,0-1.36-1.31l-.47-.47a4.26,4.26,0,0,0,2.44-2.54,16.06,16.06,0,0,0,.56-4.6v-3l.1-1.88a11.16,11.16,0,0,1,.56-2.63l.66-2.45a2.57,2.57,0,0,0-.75-1.88c.25-1.12.48-2.53.7-4.22a37.38,37.38,0,0,0,.33-4.8c0-1.88.05-3.35.14-4.41a23.69,23.69,0,0,1,.52-3.2,3.84,3.84,0,0,1,1.5-.56c.5,0,1,.48,1.55,1.45a5.18,5.18,0,0,0,1.27,1.74l-.09,1.88a2.31,2.31,0,0,0,.56,1.69,2.15,2.15,0,0,0,.57-.28,2.46,2.46,0,0,0,.56-.56l1-1v-3.85l.76-.47a5.85,5.85,0,0,0,.75,2.26l1.41,2.06a7.25,7.25,0,0,1,4-3.66,17.93,17.93,0,0,1,6.16-.94,5.1,5.1,0,0,0,1.69.47,7.22,7.22,0,0,0,2.82-.94l2.72-.94c.82.19,1.41.31,1.79.38a11.6,11.6,0,0,0,1.69.09l3.38-.28a13.36,13.36,0,0,0,3.48-.94,4.15,4.15,0,0,0,2.54.84l1-.09.38-.47.19-.28a9.41,9.41,0,0,0,4.22.84l2.54-.18,2.63-.38.1,1a.91.91,0,0,1-.66.85,1,1,0,0,0,.75.28l1-.37.94-.38Zm-34.58,43.8h.94v-1.51h-.94Zm-15.7-30.45h.94v-2.16Zm-4.32,59.77h.94a1.22,1.22,0,0,0,1.13-.71,6,6,0,0,0,.56-1.92,2.29,2.29,0,0,1-.84.28c-.26,0-.44-.16-.57-.47l-.28-1.5-.66,2.06A6.85,6.85,0,0,0,440.42,327.44Zm1.32,10.05a2.15,2.15,0,0,0-1.32-2.06v3.38l.94-.47Zm1.78-5.17a.68.68,0,0,1-.09-.28,2.71,2.71,0,0,1-.28-.94c0-.62-.35-.94-1-.94a1.06,1.06,0,0,0-.84,1l.28,1.12,1,.94Zm0-11.37c-.94,0-1.5.32-1.69.94h1.22A2.05,2.05,0,0,0,443.52,321Zm.75-12c-.75,0-1.16.41-1.22,1.23a3.36,3.36,0,0,0,.47.94C444,310.77,444.27,310.05,444.27,308.92Zm3.1,7c.32-.5.18-1-.42-1.6a3,3,0,0,0-2.11-.84,1.15,1.15,0,0,0-.85.28,1.37,1.37,0,0,0,0,1.22l.75,1.22a1,1,0,0,0,.75.47A6,6,0,0,1,447.37,315.88Zm-.18,10.9.31-.1-1.07-.37Zm6.2,4.51-.75.56h.75Zm1.5-36.37h.66c.25-.06.41-.47.47-1.22a1.19,1.19,0,0,0-.89.33A1,1,0,0,0,454.89,294.92ZM454,316.63a3.59,3.59,0,0,1-1,2.16,2.34,2.34,0,0,1,.75,1.22l-.47,1.32-.38,1.41a2.68,2.68,0,0,0,.57,1.31V325c-.06.26-.32.35-.75.29l.75,2.06a1,1,0,0,0,.94.66l.75-8.74-.56-2.44a1.4,1.4,0,0,1,1-1.41C454.92,315,454.39,315.44,454,316.63Zm-1-10.34.94.94v-.94Zm-2.16,7.43h1.41c.37,0,.59-.25.65-.75l.1-1.13c-.19-.57-.44-.85-.75-.85s-.72.32-1,.94A3.15,3.15,0,0,0,450.76,313.72Zm-1.22,1.69-.76,1.88a11.62,11.62,0,0,0-.18,2.44c.43.07,1.06-.25,1.88-.94V317C450.48,316.13,450.16,315.6,449.54,315.41Zm-1.23-10.15-.94,2,.57,1.69a1.45,1.45,0,0,0,.84.76l.76-.29.09-.94a3.93,3.93,0,0,0-.56-1.78Zm-2.25-18c-.94,0-1.41.31-1.41.94l.09,1a2,2,0,0,0,.71,1.36,4.17,4.17,0,0,0,1.45,1l1.41-4.32Zm11.65-28.67-.47-1.22V259Zm9.21,58.55a3,3,0,0,0,.47-.94h-.94Zm33-63.34-.94-.56a1.49,1.49,0,0,0-1.08.8,5.24,5.24,0,0,0-.62,1.45h1.23l1.12-.56A.9.9,0,0,0,499.91,253.76ZM438.26,318h-.47v.75h.47Zm51.33-160.33a.88.88,0,0,0,.29-1.12l-.94-.57a1.55,1.55,0,0,0-1.09.8,5.59,5.59,0,0,0-.61,1.46h1.23ZM462.22,307.05a2.93,2.93,0,0,0-.56,1,1.49,1.49,0,0,0,.89,1.31,3.18,3.18,0,0,0,1.74.29,2.79,2.79,0,0,0,.94-2.17,1.6,1.6,0,0,0-1.5-.84A2.72,2.72,0,0,0,462.22,307.05Zm-2.44,18.6a1.61,1.61,0,0,0,.66,1.13,3.48,3.48,0,0,0,.65-1.69,5.44,5.44,0,0,0,.19-1.79l-.19-1.59-.65-2.45-1,1.69a1.84,1.84,0,0,1,.94,1.69l-.28,1.6Zm-234.17-61,.18-.28-1.78-1.5Zm202.62-43.79h-.47v.75h.47ZM401.14,184.4h0ZM294.77,266.87c-1.75.35-2.63,1-2.63,2v.05a4.14,4.14,0,0,0-.9-1.32,3.71,3.71,0,0,0-2.68-1.17,4,4,0,0,0-1.79.56,2.93,2.93,0,0,0-.18,1.41l.18,1.13a1.76,1.76,0,0,1-.56,1.31,7.42,7.42,0,0,0-5.17-2,4.52,4.52,0,0,0-2.72.75,6.11,6.11,0,0,0-.66.57c-.13.12-.19.22-.19.28l.66.66c.44.25.59.56.47.94H277a1.69,1.69,0,0,0-.75-1.41,5.23,5.23,0,0,0-2.07-.85,9.2,9.2,0,0,0-2.07-.66c-.94,0-1.78.71-2.53,2.12s-1.51,2.14-2.26,2.21a4.65,4.65,0,0,1-2.35-1.41l.85-1.13a5.29,5.29,0,0,0,.19-1.69l-1-.75-1.78,2.72a4.18,4.18,0,0,0-.61,1.46,8.53,8.53,0,0,0-.15,1.74c1.88.37,2.82,1.41,2.82,3.1a2.75,2.75,0,0,1-.47,1.5l-1-1.78a3.23,3.23,0,0,0-1.79,2.16,7.53,7.53,0,0,1-1,2.44l.75.38,1.13-.47a2.62,2.62,0,0,1,1.41-.47,4.47,4.47,0,0,1,.56,2,8.54,8.54,0,0,1-1.78,4.18,12.85,12.85,0,0,0-2,3.71,3.19,3.19,0,0,0,.93,2.16c.51-.06.91-.71,1.23-2a2.29,2.29,0,0,1,1.59-2.07,4.29,4.29,0,0,1,.94,1.6l.38,2-.38,3-.37,3,.19,1.41H265c0,.94,0,1.75-.09,2.44a10,10,0,0,1-.47,2.16l-2,4.61a3.33,3.33,0,0,0,2.07-.1,3.34,3.34,0,0,1,2.07-.37,7.91,7.91,0,0,0-1,4,31.24,31.24,0,0,0,.84,5.54c.25,1,.47,2.07.66,3.2a16.61,16.61,0,0,1,.28,2.54c-.94-.19-1.82.31-2.63,1.5a6.73,6.73,0,0,1-1.5,2.07,1.52,1.52,0,0,0,.28,1.13l.75.65,2.82-1.22c.19.63-.06,1.76-.75,3.38l-.94,3.2a2.18,2.18,0,0,0,1.22,2.07l1.22-1.79.1,2.73.09,2a9.39,9.39,0,0,1-.66,4,8.68,8.68,0,0,1-1.41.57,6.14,6.14,0,0,1-1.6.18,14.58,14.58,0,0,1-4.84-1.41,14.52,14.52,0,0,0-5.12-1.41l-1.69.29-3.19-1.6a2.41,2.41,0,0,1-1.32-2,3.34,3.34,0,0,0,.14-.65,3,3,0,0,1,.33-.94,4.91,4.91,0,0,1-2.11-1.32,2.88,2.88,0,0,1-.62-1.88l.29-2.53a4.82,4.82,0,0,1,.84-2.26,7.64,7.64,0,0,0,.47-2.26,12.13,12.13,0,0,0-1.31-4.41q-.57-1.32-.9-2.31a9.2,9.2,0,0,1-.42-1.64,5,5,0,0,1,1.41-3.38,1,1,0,0,0-1-.85l-1.79.38c0-.88.78-2,2.35-3.39s2.38-2.38,2.44-3-.56-1.32-1.69-2.07a1.68,1.68,0,0,0-.84,1.6l.09,2.25a.72.72,0,0,1-.09-.28,17.44,17.44,0,0,0-1-1.93,6,6,0,0,1-.84-2.11c0-.69.47-1.32,1.41-1.88a10.08,10.08,0,0,1-.47-2.26,5,5,0,0,0,1-.47l.75-.84c-.06-.31-.77-.64-2.11-1s-2-.7-2-1.08.34-.87,1-1.5l1.41.66a3.07,3.07,0,0,0,1.69.09,4.86,4.86,0,0,1-.75-2.26l.56-3.1.66-2.91a3.43,3.43,0,0,0-.47-1.88,4.46,4.46,0,0,0-2.25-1.41l-.19-1.13a5,5,0,0,1,.84-2.44,14.66,14.66,0,0,1,2.17-2.26c-1.45-.56-2.51-2.16-3.2-4.79q-.66-3.66-2.25-5a2.82,2.82,0,0,0-1.37-1.13,6,6,0,0,0-1.92-.28L237,269l-1.41.09a13.65,13.65,0,0,1-2.54-2.82,7.62,7.62,0,0,0-3.38-2.82v-1l1.31.37c.69,0,1.13-.84,1.32-2.53a6.58,6.58,0,0,1,.94-3.29,1.86,1.86,0,0,0-.94-.38l-1.32-.09c0-.94.35-1.38,1-1.32a1,1,0,0,1,1.36.42c.34.54.64.83.89.9a2.75,2.75,0,0,1,1.22,2.25,5.87,5.87,0,0,1-1.12,2.63,6.3,6.3,0,0,0-1.13,2.35c0,.69.94,1.19,2.82,1.51,1.31-.57,2-1.38,2-2.45l-.66-2.44a9.14,9.14,0,0,1-.56-2.44,2.26,2.26,0,0,1,.33-1.37,9,9,0,0,1,1.74-1.36l-.47-1.5a6.14,6.14,0,0,1,1.78-.47l1.69.19,1.51.18c.94,0,1.53-.18,1.78-.56a6.4,6.4,0,0,0,.66-2.16h.75a1.59,1.59,0,0,0,.19,1.31l.85.76,1.59-.47,1.79-.29a15.17,15.17,0,0,1,4,.66l3.47.66a7,7,0,0,0,2.54-.56l1.88.37,1.69-.09,1.51.28a2.59,2.59,0,0,1,1.31.66l1.22-.1h1l4.23.28,4,.29a9.25,9.25,0,0,0,4.32-.94,4.16,4.16,0,0,0,2,1.59l2.73.38,2.54-.09a9.49,9.49,0,0,1,2,.18,2.26,2.26,0,0,1,1.26.76l1.23-.19c.94,0,1.86.89,2.77,2.68s1.86,2.83,2.86,3.15a5.7,5.7,0,0,0,.19,1.78,1.49,1.49,0,0,0,.85.75h.55a2.46,2.46,0,0,0-.55,1c-.19-.57-.79-.85-1.79-.85a1.62,1.62,0,0,0-1,.38C297.53,266,296.53,266.53,294.77,266.87Zm-48.21,37h-.75v1h.75Zm1-30.73h-1v2.35A2.44,2.44,0,0,0,247.6,273.12Zm1,49a1.43,1.43,0,0,0,1.17-.75,3.48,3.48,0,0,0,.62-1.6c-.07-.25-.57-.41-1.51-.47Zm.75,9.4-1.31-.75-.76,2.06a2.18,2.18,0,0,0,.76.76l.84-.85A2.47,2.47,0,0,0,249.38,331.48Zm1.51-7.61c-.69-.19-1.15-.07-1.37.37a2,2,0,0,0-.14,1.41h1a1.3,1.3,0,0,0,.47-.84Zm3.1-17.95h-.47l.47.75Zm2.35,23-.85-.47.85,1.22Zm0-41.25L256,287l-.47-.57v1.23Zm.47-27.07a1.59,1.59,0,0,0-1-.56l.57,1.5a1.35,1.35,0,0,0,.33-.47A4.31,4.31,0,0,1,256.81,260.62Zm-35.4,74a15,15,0,0,1,.76,3.1,3,3,0,0,1-.33,1.46,3.37,3.37,0,0,1-1.18,1.17v1.51a5.29,5.29,0,0,1-1.27-.19,18.62,18.62,0,0,1-2.35-.94,11.11,11.11,0,0,0-3-.94,5.92,5.92,0,0,0-2.16.56l-.84-1.31a.86.86,0,0,0-1.13-.29,1,1,0,0,0-1.36.15,3.63,3.63,0,0,0-.9,1.45,3.93,3.93,0,0,0-1-2.25,5,5,0,0,1-.85-2,2.26,2.26,0,0,1,.57-1.22l-3-2.91a.86.86,0,0,1,.28-.1,3.88,3.88,0,0,1,1.22-.28c.94,0,1.41-.32,1.41-1L206,329.5l.38-.18-.85.18a1.67,1.67,0,0,1-1.41-.84l-.75-2.54v-1.6h.38l.09-1.5a19.12,19.12,0,0,0-.87-4.62l-1-3.68a6.75,6.75,0,0,1-1.35-1.79,6.9,6.9,0,0,1-.29-2.17l.23-2.54.34-2.08a4.79,4.79,0,0,0-.21-1.6,3,3,0,0,0-.92-1.7l.56-1.88-.56-2.26v-1.61a2.72,2.72,0,0,1,1.6-2.54v-1.13l-.75-.38a1.55,1.55,0,0,0-1.13.47l-.57.57a14.34,14.34,0,0,1,.85-3.93l.56-3.92a5.38,5.38,0,0,0-.56-2.62l.56-2.05a4.64,4.64,0,0,1,1.66-3.08l1.28,2a2.18,2.18,0,0,0,1.2-.94l.84-1.69c-.18-.56-.75-.85-1.69-.85s-1.53-.15-1.78-.47l.89-1.78a3.7,3.7,0,0,1,1.08-1.32l-.78-.47-1.07.66a2.17,2.17,0,0,1-1.06.66l.47-3.2a9.32,9.32,0,0,1,1.32-3.1l2.46.47a2.81,2.81,0,0,1,2.65,2,12.53,12.53,0,0,1,4.72.85,6,6,0,0,1,3,2.44q.46.94.75,1.65a18.8,18.8,0,0,1,.62,1.88,12.14,12.14,0,0,1,.38,1.69c0,.34,0,.74,0,1.17a34.83,34.83,0,0,1-.61,5.46l-.61,5.16.09,1.51a1.75,1.75,0,0,1,1.13,1.78v2.16c-1.25,0-1.88.57-1.88,1.7l.29,1.88v2.34a11.69,11.69,0,0,1,1,1.18,3,3,0,0,1,.6,1.83,7.68,7.68,0,0,1-1.35,3.38,11.08,11.08,0,0,0-1.56,3.48,2.72,2.72,0,0,0,.66,1.69c.43,0,.75-.31.94-.94a.83.83,0,0,1,1-.84,5,5,0,0,1,.56,2.07l.19,2.81.1,3.86a5.13,5.13,0,0,0,1.12,2.44,4.15,4.15,0,0,0-.84,2.54,9.8,9.8,0,0,0,1.13,3.66c.18.32.5.88.94,1.69a7.17,7.17,0,0,0,.37.66,4.09,4.09,0,0,0,.1,1C220.82,332.86,221,333.52,221.41,334.58ZM215.12,295h.47l-.1-1c-.12-.31-.25-.47-.37-.47ZM204.5,285a4,4,0,0,0-.33-1.78,2.27,2.27,0,0,0-1.27-1,2.56,2.56,0,0,0-1.32,1.41l.19.52a3.94,3.94,0,0,0,.61.84,3.4,3.4,0,0,1,.71,1.37c0,.56-.41,1.16-1.22,1.78a1.12,1.12,0,0,0,.84.28,1.48,1.48,0,0,0,1.32-.75A13.63,13.63,0,0,0,204.5,285Zm9.11,10.53h-.47v3.1h.47Zm236.14-67a1.63,1.63,0,0,0,.66,1.13,3.51,3.51,0,0,0,.65-1.7,5.37,5.37,0,0,0,.19-1.78l-.19-1.6-.65-2.44-1,1.69a1.83,1.83,0,0,1,.94,1.69l-.28,1.6ZM211.38,247.84a10.18,10.18,0,0,1-3.45.38,6.58,6.58,0,0,0-3.06.75q2.06,1.5,4,6.86,2.24,5.26,5.77,5.82l.84.85a.89.89,0,0,1,.1,1h1.13l-.1-.94a1.89,1.89,0,0,0-.38-.94,3.25,3.25,0,0,0,.57-1.87A8.34,8.34,0,0,0,216,257a8.58,8.58,0,0,1-.84-3l.66-1.69-1.53-.57a1.1,1.1,0,0,1-.48-1.41Zm191.26-63v-.47q0,.57.66.57l1-.1-.38-1.22a1,1,0,0,1,.75-.47l1.6.1a2,2,0,0,0,1.6-.66,5,5,0,0,1,.65,1.78,8.09,8.09,0,0,1-.18,2,1.83,1.83,0,0,0-1.23.28l.29.47c0,.37-.44.81-1.32,1.31a9.64,9.64,0,0,1-2.63.66,3.43,3.43,0,0,1-1.88-.47c.06-.62-.41-1.22-1.41-1.78a10.6,10.6,0,0,1-2.16-1.51l2.44-.75.66-.18v.46Zm-.47,2-.56.28h1.22A1.56,1.56,0,0,0,402.17,186.85Zm50,23a3,3,0,0,0-.56,1,1.52,1.52,0,0,0,.89,1.32,3.27,3.27,0,0,0,1.74.28,2.79,2.79,0,0,0,.94-2.16,1.62,1.62,0,0,0-1.51-.85A2.8,2.8,0,0,0,452.19,209.87Zm25.84-10a2.7,2.7,0,0,0,2.54-1.69l.34-.93a2.82,2.82,0,0,1-.43.55Zm3.2-3.52-.32.9A2.48,2.48,0,0,0,481.23,196.39Zm.47-1.27h-.47a3.38,3.38,0,0,1,0,1.27Zm-38.81-9.4h.47v-.94h-.47ZM236.44,200.47l.28-1.88a4.22,4.22,0,0,0-.38-1.88c1.32,0,2-.31,2.07-.94l-.28-1.41-.19-1.22a2.31,2.31,0,0,1,.57-1.31l2.16-3.57a6.13,6.13,0,0,0,.75,2.11,3.38,3.38,0,0,0,1.88,1.46,11.54,11.54,0,0,1,1.64-5,11.52,11.52,0,0,0,1.65-5l1.5-1.41a4.2,4.2,0,0,1,1.79-.76l.94.1-.28-1.79c0-1.12.81-2,2.44-2.53l-.1,1.12a.83.83,0,0,0,.57.75c.69.26,1.13.13,1.31-.37l.29-1.5a3.81,3.81,0,0,0,1.69.56,3.38,3.38,0,0,0,2.07-1.22l1.69-1.41a1.57,1.57,0,0,1-.57-1c.38-.43.69-.78.94-1a2.19,2.19,0,0,0,.94-1.22,1.59,1.59,0,0,0-.37-1c.62,0,1-.44,1.22-1.32s.37-1.32.94-1.5a2.06,2.06,0,0,1,.28.84l.19,1.32a1.81,1.81,0,0,0-1.51,2.06q1.89.48,3.57-2.25a12.76,12.76,0,0,1,2.64-3.38l.56,2c.19.56.5.85.94.85l.94-.29V169a1.7,1.7,0,0,0,.85,1.5h1l.19-4.69a3.11,3.11,0,0,0,1.41.47q0,5.07,3.76,7.14a8.36,8.36,0,0,0,.47-2.26,7,7,0,0,0-1.32-4.41l2.54-4.7,1.78.84,1.69.38a3,3,0,0,0,1.7-.57,29.59,29.59,0,0,0,.18,4.33,2.94,2.94,0,0,0,1.51,2.07,4.8,4.8,0,0,0,.8-.05.73.73,0,0,0,.33-.14,2.19,2.19,0,0,0-.76-1.88l-.94-1.41.57-.94c.31.19.75,0,1.31-.57l.85-.84v-.57l.75.1c.5,0,.78.16.85.47v.84a.77.77,0,0,0-1,.19.86.86,0,0,0-.14,1l-.1,1a.58.58,0,0,0,.48.66c.56.19.93-.06,1.12-.75l.57-1.41h1.22a6.14,6.14,0,0,0-.47,1.78q0,1.5,2.82,2.82c1.88.75,2.82,1.57,2.82,2.44a5.6,5.6,0,0,1-.94,2.45l1.41.09a2.57,2.57,0,0,0,2.35-1l-.38,2.63-.38,2.16a4.5,4.5,0,0,0,.57,2,3,3,0,0,0-1,2.45l.1,2.82a2.88,2.88,0,0,0,2.07.94,3.52,3.52,0,0,0,1.69-.47l-.1,1.12.29,2.45.37,3.19L304,194a7.47,7.47,0,0,0-2.82-.57,3.36,3.36,0,0,0-2.63,1,.76.76,0,0,0,.18.61.7.7,0,0,0,.57.05q.84,0,2.16,1.59a3.2,3.2,0,0,0,2.54,1.51v-1.51h2.53l.19,1.13a4.33,4.33,0,0,1-.61,1.83,4.41,4.41,0,0,0-.61,1.74,2.3,2.3,0,0,0,.19,1l-.75.47L303.44,201a1.73,1.73,0,0,0-1.59-.76,1.82,1.82,0,0,0-.94,1.41l.18,1.32.29.94q0,.75-1.23,1.32a2.33,2.33,0,0,0,1.23,1.22l2.16.19.47-.47-1,5.92a7.2,7.2,0,0,1-2.25,4.22l-.38,1.41-.19,1.7-.56-1.7a3.59,3.59,0,0,0-1-2.06,2.88,2.88,0,0,1-.94,2.06l-2.07,1.7-1,4.69c-.44.07-1.07-.34-1.88-1.22-.63-.94-1.16-1.44-1.6-1.5s-.91.44-1.41,1.32a3.64,3.64,0,0,1,1.69,1.69l.94,1.88a5.15,5.15,0,0,1-.66,2.16l-.84,2.06a4.65,4.65,0,0,1-.38-1.5c0-1.25-.41-1.91-1.22-2a11.76,11.76,0,0,0-1.69,2.72,3.67,3.67,0,0,1-2.63,2.45,1.76,1.76,0,0,0-.76-1.23l-.84-.84-1.69,1.88a4.14,4.14,0,0,0-.85,2.72,4.36,4.36,0,0,0,.38,1.79,2,2,0,0,0-2-1.41,4.31,4.31,0,0,0-2.16.75l-2.25,1.32a1.71,1.71,0,0,0-.38-1.88l-3.1-1.41L270,236c-.19-.69-.94-1.16-2.26-1.41a6.46,6.46,0,0,1-2.53-1.13,4.54,4.54,0,0,1-1.7,1.13l-1.12.18a8.37,8.37,0,0,1-3.15-1.12,8.61,8.61,0,0,0-3.81-1.13,4.21,4.21,0,0,0-1.5.19,7,7,0,0,0-3.67-2.78,6.7,6.7,0,0,1-3.66-2.86,2.2,2.2,0,0,1-2.16-.75,5.46,5.46,0,0,1-1.13-2.17l.09-.56v-.47c0-.75-.61-1.42-1.83-2a4,4,0,0,1-2.3-2.58,23.68,23.68,0,0,1-1.51-6l-.65-6.76a4.4,4.4,0,0,1-.85-2.73Zm19.08,29.14-.85-.47.38,1.4A1.63,1.63,0,0,0,255.52,229.61Zm.47-4.7a1.53,1.53,0,0,0-1.18.33,1.26,1.26,0,0,0-.61,1.08,3.29,3.29,0,0,0,.47.75l.85-.85A1.33,1.33,0,0,0,256,224.91Zm34.77-14.38H290V211h.75Zm4.79.47-.28-.75a.71.71,0,0,0-.75-.29,2,2,0,0,0-.29,1c0,.88.25,1.41.76,1.6a1,1,0,0,0,.47-.76Zm2.07-22.27c.75,1.12,1.59,1.59,2.53,1.41v-.47l-1-.57A1.64,1.64,0,0,0,297.62,188.73Zm-1.22,25.09,1.87-.47c.51-.06.85-.47,1-1.22l-1.22-.76Zm-2.07-10.72v.47h1.22v-.47Zm-.47-31.85.47,1.41v-1.41Zm-13.72-4.51.94-.94a1.59,1.59,0,0,0-.94-.47Zm-25.47,25.84h.85v-2.44ZM253,189.2c.19-.13.34-.5.47-1.13H253Zm0,20.2.28,4,.85,3.95,2.16-1,1,1.41a2.91,2.91,0,0,1,.28,1.32,1.76,1.76,0,0,1-.37,1.13h-.47v2.07a2.25,2.25,0,0,0,.47,1.5c.75.06,1.23-.34,1.45-1.22a1.25,1.25,0,0,1,1.65-1l1.41,3.1a5.39,5.39,0,0,1,.19,2.45l1.69-3.86a4,4,0,0,1,1.6,3.11h1.12a4,4,0,0,0,1.18-.14,4,4,0,0,0,1.27-1.27,2.76,2.76,0,0,1,2.16.33,4.49,4.49,0,0,1,1.69,1.83,7.3,7.3,0,0,0,4.7-1.88c.5-.57,1-1.13,1.6-1.69a26.59,26.59,0,0,1,2.16-2l.66.76-.66,1.5a3.36,3.36,0,0,0,.47.66l.56-1.13.19-1.41-.1-1.79.29-1.59a2.91,2.91,0,0,1,1.41-1.13l.47.37,2.63-2.53a32.2,32.2,0,0,1,.37-4.89q.38-2.44,1.41-7t1.51-7.38a29.55,29.55,0,0,0,.47-4.6l3.1-3.1a2.54,2.54,0,0,0-2.07-1,3.37,3.37,0,0,1-1.5-.19l.28-.56.66-.56a32.76,32.76,0,0,0-3.76-11.56l-.94-.28a2.29,2.29,0,0,0-1.41.84,2.32,2.32,0,0,1-1.41.85,2.21,2.21,0,0,1-1.22-.43,1.48,1.48,0,0,1-.75-1L280,174a1.63,1.63,0,0,0-1.83,1.46c-.16,1-.27,1.68-.33,2.11a3.57,3.57,0,0,1-.28,1,3.57,3.57,0,0,1-.94-2.07l-.28-2.16a1.51,1.51,0,0,0-.85-.19,1.73,1.73,0,0,0-1.22.56L273.09,176l.66.38-2.16,2.16,1.22,1,1.41.56a1.54,1.54,0,0,1,.37.57.94.94,0,0,0,.19.37c0,.32-.28.66-.84,1l-1.32.19q-1.12-1.41-2.07-1.41c-.5,0-1.27.83-2.3,2.49s-2.18,2.49-3.43,2.49a33,33,0,0,1-4.14,3.94q-3.85,3.39-4.41,5.74l.09,1.22a16.48,16.48,0,0,1-.84,4c-.07.31-.21,1-.43,2a12.9,12.9,0,0,0-.33,1.88l.29,2-1.6-1.41-.38,2.34Zm-2.63-13.81.47.94v-.94Zm-5.92-1.13.47,1.6.37,2.06a3.79,3.79,0,0,1-.37,1.7l.56,2a2.3,2.3,0,0,0,1.13,1.31l-.28-1.5.37-2.07.38-2.25c-.69,0-1.21-.47-1.55-1.41S244.8,194.46,244.43,194.46Zm-3.76,6.67.19.75.47.57c.75-.57,1.06-1,.94-1.41l-1.13-.76A1.48,1.48,0,0,0,240.67,201.13Zm216.22,18.8a3.36,3.36,0,0,0,.47-.94h-.94Zm-45-9.21,1,.09-.94-2.26-.75,1.79C411.26,210.59,411.48,210.72,411.85,210.72ZM76.31,285.43a4,4,0,0,0,.37,1.6,6.27,6.27,0,0,0,.85,1.41,1.55,1.55,0,0,0,.47-1.13l-.75-1.6a2.57,2.57,0,0,1-.47-1.88A3.65,3.65,0,0,0,76.31,285.43ZM35.88,243a2.62,2.62,0,0,0-1.23,2.26,1,1,0,0,0,.29.75,2.63,2.63,0,0,0,.65-1.32ZM229,208.84a2.6,2.6,0,0,0-.47,1.31l.19,1.69.18,1.23a2.36,2.36,0,0,1-.47,1.59,2.25,2.25,0,0,1-.37-1v-1.69c-.19-.25-.6-.35-1.22-.28,0,1.12-.76,2.61-2.26,4.46s-2.16,3.3-2,4.37a2.48,2.48,0,0,0-2,1.46,7.55,7.55,0,0,1-1.65,2v1.31a7,7,0,0,1-.14,1.46,3.3,3.3,0,0,1-1.27,1.64l-2.72-.47a6.11,6.11,0,0,1-3.1-1.12l-.38,2.25.09,2.44a3.79,3.79,0,0,1-1.78,3.67c-.44.19-.75,0-.94-.66s-.28-1-.66-1l-1.6-2.07c-.87.25-1.5,1.47-1.88,3.67-.18,2.06-.59,3.13-1.22,3.19l-1.13-.28a4.22,4.22,0,0,1-1.41-1.22,4.62,4.62,0,0,1-1.12,2.06,4.81,4.81,0,0,1-1.6.47l-1.88-.37-1.88-.47a2.18,2.18,0,0,0-1.36.47,4.53,4.53,0,0,0-1.18,2,4.38,4.38,0,0,0-1.59-.94l-1.88-.28-2.92.19a6.57,6.57,0,0,1-1.55-.14,3.92,3.92,0,0,1-1.36-.9q-1.87.28-2.07,1.41a6,6,0,0,0,.19.85,11.61,11.61,0,0,0,.56,1.22,5.92,5.92,0,0,1,.85,2.26,2.07,2.07,0,0,1-.66,1.5,1,1,0,0,0-.28-1.22l-1.13-.94c-.25-.13-.62,0-1.13.28l-.94.66v1.69l-1-1.22c-.13-.19-.47-.25-1-.19l-1.69,2.54a2.89,2.89,0,0,1-.29-1.69v-1.13a5.87,5.87,0,0,0-.18-1.79,1.84,1.84,0,0,0-.66-1.22,4.55,4.55,0,0,1-3.57,1.79l-1-.1-3-2.63a1.48,1.48,0,0,0-.47.85v1l-1.23-.94-.56.66-.38.56-.65-.75c1.19-.5,1.78-1.06,1.78-1.69a5.38,5.38,0,0,0-1.08-2,4.86,4.86,0,0,1-1.08-2.3,1.75,1.75,0,0,1,.38-1.13,3.28,3.28,0,0,1-.57-1.88l.29-2.73a4,4,0,0,0-.66-2.16l.94-.84,1.12-.75.94.94c.51-.32.76-1,.76-2.17a2.87,2.87,0,0,0-2.73-1.69,2.06,2.06,0,0,0-1.5.85,2.94,2.94,0,0,0,.56-1.79,2.67,2.67,0,0,0-.75-2,1.59,1.59,0,0,0,.85-1.5,6,6,0,0,0-.47-2l-.47-2.16a2.43,2.43,0,0,1,.75-1.78L160.8,212a4.87,4.87,0,0,1,.85-2v-1.32a11.06,11.06,0,0,1,.47-3.71c.31-.85,1.16-1.27,2.53-1.27a1.21,1.21,0,0,0-.47-1.13h-1.41l.47-3,.19-2.35a7.75,7.75,0,0,0-.84-3.48,2.32,2.32,0,0,0,.28-.85l-.57-2.81c0-.57.47-.91,1.41-1l.94.1,1.51-2.73a5.24,5.24,0,0,0,.56-2.35,4.67,4.67,0,0,0-.47-1.88c-.63,0-1.05-.52-1.27-1.55a2.43,2.43,0,0,0-1.27-1.93,20.72,20.72,0,0,0,1.74-4.22,8.29,8.29,0,0,1,2.49-4.14l-.94-.75a3.92,3.92,0,0,1-1.92,1.5,11.81,11.81,0,0,0-2.31,1.32,3.4,3.4,0,0,1-2.44-3.2l-.28-3.1h1.5a1.17,1.17,0,0,0,1.22-.66l-3-1.5a8.2,8.2,0,0,1-1.79-1.5l1.6-2.07.94,1.41a1.76,1.76,0,0,0,1.6,1.13,12,12,0,0,1,1.64-3.25,10.34,10.34,0,0,0,1.65-4l1.12,1,1.41.29,2.35-.57a8.33,8.33,0,0,1,2.54-.56l1.32.28a6.44,6.44,0,0,0,1.88-.8,6.49,6.49,0,0,1,2.34-.8l2.07,2.82a2.6,2.6,0,0,0,1.22-2.54l-.09-1.22a9,9,0,0,0,3.19,1.6c1.63.38,2.67,1,3.11,1.88l1.22.19,2.07-.38,2.25-.37a2.49,2.49,0,0,1,2.54,2.16l1,.19,1.6-.19,1.13-.28a3.54,3.54,0,0,1,.84.18l.75.85v1.6a1.17,1.17,0,0,0,.47.94H203a2.77,2.77,0,0,0-.19.84,1.64,1.64,0,0,0,.37,1l1.88,1.59,2.07-1.41-.37-1.12-.1-.94c.44-.06,1.07.25,1.88.94l-.19.94a2.16,2.16,0,0,0,.43,1.27,6.19,6.19,0,0,0,1.83,1.45,4.59,4.59,0,0,1,1.41-.47,3.78,3.78,0,0,1,2.44,1.51l2.63,2.72-.28,1.32a1.51,1.51,0,0,0,2.54,1.59l.94-.65.75.28v1.13l-.94.47c0,.56.31.87.94.94s1,.15,1.22.47a5.8,5.8,0,0,0,.24,2.11,9,9,0,0,0,1.92,3.05q2.45,2.73,2.63,3.95a4,4,0,0,1-1.78,2.91l-.47,1.79-.19,2a5.68,5.68,0,0,0,.42,2.45,4.79,4.79,0,0,0,1.84,1.69h.47l.37-1.13-.19-1V192.2h.94l-.47,2.63a7.93,7.93,0,0,0,1.7,4.33c.37-.19.68,0,.93.56l.38.85c0,.31-.06.5-.19.56l-.75.56,1.88.76a2.12,2.12,0,0,1,.75,1.31l-1.22-.47a4.74,4.74,0,0,1-.85,2.16,3.47,3.47,0,0,0-.84,1.7l.28.84Zm-66-39.94-.94-.57-.94,1.32a5.5,5.5,0,0,0,1.5.75,1.49,1.49,0,0,0,.56-.47A.82.82,0,0,0,163.06,168.9Zm2.82-5.27a.71.71,0,0,1-.94-.18v1.12h.94Zm-1.23,69h-.47v1.32h.47Zm45-64.28h.94v-1.22l-.75.38A3,3,0,0,0,209.67,168.33Zm-2.54-1.22.47,1.22c.19-.12.34-.53.47-1.22Zm-4.89,1.6.29,1.22,1.78-1.22Zm-18-12,.47.75.19-.56.19-.19ZM170,159.22l.47-.47-.47-.47Zm-.47,5.35a1.44,1.44,0,0,0,.47.47l.75-1.5c.13-.31,0-.5-.28-.56l-.75,1Zm-3.66,45.49.37-3.76h-.84c-1.51.38-2.07,1.25-1.7,2.63C164,209.87,164.69,210.25,165.88,210.06Zm0,5.07,3,.47v-.94a2.05,2.05,0,0,0-1.78-1.22C166,213.44,165.56,214,165.88,215.13Zm2.53,6.77-.84-2a3.9,3.9,0,0,0-.85-2l-.37,1.69A2.15,2.15,0,0,0,168.41,221.9Zm2.31,11.32a3.73,3.73,0,0,0-1.65-.89l-.19,2.07h2.26A1.17,1.17,0,0,0,170.72,233.22Zm4.51-12.73a2.81,2.81,0,0,1,.61-.8,1.55,1.55,0,0,0,.47-1.27,1.59,1.59,0,0,0-1.41.1l-1.6,1.5a2.07,2.07,0,0,0,1.79.94C175.15,220.77,175.19,220.62,175.23,220.49Zm-1.08-21.61a1,1,0,0,0,.94.28v-2.07C174.52,197.34,174.21,197.94,174.15,198.88Zm.94-3.86V193.8a1.16,1.16,0,0,0-.47-.94V195Zm.75-8.36v-.75h-.75Zm1.59,41.72.94-.75a1.41,1.41,0,0,0,.47-.84l-1.31-.66-.94-.28-.75.18-.47,1.23c.12.94.5,1.41,1.13,1.41A2.2,2.2,0,0,0,177.43,228.38Zm.19-16.16-.28,1.79-.28,1.78a2.37,2.37,0,0,0,1.31,2.16,4.38,4.38,0,0,1,.47-2.63l.76-2.35c0-.94-.72-1.6-2.17-2ZM178.84,188l-.94-1.59-.47,1.59Zm0,17.48.66,1.13c.13.25.44.32.94.19v-2.54a1.86,1.86,0,0,0-1.31.1C178.75,204.51,178.66,204.89,178.84,205.45Zm-.94,29.23v.94h.94v-.94Zm1.7,6.77c-.07-.25-.11-.46-.14-.61a10,10,0,0,0-.66-1.37,3.45,3.45,0,0,1-.43-2.25,2.09,2.09,0,0,0-.84,1.88l.28,1.59.28,1.6a1,1,0,0,1-.19.75C179,242.67,179.6,242.14,179.6,241.45Zm17.1-7.52c0-.31-.25-.47-.75-.47v2.63h.75Zm5.54-.57a3,3,0,0,0-.47-.75,1.25,1.25,0,0,0-.94,1.32,1.66,1.66,0,0,0,.47,1.22l.94-.75Zm7.9-1.5-.66-.66a1,1,0,0,0-.75-.28l.94,1.41Zm.75-30.64L213,200.1c-1.44-1.07-2.45-3-3-5.83a25.14,25.14,0,0,0-.28-3.76c-.19-1.25-.35-2.25-.47-3a4.14,4.14,0,0,0-1.36-3.14c-1-1.16-1.55-2-1.55-2.59a3.16,3.16,0,0,1,.37-1.41c0-.69-.48-1.17-1.46-1.45s-1.55-.58-1.73-.9c0-1.25-1-3-3.11-5.35a24.31,24.31,0,0,1-3.19-3.95,36.68,36.68,0,0,0-5.54-2.63l-6.58-2.63a4.11,4.11,0,0,0-2-.57,10.46,10.46,0,0,0-2.91.66l-2.54.56a2.84,2.84,0,0,1-2.53-1.59,5.59,5.59,0,0,1-1.13,2.82,9.61,9.61,0,0,0-1.41,3c.19.32.5.38.94.19a1,1,0,0,1,1.13-.19.81.81,0,0,1,.56.85,11.73,11.73,0,0,1-.56,1.64,1.29,1.29,0,0,0,0,1.18c-.44,0-.74-.39-.9-1.18s-.55-1.17-1.17-1.17c-.94.19-1.41.63-1.41,1.31v2.45a2.75,2.75,0,0,0,2.16-.94,1.77,1.77,0,0,0,.94.84l1.13.57,1.5-3,.47-1.69-.19-.85h1.32a1,1,0,0,1,.84.38v1.22a2.32,2.32,0,0,1-.28,1.22,1.6,1.6,0,0,1-.66.66c.25.06.79-.25,1.6-.94l.94.94c.19.56,0,.94-.66,1.13s-.94.37-.94.94l1.6,1.6-.37,3.75.09,3.76.94,5.74-1.13,1.41a1.36,1.36,0,0,1-1.13.47q-.27.55.66,1.59l.47-.47c.25-.06.78.25,1.6.94l.09,1.88-.18,1.6c0,.5-.35,1-1,1.41l-2.07-1.22c.57.56,1,1.8,1.18,3.71a5.85,5.85,0,0,0,2,4.18,2.85,2.85,0,0,1,.66,1.6,6.45,6.45,0,0,1-1,2.44,4.61,4.61,0,0,0-.75,3.2l.19,1.5-.28,2.73-.19,2.16.28,2.16a3,3,0,0,1-1.13.94l-.94.47a3.32,3.32,0,0,1,1.6,1.5,8.44,8.44,0,0,1,.47,2.16l-.09,2.45a4.45,4.45,0,0,0,.56,2.44,2.53,2.53,0,0,0,1.13.66l1.13-.28,1-.57,1.22.1a15.39,15.39,0,0,0,4.75-1,15,15,0,0,1,4.56-1,7.7,7.7,0,0,1,2.44.38l5.73-3.95a12.23,12.23,0,0,0,4.23-5.36l.75.75a3.07,3.07,0,0,0,.85.19,6.53,6.53,0,0,1,.94-3.57,10.57,10.57,0,0,0,1.22-3.38,2.87,2.87,0,0,0-1.69-2.35l1.6-1.6a2.63,2.63,0,0,0,.84-2.07,10.49,10.49,0,0,0-.66-2.82Zm1.79-7.89-.94,2.07h.47l.47-.94C213.05,193.89,213.05,193.52,212.68,193.33Zm.84-21.52-.09-.94c-.57-.19-.94-.09-1.13.28a1.84,1.84,0,0,0-.09,1.32H213C213.33,172.47,213.52,172.25,213.52,171.81ZM219.16,221l-.66,1.6H219Zm3.48-36.65a1.58,1.58,0,0,0-.57-.38,2.51,2.51,0,0,0-.75-.09c0,1,.31,1.54.94,1.6q.09-.19.24-.57A1.86,1.86,0,0,0,222.64,184.31Zm1.22,24.34-.94-.94-.28.28.75.94Zm4.6-5.55-.65-1.88a1.46,1.46,0,0,0-.85-.75l-1,.57v1.78a3,3,0,0,0,.94,2.35,1.63,1.63,0,0,0,1.41-.66A1.43,1.43,0,0,0,228.46,203.1Zm15,89.75h-2.25v2.26H242C243.15,294.92,243.65,294.17,243.46,292.85Zm-1-13.34-.47,1a1,1,0,0,0,.47.76,1.69,1.69,0,0,0,1-.47l-.47-1a1.57,1.57,0,0,1,0-1.31ZM80.54,300.94l-1.23-.47a4.82,4.82,0,0,1-.84,2.16,3.45,3.45,0,0,0-.85,1.69l.29.85-1,.84a2.8,2.8,0,0,0-.47,1.32l.19,1.69.19,1.22a2.46,2.46,0,0,1-.47,1.6,2.33,2.33,0,0,1-.38-1v-1.69c-.19-.25-.59-.34-1.22-.28q0,1.69-2.26,4.46t-2,4.37a2.5,2.5,0,0,0-2,1.46,7.39,7.39,0,0,1-1.64,2v1.32a7.67,7.67,0,0,1-.14,1.45,3.42,3.42,0,0,1-1.27,1.65l-2.73-.47a6.24,6.24,0,0,1-3.1-1.13l-.38,2.26.1,2.44a5.55,5.55,0,0,1-.28,1.93,5.11,5.11,0,0,1-1.51,1.73c-.44.19-.75,0-.94-.65s-.28-1-.65-1l-1.6-2.06c-.88.25-1.51,1.47-1.88,3.66-.19,2.07-.6,3.13-1.22,3.2l-1.13-.29a3.84,3.84,0,0,1-1.41-1.22A4.67,4.67,0,0,1,47.55,336a4.89,4.89,0,0,1-1.6.47l-1.88-.38-1.88-.47a2.2,2.2,0,0,0-1.36.47,4.55,4.55,0,0,0-1.17,2,4.29,4.29,0,0,0-1.6-.94l-1.88-.28-2.91.18a6,6,0,0,1-1.55-.14,3.88,3.88,0,0,1-1.37-.89c-1.25.19-1.94.66-2.06,1.41a6.6,6.6,0,0,0,.18.85c.07.18.25.59.57,1.22a5.94,5.94,0,0,1,.84,2.25,2.1,2.1,0,0,1-.65,1.51,1.06,1.06,0,0,0-.29-1.23l-1.12-.94c-.25-.12-.63,0-1.13.29l-.94.65v1.7l-1-1.23c-.13-.18-.47-.25-1-.18L22,344.82c-.19-.18-.28-.75-.28-1.69V342a5.7,5.7,0,0,0-.19-1.78,1.82,1.82,0,0,0-.66-1.22,4.52,4.52,0,0,1-3.57,1.78l-1-.09-3-2.63a1.5,1.5,0,0,0-.47.84v1L11.56,339l-.57.65-.37.57-.66-.75c1.19-.5,1.79-1.07,1.79-1.7a5.46,5.46,0,0,0-1.08-2,4.86,4.86,0,0,1-1.08-2.3,1.76,1.76,0,0,1,.37-1.13,3.35,3.35,0,0,1-.56-1.88l.28-2.72A4,4,0,0,0,9,325.56l.94-.85,1.13-.75.94.94q.75-.47.75-2.16a2.83,2.83,0,0,0-2.72-1.69,2.08,2.08,0,0,0-1.51.84,2.85,2.85,0,0,0,.57-1.78,2.7,2.7,0,0,0-.76-2,1.58,1.58,0,0,0,.85-1.5,5.89,5.89,0,0,0-.47-2l-.47-2.16A2.45,2.45,0,0,1,9,310.71l-.37-1.5a4.92,4.92,0,0,1,.84-2v-1.31a11.28,11.28,0,0,1,.47-3.71c.31-.85,1.16-1.27,2.54-1.27a1.22,1.22,0,0,0-.47-1.13H10.62l.47-3,.19-2.35a7.69,7.69,0,0,0-.85-3.47,2.14,2.14,0,0,0,.28-.85l-.56-2.82c0-.56.47-.91,1.41-1l.94.09,1.5-2.73a5.11,5.11,0,0,0,.57-2.34,4.63,4.63,0,0,0-.47-1.88c-.63,0-1-.52-1.27-1.55a2.42,2.42,0,0,0-1.27-1.93,21.83,21.83,0,0,0,1.74-4.23,8.23,8.23,0,0,1,2.49-4.13l-.94-.76a4,4,0,0,1-1.93,1.51,11.94,11.94,0,0,0-2.3,1.31,3.37,3.37,0,0,1-2.44-3.19l-.29-3.1H9.4a1.19,1.19,0,0,0,1.22-.66l-3-1.5a7.73,7.73,0,0,1-1.78-1.51l1.59-2.07L8.36,259a1.74,1.74,0,0,0,1.6,1.13,12.49,12.49,0,0,1,1.65-3.24,10.47,10.47,0,0,0,1.64-4l1.13,1,1.41.28,2.35-.56a8.06,8.06,0,0,1,2.53-.57l1.32.29a7,7,0,0,0,1.88-.8,6.18,6.18,0,0,1,2.35-.8l2.07,2.82a2.63,2.63,0,0,0,1.22-2.54l-.1-1.22a9.27,9.27,0,0,0,3.2,1.6c1.63.37,2.66,1,3.1,1.87l1.22.19,2.07-.37,2.26-.38a2.48,2.48,0,0,1,2.53,2.16l1,.19,1.59-.19,1.13-.28a3.5,3.5,0,0,1,.85.19l.75.84v1.6a1.13,1.13,0,0,0,.47.94h1.22a2.88,2.88,0,0,0-.19.85,1.62,1.62,0,0,0,.38,1l1.88,1.6L55,261.28l-.38-1.13-.09-.94c.43-.06,1.06.25,1.88.94l-.19.94a2.22,2.22,0,0,0,.42,1.27,6.19,6.19,0,0,0,1.83,1.46,4.52,4.52,0,0,1,1.41-.47,3.81,3.81,0,0,1,2.45,1.5l2.63,2.73-.29,1.31a2.68,2.68,0,0,0,1.23,2.16,2.74,2.74,0,0,0,1.31-.56l.94-.66.75.28v1.13l-.94.47c0,.56.32.88.94.94a1.34,1.34,0,0,1,1.23.47,5.55,5.55,0,0,0,.23,2.11,9,9,0,0,0,1.93,3.06c1.63,1.82,2.5,3.13,2.63,3.95a4.07,4.07,0,0,1-1.79,2.91l-.47,1.78-.19,2a5.61,5.61,0,0,0,.43,2.44A4.61,4.61,0,0,0,74.71,293h.47l.38-1.13-.19-1v-1.5h.94L75.84,292a7.9,7.9,0,0,0,1.69,4.32c.38-.19.69,0,.94.57l.38.84c0,.32-.07.5-.19.57l-.75.56,1.87.75A2.14,2.14,0,0,1,80.54,300.94ZM10.9,266.07l-.94-.56L9,266.82a5.75,5.75,0,0,0,1.51.76,1.59,1.59,0,0,0,.56-.47A.84.84,0,0,0,10.9,266.07Zm2.82-5.26a.7.7,0,0,1-.94-.19v1.13h.94Zm-1.22,69H12v1.31h.47Zm45-64.28h.94v-1.22l-.75.37A3.5,3.5,0,0,0,57.51,265.51ZM55,264.29l.47,1.22a2.16,2.16,0,0,0,.47-1.22Zm-4.89,1.59.28,1.23,1.79-1.23Zm-18-12,.47.75.18-.57.19-.18Zm-14.19,2.53.47-.47-.47-.47Zm-.47,5.36a1.45,1.45,0,0,0,.47.47l.75-1.5c.12-.32,0-.51-.28-.57l-.76,1Zm-3.67,45.48.38-3.76h-.85c-1.5.38-2.07,1.26-1.69,2.64C11.81,307.05,12.53,307.42,13.72,307.23Zm0,5.08,3,.47v-.94a2.07,2.07,0,0,0-1.79-1.22C13.81,310.62,13.41,311.18,13.72,312.31Zm2.54,6.76-.85-2a3.91,3.91,0,0,0-.84-2l-.38,1.69A2.16,2.16,0,0,0,16.26,319.07Zm2.3,11.33a3.67,3.67,0,0,0-1.64-.9l-.19,2.07H19A1.12,1.12,0,0,0,18.56,330.4Zm4.51-12.74a3.06,3.06,0,0,1,.61-.79,1.52,1.52,0,0,0,.47-1.27,1.58,1.58,0,0,0-1.41.09l-1.6,1.5a2.05,2.05,0,0,0,1.79.94C23,318,23,317.79,23.07,317.66ZM22,296.05a1,1,0,0,0,.94.28v-2.07A1.91,1.91,0,0,0,22,296.05Zm.94-3.85V291a1.16,1.16,0,0,0-.47-.94v2.16Zm.75-8.37v-.75h-.75Zm1.6,41.73.94-.75a1.54,1.54,0,0,0,.47-.85l-1.32-.66-.94-.28-.75.19-.47,1.22c.13.94.5,1.41,1.13,1.41A2.2,2.2,0,0,0,25.28,325.56Zm.19-16.17-.28,1.79L24.9,313a2.36,2.36,0,0,0,1.32,2.16,4.3,4.3,0,0,1,.47-2.63l.75-2.35q0-1.41-2.16-2Zm1.22-24.24-.94-1.6-.47,1.6Zm0,17.48.66,1.13c.12.25.43.31.94.18v-2.53a1.83,1.83,0,0,0-1.32.09C26.59,301.69,26.5,302.06,26.69,302.63Zm-.94,29.22v.94h.94v-.94Zm1.69,6.77c-.06-.25-.11-.45-.14-.61a8,8,0,0,0-.66-1.36,3.41,3.41,0,0,1-.42-2.26,2.1,2.1,0,0,0-.85,1.88l.29,1.6.28,1.6a1.13,1.13,0,0,1-.19.75C26.88,339.84,27.44,339.31,27.44,338.62Zm17.1-7.52c0-.31-.25-.47-.75-.47v2.63h.75Zm5.55-.56a3.17,3.17,0,0,0-.47-.75,1.23,1.23,0,0,0-.94,1.31,1.6,1.6,0,0,0,.47,1.22l.94-.75ZM58,329l-.66-.66a1,1,0,0,0-.75-.28l.94,1.4Zm.75-30.64,2.07-1.13c-1.44-1.06-2.44-3-3-5.82a25,25,0,0,0-.28-3.76c-.19-1.26-.34-2.26-.47-3a4.12,4.12,0,0,0-1.36-3.15c-1-1.16-1.55-2-1.55-2.58a3.05,3.05,0,0,1,.38-1.41c0-.69-.49-1.18-1.46-1.46a3.19,3.19,0,0,1-1.74-.89q0-1.87-3.1-5.36a24.24,24.24,0,0,1-3.2-3.95,36.21,36.21,0,0,0-5.54-2.63l-6.58-2.63a4.2,4.2,0,0,0-2-.56,10.44,10.44,0,0,0-2.92.66l-2.53.56a2.84,2.84,0,0,1-2.54-1.6,5.44,5.44,0,0,1-1.13,2.82,10.24,10.24,0,0,0-1.41,3c.19.31.5.37.94.19a.93.93,0,0,1,1.13-.19.79.79,0,0,1,.56.84,10.07,10.07,0,0,1-.56,1.65,1.27,1.27,0,0,0,0,1.17c-.44,0-.74-.39-.89-1.17s-.55-1.18-1.18-1.18q-1.41.29-1.41,1.32v2.44a2.75,2.75,0,0,0,2.16-.94,1.79,1.79,0,0,0,.94.85l1.13.56,1.51-3,.47-1.7-.19-.84h1.31a1,1,0,0,1,.85.37v1.23a2.45,2.45,0,0,1-.28,1.22,1.74,1.74,0,0,1-.66.66c.25.06.78-.25,1.6-.94l.94.94c.18.56,0,.93-.66,1.12s-.94.38-.94.94l1.6,1.6-.38,3.76.09,3.76.94,5.73-1.12,1.41a1.37,1.37,0,0,1-1.13.47c-.19.38,0,.91.66,1.6l.47-.47c.25-.06.78.25,1.59.94l.1,1.88-.19,1.59c0,.51-.35,1-1,1.41l-2.07-1.22c.56.57.95,1.8,1.17,3.71a5.91,5.91,0,0,0,2,4.19,2.78,2.78,0,0,1,.66,1.59,6.39,6.39,0,0,1-1,2.45,4.58,4.58,0,0,0-.75,3.19l.18,1.51-.28,2.72L28.47,315l.29,2.16a2.94,2.94,0,0,1-1.13.94l-.94.47a3.44,3.44,0,0,1,1.6,1.51,9.41,9.41,0,0,1,.47,2.16l-.1,2.44a4.39,4.39,0,0,0,.57,2.45,2.48,2.48,0,0,0,1.12.65l1.13-.28,1-.56,1.22.09a15.21,15.21,0,0,0,4.74-1A15.16,15.16,0,0,1,43,325a7.66,7.66,0,0,1,2.44.38l5.74-3.95a12.41,12.41,0,0,0,4.23-5.35l.75.75A3.77,3.77,0,0,0,57,317a6.6,6.6,0,0,1,.94-3.57,10.69,10.69,0,0,0,1.22-3.39,2.88,2.88,0,0,0-1.69-2.35l1.6-1.59A2.65,2.65,0,0,0,60,304a10.33,10.33,0,0,0-.66-2.82Zm1.79-7.89-.94,2.06h.47l.47-.94C60.9,291.07,60.9,290.69,60.52,290.51ZM61.37,269l-.1-.94c-.56-.19-.94-.1-1.13.28a1.86,1.86,0,0,0-.09,1.31h.75C61.18,269.64,61.37,269.42,61.37,269ZM67,318.13l-.65,1.6h.47Zm3.48-36.65a1.51,1.51,0,0,0-.56-.37,2.52,2.52,0,0,0-.75-.1c0,1,.31,1.54.94,1.6a5.5,5.5,0,0,0,.23-.56A1.9,1.9,0,0,0,70.48,281.48Zm1.22,24.34-.94-.94-.28.29.75.94Zm4.61-5.54-.66-1.88a1.4,1.4,0,0,0-.85-.75l-1,.56V300a3,3,0,0,0,.94,2.35,1.61,1.61,0,0,0,1.41-.66A1.43,1.43,0,0,0,76.31,300.28Zm165.37,1.31.28-1.31-.75-1Zm119.56,34a9.24,9.24,0,0,0,2.35,4.14,11.24,11.24,0,0,1-2.92-2L358,334.86a2.21,2.21,0,0,0-.47.94A7,7,0,0,0,358,337c.13.22.28.51.47.89a.3.3,0,0,0,.09.19,1.55,1.55,0,0,1-.56,1l-1-1.88a4,4,0,0,0-2.59,1.22,5.5,5.5,0,0,1-2.21,1.41c-.56,0-1.16-.4-1.78-1.22a3.72,3.72,0,0,0,1.22-1.22l.47-2.16a2.59,2.59,0,0,0-.66-.38,2.69,2.69,0,0,1-.47-.19c-.37,0-.75.38-1.13,1.13a2.64,2.64,0,0,1-1.31,1.41,2.21,2.21,0,0,0,.33,1.83,3.51,3.51,0,0,1,.52,1.93c-.57.38-1.07.22-1.51-.47l-.84-1.88.09-.75v-.56c-.13-.94-.22-1.84-.28-2.68a22,22,0,0,0-.47-3,8.15,8.15,0,0,0-.57-3.95l-.75-3.57a4.5,4.5,0,0,1,.42-1.93,4.29,4.29,0,0,1,1.56-1.64l.09-1a.91.91,0,0,0-.56-.84L344,320.2l-.85-2.82a5.34,5.34,0,0,0-1-1.69l-.94.19q-1,0-2.07-1.74T337,312.31l-12.5-.38a2.07,2.07,0,0,0,.85-1.88l-.1-1.13.1-.84,1.69.84,1.6.47c.81,0,1.22-.59,1.22-1.78v-.85l2.91.1a8.51,8.51,0,0,0,2.82-.38,4.13,4.13,0,0,0,2.26-1.6,3.14,3.14,0,0,1-.85-2.35l.19-2.25.28-1.6a3,3,0,0,0-.47-1.6,3.26,3.26,0,0,0-1.41-1.31,8.92,8.92,0,0,0-.75-4.51,16.76,16.76,0,0,1-.75-2.16,13,13,0,0,1-.29-1.6l.29-1.79a4.58,4.58,0,0,1-1.6-2.25L331.26,280l.84-2.44a14.64,14.64,0,0,0,.47-2.45,5.33,5.33,0,0,0-.84-2.72l-1.32,4.32a12.61,12.61,0,0,1-1.22,3.1L324.49,299l-2.72,2.92-1.51-1.51.38,2.45.37,2.44a3.65,3.65,0,0,1-1.22,2.82,2.58,2.58,0,0,0,.85,2.44l2,1.41a6.23,6.23,0,0,0-3.1,2.82,30.24,30.24,0,0,0-2.25,7.33l-1.51-1-.94,2.07-.28,2.34.09,2.45a13.24,13.24,0,0,0,.19,2.44,9.26,9.26,0,0,1-.47,3,5.1,5.1,0,0,1-2.16,2.54l.09,1.78a14.74,14.74,0,0,1-.46,3.81,5.61,5.61,0,0,1-1.79,2.86l-2.26-2.16a9.87,9.87,0,0,0-1.73-1.5,2.47,2.47,0,0,1-1.18-1.88l.28-1.41.28-1.32c0-.5-.37-.9-1.12-1.22a3.09,3.09,0,0,0-.47,1.51l.09,1.88c-1.25,0-2,.28-2.35.84-.06.56.36,1.07,1.27,1.5s1.42.85,1.55,1.23a.26.26,0,0,0-.09.18,3.64,3.64,0,0,1-.85.94l-.37-.47-1.13,1c.25.12.4.56.47,1.31-.57,0-1.13-.65-1.69-2s-.94-2-1.51-2.07c-.19.07-.39.14-.61.24a3.6,3.6,0,0,0-.89.61l1,2.72-.84.29a3.44,3.44,0,0,1-1.7-.66L295,343l-.18-.75a3.4,3.4,0,0,1,1.12-1.88,3.4,3.4,0,0,0,1.13-1.88,2,2,0,0,0-.85-1.32,2.47,2.47,0,0,1,.9-1.46,1.66,1.66,0,0,0,.61-1.73c.37-.32,1-.25,1.88.18l1.5.66a3.07,3.07,0,0,0,.85-.47,5.59,5.59,0,0,0-.75-2.49,2.93,2.93,0,0,0-2-1.36,14.49,14.49,0,0,1,1.55-6.81,20.79,20.79,0,0,1,4.56-5.69,3.21,3.21,0,0,1-1.13-2.44,7.57,7.57,0,0,1,1-3.1,9.63,9.63,0,0,0,1.08-2.92h1.41a2.69,2.69,0,0,0-.52-2.16,4.54,4.54,0,0,1-.8-1.88,2,2,0,0,1,.47-1.31q2.64-1.69,3.76-6.3c.76-3.07,1.69-5.23,2.82-6.48v-2.54c.5,0,1.1.56,1.79,1.69a5.38,5.38,0,0,0,1.5,1.88c.38,0,.78-.69,1.22-2.07a4.35,4.35,0,0,0-.75-2.25l-.75-1.6h1.32c.37,0,.71-.28,1-.85a.78.78,0,0,0-.28-.75l-.75-.66-2.17.47a1.76,1.76,0,0,0-1.63,1.31l.13-1.12v-1.22l.28-1.79a4.36,4.36,0,0,1,1.41-1.5V277.2a5.21,5.21,0,0,0,1.79,1.75,7.12,7.12,0,0,1,2.25,1.5,1.85,1.85,0,0,0,.75-1.22l-.14-.57a4,4,0,0,0-.51-.84l-.66-1.41a2.05,2.05,0,0,1,.38-.85,1.73,1.73,0,0,0-.48-1.69l-.75-1.22a3.08,3.08,0,0,1,.75-.94h.66v1l-.18.94a1.8,1.8,0,0,0,1,.38c.75-.38,1.13-.85,1.13-1.41a2.86,2.86,0,0,1-.14-.61,3.58,3.58,0,0,0-.43-1,3.8,3.8,0,0,1-.47-1.17,5.34,5.34,0,0,1-.09-.89h2.82l-.47,3.19.84.38A1.59,1.59,0,0,0,325,272a2.08,2.08,0,0,0,.57-1.46v-3H324l-2.07.38a1.89,1.89,0,0,1-1.69-.85,7.54,7.54,0,0,0,1.55-2.82,11.17,11.17,0,0,0,.71-3.76,7.45,7.45,0,0,0-.38-2.53c1.38.18,2.07.84,2.07,2a4.5,4.5,0,0,1-.56,1.88l-.19.38.84.93a2,2,0,0,0,1,.19,3.94,3.94,0,0,0,1.13-2.91,12,12,0,0,0-1.23-4.32L324,252.63c.25-1.12.75-1.72,1.51-1.78l1.4.37,1.7.38,1.22-.28c.19.12.34.5.47,1.13v1c.25.38.5.56.75.56a7.93,7.93,0,0,0,1-.84,1.29,1.29,0,0,1-.28-.75l-.09-1.13,1.22-.38a1.79,1.79,0,0,1,1.41.66,5.56,5.56,0,0,1,1.22,2.07l-.66,2.72a1.09,1.09,0,0,0,1.22,0l1.7-1.41-.85-3.19h1.5l1.41-.1a9,9,0,0,1,2.63.47l.38,1-.19,1.78a.77.77,0,0,0-.56.19,1.84,1.84,0,0,0,.56,1.88l1.22-.47c.51,0,.88.31,1.13.94,0,.44-.37.94-1.13,1.5l-1.78,1.23a6.75,6.75,0,0,1,.84,1.17c.19.35.41.78.66,1.32a7.44,7.44,0,0,1,.38,2.86c-1,.38-1.51.88-1.51,1.51a4.07,4.07,0,0,0,1,1.88,3.08,3.08,0,0,1,1.13,2l-.38,1a2,2,0,0,0-.28,1,8,8,0,0,0,.84,2.63,13.76,13.76,0,0,1,1,2.91l1-.19c.69,0,1.19.66,1.51,2a4.42,4.42,0,0,0,.94,2.44c0,.75-.57,1.13-1.7,1.13a1.66,1.66,0,0,0-1.78,1.22,4.41,4.41,0,0,1,1.41,1.5l.37,1.6a9.4,9.4,0,0,1-.75,3l-.66,2.91.29,1.6c.87,0,1.47-.75,1.78-2.26s.88-2.06,2.07-2.06l-.66,1-.19.94c0,.69.66,1.47,2,2.35s2,1.41,2,2-.47,1-1.41,1.79l.38.94a2.73,2.73,0,0,1-.29.56,3.74,3.74,0,0,1-.7.71,2.15,2.15,0,0,0-.71,1c.69,0,1.15.57,1.37,1.69s.83,1.7,1.83,1.7l2-2.73.19,1.13c0,.81-.66,2.05-2,3.71s-2,2.84-2,3.52a3.14,3.14,0,0,0,.94,2.07l2.82-1.5a3.82,3.82,0,0,1-.47-1.41l.29-1.41.37-1.41v1.41a4.24,4.24,0,0,0,.24,1.6,1.58,1.58,0,0,0,1,.84l-1.12,1.51a4.29,4.29,0,0,0-.94,1.78l.18.94c1.32.38,2,1.63,2,3.76s.34,3.42,1,4a4.32,4.32,0,0,0,.94-1.88l.28-2.44-.09-1.6v-1.69l.09-1.88.66.84v12.32a1.65,1.65,0,0,0-1-.47l-1.51,1.78a3.55,3.55,0,0,0-.47,1.22,2.53,2.53,0,0,0,.38,1.23c.25.43,1,.65,2.25.65Zm-57.33-7.8H302.6v1.69a1.93,1.93,0,0,1,.94-.65C303.91,328.72,304,328.38,303.91,327.81Zm1.88-3.47a3,3,0,0,0-.47-.94c-.94,0-1.41.56-1.41,1.69,0,.56.34,1,1,1.22A3.16,3.16,0,0,0,305.79,324.34Zm5.73-20.11h.66V301.5Zm-1.88,3a1.11,1.11,0,0,0,1-.47c0-1.06-.35-1.69-1-1.88Zm-1.31,19.93.84,2.34a1.24,1.24,0,0,0,1-.37,3.07,3.07,0,0,0-.66-1.18A3,3,0,0,0,308.33,327.16Zm.94,6.39.75.84.66-.37v-.66a1.71,1.71,0,0,0-1-.47C309.33,333.08,309.2,333.3,309.27,333.55Zm.75-1.88V331a.69.69,0,0,0-.47-.33.77.77,0,0,1-.38-.14v1.13Zm1.13,7.61a2.59,2.59,0,0,0-1-1.13,2.65,2.65,0,0,0-1.12-.66c-.51,0-.94.38-1.32,1.13a1.73,1.73,0,0,0,.66,2h1.5A1.16,1.16,0,0,0,311.15,339.28Zm1.12-24.06a3.77,3.77,0,0,0-.28-1.31l-.84-2-.94,1.41a3.67,3.67,0,0,1,1,1.6c.19.75.5,1.16.94,1.22A3.44,3.44,0,0,0,312.27,315.22Zm1.6-6.67v-.2a2.83,2.83,0,0,0-.19,1,1.59,1.59,0,0,0,.23.82C313.89,309.68,313.87,309.14,313.87,308.55Zm3.39,1a1.37,1.37,0,0,0-.38-1.13l-.47,1.13Zm0-8.08a18.66,18.66,0,0,0-2.17-2.54,6.74,6.74,0,0,0-1.69-1.31c-.19.44,0,1,.52,1.69a3.1,3.1,0,0,1,.8,1.69,1.27,1.27,0,0,1-.19.85l.56,1.88a1.71,1.71,0,0,0,.94.47,2,2,0,0,1,.19-1.51A2.4,2.4,0,0,1,317.26,301.5Zm2.53-19.17-.47-.19-.19-.19v1.23h.48A.74.74,0,0,0,319.79,282.33Zm2,2.35h1c.38,0,.59-.13.66-.38l-.85-.37-.84-.1Zm1.69,11.09a1.22,1.22,0,0,0-.47-1.13l-.85,1.5A2.07,2.07,0,0,0,323.46,295.77Zm.19-4.32c-.13-.25-.51-.32-1.13-.19a.94.94,0,0,0-.38,1h1.32A1.3,1.3,0,0,0,323.65,291.45Zm3.19-9.5a2.89,2.89,0,0,0-3.38-2v1.32a1.18,1.18,0,0,1,1.69.65c.38.76.78,1.16,1.22,1.23C326.62,283.11,326.78,282.71,326.84,282Zm14.47-17.48.38.66.28-.47.19-.19Zm-1.5,7.71a3.36,3.36,0,0,0,1.22-2.82,5.16,5.16,0,0,0-.19-1.6,7,7,0,0,0-.18-1.78l-2,1.88-.37,1.6A2.89,2.89,0,0,0,339.81,272.18Zm2.35,42-.1-1.22a3.51,3.51,0,0,0-.37-2,1.7,1.7,0,0,0-1.13.94l-.75,1.41a1.16,1.16,0,0,0,.94.66Zm.37-39.94.19-.85c-.25-.31-.44-.53-.56-.66l-.85,2A1.47,1.47,0,0,0,342.53,274.25Zm2.45,9.87a2.13,2.13,0,0,0,.94-2.17l-.85-.28-1.22.38-1.13.28a3.05,3.05,0,0,1,.47,2.07,1.83,1.83,0,0,0,.85,1.78C343.85,285.62,344.16,284.93,345,284.12Zm.94,14.84h-.85v.57h.85Zm4.32,32.71-.56-.85a3.59,3.59,0,0,0-1.13-.28l.38,1.5A1.83,1.83,0,0,0,350.24,331.67Zm1.41-25.09a1.85,1.85,0,0,1-.38-.85l-.09-.85a1.72,1.72,0,0,0-.75-.18v1.88Zm-3.54-30.14a3.06,3.06,0,0,0,.44,1Zm3.16,9.09-1,1h.56A1.09,1.09,0,0,0,351.27,285.53ZM209.2,215.13h.47v-1.31h-.47Zm138.91,61.31a6.2,6.2,0,0,1-.22-1.72v-1.79a5.52,5.52,0,0,0-.47-2.44,2.8,2.8,0,0,0-1.13,1.88Zm-56-7.5.27,1.36A3.47,3.47,0,0,0,292.15,268.94ZM57,312.31h.47V311H57Zm290.38-49.06.1.8A2.62,2.62,0,0,0,347.42,263.25Zm-117.73-72a1.54,1.54,0,0,0,.47-1.12l-.76-1.6a2.63,2.63,0,0,1-.47-1.88,3.79,3.79,0,0,0-.47,1.6,3.92,3.92,0,0,0,.38,1.59A5.55,5.55,0,0,0,229.69,191.26Zm-121,33.65h.66l-.66-.66Zm51.11,43-.1.9A1.76,1.76,0,0,0,159.77,267.9Zm-53.09-29.46a1.79,1.79,0,0,1-.32.23.86.86,0,0,0-.33.33l1,.66a.88.88,0,0,0,.19-.66A2.24,2.24,0,0,0,106.68,238.44Zm207.25,47.64a1.86,1.86,0,0,0-.06.48Zm2.95,39.57v-1.22h-.47ZM107.72,211.56v.75l.47-.18Zm232.47,106.1,1.5,4.89v-1.13l-.38-2.35A1.78,1.78,0,0,0,340.19,317.66ZM85.68,251.78l-1.6,1.6a4.31,4.31,0,0,0-.75,1.79,7.57,7.57,0,0,1-.47-2.16c0-1.13-.34-1.76-1-1.88l-.94.28A5.88,5.88,0,0,0,79,254.6L77.6,255c-.94,0-1.79-.66-2.54-2l-1.88-3.67a6.1,6.1,0,0,0-.8-3.66,9,9,0,0,1-1.08-3.58c-1.37-.37-2.22-1.69-2.53-3.94,0-2.2-.82-3.6-2.45-4.23a9.75,9.75,0,0,0-2-5.64l-3.85-5.54a2.19,2.19,0,0,1-1.65-.1,6,6,0,0,1-1.74-1.41,7.36,7.36,0,0,1-2.72.47,13.46,13.46,0,0,1-3.29-.47l-3.2-.47a6.45,6.45,0,0,0-3.28.94l-.29-.94a3,3,0,0,0-.47-.75c-2.25.56-3.85,2.26-4.79,5.07l-1.31,7.33a9.39,9.39,0,0,1-1.7-3.47l.38.66c.44.18.75.15.94-.1l.56-.94a6.1,6.1,0,0,0-1.08-2.91,6.28,6.28,0,0,1-1.08-2.45c0-.75.66-1.4,2-2a1.68,1.68,0,0,0-.38-1.22,2.94,2.94,0,0,0-1.79.56l-1.69,2.17a5.09,5.09,0,0,1,.66,2.63,7.33,7.33,0,0,1-.09,1.31c-.07.32-.29,1.07-.66,2.26l-.66,3.47a4.8,4.8,0,0,0,2.26,3.86l-2,6.29a9.82,9.82,0,0,1-2.82,4.51,2.45,2.45,0,0,0-1.69-1.59,4.15,4.15,0,0,0-.66.28,11.54,11.54,0,0,0-1.22.8,4.57,4.57,0,0,1-1.88.8,2.56,2.56,0,0,1-1.78-1l-1,1.51H21.5v-.76a3.19,3.19,0,0,1-1.6.66c-.56,0-1.07-.69-1.5-2.06l-.85-2.54,1.5-.66a5.89,5.89,0,0,0-1.45-1.74,2.92,2.92,0,0,1-1.18-2,3,3,0,0,1,.38-1.31l.75-1.79a5.07,5.07,0,0,1,2-1.22,5.66,5.66,0,0,0,1.51.75,2.37,2.37,0,0,0,1.13-1.88,4.88,4.88,0,0,0-.9-2.3,5,5,0,0,1-.89-2.3l.28-1,1-4.6c.37-2.76,1.44-4.26,3.19-4.51l-1.5-2a3.13,3.13,0,0,1-.57-1.78,4.26,4.26,0,0,1,.57-1.69l-1.79-1.88a3.51,3.51,0,0,1-.75-2.07,2,2,0,0,1,.19-1,5.44,5.44,0,0,0,3.94-2l2.26-2.35v-1.5a4.6,4.6,0,0,1,1,.09l1.6.38a1.38,1.38,0,0,0,1.22-.85l.47-1.5.1-1.32a8.9,8.9,0,0,0-.85-3.29l-1.69-4.32,2.44.38a1.19,1.19,0,0,0,0-1.13l-.84-1.32a5.72,5.72,0,0,1,.47-.94l2.25-1.31-1.69-1.69a1.59,1.59,0,0,0-1.69-.57l.37-2.44a14.63,14.63,0,0,1,.19-2.63h.94a2,2,0,0,1-.37,1.31,2.59,2.59,0,0,0,1.41.66,4.31,4.31,0,0,0,2.16-.75l1.69-.85a1.58,1.58,0,0,0,.28-.65l.19-1.23-.85-.37-1.31.84a1.32,1.32,0,0,1-1.69.38l.37-2.54.38-2.63a4.43,4.43,0,0,0-.38-2c.13-.13.47-.19,1-.19.31,0,.62.38.94,1.13l-.66,1.13c-.19.25-.13.5.19.75a5,5,0,0,0,1.73-1.18,2,2,0,0,0,.52-1.36,5.68,5.68,0,0,0-.66-2.07l-.65-2.35a3.33,3.33,0,0,1,.14-1.08,3.6,3.6,0,0,1,.89-1.17l-.09-1.32a1.15,1.15,0,0,0-.76-1l-.75.28-.75.19,3.29-5.45a4.3,4.3,0,0,1,3.76-2.16c0-.94.31-1.44.94-1.51l1.6.47a4.35,4.35,0,0,0,2,.1,4.75,4.75,0,0,0,3.76,2.25,3.74,3.74,0,0,0,1.69-.37c.19.25.15.59-.09,1l-.66.85a2.47,2.47,0,0,1,2,1,4.35,4.35,0,0,1,.66,2.54l-.1,1.88-.09,1.88L52.42,169a1.75,1.75,0,0,0,.37,1.13,3.61,3.61,0,0,1,1.88,1.13l2,3.19L56.27,177a26.56,26.56,0,0,0,.66,5.07l.84,3.57a2.18,2.18,0,0,0,.1,1.37,1.22,1.22,0,0,0,1,1,2.83,2.83,0,0,0,.85-.47l.37-.37a4.89,4.89,0,0,0-.56,2.35,11.63,11.63,0,0,0,.65,3.19l.66,2.82a4.2,4.2,0,0,1-.75,2.54c.69.44,1.22,1.88,1.6,4.32q.38,3.39,1.41,3.57a3.14,3.14,0,0,0,1.88-1h.47l.19,1.13a4.4,4.4,0,0,1-.76,2.39,6.89,6.89,0,0,1-1.78,1.93,2.59,2.59,0,0,0,.66.38,4.7,4.7,0,0,1,.47.18,6,6,0,0,0,1.69-.18c1,0,1.94.78,2.82,2.35s1.53,2.41,2,2.53,1.13-.69,1.88-2.06c0,1.06.81,2.06,2.44,3A3.71,3.71,0,0,1,77.13,220c-.56,0-1.28-.56-2.16-1.69a5.13,5.13,0,0,0-2.07-1.88q-.84,0-2.07,1.5a3,3,0,0,0,.94,1.88l.94,1.32c0,.37-.34.75-1,1.13h-.85a3,3,0,0,0-.65-2.26h-.85l-.28,1.22a3.58,3.58,0,0,0,.47,1.79l1.31,1.22.47-.47a1.77,1.77,0,0,1,1.23,1.41l-.47,1.22-.38,1.22c0,.5.38.94,1.13,1.32,1.06-.19,1.5-1,1.31-2.35a21.8,21.8,0,0,0,1,4.23,21.22,21.22,0,0,0,2.35,4.32l-.38.19c1.07.56,2,2,2.82,4.41s2,3.67,3.38,4.23a10.22,10.22,0,0,0,1.08,4A14.48,14.48,0,0,1,85.68,251.78Zm-66-8-.66-.85-.37.19.84.84Zm5.64-13.35c-.5-.19-.85-.09-1,.28l-.1,1.69h1.13Zm.38-6.67a5.57,5.57,0,0,1-.47-1.88c0-.94-.35-1.44-1-1.5a1.92,1.92,0,0,0-.94,1.59,2.46,2.46,0,0,0,.38,1.22l.75,1C25.1,224.25,25.54,224.09,25.73,223.78Zm3.38,14.94a7.6,7.6,0,0,1-.38-2.72,6.82,6.82,0,0,0-.37-2.73,3.56,3.56,0,0,1-.1.94c-.06.25-.25.81-.56,1.69L27,238.16a1.72,1.72,0,0,0,.19.94l1-.1Zm0-19.83h-.75c-.44.07-.69.5-.75,1.32v1.5h1.5Zm1.5-12.12.57-2.44c-.51,0-1,.34-1.46,1a6.59,6.59,0,0,0-1,2.35,4.09,4.09,0,0,1,.33.56,3.17,3.17,0,0,1,.24.85c.06.37.37.56.94.56Zm1.32,16.82h-.75v5h.75Zm1-6a3.9,3.9,0,0,1-.84-.38,1.7,1.7,0,0,1-.19-.19c-.57,0-.85.22-.85.66s.35.91,1,1.6l.75-.19.56-.56C33.62,218.08,33.46,217.76,33,217.58Zm3.1-33.46a2.19,2.19,0,0,0-.75-1.22,1.13,1.13,0,0,0-1.13-.28v2.63a2.37,2.37,0,0,1,1-.38Q36.06,184.87,36.06,184.12Zm2.07,11.09-.19-1.5A1.16,1.16,0,0,0,37,193a2.05,2.05,0,0,0-.84.76l-.28,1.59a2.07,2.07,0,0,0,1.88.85Zm-.19-35.15a1.33,1.33,0,0,0-.94,1.23l.38.65h.38l.37-.94C38.38,160.57,38.32,160.25,37.94,160.06Zm5.17,2.35h.75v-.47h-.75Zm-3.38,39.85-.47-.38.47.75Zm.66-14.38h-.66v.56h.66Zm.84-4.89.75-1.31a2.56,2.56,0,0,1,1.41-1.32l.85.28v-3.19c-.69-.06-1.22.47-1.6,1.6a1.8,1.8,0,0,1-1.88,1.59l-.37,1.79C40.7,182.81,41,183,41.23,183Zm13.25,25.56q0-2.91-2.72-9.25a62.12,62.12,0,0,1-2.82-7.1,7.68,7.68,0,0,1-.66-2.91c0-1.57-.6-2.35-1.79-2.35a15.14,15.14,0,0,0-1.59,2.44,3.59,3.59,0,0,0-.38,1.6,2.61,2.61,0,0,0,.1.85h1.5c.62.18.94,1,.94,2.35a2.08,2.08,0,0,1-1.41.75l-1.79-.1-.65.66-.1.66a1.18,1.18,0,0,0,1.13,0l.85-.38a1.46,1.46,0,0,1,.65.76c.13.75-.25,1.12-1.12,1.12a2.3,2.3,0,0,0-1.7.57l-.37.94a1.41,1.41,0,0,0,.28.51,4.32,4.32,0,0,0,.85.71,2.74,2.74,0,0,1,.94,1.13c0,.44-.32.75-.94.94a5.92,5.92,0,0,0-1.41.56c.06.31.37.56.94.75a1.31,1.31,0,0,1,1,.57,1.55,1.55,0,0,0-1.36.79,3,3,0,0,1-1.08,1.09,3.92,3.92,0,0,0,1.78,3.85c1.38,0,2.63,0,3.76.09a20.82,20.82,0,0,1,3.34.47A10.18,10.18,0,0,1,53.92,212,12.33,12.33,0,0,0,54.48,208.55Zm4.14-16.35-.38-2.82c-1.25-.62-2.07-2.09-2.44-4.41l-.38-3.67c-.81.32-1.22.75-1.22,1.32a3.83,3.83,0,0,0,.75,1.83,3.83,3.83,0,0,1,.75,1.83,2.2,2.2,0,0,1-.56,1.22L56.36,191C56.61,191.8,57.36,192.2,58.62,192.2Zm.66,2.63c-.19-.31-.51-.34-.94-.09-.26.19-.29.5-.1.94h1ZM315.56,276.5a1.57,1.57,0,0,0,.19.7v-1.64Zm-11.39-12.12a3.18,3.18,0,0,1-.94-2.16,4.2,4.2,0,0,1,.94-2.44l-2.26-1.13a1.83,1.83,0,0,1-.75-1.69c-1.31,0-2,.25-2,.75l1.22,2.25a5.9,5.9,0,0,1,1.32,3,2.29,2.29,0,0,1-.55,1.66A2.43,2.43,0,0,1,303,264C303.64,264.07,304,264.19,304.17,264.38Zm-3,.25,0,0h0ZM107.34,243a4.15,4.15,0,0,0-.37.76c-.19.56-.1.87.28.94.75-.63,1.06-1.1.94-1.41l-.66-.38A.28.28,0,0,1,107.34,243Zm-9.55,4.8a10.18,10.18,0,0,1-3.45.38,6.58,6.58,0,0,0-3.06.75q2.06,1.5,4,6.86c1.49,3.51,3.41,5.45,5.78,5.82l.83.85a.89.89,0,0,1,.1,1h1.13l-.1-.94a1.86,1.86,0,0,0-.37-.94,3.32,3.32,0,0,0,.56-1.87,8.34,8.34,0,0,0-.85-2.82,8.58,8.58,0,0,1-.84-3l.66-1.69-1.53-.57a1.1,1.1,0,0,1-.48-1.41Zm10,86.74a15,15,0,0,1,.76,3.1,3,3,0,0,1-.33,1.46,3.37,3.37,0,0,1-1.18,1.17v1.51a5.29,5.29,0,0,1-1.27-.19,18.62,18.62,0,0,1-2.35-.94,11.11,11.11,0,0,0-3-.94,5.92,5.92,0,0,0-2.16.56L97.49,339a.86.86,0,0,0-1.13-.29,1,1,0,0,0-1.36.15,3.63,3.63,0,0,0-.9,1.45,3.93,3.93,0,0,0-1-2.25,5,5,0,0,1-.85-2,2.26,2.26,0,0,1,.57-1.22l-3-2.91a.86.86,0,0,1,.28-.1,3.88,3.88,0,0,1,1.22-.28c.94,0,1.41-.32,1.41-1l-.28-1.09.38-.18-.85.18a1.67,1.67,0,0,1-1.41-.84l-.75-2.54v-1.6h.38l.09-1.5a19.12,19.12,0,0,0-.87-4.62l-1-3.68a6.79,6.79,0,0,1-1.36-1.79,6.9,6.9,0,0,1-.29-2.17l.23-2.54.34-2.08a4.79,4.79,0,0,0-.21-1.6,3,3,0,0,0-.92-1.7l.56-1.88-.56-2.26v-1.61a2.72,2.72,0,0,1,1.6-2.54v-1.13l-.75-.38a1.55,1.55,0,0,0-1.13.47l-.57.57a14.34,14.34,0,0,1,.85-3.93l.56-3.92a5.38,5.38,0,0,0-.56-2.62l.56-2.05a4.64,4.64,0,0,1,1.66-3.08l1.28,2a2.18,2.18,0,0,0,1.2-.94l.84-1.69c-.18-.56-.75-.85-1.69-.85s-1.53-.15-1.78-.47l.89-1.78a3.7,3.7,0,0,1,1.08-1.32l-.78-.47-1.07.66a2.17,2.17,0,0,1-1.06.66l.47-3.2a9.32,9.32,0,0,1,1.32-3.1l2.46.47a2.81,2.81,0,0,1,2.65,2,12.53,12.53,0,0,1,4.72.85,6,6,0,0,1,3,2.44q.47.94.75,1.65a18.8,18.8,0,0,1,.62,1.88,12.14,12.14,0,0,1,.38,1.69c0,.34,0,.74,0,1.17a34.83,34.83,0,0,1-.61,5.46l-.61,5.16.1,1.51a1.75,1.75,0,0,1,1.12,1.78v2.16c-1.25,0-1.88.57-1.88,1.7l.29,1.88v2.34a11.69,11.69,0,0,1,1,1.18,3,3,0,0,1,.6,1.83,7.68,7.68,0,0,1-1.35,3.38,11.08,11.08,0,0,0-1.56,3.48,2.72,2.72,0,0,0,.66,1.69c.44,0,.75-.31.94-.94a.83.83,0,0,1,1-.84,5,5,0,0,1,.56,2.07l.19,2.81.1,3.86a5.13,5.13,0,0,0,1.12,2.44,4.15,4.15,0,0,0-.84,2.54,9.8,9.8,0,0,0,1.13,3.66c.18.32.5.88.94,1.69a7.17,7.17,0,0,0,.37.66,4.09,4.09,0,0,0,.1,1C107.23,332.86,107.45,333.52,107.82,334.58ZM101.53,295H102l-.1-1c-.12-.31-.25-.47-.37-.47ZM90.91,285a4,4,0,0,0-.33-1.78,2.27,2.27,0,0,0-1.27-1A2.5,2.5,0,0,0,88,283.55c.06.19.12.36.18.52a3.94,3.94,0,0,0,.61.84,3.4,3.4,0,0,1,.71,1.37c0,.56-.41,1.16-1.22,1.78a1.14,1.14,0,0,0,.84.28,1.48,1.48,0,0,0,1.32-.75A13.63,13.63,0,0,0,90.91,285ZM100,295.49h-.47v3.1H100Zm246.74-28.2.29,1a1.85,1.85,0,0,0,.75-1.69l-.19-1.79-.09-.8a4,4,0,0,1-.29,1.36Zm5.51-22.55v.75h.47v-.75ZM18.49,225.09l-.94,1.13a2,2,0,0,0,1.13-.47C18.8,225.44,18.74,225.22,18.49,225.09Zm-1.32,7-1.12-.56-.38,1.69h1.88C17.68,232.71,17.55,232.33,17.17,232.14Zm-2.63,12.31.57-.65.56-.85c-.06-.31-.56-.47-1.5-.47a1.42,1.42,0,0,0-.57,1.13A.92.92,0,0,0,14.54,244.45Zm-6.18,11H7.42v.47h.94ZM0,262.88l2.35-.66H1.6Zm26.38-64.19.47-.19.47-1.32-.47-1-.47,1.32C26.13,198.22,26.13,198.63,26.38,198.69ZM14.17,247.46h.56c.13,0,.28-.12.47-.38l.09-.75H14.17ZM158,171.34v-3l-.84,2.16C157.14,170.87,157.42,171.15,158,171.34Zm-4.23-6.3-1.59.66,2.35-.66Zm6.77-6.76h-.94v.47h.94Zm-73.85,71.8H86v.46h.66ZM63.08,199.39a6.69,6.69,0,0,0,.05-.89l-.57-.47.38,2A3.42,3.42,0,0,0,63.08,199.39Zm31.58-39.23a1.54,1.54,0,0,0,1.26-.66,2.22,2.22,0,0,0,.52-1.41,2.82,2.82,0,0,0-2.07-.85,1.86,1.86,0,0,0-1.36.52,2,2,0,0,0-.52,1.46l1,.47A1.55,1.55,0,0,0,94.66,160.16Zm-5.45,3.76c.37-.13.84.06,1.4.56l1.23.66c.31-.06.47-.47.47-1.22a3.44,3.44,0,0,1-1.18-1.18,1,1,0,0,0-1.45-.42l-.85.94C88.77,163.51,88.89,163.73,89.21,163.92ZM16.8,229h-.38v1.5h.38ZM388,242h1.79v-.47h-.94A1.54,1.54,0,0,0,388,242Zm-14.27,38.06h.56v-.65h-.56Zm29.12-51.87a.85.85,0,0,0,.57.75l.94-1v-1a1,1,0,0,0-.47-.75.9.9,0,0,1-.24,1A5.4,5.4,0,0,0,402.83,228.2ZM375.4,257.9v-2.73h-.47v2.73Zm-16.83-11.85.47-.75h-.47Zm10.25,70.86v-1.13h-.37Zm1.68-69.26a5.77,5.77,0,0,1-2.72-1.41,6.75,6.75,0,0,0-2.82-1.5c-.88,0-1.66.94-2.35,2.81l-2.07-2.91a2.69,2.69,0,0,0-2.44-1.41q-.47-1.12-3.57-3.52t-3.1-4.47a4.34,4.34,0,0,1,.37-1.78L350.49,232c0-.81.56-1.41,1.69-1.78s1.72-.72,1.78-1a4.15,4.15,0,0,0-.28-.66,8.1,8.1,0,0,0-.65-1,2.66,2.66,0,0,0-1.32.38,11.65,11.65,0,0,0-1.88,1.5l-2.07,1.88a5.75,5.75,0,0,1-.56-2.06c0-.76.84-1.48,2.54-2.17a5.46,5.46,0,0,0,3.29-2.53,8.38,8.38,0,0,0,2.34,2.44,10.63,10.63,0,0,1,2.73,2.82l1.69-.75-.19.84a.73.73,0,0,0,0,.85l.76,1a1.45,1.45,0,0,1,1.12-.94l2.92.47a4.15,4.15,0,0,0,2.82,1.79l2.16.47c.18-1.88,1.36-3.1,3.52-3.67a4.66,4.66,0,0,0,3.81-3.66l1,.28a2.54,2.54,0,0,0,1.88-1.22l1.13-1.79.66,1.51.84.75q1.69-1.12,3.67-4.79a22.93,22.93,0,0,1,3.1-4.8,3.8,3.8,0,0,1-.94-2.82,3.34,3.34,0,0,0-1.32-2.91q-.47,1.41-1.41,1.41a2.77,2.77,0,0,1-.84-.19,3.66,3.66,0,0,1-.57-1.5c-.06-.69-.34-1.1-.84-1.22a3.66,3.66,0,0,0-.85.18,2.45,2.45,0,0,1-1.5,1.32c-.19-.06-.39-.14-.61-.23a6.29,6.29,0,0,1-1-.62,4.57,4.57,0,0,0-1.79-.94,12,12,0,0,0-1.22.47,1.74,1.74,0,0,0-1.59-1.5l-1.6.19c-.69,0-1.29-.47-1.79-1.41l-1.31.38a4.11,4.11,0,0,1-2.16-1.13,4.57,4.57,0,0,0-1.7-1.22c-.5,0-1.12.47-1.88,1.41a1.31,1.31,0,0,1-.56-.94,5.69,5.69,0,0,1,.47-.94l.47-.94c-.13-.13-.22-.19-.28-.19a7.73,7.73,0,0,0-1.13-.47l-1.69.75h-1.6l-.56-3.19a3.38,3.38,0,0,0-1.69-1.88l-.76,3.28-1-1.55c-.35-.53-.85-1.2-1.51-2a3.06,3.06,0,0,0-2.49-1.22l-1.31.28-2-4.79a2.28,2.28,0,0,1,.47-1.5l-2.72-.47a.94.94,0,0,0-.38-1.32,2.46,2.46,0,0,1-.75-.28l-.19-.19H344a1.22,1.22,0,0,0,.85-1.31c0-.32-.28-.63-.85-.94a1.47,1.47,0,0,1,.47-1l2.26,1a1,1,0,0,0,.56-.94v-1.32L344,180.83l-1.31,1.79c-.57-.19-.88-.69-.94-1.51v-1.5a3.62,3.62,0,0,0,2.25-2.26,1.8,1.8,0,0,1,.33.47,5,5,0,0,1,.33,1.09c.13.53.57.86,1.32,1l.47-2.25.37-2.07a4.49,4.49,0,0,0-1.31-3.29l-1-.47L343.25,173l-.56-.19,5.82-3.57a20.51,20.51,0,0,1,5-2v-1a2.24,2.24,0,0,0,1.59.75,5,5,0,0,0,1.84-.8,9.18,9.18,0,0,1,2.11-1,2.08,2.08,0,0,1,1.32.75c0-.56.48-1,1.45-1.41a3.23,3.23,0,0,0,1.83-1.31l1.7,1.22q0-2.91,3.66-3.38,3.48,0,4.42-1.88c.69,0,1.22.62,1.6,1.88.18,1.06.75,1.59,1.69,1.59-.19-1.87.8-3.38,3-4.51s3.43-2.47,3.8-4c0,1.13.47,1.76,1.41,1.88l2-.37,2-.38.94.19,1-.94a2.55,2.55,0,0,1,1.79-.85l-.38,1.32-.37,1.41c0,.44.4.69,1.22.75.94.25,1.81-.23,2.63-1.46s1.69-1.73,2.63-1.55a5.17,5.17,0,0,0,1.46,3.15,5.78,5.78,0,0,1,1.55,2.87,3.81,3.81,0,0,1-.75,2.06l-1.32-.37q-.84,0-2.82,2.07a4.14,4.14,0,0,1-3.85,1.59L372.85,173c-5.26,1.94-8.17,3.14-8.74,3.57a4.25,4.25,0,0,0-2,2.45,24.79,24.79,0,0,0,4.79,7l3.95,4.33v.75l-1.88-.56-1.78-.29-1.13.29a1,1,0,0,0-.57,1,1.62,1.62,0,0,0,.38,1l2.26-.28a20.92,20.92,0,0,1,5.92,1.32c1,.25,2.14.51,3.43.8a14.9,14.9,0,0,0,2.67.42l-.75.75,2.07,2a2.38,2.38,0,0,0,1.41.57,3.63,3.63,0,0,1,.66-.14,3,3,0,0,0,.94-.33l1.78-2.26q1.69.57,3.39,3.39l1.87,2.91c.19-.19.38-.39.57-.61a8.88,8.88,0,0,0,.66-.9c.56-.93,1.25-1.22,2.06-.84-.18,1.31.55,2.46,2.21,3.43s2.59,1.93,2.77,2.87l1.32-1.7c-.19-.06-.34-.34-.47-.84l-.09-.94h2.06V204a5.29,5.29,0,0,0,.38,2.26c.25.5.88.78,1.88.84-1.69.5-2.54,1.32-2.54,2.44a8.71,8.71,0,0,0,1.13,3,8.47,8.47,0,0,1,1.13,3.25,2.56,2.56,0,0,1-.75,1.88,8.76,8.76,0,0,1,.47,1.88,5,5,0,0,1-.47,2.25,6.33,6.33,0,0,1-1,2.16l-.75-.28a1.81,1.81,0,0,0-.94-.19l-.75.85v.66q.28.66.75.75l1.69-.75-2,2.25a6.12,6.12,0,0,0-1.5,4c-.44,2.13-1.93,3.47-4.47,4s-4.09,1.7-4.65,3.52a11.42,11.42,0,0,0-2,.14,5.89,5.89,0,0,0-1.51.52A9.57,9.57,0,0,0,384,242a4.78,4.78,0,0,1-.57,2.16l-1.22,1.88a2.29,2.29,0,0,0-2.07-1.31,9.3,9.3,0,0,0-3.19,1.17,9.33,9.33,0,0,1-3.2,1.17,3.63,3.63,0,0,1-1.59-.56A2.12,2.12,0,0,1,370.5,247.65Zm30.08-29.32h.56l.47-.38v-.37Zm-10.81-56.86.47.75v-.47Zm-16.92,5.83.29.94c.56-.06,1.08-.56,1.55-1.5a3.26,3.26,0,0,1,1.45-1.7l-1-.18a2.26,2.26,0,0,0-1.6.75A4.27,4.27,0,0,0,372.85,167.3Zm-23.3,7.24h-1v.56h1Zm15.79,13.62c.25-.25.37-.44.37-.56l.19-1.22a2.88,2.88,0,0,0-.33-1.7,1.34,1.34,0,0,0-1.17-.28v3.76ZM380,207.52c-.07.32-.13.63-.19.94s.12.38.19.56Q380.38,207.9,380,207.52Zm1.69,28.66h1.41a1.91,1.91,0,0,0,1.41-.47,2.61,2.61,0,0,0-.94-1.45,2,2,0,0,0-1.88-.33Zm-18.61,2.54h-1.22a3.06,3.06,0,0,0-.94,1.32,2.36,2.36,0,0,0,1.13.37C362.74,240.35,363.08,239.79,363.08,238.72Zm7.53,101.12c.06.69.5.94,1.31.75v-2.72A2,2,0,0,0,370.61,339.84Zm5.41-1.43a1.35,1.35,0,0,0-.15-.54A2.84,2.84,0,0,0,376,338.41ZM197.26,304.88c-.56-.18-1.22.11-2,.9s-1.44,1.08-2.07.89l-.84-2-3.57,2,.75,1.22A3.27,3.27,0,0,1,190,309l-.38.75-2.35-.19a2.4,2.4,0,0,0-1.45.33c-.29.22-.49.86-.62,1.93a2.07,2.07,0,0,0-.93,1.78,2.7,2.7,0,0,0,.18,1.13l.57,1a8.83,8.83,0,0,1,.75,2l.37,2.82-.09,1.88v1.78a1,1,0,0,1-.75-.09l-.57-.75.1-1.88a1.15,1.15,0,0,0-.75-1.22,3.67,3.67,0,0,0-2.92,1.5,6.8,6.8,0,0,0,1.7,3.57l1.87,2.44-.46.94h-.66l.47-.94-1.51-.37a2.53,2.53,0,0,0-1.31.28,2.9,2.9,0,0,0-.94,1.22c.12.25.56.41,1.31.47,0,.5-.5,1-1.5,1.6-.94.38-1.41.78-1.41,1.22a1.31,1.31,0,0,0,.42,1,2.1,2.1,0,0,1,.52,1.41,1.41,1.41,0,0,1-1.6,1.6l.57-1.31a1.4,1.4,0,0,0,.09-1.13l-1.5-1.13L175.18,335a4.74,4.74,0,0,0-.85,2.91l-4.41,2a11.85,11.85,0,0,0-3.86,2.45V341a1.34,1.34,0,0,0-.47-1.13c0,.57-.5,1.19-1.5,1.88a4,4,0,0,0-1.79,2.16,1.28,1.28,0,0,1-1.59-.18,1.52,1.52,0,0,1-.38-1.41,1.8,1.8,0,0,0-1.74.32,3.57,3.57,0,0,0-1,1.27v.85l-1.51.09-3.57-.28-3.48-.28-1.69.09a5.15,5.15,0,0,0-2.16.66q-1.41-1.41-5.4-2t-5.59-2.26a38.69,38.69,0,0,1-7.9-4.09,8.26,8.26,0,0,1-3.19-5.78l-3.2-3.75-.37-2.26a.87.87,0,0,0,.65-.19,12.28,12.28,0,0,1-3-4.41,16,16,0,0,1-1.13-5.64v-1l.19-.94-.75-2a2.16,2.16,0,0,0,1-.66l1-1.13a.55.55,0,0,0-.28-.84l-1-.75-.75.94v-6l.75.47a3,3,0,0,0,.84-.47l.94-.94c-.69.07-1.22-.31-1.6-1.13-.12-.5-.2-.82-.23-1a1.54,1.54,0,0,0-.23-.52,4.06,4.06,0,0,1,3.57-2.91,10.35,10.35,0,0,0,2.25-3.48l1.32-3.66a2.88,2.88,0,0,0-2.92-1.79v-.66l1.51-.19,1.13-.28c.5,0,.75.38.75,1.13a5.94,5.94,0,0,0,.94.75c.06,0,.12.07.18.19a2.7,2.7,0,0,0,.57-1.41,5.07,5.07,0,0,0-.66-1.88l-.56-1.78.18-.94c.38,0,.65.29.8.89a.82.82,0,0,0,1.18.61,5.42,5.42,0,0,0,.75-2.35l.56-2.26a10.84,10.84,0,0,0,1.88,2.64,5.76,5.76,0,0,1,1.7,3.57c.37.18.9,0,1.59-.66l-.94-2.63a10.23,10.23,0,0,0-1-2.73l.19-.19a12.77,12.77,0,0,0,1.22-1.4c.75-.94,1.38-1.41,1.88-1.41a1.35,1.35,0,0,1,1.13.75,1.58,1.58,0,0,0,.75-1.13l-.28-1-.19-1,.19-.75a2.68,2.68,0,0,0-2.92-1.32v-4.69l2,.75a4.28,4.28,0,0,1,.42-.19,1.69,1.69,0,0,0,.52-.38.79.79,0,0,1,.18-1l.94-.47.47,1a.71.71,0,0,0,1,.47v-1.88a17,17,0,0,0-.33-3.57,4.34,4.34,0,0,0-1.65-2.53,2.16,2.16,0,0,1,.94.18l1.32.29a1.43,1.43,0,0,0,1-.47l.38,1.31a5.81,5.81,0,0,1-.47,1.88l-.38,1.5a2.67,2.67,0,0,0,.94,1.79,2.83,2.83,0,0,0,1.69-1.36,4.35,4.35,0,0,0,.66-2.31,6.34,6.34,0,0,0-.19-1.87l-.18-.94c-1.13-.38-1.7-1.35-1.7-2.92l.38-1.78.85,2.44a4.11,4.11,0,0,0,1.12,2,4.53,4.53,0,0,0,1.88-3.85l0-.29h-.12a2.19,2.19,0,0,0-.85,2.07l-.28.1a1.9,1.9,0,0,1-.66-1.32,1,1,0,0,1,.38-.85l.56-.47a2.12,2.12,0,0,0-1.31-.75h-1.32c-.19-1.75-1.24-3.87-3.15-6.34a19.25,19.25,0,0,1-3.43-5.78l-16.82-22.93a6.33,6.33,0,0,1-2.63-2.4,5.09,5.09,0,0,0-3.19-2.3l-1.32.28.19-1.22a4,4,0,0,0-1.08-2.72,9.67,9.67,0,0,0-3-2.17,2.27,2.27,0,0,0-1.69,2.35,1.52,1.52,0,0,0,.37,1.13,4.52,4.52,0,0,1,.85,2.82l-.19,1.6a4.21,4.21,0,0,1-.19,1.5l-1-.37c-.38,0-.72.28-1,.84a2.14,2.14,0,0,1,.85,1.6,4.37,4.37,0,0,1-.56,1.69,4.32,4.32,0,0,0-.57,1.79l.28,1.22a5.61,5.61,0,0,0-2,1.88,4.42,4.42,0,0,0-.61,2.25l.38,2.45.37,2.72a4.57,4.57,0,0,1-.37,1.88,1.79,1.79,0,0,0,2-.89,4,4,0,0,1,1.6-1.46,7.8,7.8,0,0,0-.61,2.21,24.32,24.32,0,0,0-.24,3.81c0,3.13-1.12,4.7-3.38,4.7.06-.25-.25-.79-.94-1.6-.94,1.25-1.82,1.88-2.63,1.88a5.58,5.58,0,0,1-2.21-1.13,7.8,7.8,0,0,0-2.68-1.32,4.29,4.29,0,0,0-1.78.57,2.34,2.34,0,0,1-.38.94l-.37.47a1.88,1.88,0,0,1-1.23-1.88l.19-2.45a1.91,1.91,0,0,0-.37-1.22,5.36,5.36,0,0,0-.19-1.59v-1.23c0-.62,0-1.36.09-2.2a21,21,0,0,1,.38-2.68l1.13-5.64a9.48,9.48,0,0,1-.94-3.95l.28-2.82.28-2.63-.09-1.13a1.78,1.78,0,0,0,1.69.66,1.53,1.53,0,0,0,.37-.52c.06-.15.13-.29.19-.42a1.72,1.72,0,0,0-.23-.47,10.94,10.94,0,0,0-.85-.84,1.92,1.92,0,0,1-.7-1.41l-.47-9.59.65,1c.13.13.47.16,1,.1a1.4,1.4,0,0,0,.94-1.32,3.16,3.16,0,0,0-.47-1.69c-1.45,0-2.16-.78-2.16-2.35l.28-1.6.84-1.5.94-1.69.28-2.26-.28-2.53L90.9,185l2.63-.66a2,2,0,0,1-.75-1.6,4.31,4.31,0,0,1,.75-2.16,6,6,0,0,0,.61-1c.09-.22.17-.42.23-.61,0-.5-.69-.75-2.06-.75a2.49,2.49,0,0,0-.94,1.69,3.56,3.56,0,0,1-.47,2.26l-.29-1.41a6.78,6.78,0,0,1,.9-2.63,11.09,11.09,0,0,0,1.08-3l-.28-1.41.84-.56.75-.76c.19-.37-.12-.94-.94-1.69a1.91,1.91,0,0,1-1.5,1.32l-1.22-.38v-.94a1.23,1.23,0,0,1,1.13.47,2.89,2.89,0,0,0,2.39-1.64,8.64,8.64,0,0,0,.61-3.53v-2.06c-.18-.07-.34-.44-.47-1.13l.76-.1h.56l1.41.1L98,163a3.3,3.3,0,0,0,1.31-.19l-.94-1.5L98,160.16c0-.38.28-.75.84-1.13a3.19,3.19,0,0,0,2.26,1,2.8,2.8,0,0,0,2.44-1H104l-.75,1.6a2.21,2.21,0,0,0,.75.75c1.94-.19,4.12,1.07,6.53,3.76s4.06,4.17,4.93,4.42l.66-1.41a6.46,6.46,0,0,1-2-1.6,5.3,5.3,0,0,1-.66-2.45l.09-.94,1-.47a4.28,4.28,0,0,1,.47.33,5.32,5.32,0,0,1,.66.71,2.3,2.3,0,0,0,1.78.66,6.2,6.2,0,0,1,2.07-.85l1.88-.28a22.73,22.73,0,0,1,3.85.56l3.67.57a10,10,0,0,0,2.06-.19,3.52,3.52,0,0,0,1.51-.75l2.35,2.91a6.68,6.68,0,0,0,2.35,1.79l1.12-.29c.57,0,1.29.82,2.17,2.45s1.69,2.35,2.25,2.53c.63.44,1,1.57,1.22,3.39,0,1.69.44,2.53,1.32,2.53a4.25,4.25,0,0,0,1.69-.56v-1.69c1.69,0,2.71.55,3.05,1.64a12.42,12.42,0,0,0,1.09,2.59l-.94-.38a2.15,2.15,0,0,0-1.32.66l-.75,1.13v2a2.34,2.34,0,0,0,1.22,2.26l.75-.38.66-.56v-1.13a1.57,1.57,0,0,1,.66-1.5l.19,1.41c0,1.12-.8,2.06-2.4,2.81s-2.4,1.67-2.4,2.73a4.21,4.21,0,0,0,.19,1.5l.19,2.07a8.49,8.49,0,0,1-1.22-.56,1.4,1.4,0,0,0-1.13-.1l-.85-1-.18-1.32a11.38,11.38,0,0,1,1.12-3.66,11.38,11.38,0,0,0,1.13-4,3.74,3.74,0,0,0-.94-2.63c-.44.18-1,1.16-1.78,2.91-.57,1.69-1.26,2.54-2.07,2.54a3.74,3.74,0,0,1-2-.94l-.65.94q1,.09,1.59,1.59l1.13,3-.37,2.63V194l.09,1.31a5.75,5.75,0,0,1-.38,2.49,3.26,3.26,0,0,1-2.06,1.18,3.08,3.08,0,0,1-.47-1.5v-1.41c-.07-.32-.54-.66-1.41-1l-1.6,2.82a4.45,4.45,0,0,1-3.29,2.82l-1.13.94c-.56.38-.84.72-.84,1a2.89,2.89,0,0,0,.47.76l-5.08,1.78c-.75.19-1.41.35-2,.47a8.43,8.43,0,0,1-1.88.19l-2.26-.28-1,.94c0,1.12.88,2,2.63,2.63,1.69.44,2.57,1,2.63,1.78a4.47,4.47,0,0,1-.56,1.88c.75.32,1.35,1.4,1.78,3.25s1,2.8,1.6,2.86a3.66,3.66,0,0,0,2-.94c.18,1.07,1.47,2.49,3.85,4.28s3.69,3.4,3.95,4.84l2.63,2.54-.57.47c1.32-.19,2.16.48,2.54,2a3.65,3.65,0,0,0,2.16,2.86v2l2.82.18c.19,1.69,1.44,3.61,3.76,5.74s3.48,4.19,3.48,6.2c-.19,1.13-.63,1.72-1.32,1.78l-1.31-.47-1.51-.47c-.63,0-1.13.54-1.5,1.6a6.78,6.78,0,0,1,.47,1.88,2.28,2.28,0,0,1,0,.26,4.6,4.6,0,0,1,1,0l.09,1.69a1.38,1.38,0,0,0,.85,1.22h1.22a1.67,1.67,0,0,0,1.88-1.32l-.56-.84-.19-.94.28-1.6c.19-.62.5-1,.94-1a2.59,2.59,0,0,1,.47.33,6.62,6.62,0,0,1,.56.51l.94,1.6,1,.28L158,253a4.28,4.28,0,0,1,1.79-.56c.69,0,1.31.56,1.88,1.69l-.38,1.31L160.9,257a1.38,1.38,0,0,0,.75,1.22l3.1-1.32a2.15,2.15,0,0,0-.94-1.13l-.47-.56a5.19,5.19,0,0,1,.19-.52,9,9,0,0,1,.56-1c.81-.19,1.57.31,2.26,1.5s1.34,1.85,2,2a2.81,2.81,0,0,0,1.78-1,2.42,2.42,0,0,1,1.41,2.07,4.73,4.73,0,0,1-1.22,2.44l-1.5,2.16a3.66,3.66,0,0,0-2.82.52,4.72,4.72,0,0,0-1.69,2.4l.28.94a2.32,2.32,0,0,1-.85,1.41,1.6,1.6,0,0,0-.56,1.69L162.3,267a1.78,1.78,0,0,1,.47-1.31,2.68,2.68,0,0,0-1.12-.38h-1.6l-.28,2.58a3.9,3.9,0,0,0-.19-.79l-.38-1.41a1.81,1.81,0,0,1,.57-1.32l1.13-.47.75-.19c.56,0,.94.38,1.12,1.13.32.19.6.09.85-.28a7.74,7.74,0,0,0-1.88-2.21,3.89,3.89,0,0,0-2.44-.8l-1,.19a11.24,11.24,0,0,0-1.78,2.82c-.75,1.63-1.57,2.44-2.44,2.44a4.52,4.52,0,0,1-1.79-.84,5.66,5.66,0,0,0-.56,3.1,3.74,3.74,0,0,1-1.6,3.38l.09,1.22q0,1.69-2.72,4.56t-2.73,4.84l-1.5,1.78a3.85,3.85,0,0,0-.1,1.6c-1.37,0-2.27,1.05-2.67,3.15s-1.37,3.05-2.87,2.87l1.6,1.59c.06-.24.4-.4,1-.47a3.91,3.91,0,0,1-.28,2.45l-1.22,2-.94-.37-1-.1-.47.47a9.38,9.38,0,0,1,1.32,3.38,47.5,47.5,0,0,0,.47,6.21,9.12,9.12,0,0,0-2.16.18q-.75,0-.75,1.41a.75.75,0,0,1-.85.85c-.88,0-1.41.22-1.6.66a1.55,1.55,0,0,0,1.13.75l.85-.28L140,326.31l-.84,2-1.51-.94a1.34,1.34,0,0,1-.56-1,6.14,6.14,0,0,1,.47-.94,8.66,8.66,0,0,0-.85-3.29,10,10,0,0,0-2.06-3.19,2.26,2.26,0,0,0-.76,1.22l.66,1.5a2.64,2.64,0,0,1,.57,1.79c.94.37,1.44.91,1.5,1.59l-.38.85a1.36,1.36,0,0,0-.65.47,2.11,2.11,0,0,0,.65,2,5.32,5.32,0,0,1,1.32,1.6c.62-.19,1.24.22,1.83,1.22s1,1.54,1.27,1.6.75-.28,1.32-.85a4.7,4.7,0,0,0,3,2.45,6.92,6.92,0,0,1,3.29,1.6l2.16.65,2.45.19h1.78l1.88-.09,1.69.09,10.06-4.42,4-4.69a5.55,5.55,0,0,0,1.13-3.2l-.28-1.69a3.75,3.75,0,0,0,.84-2.73l.1-2.16a3.11,3.11,0,0,1-1.41-1.88,14.2,14.2,0,0,1-.29-3.29,7.39,7.39,0,0,0-.61-3.71,3.17,3.17,0,0,0-2.2-1.17,1.41,1.41,0,0,0-.47.84v1.13a2.06,2.06,0,0,0,.93.47l-1.78,1.6a3.49,3.49,0,0,0-1.5-1,6.57,6.57,0,0,0-2-.28h-2.16a2.87,2.87,0,0,1-2-.75c-.07.5-.54.82-1.41.94h-1.22l-.94-1.79a6.06,6.06,0,0,1-2.82,1.51l-3.1.47a4.16,4.16,0,0,1-.38-1.88,2.8,2.8,0,0,0-.75-2.07,4.87,4.87,0,0,1-2.54.94l-1.5-.09h-1.32l1.22-1.41.47-1.32-.18-.84a1.16,1.16,0,0,1,1.12,0l1.6.37c.38,0,.75-.28,1.13-.84a2.24,2.24,0,0,1,1.5-2.54l3.1-1.41a2.42,2.42,0,0,0,1.41.56l1.88-.56a4.25,4.25,0,0,1,1.69-.56,1.86,1.86,0,0,1,1.51.93,3,3,0,0,0,2.44-1.31l-.38-.85-.09-1.12c.38-.13.94.18,1.69.94l2.26,2.34c.37,0,.56-.81.56-2.44a2.12,2.12,0,0,1,1.22-.37h1.88a4,4,0,0,1,1.13,1.5,2.57,2.57,0,0,0,1.41,1.41,1.43,1.43,0,0,0,1-.47v-1.6q0-.84,1.32-.84a2.13,2.13,0,0,1,.66.37l.47.47-1.13,2,.85.57a2.48,2.48,0,0,0,1.12.19l.47-.76a1.82,1.82,0,0,0,.28-1.31l5.74.47a3,3,0,0,1,2.35-.85l1.31.1,1,.09c.43,1.69,1.95,2.84,4.55,3.43S197.26,303.63,197.26,304.88Zm-27.62-46.33.46-.37a3,3,0,0,0-.46-.94Zm-13.54,0h.38v-.65h-.38Zm-5.35,4.23h1.5v-2c0,.44-.3.72-.89.84S150.56,262.16,150.75,262.78Zm-9.39-81.57,1.22-.28c.32-.07.38-.38.19-.94l-.94.28A1.61,1.61,0,0,0,141.36,181.21Zm-4.13,11.46h1.59c0-.75.16-1.22.47-1.41a2.22,2.22,0,0,0-2.06-.65ZM126.7,203.39l-1.6-.76-1.88-.37a2.25,2.25,0,0,0-2,.94,3,3,0,0,0,2.35.84L125,204Zm.85-15.89h-1.41v1.13Zm-21-15.88h.75v-.47a1.3,1.3,0,0,0-.47-.33.49.49,0,0,1-.28-.14Zm-4.23,9.49a4.13,4.13,0,0,0-1.6,2.17h1.22l1.41-.38c.57,0,1.1.52,1.6,1.55s1,1.52,1.6,1.46v-3.1c0-1.82-.6-2.73-1.79-2.73A4.1,4.1,0,0,0,102.27,181.11Zm2.16,13.16v1.22h.47l.75-1.22Zm-3.1-23.59.56-.47-.56-.47Zm-.38,3.76h.94v-.75H101ZM99.26,176l1,1.88a3.6,3.6,0,0,0,.38-1.41C100.54,176.32,100.07,176.17,99.26,176Zm0,7.8v1.6h1.41v-1.13C99.92,184.31,99.45,184.15,99.26,183.84Zm-1.6,47-.84-.75-.38,1.59h.75A3.25,3.25,0,0,1,97.66,230.83Zm.47-33.65h-.47V198Zm0-23.72a6.7,6.7,0,0,0,1.13-2.31,3.4,3.4,0,0,0-.66-1.59,7.59,7.59,0,0,1-.47-2.17c0-1.12-.28-1.75-.84-1.88l-1.32.57a6.63,6.63,0,0,1,1.32,4l-.1,1a2.37,2.37,0,0,0-1.69,2.16l.57,2.17.65,2.06-.28,1a2.09,2.09,0,0,0,.89-.1,1,1,0,0,0,.24-.19l-.38-.94a1.65,1.65,0,0,1,0-1.31A4.63,4.63,0,0,1,98.13,173.46Zm2.16,67.61a3.39,3.39,0,0,0,1.6-1.32l1.13-2.63-1.13-.75Zm1.6-18.7H101v.94Zm0-2.35q0-2.07-1.5-2.16c-1,0-1.51.72-1.51,2.16a9.53,9.53,0,0,0,2.17.75A2,2,0,0,0,101.89,220Zm2.63-6a1.22,1.22,0,0,0-1,.47,1,1,0,0,0,.09.94h1.6v-1Zm1.13-9.68-1.31.56a1.09,1.09,0,0,0-.76.66,1.33,1.33,0,0,0,.43.28l.42.19.75-.85Zm3.48-6.3-.85.47a1.56,1.56,0,0,1-1.13-.47l-.65-1.22-2.92,3.85-2.25-3.1-.75,1.69-.29,1.41A3.25,3.25,0,0,0,101.7,202l2.26.28h1.22q0-1.23,1.83-2.07A3.3,3.3,0,0,0,109.13,198Zm8.64-3a2.61,2.61,0,0,0,2.07-.28l-.19-2.54a6.71,6.71,0,0,1,1.32-3.1,3.82,3.82,0,0,1,3.1-1.13c.56-1.62,2.27-3.3,5.12-5s4.37-3.2,4.56-4.42.63-1.93,1.32-2.11,1.06-.44.94-1.13c-1-.88-3-1.47-5.93-1.79a12.93,12.93,0,0,1-3.47-.42,6.89,6.89,0,0,1-2.54-1.27c-.38-.19-.39-.56,0-1.13s.3-.94-.14-1.12l-1.41,2.06-1.59.38a10.64,10.64,0,0,1-3.76-1.13l-2.64-1.13-.56,3.57-.28,3.58a18.08,18.08,0,0,0,.38,3.85,7.62,7.62,0,0,0-1.41,5,8,8,0,0,1-1.23,4.89,2.88,2.88,0,0,1-2.06-.94c0-.38.34-.79,1-1.23l.38-1.69a4.61,4.61,0,0,0-.38-1.88l-.56-1.59a10.58,10.58,0,0,0-.85,3c-.25,1.69-.94,2.67-2.07,2.92,1.19,0,1.79.78,1.79,2.35a2.61,2.61,0,0,1-.47,1.31h-.47l-.47,3.1a2,2,0,0,1,1.41.66c.44.44.81.5,1.13.19l1.69.37a3.81,3.81,0,0,0,2.91-1.31l2.73-4.14c.18.69.34,1.22.47,1.6A6,6,0,0,1,117.77,195Zm1.88,16.54-.09-1.22c0-.38-.13-.59-.38-.66a1,1,0,0,0-.47.75C118.71,210.81,119,211.19,119.65,211.56Zm28,45.68-.18-.75c-.13-.25-.47-.41-1-.47-.75,0-1,.4-.84,1.22a1.85,1.85,0,0,0,.84.84l1.22.47Zm-2.4-2.83.34.38.22-.26a3.89,3.89,0,0,0-.49-.12Zm-6.05,21.34.84.85.19-.38-.85-.66Zm-16.07,30.92q0-1.12-1.41-1.41a4.23,4.23,0,0,1-1.69-.56l.18,3.1a1.78,1.78,0,0,0,1.7-.38ZM126,290.88l0-.8A1.39,1.39,0,0,0,126,290.88Zm1.5,24.9h-.37l.37.94Zm.43-4.93a1.6,1.6,0,0,0-1.27-.14l.56.85a1.34,1.34,0,0,0,.94.28A.71.71,0,0,0,128,310.85Zm2-9.54c0-.87-.28-1.37-.85-1.5l-.19.84a4.11,4.11,0,0,0,.66,2.26,1.14,1.14,0,0,0,.28-.66Zm3.57-1.13.28-1.69a1.53,1.53,0,0,0-.66-1.12,2.07,2.07,0,0,0-1,.18,2.94,2.94,0,0,0-.1.66,3.68,3.68,0,0,1,.29,1.22C132.33,300,132.73,300.25,133.55,300.18Zm0,24.06a.87.87,0,0,0-.47-.23.73.73,0,0,1-.38-.14v.84A.92.92,0,0,0,133.55,324.24Zm40.6-9.3-.47.84h.65A.71.71,0,0,0,174.15,314.94Zm2.63-2.73-.19-1a.38.38,0,0,0-.19-.38,1.18,1.18,0,0,0-.75.1,2.36,2.36,0,0,0-.56,1.41c0,.5.34.84,1,1l.56-.56Zm6,5.64-.66-.94c-.12-.25-.44-.31-.94-.19l1.6,1.51ZM372.86,284a1,1,0,0,0-.37-.66l.19,1.6ZM72.6,315.5a4.31,4.31,0,0,1-.9,2.16h1.41a3.74,3.74,0,0,1,.57-1.5l.56-1.5a2.42,2.42,0,0,0-.47-1.13A2.52,2.52,0,0,0,72.6,315.5Zm299-13.81.28,1.5.85,1.6a1.83,1.83,0,0,0,.18-.94,7.85,7.85,0,0,0-.94-3.48A2.07,2.07,0,0,0,371.55,301.69ZM5.83,268.52v-3L5,267.67C5,268.05,5.26,268.33,5.83,268.52Z"/></svg>